<?xml version="1.0" encoding="UTF-8"?><svg id="uuid-fa3a4845-915a-46e5-b19f-7804da6e4af3" xmlns="http://www.w3.org/2000/svg" width="338.43" height="507.3" viewBox="0 0 338.43 507.3"><path d="M34.08,442.5c13.16-1.89,22.27-12.64,26.56-24.61,2.3-6.4,3.38-13.28,3.22-20.08-.2-8.21-2.37-16.33-5.06-24.04-6.09-17.44-15.42-33.63-19.58-51.74s-4.18-38.86,1.3-57.21c2.29-7.65,6.15-15.75,13.2-20.09,5.7-3.51,13.76-4.24,19.54-.5,1.44.93,2.65,2.14,3.61,3.56.25.37.84.44,1.08,0,2.91-5.45,4.09-12.39,1.17-18.09-2.35-4.59-7.57-7.18-12.67-6.47-2.65.37-4.98,1.7-6.5,3.92-.13.19-.09.44,0,.63,3.76,7.74,17.88,2.89,16.29-5.5-.05-.25-.35-.48-.6-.46-9.85.71-18.4,6.36-24.23,14.14-6.22,8.29-9.15,18.52-8.7,28.83.53,12.11,5.15,23.69,11.27,34.02,5.78,9.74,12.86,19.22,21.78,26.31s19.03,10.92,30,8.86c11.15-2.09,20.83-9.46,28.53-17.47,14.86-15.47,23.18-36,27.54-56.74,2.23-10.6,3.55-21.43,4.06-32.24.19-4.09-.06-9.16-3.06-12.3-3.56-3.73-8.49-1.8-12.59-.27-2.33.87-4.77,1.67-7.24.9l.28,1.04c4.93-3.92,12.14,1.24,13.09,6.58,1.28,7.19-5.64,13.16-11.68,15.36l.61.16c-3.62-4-.03-9.83,3.86-12.05,5.91-3.38,13.32.34,18.71,3.06,5.96,3.01,12.02,5.66,18.38,7.69s12.97,3.55,19.59,4.66c13.35,2.24,26.91,2.91,40.42,3.15,6.6.12,13.23.29,19.83.09,5.87-.18,11.97-.89,17.2-3.77,4.8-2.65,8.04-7.19,8.8-12.65.67-4.75-.81-9.75-5.13-12.27l-.15,1.14c10.53-2.43,21.96,1.83,28.9,9.99s8.03,20.18,3.52,30c-2.5,5.44-6.53,10.1-11.76,13.07l.92.37c-2.54-7.41-1.19-15.26-.96-22.9.18-5.91-.65-11.77-3.8-16.89-2.6-4.23-6.85-7.59-12.03-7.4s-9.43,4.08-11.54,8.69c-5.98,13.07,4.57,25.11,11,35.61,3.79,6.2,7.06,13.42,5.6,20.85-1.06,5.39-4.4,9.86-8.63,13.25-9.4,7.54-21.32,9.47-32.67,12.24-10.86,2.65-22.8,6.61-28.89,16.75-3.56,5.93-4.39,12.91-5.48,19.6-1.03,6.3-2.25,12.66-6.7,17.51-3.44,3.75-8.88,7.23-14.2,6.1-6.76-1.43-8.15-8.99-8.43-14.83-.72-15.08.84-30.3,4.42-44.96,1.78-7.27,4.06-14.41,6.83-21.36,1.42-3.56,2.98-7.07,4.66-10.52,1.52-3.12,3.08-6.28,5.03-9.16s4.37-5.43,7.53-6.9c2.85-1.32,6.05-1.69,9.16-1.35,6.62.72,12.37,4.47,16.51,9.56,4.39,5.4,7.07,11.99,9.33,18.51,2.61,7.55,4.79,15.24,6.55,23.03,3.31,14.67,5.32,29.85,5.1,44.92-.19,13.05-2.22,26.43-8.13,38.19-2.79,5.56-6.44,10.84-11.05,15.04-3.97,3.61-8.69,6.41-13.7,8.31-9.68,3.66-21.06,4.34-30.66.04-4.65-2.08-8.74-5.35-11.64-9.56-4.13-5.98-5.88-13.23-6.66-20.37-1.51-13.72-.42-27.77,2.74-41.19,3.15-13.42,8.45-26.32,15.67-38.06,3.61-5.87,7.71-11.45,12.25-16.64,3.64-4.15,7.11-8.53,8.65-13.95,1.18-4.16.65-8.68-3.58-10.77-.29-.14-.69-.09-.86.22-5.34,10.23-10.83,21.55-10.66,33.37.08,5.35,1.53,10.54,4.41,15.06,2.55,4,5.85,7.43,8.8,11.12,3.33,4.15,6.29,8.83,5.98,14.36-.03.52.72.86,1.07.44,7.83-9.35,6.25-23.67-1.18-32.77-3.93-4.81-9.41-7.73-15.59-8.35-7.03-.71-13.86,1.76-19.59,5.72-13.33,9.23-21.02,24.31-27.72,38.58-8.3,17.69-15.43,35.91-21.86,54.36s-12.28,37.4-17.93,56.25c-1.42,4.73-2.84,9.45-4.23,14.19-.59,2.03-1.15,4.22-.51,6.31.44,1.46,1.39,2.66,2.59,3.58,2.88,2.21,6.68,2.77,10.16,3.37,4.71.82,9.44,1.52,14.19,2.1,19.3,2.38,38.83,2.81,58.21,1.33,19.21-1.47,38.28-4.8,56.83-10,16.73-4.69,34.06-10.44,47.8-21.45,12.67-10.15,20.21-24.61,23.9-40.22,3.75-15.85,4.02-32.31,3.92-48.51-.14-20.67-.36-41.35-.55-62.02-.09-10.4-.18-20.8-.28-31.2-.08-8.87-.17-17.77-1.32-26.58s-3.24-16.88-7.36-24.41c-3.36-6.15-7.99-11.54-13.52-15.82-10.98-8.5-24.81-12.41-38.46-13.67-15-1.39-29.96.43-44.58,3.78-19.28,4.42-38.24,10.65-57.94,13.03-9.71,1.17-19.6,1.37-29.28-.19-6.33-1.02-13.24-2.67-19.54-.61-2.57.84-4.84,2.46-6.02,4.95-1.81,3.83-.57,7.96,1,11.64,1.86,4.35,3.76,8.66,5.37,13.12s3,8.88,4.24,13.4c5,18.24,7.28,37.11,8.46,55.95.59,9.42.91,18.85,1.14,28.28s.56,19.53.38,29.28-1.03,20.27-3.56,30.09c-2.31,8.96-6,17.49-10.39,25.62-4.38,8.11-9.44,15.84-14.64,23.45-4.76,6.96-9.44,14.07-15.12,20.34-5.2,5.74-11.46,10.93-19.06,13.01-7.06,1.93-14.47.87-20.87-2.59s-11.63-8.9-15.9-14.74c-4.51-6.18-8.14-13.01-11.08-20.06-7.28-17.47-12.78-35.78-16.79-54.26-4.09-18.84-6.54-38.03-7.31-57.3-.76-19,.08-38.11,2.67-56.96,2.26-16.46,5.99-32.8,11.9-48.35,5.89-15.48,14.05-30.23,25.06-42.67,5.59-6.31,11.91-12.55,19.31-16.71,7.56-4.24,16.09-5.16,24.31-2.34,7.95,2.73,14.77,8.19,20.45,14.25s10.41,13.11,14.62,20.31c8.33,14.21,14.38,29.66,18.35,45.63,4.01,16.1,5.93,32.68,6.25,49.25s-1,33.98-3.59,50.76c-2.56,16.59-6.33,33-11.15,49.08-4.44,14.81-9.94,29.4-17.43,42.97-7.29,13.2-16.6,25.56-28.68,34.75-6.08,4.63-12.89,8.55-20.12,11.08-8.14,2.85-17.83,3.86-25.12-1.66-3.54-2.68-6.14-6.4-8.51-10.1s-4.74-7.7-6.89-11.68c-4.31-7.96-8.05-16.22-11.22-24.7-6.36-17-10.48-34.82-12.63-52.83-2.19-18.4-2.31-36.99-.76-55.44,1.66-19.74,5.22-39.29,10.08-58.48,4.79-18.92,10.77-37.59,17.69-55.84,5.79-15.25,13.76-31.34,29.85-37.72,15.72-6.24,33.79-2.4,48.82,3.99,16.4,6.98,31.05,17.48,47.61,24.16,8.74,3.53,17.83,5.66,27.25,6.28,10,.66,20.02-.13,29.98-1.03,20.56-1.86,41.14-3.57,61.67-5.67,3.87-.4,7.89-.99,11.3-3s5.47-5.27,6.83-8.87c1.59-4.21,2.42-8.75,3.38-13.13,1.04-4.8,1.98-9.62,2.81-14.45,3.37-19.48,5.08-39.25,5.13-59.02s-1.57-39.55-4.83-59.04c-.82-4.92-1.75-9.82-2.79-14.7-.97-4.56-1.8-9.3-3.61-13.61-3.11-7.38-9.91-11-17.44-12.57-4.02-.84-8.13-1.17-12.22-1.49-4.86-.37-9.73-.63-14.6-.76-9.9-.27-19.82-.04-29.7.68-19.5,1.42-38.87,4.75-57.72,9.96-14.55,4.02-30.87,8.82-41.37,20.38-5.2,5.73-8,12.83-8.17,20.57-.1,4.85.64,9.68,1.39,14.46.81,5.16,1.63,10.33,2.44,15.49,3.24,20.59,6.49,41.18,9.73,61.78,1.5,9.52,2.62,19.28,5.89,28.4,2.66,7.43,6.96,14.1,12.58,19.63,10.89,10.72,25.83,16.98,40.9,18.7,19.31,2.21,38.73-2.38,56.75-9.04,7.59-2.8,15.8-5.65,22.04-10.99,2.97-2.54,5.3-5.7,6.62-9.39,1.51-4.2,1.71-8.75,1.66-13.17-.12-10.21-.6-20.44-.92-30.65-.32-10.38-.64-20.77-.96-31.15s-.64-20.94-.97-31.4c-.15-4.74-.2-9.5-.48-14.24-.22-3.75-.64-7.56-1.87-11.13-1.14-3.32-3.03-6.38-5.87-8.51-3.4-2.56-7.67-3.52-11.8-4.16-9.88-1.55-19.88-2.54-29.86-3.16s-20.58-.81-30.87-.53c-8.14.22-16.34.56-24.34,2.16-6.82,1.36-13.72,3.63-19.35,7.83-6.18,4.61-9.84,11.2-10.99,18.8-.68,4.49-.68,9.04-.63,13.57.05,5.13.21,10.27.48,15.39.53,10.07,1.51,20.11,2.9,30.09.71,5.08,1.53,10.15,2.47,15.2.78,4.2,1.58,8.44,3.24,12.39,1.48,3.5,3.69,6.6,6.8,8.82s7.02,3.49,10.84,4.14c4.12.71,8.32.82,12.49.89,4.88.07,9.77.01,14.65-.19,9.82-.4,19.61-1.35,29.32-2.84,9.73-1.49,19.39-3.52,28.89-6.09,4.79-1.29,9.55-2.72,14.26-4.29,3.77-1.25,7.71-2.5,10.86-5.01s4.59-6.09,5.09-9.98c.6-4.74.33-9.63.38-14.39.09-10.43.18-20.86.26-31.29.08-9.62.49-19.3.09-28.91-.32-7.76-1.56-15.98-6.34-22.36s-12.14-9.53-19.69-11.05c-8.6-1.73-17.61-1.85-26.36-1.64-19.23.47-38.39,4.02-56.5,10.5-14.52,5.2-29.83,12.39-39.06,25.29-4.96,6.93-7.25,15.14-7.14,23.63s2.28,17.53,5.33,25.7c5.67,15.2,15.19,28.95,27.48,39.54,11.4,9.83,29.49,21.17,44.05,10.83,5.85-4.16,8.84-11.07,6.78-18.11-2.18-7.44-8.4-13.02-13.66-18.36-6.32-6.41-11.73-13.61-15.93-21.59-3.37-6.41-6.7-14.12-4.97-21.52.73-3.12,2.56-5.76,5.42-7.26s6.39-1.28,9.39.11c6.49,3.01,11.27,9.58,14.58,15.7.21.39.88.43,1.08,0,3.33-7.2,7.5-16,16.2-17.49,3.47-.6,7.41.11,9.84,2.84,3.1,3.49,2.43,8.53,1.24,12.65-1.37,4.74-3.36,9.34-5.1,13.96-1.87,4.96-3.73,9.91-5.6,14.87s-3.73,9.91-5.6,14.87c-1.76,4.68-3.73,9.41-4.18,14.43-.41,4.54.69,9.02,4.03,12.26,2.76,2.68,6.76,4.18,10.47,2.67.74-.3.41-1.51-.33-1.21-3.86,1.56-7.86-.45-10.32-3.51-3.13-3.89-3.09-9.06-2.02-13.71,1.19-5.15,3.36-10.09,5.22-15.02s3.79-10.07,5.69-15.1,3.85-10.22,5.78-15.33c1.61-4.27,3.53-8.58,4.09-13.15.46-3.79-.32-7.86-3.36-10.43-2.52-2.13-5.97-2.81-9.19-2.44-9.59,1.09-14.3,10.37-17.92,18.21h1.08c-3.41-6.31-8.36-13.03-15.03-16.15-2.81-1.32-6-1.84-8.99-.82s-5.4,3.17-6.72,5.99c-2.79,5.99-1.15,13.43,1.3,19.24,3.35,7.94,8.08,15.37,13.61,21.96,5.19,6.18,11.82,11.29,16.15,18.17,2.03,3.22,3.4,6.87,3.17,10.73s-2.07,7.21-4.79,9.79c-6.15,5.84-14.92,6.6-22.76,4.21-8.25-2.52-15.65-7.83-22.1-13.43-12.32-10.71-21.85-24.64-27.33-40.02-2.99-8.39-5.1-17.43-4.79-26.38s3.34-16.56,8.84-23.14c10.52-12.6,26.88-19.32,42.12-24.21,18.22-5.84,37.36-8.75,56.48-8.57,8.47.08,17.28.39,25.4,3.03s14.13,7.73,17.08,15.55,2.81,16.18,2.74,24.3c-.09,10.27-.17,20.53-.26,30.8s-.05,20.3-.26,30.45c-.09,4.35-.56,9.01-3.75,12.28-2.95,3.03-7.21,4.37-11.12,5.67-18.55,6.2-37.8,10.31-57.27,12.25-9.72.97-19.5,1.39-29.26,1.27-8.01-.1-17.3-.09-23.94-5.27-6.98-5.45-8.11-15.3-9.53-23.43-1.74-9.98-3.05-20.04-3.92-30.13s-1.32-20.08-1.29-30.13c.03-8.6.94-17.48,6.86-24.19,4.67-5.28,11.26-8.38,17.93-10.27,7.31-2.06,14.88-2.75,22.43-3.11,20.16-.96,40.4-.14,60.42,2.43,4.55.58,9.31,1.01,13.66,2.54,3.96,1.39,7.08,4.02,8.96,7.78,1.73,3.46,2.37,7.39,2.69,11.21.38,4.49.4,9.02.53,13.53.63,20.52,1.26,41.04,1.9,61.56.32,10.3.64,20.6.95,30.91.14,4.55.28,9.19-.76,13.66-.97,4.19-3.1,7.84-6.25,10.76-6.17,5.73-14.79,8.64-22.54,11.49-9.07,3.34-18.38,6.12-27.91,7.79-17.15,3.02-35.11,2.18-51.04-5.34-6.95-3.28-13.39-7.72-18.68-13.32-5.73-6.06-9.71-13.32-12.05-21.31-2.72-9.31-3.81-19.1-5.32-28.67-1.59-10.09-3.18-20.18-4.77-30.27s-3.21-20.35-4.81-30.52c-.79-5.03-1.62-10.06-2.37-15.1s-1.3-9.88-.74-14.82c1.78-15.92,16.29-25.19,29.95-30.57,8.19-3.23,16.77-5.59,25.31-7.73,9.38-2.35,18.88-4.24,28.44-5.67,19.38-2.89,39.06-3.85,58.64-2.87,4.64.23,9.29.53,13.91,1.04,3.81.43,7.64,1.09,11.24,2.45s7.1,3.62,9.32,6.92c2.57,3.81,3.5,8.47,4.49,12.88,4.33,19.26,6.99,38.89,7.99,58.6,1,19.61.35,39.31-1.94,58.81-1.15,9.85-2.73,19.66-4.73,29.37-.93,4.51-1.86,9.06-3.09,13.5-1.1,3.98-2.71,8.08-6.1,10.66s-7.92,3.25-12.09,3.67c-5,.5-10,.92-15,1.38-10.24.94-20.48,1.88-30.71,2.82-9.96.92-19.93,2.01-29.92,2.51-9.93.49-19.97.25-29.68-2.05-17.57-4.16-32.85-14.26-48.64-22.57-14.53-7.66-30.64-13.91-47.36-12.85-7.73.49-15.35,2.72-21.81,7.08s-11.47,10.64-15.31,17.42c-4.04,7.13-6.94,14.83-9.74,22.5-3.34,9.17-6.47,18.42-9.33,27.75-5.7,18.56-10.35,37.46-13.44,56.63C1.12,322.86-.41,341.83.1,360.77c.48,17.78,2.71,35.55,6.97,52.83,4.22,17.11,10.44,33.77,18.86,49.26,2.12,3.91,4.39,7.74,6.79,11.49,2.21,3.45,4.61,6.88,7.74,9.57,6.43,5.51,14.97,6.01,22.9,4.08,7.36-1.79,14.38-5.37,20.65-9.55s11.49-8.82,16.37-14.16c10.12-11.08,17.75-24.25,23.8-37.92,6.28-14.22,10.93-29.11,14.78-44.15,4.11-16.07,7.18-32.42,8.98-48.91,1.8-16.53,2.31-33.22,1.09-49.81s-3.99-32.11-8.87-47.52-11.82-30.13-20.9-43.5c-8.56-12.59-20.92-25.89-36.9-27.8-8.23-.99-16,1.88-22.66,6.58-6.68,4.72-12.57,10.72-17.79,16.99-10.31,12.39-17.98,26.78-23.57,41.85-5.72,15.41-9.33,31.57-11.52,47.84-2.49,18.48-3.34,37.19-2.63,55.81.71,18.84,3.03,37.63,6.9,56.08,3.88,18.47,9.33,36.62,16.32,54.15,5.26,13.21,12.7,26.85,24.46,35.35,5.39,3.89,11.79,6.35,18.5,6.29,7.38-.07,14.18-3.11,19.9-7.64,6.11-4.83,10.99-11.06,15.49-17.36,5.18-7.24,10.21-14.62,14.95-22.16s9.18-15.53,12.62-23.86,5.85-17.57,6.99-26.81c1.21-9.82,1.24-19.74,1.07-29.62s-.37-18.9-.7-28.34c-.66-18.46-1.93-36.97-5.29-55.16-1.68-9.08-3.88-18.06-6.79-26.83-1.43-4.3-3.02-8.54-4.79-12.71s-4.87-9.1-3.68-13.83c1.69-6.76,9.96-7.04,15.59-6.58,3.75.31,7.41,1.14,11.13,1.65,4.63.63,9.3.9,13.97.85,19.24-.19,37.98-5.42,56.47-10.2,15.89-4.11,31.78-7.91,48.28-8.01,13.99-.09,28.47,2.09,40.96,8.69,5.98,3.16,11.39,7.35,15.75,12.54,5.31,6.3,8.78,13.87,10.81,21.82,2.18,8.53,2.83,17.36,3.08,26.13.28,9.75.24,19.5.33,29.25.18,20.55.36,41.1.55,61.65.15,16.99.66,34.14-1.85,51-2.31,15.53-7.45,31.02-18.16,42.84-11.75,12.96-28.45,19.86-44.78,25.07-18.4,5.86-37.38,9.87-56.57,11.98-19.02,2.09-38.24,2.32-57.3.68-4.88-.42-9.76-.96-14.61-1.63-4.54-.63-9.15-1.23-13.63-2.24-3.31-.75-7.62-2.22-8.27-6.05-.43-2.48.7-5.1,1.4-7.44s1.39-4.66,2.08-6.98c5.54-18.56,11.17-37.1,17.43-55.43,6.3-18.46,13.22-36.73,21.29-54.5,6.76-14.87,13.99-30.64,26.94-41.21,5.54-4.53,12.32-7.83,19.61-7.7,6.51.12,12.39,2.89,16.56,7.88,7.12,8.53,8.78,22.35,1.36,31.22l1.07.44c.52-9.44-7.5-16.16-12.75-22.99-3.34-4.35-5.69-9.18-6.27-14.69s.44-11.41,2.13-16.83c2.04-6.53,5.04-12.71,8.19-18.77l-.86.22c5.3,2.61,3.58,8.97,1.49,13.23-2.81,5.71-7.5,10.07-11.36,15.04-8.48,10.91-15.13,23.18-19.72,36.21-4.62,13.09-7.16,26.94-7.37,40.82-.2,12.98.71,28.27,9.94,38.36,6.99,7.63,17.6,10.56,27.69,9.9,10.56-.69,21.07-5.02,28.69-12.43,9.22-8.95,14.38-21.47,16.76-33.91,2.61-13.65,2.21-27.71.64-41.46-1.83-15.97-5.39-31.77-10.73-46.94-4.23-12.03-11.06-25.27-24.8-27.92-6.09-1.17-12.25.29-16.67,4.76-2.33,2.35-4.07,5.21-5.63,8.11-1.78,3.32-3.41,6.71-4.94,10.16-6.17,13.95-10.33,28.75-12.36,43.87-1,7.47-1.48,15.01-1.42,22.55.05,6.12-.3,13.82,4.13,18.67,8.08,8.83,21.14-1.02,24.79-9.34,2.75-6.26,3.04-13.37,4.37-20s3.87-12.76,9.03-17.32c9.18-8.11,22.25-9.88,33.73-12.61,10.54-2.51,22.51-7.16,28.61-16.68,3.3-5.15,4.07-11.32,2.57-17.21-1.81-7.16-6.23-13.22-10.22-19.29s-7.92-12.57-7.76-19.82c.12-5.58,3.02-11.86,8.32-14.26s11.15.54,14.28,5.2c3.63,5.42,4.3,11.73,4.03,18.09-.32,7.37-1.41,14.94,1.05,22.08.13.38.55.58.92.37,9.74-5.53,15.55-16.78,15.15-27.89-.42-11.52-8.01-21.31-18.5-25.72-5.76-2.43-12.17-3.13-18.28-1.72-.53.12-.6.88-.15,1.14,4.21,2.45,5.3,7.53,4.35,12.04-1.11,5.28-4.58,9.17-9.41,11.42-5.7,2.66-12.22,2.92-18.41,2.95-6.72.03-13.45-.05-20.17-.22-13.53-.33-27.11-1.17-40.42-3.73-6.59-1.27-13.1-2.97-19.43-5.22-3.25-1.16-6.46-2.47-9.58-3.94s-6.09-3.13-9.23-4.49c-5.59-2.42-12.37-3.89-17.42.42-3.6,3.08-5.77,8.73-2.21,12.66.14.15.41.23.61.16,5.68-2.07,11.24-6.56,12.47-12.76,1.07-5.39-2.15-10.57-7.28-12.42-2.69-.97-5.56-.64-7.81,1.16-.39.31-.13.92.28,1.04,4.65,1.46,8.81-1.84,13.23-2.65,2.31-.42,4.65.09,6.24,1.91,1.42,1.63,2.02,3.87,2.32,5.97.68,4.87-.06,10.03-.52,14.89-.48,5.17-1.14,10.33-2.02,15.45-3.44,20.13-10.18,40.31-22.92,56.54-6.51,8.3-14.68,15.94-24.28,20.51-5.24,2.49-10.99,3.91-16.81,3.56-5.18-.32-10.18-2.03-14.69-4.56-9.46-5.3-16.85-13.77-23-22.53-6.69-9.52-12.35-20.05-14.93-31.48-2.36-10.46-1.81-21.39,2.94-31.11,4.17-8.54,11.3-16.05,20.47-19.11,2.25-.75,4.57-1.2,6.93-1.37l-.6-.46c1.34,7.04-10.89,10.94-14,4.54v.63c3.33-4.87,10.9-4.11,14.83-.42,5.39,5.07,4.16,13.9,1.02,19.8h1.08c-3.78-5.57-10.74-7.38-17.14-6.35-7.43,1.19-13.14,6.31-16.86,12.64-4.35,7.41-6.3,16.15-7.58,24.57-1.48,9.69-1.75,19.55-.8,29.31.94,9.59,3.05,19.03,6.27,28.11s7,17.13,10.63,25.64,7.03,17.25,8.89,26.37c1.49,7.32,1.7,14.73.28,22.08-2.48,12.83-9.93,26.35-23.04,30.65-1.58.52-3.2.88-4.84,1.11-.79.11-.46,1.32.33,1.21h0Z"/><path d="M42.1,442.6c9.69-10.09,15.32-23.21,17.7-36.88s1.77-28.4-.79-42.31c-3.17-17.25-8.88-33.88-13.76-50.68-2.45-8.43-4.71-16.92-6.34-25.55-1.55-8.15-3.37-17.17.52-24.95,3.18-6.35,9.11-11.05,15.57-13.77,7.98-3.36,16.87-3.8,25.42-3.6,2.16.05,4.32.15,6.49.26.32.02.65-.3.62-.62-.73-8.5-2.03-17.89-8.1-24.4-4.76-5.1-13.22-8.64-19.74-4.64-4.92,3.02-7.88,10.28-4.83,15.57s10.44,4.65,14.54.71c1.98-1.9,3.28-4.57,2.92-7.35-.07-.55-.12-1.38-.59-1.74-.62-.46-1.88-.59-2.62-.72-1.84-.33-3.72-.36-5.57-.12-8.02,1.06-14.55,6.69-18.17,13.71-3.93,7.62-5.01,16.54-5.06,25.01-.05,8.53,1.2,17.07,3.57,25.26,4.73,16.34,13.9,31.43,26.29,43.1,6.38,6.01,13.85,11.18,22.53,13.09,8.13,1.78,16.68.79,24.43-2.09,16.53-6.14,28.04-20.24,35.65-35.65,4.16-8.42,7.39-17.32,9.95-26.35,2.7-9.53,4.68-19.34,5.61-29.2.83-8.85.55-18.14-3.2-26.36-3.12-6.82-9.04-12.33-16.26-14.56-3.33-1.03-6.91-1.28-10.31-.47-3.04.72-7.48,2.58-7.31,6.35.15,3.26,3.34,6.33,5.86,8.05,2.77,1.9,6.06,2.96,9.34,3.59,7.38,1.4,14.93.84,22.38,1.57,9.54.94,18.69,4.13,27.54,7.67s17.19,7.42,26.13,10.15c7.59,2.32,15.58,3.72,23.54,3.52,7.53-.19,15.16-1.91,21.56-6.01,7.48-4.8,11.53-12.56,17.25-19.07s14.6-11.49,22.59-6.2c3.17,2.1,5.45,5.34,7.18,8.68,1.96,3.79,3.36,7.96,4.26,12.13.99,4.58,1.19,9.88-1.61,13.89-2.17,3.1-6.22,5.53-10.08,4.45s-5.71-4.9-7.3-8.17-3.04-6.21-6.11-8.23c-2.39-1.57-5.83-2.58-8.33-.68-1.4,1.06-2.06,2.71-2.33,4.4-.37,2.3-.38,4.7-.44,7.03-.15,5.34,0,10.69.47,16.02.44,4.99,1.16,9.95,1.53,14.94.67,9.08.17,18.97-6.1,26.16-4.78,5.48-12.77,9.48-19.87,6.03-6.27-3.04-8.7-9.98-10.59-16.2s-3.61-13.41-8.1-18.69c-9.5-11.2-26.99-11.89-39.25-5.25-14.27,7.72-23.02,23.13-27.75,38.13s-5.71,32.5-2.65,48.6,10.06,31.73,20.76,44.23c5.45,6.37,12.27,11.13,20.8,11.87,7.89.68,15.95-1.81,22.47-6.2,14.77-9.94,21.16-28.58,24.29-45.29,1.85-9.88,2.54-19.97,2.02-30-.4-7.64-1.61-15.23-4.01-22.51-4.35-13.2-12.87-26.11-26.61-30.73-14.06-4.73-30.67,1.37-38.56,13.89-4.68,7.43-5.83,16.38-6.6,24.95-.82,9.07-1.58,17.99-4.76,26.61-6.17,16.74-17.95,30.57-26.38,46.13-8.8,16.22-13.31,34.29-15.33,52.54-1.04,9.37-1.45,18.8-1.51,28.22-.03,4.79.03,9.59.14,14.38.06,2.35.12,4.7.2,7.04.07,2.01.07,4.08.65,6.02,1.13,3.75,4.41,5.29,8.07,5.7,4.26.48,8.67.26,12.95.28,9.05.04,18.1-.09,27.14-.48,17.78-.78,35.56-2.58,52.99-6.27s33.98-9.19,49.53-17.36c7.72-4.06,15.2-8.71,22.01-14.16,6.6-5.28,12.61-11.54,16.63-19.03,4.46-8.29,5.88-17.66,6.4-26.95.59-10.42.61-20.89.7-31.33.18-21.28-.03-42.56-.17-63.84-.14-21.22-.26-42.45-.41-63.67-.07-9.36-.36-18.97-4.36-27.62-3.21-6.96-8.45-12.8-14.58-17.34-14.69-10.89-33.21-13.4-51.04-13.05-10.32.2-20.63,1.17-30.92,1.96-10.69.82-21.38,1.64-32.07,2.46-10.61.81-21.21,1.63-31.82,2.44-2.7.21-5.41.43-8.11.62-2.49.18-5.04.3-7.48-.33-4.39-1.14-7.45-4.77-10.55-7.83-12.02-11.9-27.95-19.03-44.38-22.35-8.49-1.72-17.2-2.5-25.86-2.37-9.14.14-18.47,1.54-26.49,6.17-7.43,4.29-13.31,10.77-18.25,17.68-5.36,7.49-9.89,15.6-13.59,24.02-7.5,17.06-11.57,35.56-11.84,54.2-.29,20.29,3.65,40.32,7.96,60.05,2.18,9.95,4.47,19.88,6.41,29.89,1.81,9.32,3.2,18.72,4.99,28.05,3.33,17.31,8.26,35.3,20.24,48.76,10.15,11.41,25.37,20.05,41.07,18.01,16.68-2.17,28.73-15.92,35-30.65,3.74-8.79,5.87-18.13,7.71-27.47,2.01-10.25,3.81-20.55,5.41-30.87,3.17-20.49,5.55-41.11,7.12-61.79,1.59-20.87,2.35-41.79,2.29-62.72-.03-10.5-.27-21.01-.71-31.5-.16-3.81-1.38-10.3,3.19-12.09,2.12-.83,4.64-.63,6.87-.7,2.66-.08,5.33-.15,7.99-.23,21.39-.61,42.78-1.23,64.18-1.84,10.65-.31,21.31-.61,31.96-.92,8.52-.24,18.72.64,25.68-5.26,5.82-4.93,7.85-12.97,9.15-20.16,1.8-9.96,3.2-20,4.55-30.03,2.8-20.88,4.89-41.85,6.26-62.87,1.37-21.02,2.02-42.09,1.95-63.15,0-2.56,0-5.13-.06-7.69-.05-2.19-.2-4.44-.95-6.51-1.27-3.51-4.15-5.84-7.52-7.24-3.92-1.63-8.25-2.19-12.43-2.75-5.15-.68-10.33-1.05-15.53-1.14-20.63-.38-41.09,3.45-61.09,8.13-20.48,4.8-40.84,10.15-61.24,15.28-5.14,1.29-10.27,2.58-15.41,3.87-2.65.67-5.3,1.33-7.95,2-2.1.53-4.28.95-6.3,1.77-1.5.61-2.91,1.49-3.79,2.88-1.14,1.81-.99,4.02-.83,6.06.42,5.3.84,10.6,1.26,15.9,1.69,21.28,3.38,42.55,5.08,63.83s2.81,41.14,8.2,61.02c2.11,7.79,4.93,15.64,9.95,22.08,2.51,3.22,5.58,5.98,9.15,7.96,4.01,2.23,8.46,3.49,12.91,4.49,19.96,4.46,40.57,6.51,61.01,6.5,9.27,0,18.81-.06,27.92-1.98,8.12-1.71,15.68-5.39,20.97-11.93s7.81-14.11,9.63-21.89c2.16-9.26,3.42-18.8,4.36-28.26,2.04-20.46,1.84-41.15-.6-61.57-1.17-9.8-2.81-19.57-5.06-29.18-1.83-7.85-4.21-15.64-7.82-22.87s-8.13-13.24-14.34-17.9c-6.77-5.07-14.97-7.65-23.31-8.55-8.78-.95-17.66-.18-26.36,1.11-10.06,1.49-20.06,3.54-29.92,6.03-4.96,1.25-9.89,2.61-14.78,4.13-3.78,1.17-7.53,2.5-11.07,4.28s-6.69,3.92-9.26,6.8c-2.73,3.05-4.51,6.77-5.41,10.76-.97,4.29-1.05,8.73-.92,13.11.14,5.09.42,10.18.64,15.26.45,10.56.86,21.13,1.37,31.69.46,9.55,1.27,19.34,4.88,28.29,2.87,7.1,7.44,13.45,13.13,18.56s12.39,8.94,19.64,11.18,14.87,3.09,21.98,1.04c3.26-.94,6.44-2.57,8.69-5.18,2.36-2.73,3.56-6.36,3.27-9.96-.65-8.07-7.02-14.82-12.24-20.46-3.02-3.26-6.01-6.51-8.65-10.1s-5.01-7.42-7.07-11.4c-4.09-7.9-6.93-16.44-8.41-25.22-.75-4.45-1.18-8.99-1.12-13.5s.76-9.63,3.82-13.25c2.57-3.04,6.77-5.12,10.75-3.85,2.49.8,4.25,2.7,5.4,4.98,2.29,4.58,2.6,9.97,3.77,14.9,1.08,4.54,2.91,9.32,7.39,11.46.38.18.78.03.92-.37,4.18-12.26,17.23-20.49,30.09-19.11l-.62-.62c.09,10.62-1.58,21.2-4.97,31.26-1.68,4.98-3.85,9.7-6.18,14.41-2.18,4.4-4.39,8.88-5.51,13.69-1.02,4.37-.96,8.96,1.09,13.03s5.55,6.83,9.29,9.02c7.51,4.39,16.3,6.42,24.97,6.16,9.77-.29,19.43-3.47,27.24-9.38.63-.48.01-1.56-.63-1.08-13.75,10.39-33.36,12.22-48.76,4.41-3.94-2-7.85-4.62-10.27-8.4-2.58-4.04-2.8-8.86-1.74-13.43s3.26-9.09,5.39-13.39,4.17-8.66,5.79-13.2c3.77-10.6,5.63-21.84,5.53-33.09,0-.36-.29-.59-.62-.62-13.42-1.43-26.94,7.28-31.29,20.03l.92-.37c-4.84-2.3-6.26-7.84-7.25-12.66s-1.46-10.37-4.26-14.63c-3.33-5.06-9.78-5.83-14.66-2.41-6.87,4.82-7.17,14.01-6.7,21.6,1.04,16.6,7.04,32.86,16.98,46.19,4.93,6.61,11.28,12.05,15.95,18.85,2.18,3.18,4.15,6.82,4.41,10.74s-1.19,7.39-3.93,9.95c-5.24,4.89-13.39,5.37-20.14,4.55-7.44-.9-14.62-3.63-20.9-7.69s-11.73-9.49-15.68-15.86c-4.6-7.4-6.72-15.86-7.68-24.45-1.06-9.58-1.16-19.29-1.58-28.91s-1.02-19.67-1.23-29.5c-.18-8.49.81-17.27,7.25-23.45,5.64-5.41,13.42-7.94,20.74-10.12,9.4-2.8,18.92-5.15,28.54-7.06,8.83-1.75,17.77-3.3,26.77-3.77,8.34-.44,16.87.07,24.82,2.83s14.06,7.4,18.98,13.7c9.89,12.66,13.45,29.33,16.24,44.79,3.48,19.32,4.9,39,4.28,58.62-.31,9.78-1.12,19.55-2.45,29.24-1.16,8.44-2.46,17-5.15,25.11-2.45,7.4-6.35,14.6-12.71,19.34-6.75,5.03-15.25,6.82-23.48,7.57-9.38.86-18.89.86-28.3.56-9.83-.31-19.64-1.12-29.38-2.44-4.94-.67-9.86-1.46-14.75-2.39-4.52-.85-9.09-1.71-13.48-3.12s-8.13-3.32-11.43-6.26c-2.86-2.56-5.18-5.66-7.07-8.99-4.19-7.38-6.44-15.76-8.26-24-2.11-9.56-3.38-19.28-4.33-29.01-1.95-19.87-3.27-39.82-4.86-59.73-.8-10.1-1.61-20.2-2.41-30.3-.4-5.02-.86-10.03-1.19-15.05-.15-2.3.1-4.53,2.11-5.95,1.56-1.1,3.48-1.54,5.3-2,19.5-4.91,39.01-9.81,58.51-14.71,19.14-4.81,38.27-9.92,57.8-12.88,9.77-1.48,19.65-2.39,29.53-2.34,4.79.02,9.58.26,14.34.77,4.41.47,8.96.99,13.21,2.3,3.76,1.16,7.47,3.27,8.88,7.16.76,2.11.88,4.38.92,6.61.04,2.42.05,4.84.06,7.25.03,10-.09,20-.38,30-.58,19.91-1.8,39.8-3.67,59.63-1.88,19.94-4.4,39.81-7.57,59.59-1.21,7.56-2.17,15.85-6.56,22.35-2.27,3.36-5.49,5.79-9.37,7-4.2,1.31-8.67,1.36-13.03,1.49-20.14.58-40.29,1.15-60.43,1.73-10.16.29-20.31.58-30.47.87-5.08.15-10.16.29-15.23.44-2.4.07-4.81.09-7.2.21-1.8.09-3.7.33-5.21,1.39-2.89,2.03-2.93,5.94-2.79,9.12.22,4.96.42,9.92.56,14.89.28,9.93.37,19.86.28,29.8-.19,19.78-1.11,39.56-2.77,59.28s-4.07,39.58-7.22,59.23c-1.55,9.69-3.25,19.37-5.2,28.99-1.82,8.99-3.99,18-7.77,26.4-6.4,14.23-18.53,27.38-34.91,28.77-15.31,1.3-29.81-7.52-39.45-18.82-11.32-13.28-15.93-30.87-19.13-47.64-1.68-8.79-3-17.65-4.68-26.44-1.82-9.54-3.98-19.01-6.07-28.49-4.16-18.86-8.11-37.93-8.47-57.31-.34-18.04,2.8-36.01,9.3-52.85,3.21-8.29,7.22-16.27,11.96-23.79,4.48-7.09,9.59-13.95,16.14-19.26,7.09-5.75,15.59-8.65,24.61-9.53,8.44-.82,17.1-.39,25.49.78,16.06,2.23,32.01,7.81,44.83,17.95,3.2,2.53,6,5.42,8.92,8.24s6.01,5.02,10.05,5.53c2.26.29,4.53.12,6.79-.05,2.57-.2,5.14-.39,7.71-.59,5.05-.39,10.11-.78,15.16-1.16,20.02-1.54,40.05-3.09,60.07-4.61,18.44-1.4,37.9-2.69,55.5,4.16,14.39,5.6,27.1,16.69,30.69,32.18,2.17,9.35,1.62,19.23,1.68,28.76.06,10.13.13,20.25.19,30.38.13,20.15.3,40.29.37,60.44.04,10.09.03,20.19-.07,30.28s-.12,19.53-.72,29.26c-.57,9.18-2.14,18.37-6.76,26.45-4.07,7.12-9.93,13.05-16.33,18.1-13.13,10.38-28.54,18.02-44.28,23.54-16.01,5.61-32.71,9.06-49.53,11.13s-34,2.8-51.04,2.86c-4.26.01-8.51-.01-12.77-.07-3.6-.05-8.45.39-11.14-2.52-1.51-1.63-1.77-3.99-1.88-6.1s-.15-4.3-.21-6.45c-.12-4.49-.21-8.98-.22-13.48-.04-17.88,1.02-35.91,5.23-53.34,2.08-8.61,4.93-17.05,8.75-25.05s8.22-14.77,12.8-21.86,9.11-14.03,12.81-21.53,6.12-15,7.2-23.11c1.15-8.64,1.13-17.48,3.29-25.97,1.96-7.68,6-14.45,12.51-19.1,5.91-4.22,13.18-6.53,20.45-6.28,7.01.24,13.76,3.06,19.13,7.53,10.7,8.9,16.03,23.03,18.14,36.43,1.38,8.8,1.43,17.88.68,26.74-.79,9.4-2.6,18.79-5.56,27.75-5.09,15.39-14.97,30.54-31.65,34.57-7.72,1.86-15.89.87-22.49-3.71s-11.86-12.02-16.02-19.01c-8.07-13.57-12.64-29.15-13.51-44.9s1.93-31.75,8.7-46.01c6.42-13.52,17.45-26.93,32.96-29.67,6.85-1.21,14.24-.31,20.4,2.99,3.03,1.62,5.76,3.84,7.84,6.58s3.33,5.67,4.41,8.76c2.13,6.06,3.28,12.61,6.5,18.25s8.55,9.17,14.93,8.58,12.55-5.21,16.07-10.71c4.67-7.29,4.76-16.55,4.08-24.89-.39-4.76-1.07-9.49-1.47-14.25s-.58-9.85-.47-14.78c.05-2.45.07-4.95.39-7.38.25-1.91,1-3.93,2.98-4.6,3.17-1.07,6.82,1.52,8.68,3.88,2.19,2.78,3.15,6.38,5.11,9.32,1.72,2.59,4.22,4.68,7.43,4.92s6.48-1.46,8.67-3.82c2.66-2.86,3.68-6.68,3.65-10.52-.04-4.33-1.25-8.64-2.7-12.68-1.18-3.28-2.66-6.5-4.68-9.35-4.12-5.8-10.62-9.24-17.75-7.07-8.05,2.44-12.99,9.56-17.75,15.98-2.49,3.36-5.12,6.64-8.42,9.25-2.95,2.33-6.33,4.11-9.88,5.32-14.85,5.09-31.19,1.25-45.35-4.19-8.44-3.25-16.67-7.03-25.21-10.04s-16.4-4.76-25.02-5.12c-6.95-.29-14.19,0-20.89-2.12-3.15-.99-6.09-2.63-8.28-5.15-1.29-1.49-3.04-3.82-2.05-5.87.85-1.78,3.04-2.71,4.81-3.29,7.02-2.29,14.7.56,20.02,5.29,6.34,5.63,9.05,13.96,9.68,22.22.7,9.06-.69,18.27-2.42,27.14-1.84,9.45-4.48,18.74-7.87,27.74-5.89,15.65-14.49,31.44-28.49,41.24-6.76,4.73-14.7,8-22.94,8.88s-16.56-.85-23.8-5.13-13.52-10.46-18.86-16.97c-5.2-6.33-9.57-13.36-12.99-20.8-6.86-14.94-9.94-31.94-7.64-48.29,1.07-7.58,3.57-15.5,9.17-20.98,5.12-5.02,12.8-7.82,19.8-5.42l-.44-.44c1.48,4.75-2.72,9.09-7.1,10.15-5,1.22-8.99-2.64-8.81-7.61s3.93-9.75,8.96-10.67c6.04-1.1,12.14,2.4,15.78,7.03,4.9,6.22,5.98,14.61,6.64,22.24l.62-.62c-15.43-.78-33.06-.58-44.34,11.69-2.23,2.43-4.05,5.24-5.22,8.33-1.44,3.79-1.69,7.86-1.38,11.87.67,8.7,2.75,17.4,4.92,25.83,4.43,17.19,10.41,33.94,14.57,51.19,3.57,14.81,5.57,30.02,4.12,45.26-1.35,14.24-5.81,28.5-14.89,39.75-1.1,1.36-2.26,2.67-3.47,3.93-.56.58.33,1.47.88.88h0Z"/></svg>