<?xml version="1.0" encoding="UTF-8"?><svg id="uuid-c22926b8-fe16-43a2-8f6f-59cf207e7956" xmlns="http://www.w3.org/2000/svg" width="233.77" height="632.11" viewBox="0 0 233.77 632.11"><path d="M179.69.29c-10.28,15.48-11.64,34.92-13.43,52.89-2.08,21-3.46,42.08-4.12,63.17-.66,21.1-.62,42.21.14,63.31.37,10.4.81,20.84,1.66,31.21.7,8.53,2.41,17.71,9.2,23.6,5.41,4.69,13.22,6.11,19.05,1.36,4.9-4,7.31-11.22,5.31-17.29-2.11-6.43-8.49-10.53-14.99-11.35s-15.43,2-17.27,9.22c-.95,3.73,1.01,7.09,3.77,9.46,3.29,2.83,7.35,5.02,11.32,6.73,7.64,3.29,16.85,4.5,24-.59,5.8-4.13,9.37-11.61,6.02-18.42s-11.91-10.03-18.83-12.31c-18.56-6.13-38.27-7.54-57.69-7.87-20.85-.35-41.73-.05-62.58.14-10.34.09-20.69.07-31.02.38-7.87.24-16.41,1.09-22.84,6.1s-8.58,12.35-9.39,19.82c-.43,3.98-.44,8-.34,12s.18,7.74,1.4,11.38,3.48,6.37,6.95,7.72,7.72.94,11.43.09c4.71-1.08,9.3-2.78,13.9-4.25,5.08-1.62,10.16-3.24,15.24-4.86s10.16-3.24,15.24-4.86,9.77-3.24,14.76-4.47,9.95-1.88,15.01-1.33c4.8.52,9.45,1.93,14.08,3.22s8.95,2.38,13.58,2.61c3.7.18,7.24-.53,10.57-2.16,5.58-2.73,11.37-8.55,10.51-15.29-.78-6.12-6.45-9.51-12.28-8.94s-11.31,4.51-12.65,10.47c-1.6,7.15,2.16,14.59,7.64,19.06,6.74,5.5,16,6.45,24.38,5.63,9.04-.89,17.99-3.46,26.31-7.04,4.28-1.84,8.42-4,12.36-6.48s7.28-5.31,11.11-7.67,7.76-3.59,12.04-2.53c3.81.94,7.15,3.45,9.48,6.57,5.15,6.89,4.56,15.74.42,22.97-4.49,7.85-12.15,12.99-20.37,16.35-4.3,1.75-8.75,3.09-13.22,4.33-4.79,1.33-9.67,2.86-14.65,3.21-4.48.31-9.03-.49-12.46-3.57-2.85-2.57-4.66-6.37-3.52-10.19l-.44.44c6.91-2.04,13.95-3.8,21.12-4.64s13.9-.82,20.52,1.22,12.4,6.46,15.86,12.6c3.9,6.93,4.87,15.11,5.34,22.92.55,9.27.78,18.57,1.15,27.85.39,9.78.78,19.56,1.17,29.34.18,4.55.66,9.22.29,13.77-.31,3.81-1.68,7.39-4.55,9.99-4.85,4.39-12.12,5.22-18.36,5.68-3.17.23-6.37.21-9.52.62s-6.25,1.19-9.18,2.4c-5,2.06-10.34,5.72-11.36,11.43-.23,1.32-.2,2.62,0,3.94.03.21.25.38.44.44,10.79,3.41,23.16-.62,29.97-9.62.23-.3,0-.86-.37-.92-26.92-3.84-53.93,1.01-80.49,5.28-24.57,3.95-49.89,7.45-74.66,3.06-5.87-1.04-11.66-2.53-17.27-4.56s-11.01-4.39-15.81-7.75c-5.1-3.57-8.63-8.31-10.3-14.34-1.75-6.33-2.18-13.11-2.82-19.62-1.35-13.78-2-27.64-1.92-41.49.03-6.39.12-12.81.61-19.19.44-5.71,1.39-11.58,4.2-16.64,2.83-5.09,7.48-8.55,12.64-11.04,5.55-2.67,11.54-4.5,17.42-6.29,12.62-3.84,25.54-6.7,38.6-8.52,3.31-.46,6.63-.85,9.95-1.18l-.62-.62c-.62,5.98-6.31,9.3-11.23,11.62-2.67,1.26-5.43,2.3-8.1,3.56s-5.28,2.74-7.74,4.39c-9.92,6.66-17.83,16.18-22.92,26.97s-7.41,22.82-6.12,34.65c1.31,12.04,6.45,23.36,14.16,32.65,7.71,9.3,17.93,16.55,29.3,20.66,5.67,2.05,11.63,3.29,17.65,3.61,2.77.14,6.35.52,8.64-1.4s2.26-5.51,2.49-8.26c.93-11.31.94-25.46-9.13-32.96-5.13-3.82-11.81-4.89-16.82-8.9s-6.6-11.24-4.73-17.48c4.11-13.63,21.69-19.11,34.44-16.95,6.73,1.14,13.06,4.45,17.14,10.01,3.72,5.08,5.6,11.73,4.1,17.94-2.8,11.57-18.17,18.04-27.24,9.19-4.08-3.98-5.72-9.83-6.36-15.34-.74-6.31-.22-12.62.24-18.92.31-4.23.62-8.46.93-12.69.24-3.32.96-7.03.05-10.31-.67-2.44-2.7-4.4-5.36-4.09-2.4.28-4.53,2.13-5.31,4.39-2.03,5.87,3.83,11.93,8.82,13.93,2.45.98,5.33,1.4,7.86.45s4.29-3.11,4.76-5.7c1.12-6.16-3.76-11.37-7.99-15.06-4.75-4.13-10.27-9.15-8.02-16.13,2.26-6.98,9.6-10.51,16.49-10.64,7.46-.14,14.97,2.43,21.97,4.81,12.12,4.12,24.61,10.56,29.22,23.35s2.52,27.03,12.63,36.66c8.76,8.34,27.53,14.97,35.74,2.42,3.02-4.61,2.59-10.59-1.95-14.01-1.89-1.43-4.31-2.31-6.7-2.08-1.16.11-2.24.49-3.23,1.09-.82.5-1.69.82-2.23,1.67-1.84,2.89.5,8,4.22,7.17.46-.1.6-.73.28-1.04-3.55-3.47-8.83-8.09-14.04-5.07-1.81,1.05-3.38,2.96-3.4,5.13-.02,1.75,1.07,3.49,2.79,3.99,3.31.95,7.3-2.26,7.52-5.57.29-4.3-4.58-6.53-8.21-6.35-5.18.25-8.67,4.15-10.63,8.65-1.18,2.69-1.92,5.54-2.64,8.38-.85,3.33-1.63,6.67-2.42,10.01-3,12.78-6.07,25.85-12.98,37.17-5.65,9.25-14.48,18.41-25.49,20.72-4.69.99-10.6.64-13.86-3.36-4.11-5.04-1.45-12.24,2.27-16.63,3.96-4.68,9.24-8,13.24-12.64,3.22-3.74,5.77-8.01,7.63-12.58,3.82-9.38,4.67-19.98,2.44-29.85-2.23-9.88-7.69-18.77-15.69-25.02-7.83-6.11-17.56-9.62-27.46-10.24s-20,1.76-28.24,7.35c-8.18,5.55-14.26,13.83-17.68,23.06-3.46,9.32-4.18,19.76-1.49,29.38,3.15,11.28,10.95,20.35,17.91,29.48,3.57,4.69,7.03,9.51,9.67,14.8,3.08,6.19,4.91,12.93,6.11,19.72,2.43,13.7,3.04,27.81,3.15,41.7.23,27.92-2.5,55.74-4.51,83.55s-3.37,55.76-.23,83.5c.74,6.58,1.74,13.14,3.02,19.64.15.79,1.36.45,1.21-.33-5.18-26.39-5.47-53.4-4.15-80.18,1.33-26.94,4.23-53.77,5.42-80.72.6-13.49.76-27.02.07-40.51s-1.58-26.18-5.55-38.48c-1.86-5.75-4.56-11.11-7.92-16.13-3.22-4.82-6.87-9.32-10.38-13.92-6.59-8.64-12.59-17.9-13.88-28.93-2.28-19.47,8.33-40.3,26.59-48.23s41.08-2.54,53.84,12.47c13.08,15.39,13.31,39.45,2.09,55.91-3.18,4.66-7.35,8.15-11.55,11.85s-8.23,8.14-9.07,13.96c-.69,4.78,1.34,9.5,5.78,11.66,4.05,1.97,8.95,1.76,13.19.54,10.1-2.88,18.25-10.97,23.79-19.58,6.71-10.43,10.05-22.5,12.91-34.44,1.49-6.25,2.77-12.6,4.64-18.75,1.49-4.92,4.17-10.67,9.83-11.59,2.14-.35,4.59,0,6.29,1.43s2.25,3.65.94,5.54c-.99,1.43-2.88,2.69-4.69,2.49-2.72-.29-2.73-3.61-1.39-5.34,4.3-5.56,10.82-.17,14.35,3.29l.28-1.04c-2.13.47-3.36-2.06-3.26-3.85.06-1.09.53-1.78,1.49-2.26,1.12-.57,2.04-1.22,3.34-1.37,2.56-.28,5.17.91,6.96,2.69,2.09,2.08,2.86,4.94,2.21,7.81-1.59,7.06-9.02,10.44-15.69,9.99-7.09-.48-14.57-4.08-19.69-8.96-9.99-9.52-7.97-24.45-12.44-36.47-4.35-11.69-15.1-18.3-26.26-22.53-6.45-2.45-13.28-4.71-20.11-5.75s-13.52-.37-18.77,4.12c-4.32,3.7-6.78,9.59-4.47,15.08,2.42,5.75,8.27,8.61,12.1,13.22,2,2.41,3.69,5.53,3.66,8.74s-2.12,5.71-5.15,6.31c-6.02,1.19-13.08-4.1-14.16-10-.56-3.05,1.44-6.73,4.89-6.69,3.68.04,4,4.65,3.88,7.36-.37,8.03-1.22,16.04-1.75,24.06-.66,9.92-.66,22.92,7.44,30.12,8.32,7.39,21.28,3.78,26.75-5.3,6.23-10.34.6-24.07-8.9-30.2-10.81-6.98-26.07-6-36.77.73-5.13,3.23-9.34,8.08-10.73,14.08-1.29,5.55-.24,11.78,3.78,16.01,4.28,4.5,10.61,5.89,15.89,8.79s8.83,7.89,10.38,13.84,1.46,12.14,1.03,18.18c-.2,2.87.13,7.65-2.72,9.32-1.47.86-3.32.8-4.97.78-1.48-.02-2.97-.09-4.44-.22-11.94-1.06-23.42-5.89-32.91-13.14-9.59-7.33-17.32-17.29-21.54-28.64-4.15-11.15-4.64-23.34-1.86-34.88,2.76-11.47,8.59-22.2,16.74-30.74,4.1-4.29,8.8-8.02,13.96-10.96s10.49-4.52,15.46-7.37c4.24-2.43,8-5.87,8.52-10.98.03-.31-.31-.66-.62-.62-13.42,1.33-26.73,3.71-39.77,7.15-6.49,1.71-12.93,3.67-19.26,5.92-5.21,1.85-10.43,4.02-14.75,7.54-9.32,7.59-10.23,19.96-10.63,31.12-.51,14.01-.28,28.04.68,42.02.48,7.07,1.16,14.13,2.01,21.17.73,6,1.52,12.27,4.73,17.53,2.93,4.81,7.58,8.27,12.47,10.92,5.29,2.87,10.98,5.09,16.74,6.82,23.82,7.14,49.3,5.42,73.59,1.95,27.59-3.93,55.21-10.28,83.25-8.49,3.5.22,6.99.58,10.46,1.07l-.37-.92c-6.48,8.56-18.35,12.27-28.56,9.05l.44.44c-1.31-8.72,8.11-13.58,15.17-15.37,4.11-1.05,8.28-1.08,12.49-1.35s8.43-.68,12.47-1.89c3.66-1.1,7.2-2.93,9.61-5.99,3.09-3.92,3.48-8.87,3.35-13.69-.35-12.52-.99-25.03-1.49-37.54-.25-6.3-.5-12.6-.75-18.9-.22-5.38-.34-10.79-.96-16.15-1.08-9.4-3.94-18.94-11.5-25.17-6.55-5.4-15.1-7.17-23.42-7.11-9.19.07-18.31,2.12-27.11,4.63-.73.21-1.9.28-2.3.98-.44.77-.45,2.17-.42,3.03.07,2.05.81,4.03,1.95,5.72,2.63,3.92,6.88,6.08,11.5,6.56,5.77.59,11.53-1.14,17.04-2.64s10.63-2.95,15.72-5.06c9.15-3.8,17.73-9.87,21.94-19.13,1.87-4.11,2.79-8.76,2.07-13.25s-2.99-8.39-6.17-11.39-7.08-4.81-11.31-4.8c-4.99.01-9.3,2.82-13.19,5.65-4.43,3.23-8.93,6.26-13.81,8.79s-10.37,4.75-15.82,6.4c-10.31,3.11-22.27,5.42-32.71,1.64-8.64-3.13-16.37-12.51-13.72-22.15,1.93-7.01,11.1-11.24,17.67-7.81,3.47,1.81,5.28,5.82,4.55,9.64-.79,4.15-3.98,7.58-7.42,9.82-4.01,2.61-8.46,3.65-13.21,3.29-5.7-.42-11.18-2.22-16.66-3.7s-10.89-2.59-16.51-2.19-11.55,2.1-17.13,3.86c-12.13,3.84-24.24,7.72-36.36,11.58-5.37,1.71-10.78,3.83-16.34,4.83-4.96.89-10.54.41-13.6-4.14-2.64-3.94-2.74-9.08-2.86-13.65-.13-4.8-.14-9.65.57-14.41s2.02-9.1,4.73-12.87c2.93-4.09,7.27-6.72,12.05-8.12s9.93-1.73,14.95-1.85c6.1-.14,12.21-.17,18.31-.24,12.65-.14,25.29-.24,37.94-.29s24.56-.17,36.83.05,23.53.82,35.14,2.65c5.79.92,11.53,2.14,17.17,3.75,5.04,1.45,10.21,3.05,14.81,5.62,4,2.24,7.76,5.51,8.79,10.17s-1.23,9.3-4.55,12.46c-8.53,8.12-20.94,4.74-30.04-.49-3.99-2.3-9.84-5.64-9.35-11.04.45-4.95,5.66-8.2,10.08-9.13,8.13-1.72,18.19,2.69,20.25,11.27,1.89,7.9-3.93,17.59-12.51,17.69-4.97.06-9.48-2.84-12.55-6.58-3.57-4.35-5.08-9.97-5.84-15.45-.83-5.99-1.02-12.1-1.35-18.13s-.62-12.52-.84-18.78c-.87-25.05-.74-50.13.39-75.17.57-12.52,1.38-25.03,2.45-37.51,1.02-11.91,1.97-23.92,3.96-35.71,1.74-10.31,4.64-20.56,10.48-29.35.45-.67-.64-1.3-1.08-.63h0Z"/><path d="M177.55,4.21c-5.11,25.49-9.09,51.21-11.89,77.05-2.81,25.87-4.45,51.87-4.92,77.89-.23,13.01-.17,26.02.18,39.03.28,10.08,0,20.8,3.43,30.43,2.64,7.41,8.7,14.76,17.31,14.37,7.82-.35,14.71-6.8,16.89-14.1s-1.33-15.03-8.28-18.39c-6.4-3.09-14.63-2.76-20.62,1.15-3.37,2.2-6.02,5.65-6.92,9.62-1.01,4.49.91,8.61,4.91,10.82,3.73,2.07,8.21,2.55,12.4,2.77s8.82.1,13.09-.86c3.84-.87,7.72-2.55,10.29-5.64,2.81-3.39,3.61-7.86,2.48-12.09-2.85-10.73-13.99-14.76-23.77-16.68-25.24-4.97-51.16-6.73-76.84-7.14-13.03-.21-26.06-.02-39.08.38-6.46.2-12.93.45-19.39.74-5.85.27-11.73.63-17.49,1.74-10.16,1.96-20.07,6.72-25.71,15.75-2.46,3.94-3.86,8.57-3.59,13.24.26,4.39,1.94,8.56,4.57,12.06,5.46,7.27,14.39,11.81,23.36,12.69,12.14,1.19,24.03-3.05,35.09-7.53,11.68-4.73,23.53-10.22,36.31-10.9,6.3-.33,12.23.9,18.2,2.81,5.37,1.72,10.87,3.78,16.58,3.91,7.7.17,17.48-4.08,18.19-12.78.65-7.99-8.22-13.76-15.51-12.78-8.55,1.15-12.84,10.6-11.89,18.41,1.14,9.43,9.42,15.9,18.21,17.99,11.25,2.68,22.7-1.48,32.6-6.62,5.47-2.84,10.72-6.06,16.18-8.93s11.12-5.49,17.22-6.46c5.65-.9,11.62-.08,16.16,3.6,4.01,3.26,6.4,8.27,5.01,13.43s-5.75,9.82-9.59,13.56-8.2,7.01-12.87,9.69-9.66,4.79-14.85,6.25c-4.55,1.27-9.13,2.2-13.82,1.13-3.36-.77-7.96-2.72-8.3-6.71-.11-1.24.26-2.06,1.06-2.99.71-.84,1.49-1.62,2.31-2.34,1.68-1.47,3.6-2.67,5.63-3.61,8.31-3.85,18.61-3.29,26.65.96,9.2,4.85,15.6,13.81,19.3,23.34,4.36,11.23,5.05,23.41,4.84,35.34-.11,6.11-.39,12.21-.66,18.32-.21,4.66-.52,9.32-1.14,13.94-1.18,8.75-3.43,18.06-9.25,24.97-3.13,3.71-7.17,6.41-11.77,7.96-5.51,1.86-11.37,2.32-16.98,3.78-8.17,2.12-17.89,8.54-16.5,18.22.03.2.25.39.44.44,11.57,2.74,24.18-1.81,31.4-11.24.16-.2.09-.59-.1-.76-6.93-5.99-16.32-7.41-25.19-7.68-10.24-.31-20.5.5-30.66,1.71-20.58,2.45-40.95,6.74-61.66,8-19.46,1.18-40.41-.39-57.8-10.01-8.19-4.53-15.21-11.1-18.69-19.94-1.88-4.78-2.84-9.87-3.54-14.95-.77-5.58-1.35-11.19-1.85-16.8-1.01-11.28-1.58-22.6-1.7-33.92-.1-9.2-.7-19.75,4.4-27.88,5.33-8.5,16.35-10.95,25.2-14,10.83-3.73,21.66-7.47,32.49-11.2,2.7-.93,5.4-1.93,8.13-2.78,2.27-.7,4.84-1.18,7,.08,2.93,1.71,3.66,5.63,3.22,8.74-1.28,9.09-12.02,11.7-18.91,15.3-14.35,7.5-23.04,21.98-27.69,37.04-2.43,7.86-3.87,16.01-4.63,24.19-.88,9.43-1.28,19.36,4.27,27.54,5.17,7.61,13.5,13.05,21.61,17.08,8.66,4.3,18.06,7.04,27.67,8.09,4.82.53,9.68.61,14.51.26.25-.02.56-.18.6-.46,1.45-10.27,2.4-22.33-2.84-31.76-2.6-4.68-6.8-7.9-11.91-9.42-6.07-1.81-13.4-1.58-18.3-6.16-4.24-3.96-5.4-10.36-4.19-15.87,1.41-6.4,6.11-11.5,11.44-15.03,11.58-7.66,28.46-11.21,41.23-4.46,10.62,5.61,18.32,19.34,11.62,30.71-2.93,4.98-8.21,8.93-14.07,9.49-5.97.57-11.34-2.74-14.65-7.54-8.32-12.06-4.04-26.96-3.91-40.47.05-5.96-.39-13.7-5.6-17.64-3.98-3.01-10.84-2.73-12.61,2.66-1.64,4.99,2.99,10.07,6.7,12.68,4.2,2.95,11.55,5.61,15.42.77,2.9-3.63,1.8-9.16.19-13.09-2.32-5.68-7.19-9.87-9.23-15.74-1.04-2.99-1.12-6.06.71-8.76l-.54.31c15.58-1.05,32.06-2.21,46.94,3.56,11.64,4.51,22.5,14.07,25.34,26.64,1.68,7.46-.81,15.04.65,22.5,1.14,5.83,4.74,11.01,9.48,14.52s10.77,5.31,16.66,4.46,11.52-4.22,13.52-9.92c1.74-4.95.41-11.49-4.4-14.24-4.05-2.32-9.86-1.08-12.63,2.68-.7.96-1.15,2.06-1.34,3.22-.05.27.03.56.29.71,2.76,1.57,6.34.99,8.41-1.43.17-.2.26-.52.1-.76-5.32-7.93-20.34-2.89-19.58,6.72.03.36.38.76.79.6,5.23-2.01,8.79-7.16,8.76-12.78,0-.29-.2-.51-.46-.6-6.85-2.42-14.04,1.47-18.24,6.86-5.09,6.53-5.89,15.3-6.88,23.23-2.06,16.51-7.06,33.91-20.53,44.78-6.98,5.63-15.81,9.06-24.85,8.4l.54.31c-4.62-7.42-2.66-16.41,1.17-23.72s10.16-13.43,15.84-19.73c5.29-5.87,10.41-12.4,12.18-20.28s-.23-15.99-4.42-22.74c-9.49-15.31-27.61-20.82-44.5-23.07-15.5-2.07-34.07-1.65-43.72,12.76-8.86,13.24-6.68,30.67-1.04,44.66,3.5,8.67,8.17,16.78,12.44,25.07,4.39,8.53,8.03,17.36,10.76,26.56,5.45,18.41,7.55,37.62,8.51,56.73.48,9.59.68,19.19.84,28.79.17,10.25.38,20.52-.25,30.77-.64,10.35-2.46,20.38-5.15,30.38-2.6,9.68-5.41,19.3-6.3,29.32-.92,10.33-.2,20.75,1.16,31.01,1.31,9.89,3.35,19.68,6.1,29.28,1.35,4.69,2.87,9.33,4.54,13.92.27.75,1.48.43,1.21-.33-4.22-11.54-7.41-23.45-9.49-35.56s-3.37-25.23-2.32-37.83c1.04-12.45,5.17-24.24,8.05-36.33,2.89-12.1,3.76-24.48,3.85-36.89s-.2-24.13-.58-36.17-1.04-23.38-2.47-35c-1.41-11.39-3.54-22.72-6.89-33.7s-8.2-21.3-13.59-31.47-10.77-20-13.04-31.08c-1.87-9.1-1.52-19.16,2.53-27.65,2.01-4.2,4.95-7.93,8.72-10.68,4.14-3.01,9.03-4.74,14.05-5.6s10.33-.85,15.48-.45c5.47.42,10.94,1.22,16.3,2.39,10.63,2.32,21.32,6.54,28.93,14.59,7.01,7.4,11.39,17.92,9.02,28.14s-9.88,17.5-16.61,24.72c-6.77,7.26-13.38,15.42-14.99,25.54-.72,4.53-.24,9.21,2,13.27.69,1.25.87,1.3,2.29,1.36,1.29.05,2.58.02,3.86-.09,2.36-.2,4.69-.65,6.96-1.34,9.66-2.92,17.8-9.69,23.32-18.04,6.06-9.17,9.16-20,10.76-30.78,1.56-10.47,1.6-23.13,10.72-30.28,3.78-2.97,8.71-4.5,13.38-2.85l-.46-.6c.03,5.02-3.14,9.76-7.84,11.57l.79.6c-.65-8.28,12.58-13.06,17.25-6.09l.1-.76c-1.71,2-4.6,2.54-6.9,1.23l.29.71c.65-3.91,4.55-6.2,8.31-6.15,4.36.06,7.41,3.51,8.16,7.62.84,4.64-1.17,9.2-4.91,11.99s-8.57,3.82-13.13,3.32c-8.95-.99-16.97-7.97-19.35-16.62-1.53-5.53-.33-11.26-.28-16.89.04-4.5-.86-8.88-2.7-12.99-3.65-8.16-10.55-14.64-18.29-18.9-9.17-5.04-19.74-6.79-30.09-7.13-5.71-.19-11.43.03-17.13.37-1.39.08-2.77.17-4.16.26s-2.09-.13-2.79,1.06c-1.02,1.72-1.39,3.74-1.19,5.72.47,4.67,3.32,8.87,5.99,12.58,2.43,3.37,4.53,6.66,5.29,10.83.6,3.32.26,7.44-3.08,9.17-2.52,1.3-5.42.6-7.91-.39-2.29-.91-4.37-2.21-6.17-3.9-2.75-2.59-5.99-7.29-3.27-10.98,3.04-4.12,9.21-2.15,11.79,1.38,3.11,4.25,3.29,10.13,3.21,15.18-.09,5.93-.94,11.81-1.19,17.73-.38,8.86.98,18.41,7.14,25.25,2.71,3.01,6.37,5.18,10.41,5.73s7.91-.54,11.27-2.58c7.24-4.4,11.16-12.68,9.68-21.03-1.55-8.73-8.22-16.21-16.22-19.72-9.77-4.29-21.12-3.24-30.9.44-8.48,3.19-17.2,8.69-20.77,17.42-3,7.32-1.63,17.03,5.23,21.72,3.98,2.72,8.91,3.27,13.51,4.22s8.57,2.38,11.76,5.65c5.71,5.86,6.79,14.81,6.72,22.62-.04,4.1-.43,8.19-1,12.25l.6-.46c-19.76,1.43-40.94-4.59-56.11-17.61-3.57-3.06-6.75-6.67-8.75-10.96-2.27-4.89-2.62-10.35-2.45-15.66.29-8.67,1.45-17.37,3.53-25.79,3.93-15.85,11.8-31.78,26.22-40.48,3.83-2.31,8.04-3.84,12-5.9,3.46-1.81,7.12-4.26,8.84-7.91,2.52-5.38,1.25-14.3-6.01-14.71-2.63-.15-5.17.91-7.61,1.74-2.75.95-5.49,1.89-8.24,2.84-5.49,1.89-10.99,3.79-16.48,5.68s-10.99,3.79-16.48,5.68c-4.53,1.56-9.17,3-13.41,5.28-3.91,2.1-7.28,5.01-9.49,8.89s-3.15,8.11-3.65,12.41c-.56,4.9-.49,9.87-.44,14.79.06,5.74.23,11.49.51,17.22.56,11.29,1.5,22.59,3.02,33.8,1.31,9.72,3.79,19.2,10.53,26.63,6.01,6.63,14.13,11.05,22.47,14.05,9.49,3.41,19.49,5.18,29.54,5.76,20.65,1.18,41.23-2.41,61.57-5.49,10.49-1.59,21.01-3.1,31.59-3.87,5.19-.38,10.39-.58,15.59-.51,4.8.06,9.62.34,14.31,1.43s8.8,2.89,12.32,5.93l-.1-.76c-6.86,8.97-19.01,13.27-29.98,10.67l.44.44c-.73-5.11,2.47-9.56,6.4-12.47,4.36-3.22,9.54-4.42,14.77-5.4s10.95-1.86,15.86-4.47c3.54-1.88,6.57-4.56,8.98-7.76,5.16-6.85,7.31-15.55,8.46-23.9,1.4-10.13,1.57-20.48,1.83-30.68.53-20.63-1.84-44.62-19.34-58.39-6.95-5.47-15.74-8.07-24.55-6.96-4.15.52-8.22,1.85-11.75,4.12-1.74,1.12-3.35,2.46-4.75,4-.53.59-1.33,1.34-1.63,2.08s-.29,1.77-.21,2.54c.38,3.38,3.34,5.57,6.28,6.76,3.64,1.47,7.73,1.8,11.57,1.11,10.03-1.8,19.63-6.07,27.77-12.2,4.02-3.02,7.7-6.49,10.91-10.36s6.16-8.35,5.76-13.5c-.34-4.39-3-8.25-6.47-10.84-4.12-3.07-9.24-4.09-14.3-3.67-11.52.96-21.77,7.92-31.6,13.39s-21.68,11.17-33.58,9.4c-9.2-1.37-18.69-7.53-19.85-17.44-.96-8.18,4.31-18,13.63-17.05,3.96.4,7.92,2.67,9.98,6.12,2.19,3.66,1.51,8.17-1.24,11.34s-7.06,4.94-11.2,5.48c-5.37.69-10.73-.9-15.8-2.52-5.46-1.74-10.86-3.58-16.61-3.99s-11.92.44-17.67,1.92c-11.84,3.05-22.74,8.75-34.29,12.67-10.36,3.51-21.94,5.81-32.57,2.1-8.51-2.97-16.66-9.64-18.69-18.78-2.18-9.84,3.83-19.17,11.73-24.53,9.47-6.42,21.39-7.4,32.49-7.93,25.12-1.2,50.32-1.77,75.46-.7,12.66.54,25.3,1.52,37.87,3.1,6.39.8,12.77,1.76,19.11,2.89,5.38.96,10.89,1.99,15.82,4.47,4.6,2.31,8.5,5.98,10.19,10.94,1.52,4.47.75,9.38-2.64,12.78-2.95,2.96-7.18,4.26-11.21,4.88-4.3.66-8.76.62-13.08.21s-9.04-1.27-11.89-4.55c-3.49-4.02-1.53-9.96,1.67-13.52,4.89-5.44,13.25-6.86,20.04-4.71,7.58,2.41,12.38,9.72,10.16,17.62-2.08,7.4-9.5,14.14-17.52,13.43-9.09-.8-13.82-10.05-15.66-17.92-1.02-4.37-1.45-8.85-1.65-13.32-.28-6.2-.45-12.41-.57-18.62-.5-25.29.1-50.59,1.82-75.83s4.54-50.44,8.47-75.45c1.89-12.05,4.05-24.06,6.45-36.02.16-.79-1.05-1.12-1.21-.33h0Z"/></svg>