<?xml version="1.0" encoding="UTF-8"?><svg id="uuid-d959e58d-ba83-445c-bf65-ce9918115e36" xmlns="http://www.w3.org/2000/svg" width="100.27" height="87.68" viewBox="0 0 100.27 87.68"><defs><style>.uuid-bf5bbb17-1b87-4e9e-80eb-e37e34b17c47{fill:none;stroke:#000;stroke-miterlimit:10;stroke-width:.2px;}</style></defs><g id="uuid-f140b271-3281-418a-a388-5a1e5ea689b7"><path class="uuid-bf5bbb17-1b87-4e9e-80eb-e37e34b17c47" d="M66.84,26.08c2.29-2.77,6.74-6.88,8.32-9.58.04-.07.84-.32.38-.76-.26.12-.51.66-.63.76-3.01,2.41-6.57,6.24-9.08,9.2-6.65,7.89-11.18,16.58-16.89,24.96-3.83,5.62-8.59,10.61-11.97,16.51l3.66-6.43c12.39-16,20.66-32.7,35.92-46.51.97-.87.97.03,1.01,0,2.23-1.98,4.04-5.24,6.93-6.43-5.76,6.15-12.12,11.93-17.65,18.28Z"/><path class="uuid-bf5bbb17-1b87-4e9e-80eb-e37e34b17c47" d="M32.81,81.29c5.39-3.85,7.64-10.63,11.34-16.01,4.14-6.01,10.11-12.33,14.37-18.15,1.23-1.69,1.69-3.98,3.03-5.8,3.02-4.12,6.89-8.29,9.96-12.48-2.5,4.81-6.61,8.73-9.71,12.98-1.13,1.55-1.65,3.85-2.52,5.04-4.36,5.98-10.43,12.31-14.62,18.4-2.36,3.43-5.96,11.36-8.32,13.86-.96,1.02-2.33,1.51-3.53,2.14Z"/><path class="uuid-bf5bbb17-1b87-4e9e-80eb-e37e34b17c47" d="M48.69,54.32c.59-.16.8-1.03,0-.5.17-.25.34-.51.5-.76.26.57.67.23.25-.25,7.2-10.72,13.08-20.88,21.93-30.5-14.46,17.03-24.75,37.04-37.06,55.59-.43.38-1.18,1.51-1.76.76l16.13-24.33Z"/><path class="uuid-bf5bbb17-1b87-4e9e-80eb-e37e34b17c47" d="M61.8,32.64c-7.14,9.58-13.71,19.98-20.42,29.87-3.17,4.68-5.95,9.62-9.2,14.24l4.16-7.44c8.9-11.97,16.41-24.86,25.46-36.68Z"/><path class="uuid-bf5bbb17-1b87-4e9e-80eb-e37e34b17c47" d="M78.56,10.96l-13.74,14.24c-2.56,5.11-7.48,8.35-9.96,13.49l1.64-3.66c3.63-3,5.6-7.4,8.57-10.84,4.04-4.68,9.05-8.92,13.49-13.23Z"/><path class="uuid-bf5bbb17-1b87-4e9e-80eb-e37e34b17c47" d="M14.78,41.46c.91.21,0,.57-.25.76-1.39,1.04-7.63,4.56-7.44,6.43.16,1.52,12.21,11.34,13.23,13.99-1.7-2.28-13.09-11.76-13.49-13.49-.68-2.97,5.85-6.07,7.94-7.69Z"/><path class="uuid-bf5bbb17-1b87-4e9e-80eb-e37e34b17c47" d="M11.76,45.49c6.87,7.21,13.63,14.9,18.65,23.44l-18.65-23.44Z"/><path class="uuid-bf5bbb17-1b87-4e9e-80eb-e37e34b17c47" d="M47.93,54.82c-5.03,7.54-10.15,15.02-15,22.69.74-2.04,2.23-4.33,3.4-6.18,2.97-4.67,7.89-12.73,11.6-16.51Z"/><path class="uuid-bf5bbb17-1b87-4e9e-80eb-e37e34b17c47" d="M76.67,19.02h-.25c.71-.83,1.34-1.66,2.02-2.52,2.28-2.28,4.74-4.54,7.06-6.81.65,0,.85-.54,1.26-.88-.02-.18-.32-.13-.5-.13,1.17-1.11,2.4-2.75,4.29-2.65-.61.48-2.71,1.28-3.03,1.76-.03.05.78.2.5.5-3.35,3.6-7.96,6.95-11.34,10.71Z"/><path class="uuid-bf5bbb17-1b87-4e9e-80eb-e37e34b17c47" d="M32.81,81.29c4.23,3.22,6.16-4.24,7.81-6.93-.85,3.4-3.56,10.55-8.07,7.31l.25-.38Z"/><path class="uuid-bf5bbb17-1b87-4e9e-80eb-e37e34b17c47" d="M21.46,58.6c2.83,3.59,6.53,7.32,8.19,11.6-2.74-3.83-5.31-7.88-8.19-11.6Z"/><path class="uuid-bf5bbb17-1b87-4e9e-80eb-e37e34b17c47" d="M86.5,7.43c-3.41,2.62-7.5,6.94-10.59,10.08,3.35-3.59,6.4-7.43,10.59-10.08Z"/><path class="uuid-bf5bbb17-1b87-4e9e-80eb-e37e34b17c47" d="M19.32,62.38l6.55,7.56c-2.13-2.58-5.81-3.92-6.55-7.56Z"/><path class="uuid-bf5bbb17-1b87-4e9e-80eb-e37e34b17c47" d="M18.19,54.06c-2.27-2.57-6.03-4.4-7.18-7.81,2.15,2.87,4.86,5.1,7.18,7.81Z"/><path class="uuid-bf5bbb17-1b87-4e9e-80eb-e37e34b17c47" d="M61.8,32.64c1.8-2.41,3.01-4.22,5.04-6.55-1.71,2.08-3.4,4.4-5.04,6.55Z"/><path class="uuid-bf5bbb17-1b87-4e9e-80eb-e37e34b17c47" d="M84.11,10.2c.54.37-1.05,1.54-1.26,1.76-.66.69-1.35,1.33-2.02,2.02.43-1.56,2.34-2.55,3.28-3.78Z"/><path class="uuid-bf5bbb17-1b87-4e9e-80eb-e37e34b17c47" d="M78.44,16.5c-.31.31-.97.46-1.01.5.79-.84,1.53-1.75,2.39-2.52.33.54-1.04,1.57-1.39,2.02Z"/><path class="uuid-bf5bbb17-1b87-4e9e-80eb-e37e34b17c47" d="M71.38,22.3c.84-1,1.67-1.82,2.52-2.77-.83.87-1.69,1.87-2.52,2.77Z"/><path class="uuid-bf5bbb17-1b87-4e9e-80eb-e37e34b17c47" d="M75.16,19.53c.78-.93,1.44-1.64,2.27-2.52-.76.77-1.48,1.71-2.27,2.52Z"/><path class="uuid-bf5bbb17-1b87-4e9e-80eb-e37e34b17c47" d="M20.96,57.85c-.62-.8-1.32-1.98-1.76-2.52.78.94,1.18,1.79,1.76,2.52Z"/><path class="uuid-bf5bbb17-1b87-4e9e-80eb-e37e34b17c47" d="M75.91,17.51c-.64.69-1.41,1.34-2.02,2.02.69-.72,1.34-1.33,2.02-2.02Z"/><path class="uuid-bf5bbb17-1b87-4e9e-80eb-e37e34b17c47" d="M25.75,67.43c.25.27,1.25.66.88,1.26-.55,0-.73-1.03-.88-1.26Z"/><path class="uuid-bf5bbb17-1b87-4e9e-80eb-e37e34b17c47" d="M19.19,55.33c-.34-.41-.68-.88-1.01-1.26.4.46.65.83,1.01,1.26Z"/><path class="uuid-bf5bbb17-1b87-4e9e-80eb-e37e34b17c47" d="M86.25,8.69c-.26.25-.5.76-.76,1.01-.19,0-.48.05-.5-.13.41-.34.61-.88,1.26-.88Z"/><path class="uuid-bf5bbb17-1b87-4e9e-80eb-e37e34b17c47" d="M48.69,54.32c-.17.14-.62.37-.76.5.3-.45.58-.74.76-1.01-.02.16.03.48,0,.5Z"/><path class="uuid-bf5bbb17-1b87-4e9e-80eb-e37e34b17c47" d="M25.75,67.43c-.2-.21-1.04-.48-.63-1.01.5.2.51.83.63,1.01Z"/><path class="uuid-bf5bbb17-1b87-4e9e-80eb-e37e34b17c47" d="M75.16,16.5h-.25c.12-.09.37-.64.63-.76.47.44-.34.69-.38.76Z"/><path class="uuid-bf5bbb17-1b87-4e9e-80eb-e37e34b17c47" d="M21.46,58.6c-.27-.34-.43-.66-.5-.76.27.34.4.63.5.76Z"/><path class="uuid-bf5bbb17-1b87-4e9e-80eb-e37e34b17c47" d="M49.19,53.06c.17-.26.24-.24.25-.25.41.48.01.82-.25.25Z"/><polygon class="uuid-bf5bbb17-1b87-4e9e-80eb-e37e34b17c47" points="77.81 12.97 78.18 13.1 77.81 13.48 77.68 13.35 77.81 12.97"/><path class="uuid-bf5bbb17-1b87-4e9e-80eb-e37e34b17c47" d="M95.56,8.19c-15.2,11.58-27.22,26.26-37.23,42.94-5.34,9.34-8.68,18.02-14.68,27.36-2,2-3.34,4.67-5.34,6.01-4,2.67-7.34,0-9.34-3.34-5.34-12.01-14.68-22.69-25.36-30.03-3.34-7.34,6.01-9.34,10.92-12.2-.34-.23-.64-.58-1.01-.76,4.1.94,6.1,4.95,8.1,8.28.67,1.33.67,2.67,1.33,4,1.33,2.67,4,4.67,5.34,8.01,1.33,2.67,4.67,2.67,6.01,5.34-2.67,4.67-6.67,9.34-4.65,15.21-.06-.3-2.39-3.68,0,0-.06-.3-.59-2.3-1.18-2.19-.47.09,1.13,2.13,1.18,2.19-2.08-3.62.26-6.98,2.22-10.12,1.09-1.08,1.76-3.09,3.1-5.09,7.34-7.34,13.35-16.02,19.51-23.99-.1.45-2.85,3.17,0,0-.1.45-.76,2.53-1.5,2.46-.56-.06,1.36-2.31,1.5-2.46-1.69,3.52-3.98,6.68-6.52,9.63-.98.35-.98,1.69-1.65,2.35-6.67,5.34-10.68,12.01-15.35,18.69-1.33,2.67-2.67,8.68,1.33,10.01,0,0-.67.67-.47.95-.09-.4.11-.85.47-1.17.07,2.25-2.79-1.82-1.85.5.84,2.07,3.61,3.53,5.71,2.93,4.82-1.39,7.26-8.01,9.01-12.13-1.19,4.41-3.68,10.62-8.32,12.39-6.78,2.57-10.31-7.87-7.23-12.55,1.67-2.55,4.11-4.74,1.81-7.82-.9-1.21-2.18-2.03-3.31-3.01-1.36-1.17-2.29-2.52-3.34-3.96-2.35-3.23-4.82-6.37-7.08-9.67-.68-1-2.33-4.87-3.79-2.78-.95,1.37,1.06,2.97,1.97,3.87,5.66,5.56,12.41,11.1,15.04,18.87-.89-2.1,1.01-1.64,0,0-4.19-7.03-10.4-12.54-15.59-18.79-.94-1.14-3.11-2.76-1.87-4.25s2.44-.51,3.25.63c2.34,3.28,4.32,6.79,6.8,9.99,2.91,3.75,6.08,7.29,9.43,10.65.89-1.58-4.35-5.19,0,0,.08-.51.34-.98.7-1.34-6.67-6.01-9.34-14.68-15.35-22.02-4.67-5.34-12.01,2-15.35,6.67,3.34,4,6.01,8.01,11.34,10.68,3.34,2,4.67,6.01,7.34,8.68s3.34,6.01,6.01,8.68c.67,1.33,1.33,3.34,2.67,5.34,2,2.67,4,3.34,6.67,2.67,7.34-3.34,9.34-12.01,12.01-18.69,11.34-22.69,27.36-42.04,46.09-58.01-2.98,2.39-5.97,4.79-8.95,7.18-.4-1.94,3.07-3.76,4.36-4.68,1.46-1.04,5.24-2.92,5.14-5.02-.16-3.55-7.79,1.3-9.12,2.14,2.05-1.56,4.73-3.69,7.39-3.98,2.03-.22,2.01,1.3,2.06,2.97.92-.89,2.74-2.33,2.75-3.74.33-.92-.34-1.59-.34-1.59-5.34-.67-10.01,2.67-14.68,5.34-1.33,1.33-2.67,2-4.67,3.34-8.68,7.34-16.68,14.01-24.02,22.02-6.67,8.01-12.01,16.68-17.35,26.69-1.33,2.67-4.67.67-6.67-1.33-5.34-6.01-7.34-14.68-14.68-18.69-5.34,0-11.34,1.33-14.68,6.01-1.33,2-1.33,4,0,6.01,7.34,6.01,15.35,10.68,20.02,19.35,2.67,6.01,6.01,11.34,10.01,16.02,2,2,4.67,2,6.67,1.33,2-1.33,3.34-2.67,4.67-4.67,10.68-21.35,20.69-42.71,38.23-58.81-.67.87-1.4,2.05-2.34,2.63.44-1.04,1.46-1.93,2.34-2.63-12.23,14.34-23.28,29.79-32,46.53-2.12,4.06-3.78,8.37-5.91,12.41-1.51,2.86-4.47,4.86-7.74,4.95-8.63.23-11.34-12.57-15.16-18.25-4.92-7.32-11.25-13.24-18.38-18.27s7.48-13.48,11.98-13.98c8.85-.98,12.91,11.09,16.91,16.76.86,1.22,2.04,3.74,3.6,2.87,1.46-.82,2.42-3.97,3.27-5.46,2.13-3.75,4.39-7.71,7.02-11.12,1.38-1.79,3-3.25,4.31-5.11s2.67-3.66,4.09-5.43c2.71-3.36,5.63-6.54,8.75-9.52,6.09-5.82,13.01-11.24,20.43-15.26,1.66-.9,3.81-.94,5.27-2.16"/><path class="uuid-bf5bbb17-1b87-4e9e-80eb-e37e34b17c47" d="M96.21.12c4.07-.24,5.31,1.94,2.27,4.79,2.76-5.22-2.21-4.19-5.55-3.28-15.3,4.19-44.51,34.99-52.06,49.03-.76,1.41-2.88,7.91-3.91,8.19-.46.12-2.06-.41-2.14-.88-.21-1.16,10.82-18.02,12.35-20.17,10.08-14.14,23.48-26.96,39.45-34.16,2.18-.98,7.42-3.4,9.58-3.53Z"/><path class="uuid-bf5bbb17-1b87-4e9e-80eb-e37e34b17c47" d="M18.82,38.94l16.89,20.67c-1.75-.09-3.28-2.33-4.41-3.66-4.5-5.3-8.16-11.55-12.48-17.02Z"/><path class="uuid-bf5bbb17-1b87-4e9e-80eb-e37e34b17c47" d="M84.61,18.02c.8.13-.87,1.38-1.01,1.26-.05-.5.75-.87,1.01-1.26Z"/><path class="uuid-bf5bbb17-1b87-4e9e-80eb-e37e34b17c47" d="M48.56,67.68c.33.02-.17.89-.25,1.01-.36-.14.02-1.02.25-1.01Z"/><path class="uuid-bf5bbb17-1b87-4e9e-80eb-e37e34b17c47" d="M76.42,19.02c-.29.34-.98.66-1.26,1.01.05-.06-.05-.45,0-.5.79-.81,1.51-1.75,2.27-2.52.04-.04.7-.2,1.01-.5-.67.86-1.31,1.69-2.02,2.52Z"/><path class="uuid-bf5bbb17-1b87-4e9e-80eb-e37e34b17c47" d="M76.67,19.02c-12.61,14.03-22.95,30.23-33.02,46.01-2.33,3.65-7.71,14.22-11.34,15.5v-.25c4.25-1.74,23.3-35.89,27.73-42.22s10.01-13.28,15.13-18.53c-.05.06.05.44,0,.5-.35.43-.67.84-1.01,1.26-4.65,5.57-9.77,10.84-13.49,17.14,5.07-5.22,8.93-11.51,13.49-17.14.35-.42.68-.86,1.01-1.26.29-.35.97-.66,1.26-1.01h.25Z"/><path class="uuid-bf5bbb17-1b87-4e9e-80eb-e37e34b17c47" d="M74.15,21.29c-4.56,5.64-8.42,11.92-13.49,17.14,3.71-6.3,8.84-11.57,13.49-17.14Z"/><path class="uuid-bf5bbb17-1b87-4e9e-80eb-e37e34b17c47" d="M74.15,21.29c.34-.42.66-.83,1.01-1.26-.33.4-.66.84-1.01,1.26Z"/><path class="uuid-bf5bbb17-1b87-4e9e-80eb-e37e34b17c47" d="M60.16,38.69c.35.05-.09.78-.25.76-.35-.05.09-.78.25-.76Z"/><path class="uuid-bf5bbb17-1b87-4e9e-80eb-e37e34b17c47" d="M48.69,54.32s-.02-.34,0-.5c.8-.53.59.35,0,.5Z"/><path class="uuid-bf5bbb17-1b87-4e9e-80eb-e37e34b17c47" d="M9.24,46.75c.87-.12.87.18,1.39.63,2.61,2.26,16.77,19.28,17.65,21.93.23.7.4,1.68.13,2.39-.71-2.94-3.2-6.59-5.17-8.95-.54-.65-.7.08-.88-.13-2.96-3.48-6.82-8.29-10.34-11.09-1.02-.81-4.75-1.75-4.41-3.4.04-.17,1.41-1.36,1.64-1.39Z"/><path class="uuid-bf5bbb17-1b87-4e9e-80eb-e37e34b17c47" d="M19.95,58.85l-11.85-10.71c.36-.41,1.06-1,1.64-.88.76.15,8.84,10.32,10.21,11.6Z"/><path class="uuid-bf5bbb17-1b87-4e9e-80eb-e37e34b17c47" d="M20.96,60.11c-.32-.37-1.09-.56-1.01-1.26.68.14.79.95,1.01,1.26Z"/><path class="uuid-bf5bbb17-1b87-4e9e-80eb-e37e34b17c47" d="M20.96,60.11c.18.21,1.05.48.63,1.01-.49-.19-.52-.85-.63-1.01Z"/><path class="uuid-bf5bbb17-1b87-4e9e-80eb-e37e34b17c47" d="M85.49,9.7c.26-.25.5-.76.76-1.01.19,0,.48-.05.5.13-.41.34-.61.88-1.26.88Z"/></g></svg>