<?xml version="1.0" encoding="UTF-8"?><svg id="uuid-10989c1d-6e35-4e42-a793-b5588d448684" xmlns="http://www.w3.org/2000/svg" width="108.57" height="111.91" viewBox="0 0 108.57 111.91"><defs><style>.uuid-722f0914-6c05-4c3e-9da0-241d658d68b8{fill:none;stroke:#000;stroke-miterlimit:10;stroke-width:.15px;}</style></defs><g id="uuid-67b7bbc7-80ac-4330-8e34-94977e15370b"><path class="uuid-722f0914-6c05-4c3e-9da0-241d658d68b8" d="M48.43,108.4l.22-2.86c.95.32-.19,2.84-.22,3.47-.03.57-.01,1.61,0,2.82.21,0,.42,0,.64,0,.38-4.49.76-9.12.25-9.96-.89-1.43-1.32,4.54-1.33,4.9,0,.23-.28,1.91.44,1.63Z"/><path class="uuid-722f0914-6c05-4c3e-9da0-241d658d68b8" d="M51.77,64.01c-1.55,1.14-5.05,7.08-6.9,9.19.2-1.19,8.68-12.57,9.9-13.27.14-.08,1.15-.52,1.22-.31-1.18.33-2.84,4.26-3.23,4.39-.13.04-.14-.63-1,0Z"/><path class="uuid-722f0914-6c05-4c3e-9da0-241d658d68b8" d="M39.09,82.17c-.31.36-.35.34-.67.82-.34.35-.23.2-.44.61-.93,1.51-1.73,2.53-.67,4.39l1.11.41-1.11-1.02c-.07-.87.3-.24.44-.31-.14.13.22.63.33.61.37-.05-.19-.74-.33-.61.02-.01.15-.35.33-.41,1.13.71,1.1,2.6-.67,2.25-4.84-.98,1.5-7.28,2.56-8.88.11.82-.63,1.38-.89,2.14Z"/><path class="uuid-722f0914-6c05-4c3e-9da0-241d658d68b8" d="M48.77,87.07c2.35.02,1.62,2.22-.22,1.63-.22-.07-.01-.61-.22-.61-.15,0-.01.62-.44.82-.29.13-2.14.27-2.56.1l2.34-.51-.67-.41,1.67-.31c-1.23-.15-2.43-.46-3,.71l-.44-1.02c1.02-.03,2.63-.42,3.56-.41Z"/><path class="uuid-722f0914-6c05-4c3e-9da0-241d658d68b8" d="M44.87,73.19c-.09.56.09,1.08.44,1.53l-3.89,5.61c-.74-.74.42-.92.56-1.33.04-.12-.49-.09-.44-.2.49-1.14,3.19-3.76,3.11-4.49-.05-.47-1.3.61.22-1.12Z"/><path class="uuid-722f0914-6c05-4c3e-9da0-241d658d68b8" d="M49.88,89.11c.31,4-.1,8.06-.44,12.04-.48-4.01.3-8.04.44-12.04Z"/><path class="uuid-722f0914-6c05-4c3e-9da0-241d658d68b8" d="M40.76,88.3c.58-.17,3.66-.11,4.34.31l-1.78.2c3.8.61-1.44.52-2.78.51-.54-.19-.01-.95.22-1.02Z"/><path class="uuid-722f0914-6c05-4c3e-9da0-241d658d68b8" d="M48.21,70.13c.75-1.27,1.46-3.06,2.45-4.39.36-.49,1.03-.67,1.33-1.02.03-.03-.48-.5-.22-.71.04-.03.66.29.89.31-1.5,1.93-2.94,3.89-4.45,5.82Z"/><path class="uuid-722f0914-6c05-4c3e-9da0-241d658d68b8" d="M57.89,59.92c1.22.8,2.51,2.09,3.45,3.16.61.7,1.82,1.86,1.89,2.76l-5.34-5.92Z"/><path class="uuid-722f0914-6c05-4c3e-9da0-241d658d68b8" d="M47.88,101.36l-.44,7.96c-.6,0,.44-7.19.44-7.96Z"/><path class="uuid-722f0914-6c05-4c3e-9da0-241d658d68b8" d="M38.87,83.4c.07-.11.64-.45.67-.71l-.44-.1c.04-.11-.04-.3,0-.41.4-.46.91-.98,1.33-1.43-.14.24.38.58.22.92-.66,1.4-1.65,2.72-2.56,3.98-.05-.8.52-1.48.78-2.25Z"/><path class="uuid-722f0914-6c05-4c3e-9da0-241d658d68b8" d="M43.87,74.42c.46,0,.25.45.11.71-.59,1.13-2.93,3.09-3.45,4.59-.48-.25.16-1.02.33-1.33.25-.45,2.74-3.98,3-3.98Z"/><path class="uuid-722f0914-6c05-4c3e-9da0-241d658d68b8" d="M75.36,79.52c.39.5.92.96,1.11,1.22.22.32.64.77.67.82.23.46.46.94-.22.61-.03-.02.02-.5-.33-.61-.41.35.31.57.33.61.22.38.44.75.67,1.12-.99-.41-1.5-1.52-2-2.35.01.03.56.44.67.31-.04-.53-.89-.99-.67-.31-.34-.55-1.58-1.33-.22-1.43Z"/><path class="uuid-722f0914-6c05-4c3e-9da0-241d658d68b8" d="M48.21,70.13c-.82,1.39-1.47,2.82-2.56,4.08-1.23-.55,2.21-3.64,2.56-4.08Z"/><path class="uuid-722f0914-6c05-4c3e-9da0-241d658d68b8" d="M49.21,89.73c.56,0,.14,4.24-.44,4.69l.44-4.69Z"/><path class="uuid-722f0914-6c05-4c3e-9da0-241d658d68b8" d="M48.1,95.64c-.02,1.11.47,4.2.33,5-.08.46-.3.21-.56.51l.22-5.51Z"/><path class="uuid-722f0914-6c05-4c3e-9da0-241d658d68b8" d="M48.55,89.11l-.44,5.92c-.21-1.9-.2-4.09.44-5.92Z"/><path class="uuid-722f0914-6c05-4c3e-9da0-241d658d68b8" d="M66.34,88.91c.61,0,.41,4.04-.22,3.67l.22-3.67Z"/><path class="uuid-722f0914-6c05-4c3e-9da0-241d658d68b8" d="M40.54,87.68l4.34.1c-.96.37-3.79.69-4.34-.1Z"/><path class="uuid-722f0914-6c05-4c3e-9da0-241d658d68b8" d="M48.77,96.05c.55.95.55,2.93,0,3.88-.19-1.27-.19-2.61,0-3.88Z"/><path class="uuid-722f0914-6c05-4c3e-9da0-241d658d68b8" d="M38.87,83.4c-.3.44-.89.96-1.11,1.53l-.33,1.53c-.3-.93.1-2.01.56-2.86.05-.08.3-.4.44-.61.06-.06.55-.38.67-.41-.09.25-.14.56-.22.82Z"/><path class="uuid-722f0914-6c05-4c3e-9da0-241d658d68b8" d="M72.13,76.05c.23.23,2.89,3.06,2.22,3.27l-2.22-3.27Z"/><path class="uuid-722f0914-6c05-4c3e-9da0-241d658d68b8" d="M66.34,87.28c.15-.06,3.23-.05,3.23.1-1.38.36-2.77-.52-3.23,1.12-.48-.28-.48-1.02,0-1.22Z"/><path class="uuid-722f0914-6c05-4c3e-9da0-241d658d68b8" d="M69.46,72.78c.69.85,1.8,1.78,2,2.86-.63-.78-2.04-1.79-2-2.86Z"/><path class="uuid-722f0914-6c05-4c3e-9da0-241d658d68b8" d="M78.36,84.01c.72,0,.23,2.01-.22,2.25l.22-2.25Z"/><path class="uuid-722f0914-6c05-4c3e-9da0-241d658d68b8" d="M76.36,86.46c.21,0,.43-.07.56.1.06.28-3.85.83-4.45.61,1-.07,3.05-.73,3.89-.71Z"/><path class="uuid-722f0914-6c05-4c3e-9da0-241d658d68b8" d="M65.68,97.28c.56.72,1,1.55,0,2.25v-2.25Z"/><path class="uuid-722f0914-6c05-4c3e-9da0-241d658d68b8" d="M54.66,61.76c.55-.93,1.43-2.38,2.89-2.14-1.24.41-2.01,1.34-2.89,2.14Z"/><path class="uuid-722f0914-6c05-4c3e-9da0-241d658d68b8" d="M67.35,70.54c.49.54,1.38,1.31,1.45,2.04-.74-.62-1.36-1.26-1.89-2.04.11.04.37-.04.44,0Z"/><path class="uuid-722f0914-6c05-4c3e-9da0-241d658d68b8" d="M70.35,87.28c.2.7,1.19.21.44.82-.87.14-1.09-.27-.44-.82Z"/><path class="uuid-722f0914-6c05-4c3e-9da0-241d658d68b8" d="M40.42,80.74c.24-.26-.11-1.09.89-.1-.15.49-.82-.02-.89.1Z"/><path class="uuid-722f0914-6c05-4c3e-9da0-241d658d68b8" d="M39.98,88.91h-.89c-.15-.38,1.48-.91.89,0Z"/><path class="uuid-722f0914-6c05-4c3e-9da0-241d658d68b8" d="M71.02,87.07c.71-.17.94.56.44.61-.04,0-.84-.36-.44-.61Z"/><path class="uuid-722f0914-6c05-4c3e-9da0-241d658d68b8" d="M48.77,95.03c.27-.17.29.78,0,.61-.17-.1-.19-.49,0-.61Z"/><path class="uuid-722f0914-6c05-4c3e-9da0-241d658d68b8" d="M39.98,88.91c-.21.31-.76.34-.89,0h.89Z"/><path class="uuid-722f0914-6c05-4c3e-9da0-241d658d68b8" d="M54.66,61.76s.01.5-.33.61c-.41-.35.31-.57.33-.61Z"/><path class="uuid-722f0914-6c05-4c3e-9da0-241d658d68b8" d="M75.36,79.52c.74-.05.87.87,1.11,1.22.16.22.39.43.67.82,1.72,2.41,3.01,2.46.78,5.31-.04.06.06-.66-.56-.1-.11.1-.05,2.01-2,1.43,4.08-1.39-.96-.99-2.34-.71-.18.04-.41.7-.89.82-2.39.59-2.34-.56-2.67-.61-3.87-.66-2.33,2.53-2.56,5-.03.34-1,.85,0,1.43-.28.6-.99-.23-1.11,0-.22.41-.26,3.2.56,3.57l.33-1.94v5.1l-1.11-.61-.33,9.7c.65-1.48.25-3.23.33-4.8.02-.44,0-.69,0-.82.06-1.09.37-2.16.22-3.27.59.78-.28,1.58.89,2.04-.28,2.69-.4,5.43-.45,8.19.26-.01.52-.02.77-.03.09-7.49.12-14.98.35-22.45.26-.6,12.27,1.35,12.68-3.06.17-1.77-5.46-8.52-6.9-10.21-2.87-3.37-6.34-6.34-9.23-9.7-.31-.02-.58.22-.56.51.03.28,3.48,3.6,4,4.18,2.51,1.24,6.3,6.79,8.01,8.98Z"/><path class="uuid-722f0914-6c05-4c3e-9da0-241d658d68b8" d="M65.9,105.44c.69.83.27,2.5.22,3.47-.65-.91-.3-2.45-.22-3.47Z"/><path class="uuid-722f0914-6c05-4c3e-9da0-241d658d68b8" d="M66.9,70.54s-.59-.19-.33-.41c.46-.1.31.4.33.41Z"/><path class="uuid-722f0914-6c05-4c3e-9da0-241d658d68b8" d="M73.69,88.09c.32-.05.92-.04,1.22.1l-1.89.31c-.1-.16.63-.4.67-.41Z"/><path class="uuid-722f0914-6c05-4c3e-9da0-241d658d68b8" d="M76.47,80.74c-.2-.27-.72-.73-1.11-1.22.74-.05.87.87,1.11,1.22Z"/><path class="uuid-722f0914-6c05-4c3e-9da0-241d658d68b8" d="M77.14,81.56s-.45-.5-.67-.82c.16.22.39.43.67.82Z"/><path class="uuid-722f0914-6c05-4c3e-9da0-241d658d68b8" d="M39.09,82.58c-.12.03-.61.35-.67.41.32-.47.35-.45.67-.82-.04.11.04.3,0,.41Z"/><path class="uuid-722f0914-6c05-4c3e-9da0-241d658d68b8" d="M37.75,87.07c.15-.13.7.57.33.61-.11.01-.47-.49-.33-.61Z"/><path class="uuid-722f0914-6c05-4c3e-9da0-241d658d68b8" d="M37.98,83.6c.22-.41.1-.26.44-.61-.14.21-.39.53-.44.61Z"/><path class="uuid-722f0914-6c05-4c3e-9da0-241d658d68b8" d="M38.87,83.4c.08-.25.14-.57.22-.82l.44.1c-.03.26-.59.61-.67.71Z"/><path class="uuid-722f0914-6c05-4c3e-9da0-241d658d68b8" d="M75.58,80.95c-.22-.68.63-.22.67.31-.1.13-.66-.27-.67-.31Z"/><path class="uuid-722f0914-6c05-4c3e-9da0-241d658d68b8" d="M76.91,82.17s-.75-.26-.33-.61c.35.12.3.6.33.61Z"/><path class="uuid-722f0914-6c05-4c3e-9da0-241d658d68b8" d="M33.78,82.47c0-.07,0-.14-.02-.22-2.43-.1-4.59-.21-6.36-.32-9.45-.59-17.76-4.25-22.58-11.94-11.06-17.65-.34-43.09,21.47-47.87,1.13-.76-3.78.54-4,.61-29.36,9.98-31.85,57.45,6.01,59.6,1.79.1,3.63.18,5.51.25,0-.04-.02-.08-.02-.12Z"/><path class="uuid-722f0914-6c05-4c3e-9da0-241d658d68b8" d="M90.93,32.84c-.12-11.05-5.71-27.45-18.36-31.33C69.31.51,64,0,60.56.08c-15.06.33-27.52,8.29-33.26,20.92l.89-.61C34.65,5.34,53.59-2.49,70.57,1.31c14.03,3.14,19.89,19.97,19.91,31.74,23.82,6,23.4,41.29-.33,47.46-.8.21-1.71.4-2.71.57,0,0,0,0,0,0,.08.1.15.2.21.32,5.72-1.1,10.93-3.35,15.06-8.14,10.64-12.36,6.5-36.32-11.79-40.42Z"/><path class="uuid-722f0914-6c05-4c3e-9da0-241d658d68b8" d="M40.54,52.34c.47.35-1.46,1.2-1.56,1.22-.42.11-.65.39-1-.1l2.56-1.12Z"/><path class="uuid-722f0914-6c05-4c3e-9da0-241d658d68b8" d="M42.54,50.5c.37.48-1.58,2.03-1.89,1.33l1.89-1.33Z"/><path class="uuid-722f0914-6c05-4c3e-9da0-241d658d68b8" d="M10.39,69.38c.17.17.27.23.35.23-1.01-1.06-1.86-2.23-2.57-3.5.59,1.23,1.33,2.34,2.22,3.27Z"/><path class="uuid-722f0914-6c05-4c3e-9da0-241d658d68b8" d="M19.51,61.63c-1.2-8.11,2.08-20.41,10.12-25.01,1.47-.84,8.12-2.43,9.34-1.63.19.12.02,3.21,1.56,3.88,3.77,1.65,4.29-5.23.33-4.8,1.92.36,3.35,2.84,1.78,4.29-1.66,1.54-3.51-1.09-3.11-2.65.48-1.89.83,1.72,1.11,2.04.94,1.07,2.39-.03,1.56-1.43-.34-.58-1.51-.73-1.56-.82-.1-.18-.03-3.53,0-4.08,1.12-23.28,32.5-25.59,34.04-2.25.1,1.45-.63,7.99-.44,8.37.51,1.05,2.58-.15,3.11-.82,5-6.15-.1-17.91-6.12-22.35-11.89-8.77-26.88-2.99-31.93,9.29l4.89-6.74c11.66-12.18,29.3-5.55,31.37,10,.45,3.41-.39,6.72.11,10.1,1.39-9.46-.33-22.47-12.01-25.52,9.84,1.76,16.3,11.69,15.02,20.72-.1.68-2.89,7.56-4,5.1-.15-.34.5-6.12.45-7.35-.36-8.69-4.35-17.56-15.02-18.47-13.05-1.12-20.61,9.54-21.03,20.31-17.32-1.91-27.91,20.6-23.14,33.48.32.86,2.62,4.48,3.45,4.8,1.2.46,1.66-.22,1.78-.2.44.06,2.12,1.69,3.56,1.84,7.4.78,10.11-5.34,9.46-11.12-.3,4.84-1.57,11.26-8.45,10.51-2.92.69-5.06-2.4-6.79-4.08l1.89,2.55c-.29,1.84-3.58-2.49-3.78-2.86-3.22-5.83-1.53-15.19,1.11-21.02,3.41-7.54,12.2-15.51,21.8-13.27-1.1-2.92.67-8.12,2.22-11.02,6.53-12.17,24.98-13.31,30.81-.31-5.48-10.68-20.47-11.57-28.14-2.35-3.71,4.45-4.65,10.23-4.67,15.72-.77.79-.59-.61-.78-.71-1.32-.71-6.43.09-8.01.61-11.41,3.75-18.17,24.66-11.01,33.37,1.13,1.38,3.44,3.16,5.34,3.37-11.84-4.71-8.42-22.49-2.22-30.11,3.6-4.43,9.61-8.67,15.8-6.53-6.98-.47-12.02,2.38-15.8,7.55-4.4,6.03-8.19,25.04,1.67,27.86,5.7,1.63,7.18-4.01,8.28-9.13-.3,1.31-.74,2.86-1.49,4.74-3.4,8.47-11.47,2.79-12.46-3.88Z"/><path class="uuid-722f0914-6c05-4c3e-9da0-241d658d68b8" d="M77.69,39.07c-4.87,3.24.93,6.43,3.67,2.76.5-.67,1.23-3.41,1.67-3.57.49-.18,4.61.23,5.34.41,13.26,3.17,10.37,28.35-2.45,28.99-4.92.24-2.91-4.5-3.23-7.65-2.09-21.06-23.22-20.32-39.27-11.74-9.7,5.19-8.77,6.62-9.82,11.8.49-2.28.93-4.38,1.69-5.58,2.46-3.84,16.39-10.04,21.25-10.92,13.69-2.47,24.39,2.18,25.7,15.62.23,2.34-1.07,7.87,1.67,8.68,3.73,1.1,8.35-2.32,10.35-5,6.75-9.05,3.21-26.68-11.68-24.8-1.02,2.91-2.67,7.12-6.56,3.98.7-1.06,1.06,1.17,3.23.31,2.44-.97,3.16-6.38,3.26-10.76-.06,1.27-.21,2.58-.48,3.92-.74,3.69-1.85,1.92-4.34,3.57Z"/><path class="uuid-722f0914-6c05-4c3e-9da0-241d658d68b8" d="M34.61,74.94c-5.71-.32-11.34-.66-16.77-.96-2.9-1-4.83-2.68-6.9-4.69-.05-.05-.02.33-.21.33,3.03,3.2,7.47,5.37,13.56,5.8,3.17.22,6.56.36,10.05.45.09-.31.17-.61.27-.91Z"/><path class="uuid-722f0914-6c05-4c3e-9da0-241d658d68b8" d="M91.27,34.58l4.56,3.57c8.53,8.6,9.12,22.22.22,30.72.74-.21.24.57-.33.61-.14-.09.3-.6.33-.61-2.64,2.52-4.5,3.26-8.01,4.49.09-.05.64-.03.67.1-.41.44-1.06.1-.67-.1-2.12.74-3.79,1.24-5.5,1.58.08.11.15.21.23.32,3.2-.54,6.24-1.38,8.94-2.71,15.48-7.65,14.46-30.35-.45-37.97Z"/><path class="uuid-722f0914-6c05-4c3e-9da0-241d658d68b8" d="M13.51,34.07c5.07-5.42,8.46-7.07,15.91-6.43,4.68.4,5.22-4.79,7.01-7.65,13.58-21.79,45.1-12.59,46.1,9.38-.02-1.14-.08-2.11-.15-2.75,1.31,3.32,1.19,6.89.33,10.31,13.08-.27,18.13,12.42,14.46,22.45-1.76,4.81-9.13,11.61-15.13,8.37.42-11.09-1.2-22.71-15.69-23.98-8.42-.74-22.82,3.75-28.92,9.19-.75.67-1.45,1.54,0,1.84,2.5.52,7.67-4.49,9.68-5.82-2.69.68-5.89,4.87-8.34,5.41-5.53,1.22,4.64-4.74,5.34-5.1,8.52-4.37,21.34-7.81,30.26-2.65,7.92,4.58,7.08,14.01,7.23,21.53,8.35,3.37,16.11-5.54,16.91-12.45,1.15-9.94-3.69-18.65-15.35-19.19,2.08-7.45-2.7-19.29-9.01-24.19-6.48-5.03-14.27-5.92-22.47-4.69l.22.41c-1.67.12-3.48.83-5.12,1.63-2.38,1.16-6.43,4.1-8.12,6.02-2.2,2.5-4.76,9.78-7.12,10.92.23-.16,1.02-.51,1.33-.71-.37.83-1.28,1.37-2.22,1.43.13-.23.63-.53.89-.71-1.27.61-5.63-.15-8.12.41-14.14,3.17-22.6,25.91-15.23,39.08-4.36-9.04-1.13-25.14,5.33-32.04Z"/><path class="uuid-722f0914-6c05-4c3e-9da0-241d658d68b8" d="M25.74,71.12c-2.92.69-5.06-2.4-6.79-4.08l1.89,2.55c-.29,1.84-3.58-2.49-3.78-2.86-3.22-5.83-1.53-15.19,1.11-21.02,3.41-7.54,12.2-15.51,21.8-13.27-1.1-2.92.67-8.12,2.22-11.02,6.53-12.17,24.98-13.31,30.81-.31-5.48-10.68-20.47-11.57-28.14-2.35-3.71,4.45-4.65,10.23-4.67,15.72-.77.79-.59-.61-.78-.71-1.32-.71-6.43.09-8.01.61-11.41,3.75-18.17,24.66-11.01,33.37,1.13,1.38,3.44,3.16,5.34,3.37Z"/><path class="uuid-722f0914-6c05-4c3e-9da0-241d658d68b8" d="M80.59,38.25c1.83,0-1.09,3.73-1.78,3.88-.86.19-2.48-.46-2.34-1.33.11-.66,3.34-2.55,4.12-2.55Z"/><path class="uuid-722f0914-6c05-4c3e-9da0-241d658d68b8" d="M40.76,36.01c.57-.43,2.17,1.68.89,1.84-.54.07-1.42-1.43-.89-1.84Z"/><path class="uuid-722f0914-6c05-4c3e-9da0-241d658d68b8" d="M31.53,26.62c.23-.16,1.02-.51,1.33-.71-.37.83-1.28,1.37-2.22,1.43.13-.23.63-.53.89-.71Z"/><path class="uuid-722f0914-6c05-4c3e-9da0-241d658d68b8" d="M96.05,68.87c.74-.21.24.57-.33.61-.14-.09.3-.6.33-.61Z"/><path class="uuid-722f0914-6c05-4c3e-9da0-241d658d68b8" d="M88.04,73.36c.09-.05.64-.03.67.1-.41.44-1.06.1-.67-.1Z"/><path class="uuid-722f0914-6c05-4c3e-9da0-241d658d68b8" d="M43.44,60.8c.08-.23.18-.45.25-.69.28-.97.94-1.54,1.72-1.79,2.19-2.21,5.08-3.58,9.1-3.66.12,0,.22.02.33.02.05,0,.09-.02.14-.02,6.69-.55,15.61-.62,19.82,5.13,1.39,1.9,2.15,4.13,2.94,6.35.28-1.56.32-3.56.05-6.16-.85-8.27-7.83-13.62-16.8-13.57-10.29.05-16.13,5.31-23.47,10.92l3.34-1.63c-2.76,2.27-6.14,10.84-3.56,13.64,1.36-1.97,3.12-3.65,4.5-5.55.49-1.06,1.03-2.07,1.63-2.99Z"/><path class="uuid-722f0914-6c05-4c3e-9da0-241d658d68b8" d="M43.45,60.8c.08-.23.18-.44.25-.68.28-.97.94-1.54,1.72-1.79,2.19-2.21,5.08-3.58,9.1-3.66.12,0,.22.02.33.02.05,0,.09-.02.14-.02,6.69-.55,15.61-.62,19.82,5.13,1.24,1.69,1.98,3.64,2.68,5.61,1.88-10.67-5.79-19.15-17.82-18.59-8.23.39-17.44,5.43-21.03,12.35-1.05,2.02-2.79,7.58-1.07,9.8,1.32-1.81,2.95-3.4,4.24-5.18.49-1.07,1.03-2.07,1.63-3Z"/><path class="uuid-722f0914-6c05-4c3e-9da0-241d658d68b8" d="M43.45,60.79c.08-.22.18-.44.24-.67.28-.97.94-1.54,1.72-1.79,2.19-2.21,5.08-3.58,9.1-3.66.12,0,.22.02.33.02.05,0,.09-.02.14-.02,6.69-.55,15.61-.62,19.82,5.13.95,1.3,1.61,2.76,2.18,4.26,1.09-9.79-5.97-17.4-17.32-16.62-8.48.58-19.46,6.71-21.69,14.59-.39,1.37-1.07,4.87-.11,6.54,1.27-1.66,2.75-3.14,3.96-4.8.49-1.06,1.03-2.06,1.63-2.98Z"/><path class="uuid-722f0914-6c05-4c3e-9da0-241d658d68b8" d="M41.83,63.77c.49-1.06,1.03-2.06,1.63-2.98.08-.22.17-.44.24-.67.28-.97.94-1.54,1.72-1.79,2.19-2.21,5.08-3.58,9.1-3.66.12,0,.22.02.33.02.05,0,.09-.02.14-.02,6.69-.55,15.61-.62,19.82,5.13.76,1.03,1.31,2.17,1.8,3.33.43-9.59-6.06-16.11-17.17-15.29-9.57.71-23.11,9.15-21.69,19.09.07.5.23.9.44,1.23,1.19-1.49,2.53-2.87,3.63-4.39Z"/></g><path d="M51.28,109.59c-.07-2.22-.06-4.44.04-6.66.05-1.09.12-2.18.21-3.26.05-.55.1-1.11.16-1.66.01-.12.03-.25.04-.37.01-.1,0-.34.05-.43.06-.1.05-.02.1.1.07.14.14.29.2.43.53,1.14.99,2.3,1.39,3.49,0,.03.05.02.05,0l-.05-6.85v-.87c0-.12,0-.25,0-.37-.02-.27,0-.05.04.04.15.51.29,1.03.42,1.55.27,1.08.48,2.18.65,3.28,0,.03.05.02.05,0-.05-1.97-.1-3.94-.15-5.91,0-.03-.05-.03-.05,0,0,4.34,0,8.69,0,13.03,0,.03.05.03.05,0l.02-1.8s-.04-.03-.05,0l-.65,3.36-.15.79s-.05.28-.02.25c.05-.05.02-.41.02-.49.02-.55.06-1.09.1-1.64.09-1.15.21-2.29.38-3.43.01-.09.12-.72.09-.72-.04,0-.12.72-.13.8l-.21,1.66-.49,3.82s.04.03.05,0l1.32-4.33c.02-.08.04-.16.07-.23.05-.11,0-.14.09-.07.1.09.15.38.2.49.13.33.25.66.36,1,.24.71.46,1.42.64,2.15,0,.02.04.02.05,0,.75-3.91,1.21-7.86,1.38-11.84,0-.03-.05-.03-.05,0-.21,3-.3,6-.26,9,0,.03.05.03.05,0,.22-2.42.44-4.84.65-7.26l.16-1.79c0-.08.07-.8.05-.8-.03,0,0,.78,0,.87.03,1.22.05,2.44.06,3.67.02,2.42,0,4.85-.05,7.27-.03,1.22-.1,2.44-.11,3.67,0,.19,0-.12-.01-.19-.02-.14-.04-.28-.06-.43-.05-.3-.09-.61-.14-.91-.09-.61-.19-1.22-.29-1.82-.44-2.67-.93-5.34-1.47-7.99,0-.03-.05-.02-.05,0-.29,2.43-.52,4.92.11,7.32,0,.02.04.03.05,0,.4-2.65.92-5.29,1.57-7.89.16-.65.33-1.29.51-1.93.09-.31.17-.62.26-.93.04-.15.08-.31.13-.47.08-.24.07.07.08.19.21,1.39.36,2.78.48,4.18.21,2.68.25,5.37.12,8.06-.03.67-.08,1.34-.13,2.01-.01.16-.03.32-.04.49-.02.23.02.24,0,0-.02-.34-.04-.68-.05-1.02-.04-1.32,0-2.64.11-3.95.13-1.53.38-3.05.72-4.55.07-.28.08-.15.17.04s.17.4.25.6c.14.35.28.7.41,1.06.26.71.5,1.43.72,2.15,0,.02.04.03.05,0,.51-2.72,1.02-5.44,1.53-8.16.06-.32.15-.65.18-.97.03-.26.01.02.02.12.01.19.02.37.03.56.03.68.05,1.37.05,2.05s0,1.37-.03,2.05c0,.17-.01.33-.02.5-.01.24.04.24.04,0v-1.05c0-1.57.02-3.14.02-4.71,0-.03-.05-.03-.05,0l-.31,4.09-.16,2.11c-.01.16-.04.33-.04.5.01.27,0-.01,0-.12-.04-.33-.07-.66-.11-.99-.31-2.69-.66-5.38-1.06-8.05-.23-1.53-.48-3.06-.74-4.59,0-.03-.05-.02-.05,0-.29,4.42-.49,8.84-.58,13.26-.02,1.12-.04,2.23-.05,3.35,0,.14,0,.29,0,.43,0,.05.02.3.02.12,0-.28-.09-.58-.14-.86l-.27-1.65-1.05-6.56-1.19-7.41s-.04-.02-.05,0l-1,7.14-.06.43c0,.06-.01.34-.05.37.06-.05-.18-.76-.2-.84l-.41-1.74-.84-3.54s-.04-.02-.05,0c-.23.83-.46,1.66-.69,2.49l-.33,1.19c-.02.09-.03.23-.08.3-.06.08-.02.05-.05-.06-.06-.21-.1-.44-.14-.65-.35-1.68-.59-3.38-.74-5.09,0-.03-.05-.03-.05,0-.08.76-.14,1.52-.17,2.28-.01.39-.02.78-.02,1.17,0,.19,0,.37,0,.56s-.03.44.02.62c.02.09.02.08.03,0,0-.1-.03-.21-.05-.31l-.09-.55-.18-1.17-.37-2.33s-.05-.02-.05,0c-.12,1.2-.05,2.4.21,3.58,0,.03.05.02.05,0-.05-1.86-.1-3.72-.15-5.58l-.04-1.37c0-.35.03-.77-.13-1.1-.23-.49-.79-.56-1.27-.56-.92,0-1.84.08-2.76.2-.38.05-.77.11-1.15.18-.06.01-.21-.02-.17.08,0,0,.32-.07.35-.07.23-.05.46-.09.7-.12.93-.14,1.87-.2,2.81-.17.18,0,.41-.02.59.03.16.04.15-.03,0,.05-.08.05-.19.07-.28.1-.43.15-.86.3-1.29.43-1.92.62-3.88,1.12-5.86,1.52-.03,0-.02.05,0,.05,1.35.06,2.69-.11,3.98-.48.02,0,.02-.04,0-.05-1.33-.36-2.72-.42-4.07-.18-.03,0-.02.05,0,.05l1.3-.16.65-.08c.08-.01.28-.09.08,0-.13.06-.28.11-.43.15-.82.26-1.7.37-2.56.32-.1,0-.21.03-.23-.08,0-.03.19-.19.22-.22l.48-.49c.33-.34.67-.68,1-1.03.65-.67,1.31-1.34,1.96-2.01,1.31-1.34,2.61-2.68,3.92-4.02l.17-.18s.2-.26.26-.27c-.1.02-.24.26-.32.38l-.89,1.19-.82,1.09-.37.49c-.07.09-.17.19-.22.3-.1.2-.05.1.03.02.19-.19.33-.49.49-.72l.42-.61.84-1.23,1.81-2.66s-.02-.05-.04-.03l-4.11,4.18-.96.98s-.25.2-.26.27c-.01.08.15-.21.13-.19.13-.22.26-.44.4-.67.48-.8.97-1.6,1.48-2.38s1-1.54,1.51-2.29c.25-.36.49-.72.74-1.08.05-.07.37-.48.31-.52,0,0-.36.57-.39.62-.97,1.49-2.06,2.91-3.26,4.22-.18.19-.36.39-.54.58-.04.04-.23.19-.23.24,0,.03.13-.22.13-.22l.73-1.42,1.51-2.94s-.02-.05-.04-.03c-1.92,2.74-4.03,5.34-6.32,7.78-.29.31-.58.61-.88.92-.15.15-.2.26-.07,0,.09-.19.19-.37.29-.56.35-.64.75-1.27,1.18-1.86.48-.65,1-1.26,1.56-1.83.25-.25.5-.49.76-.72.22-.2.13-.12.03.07-.11.2-.22.41-.32.62-.84,1.66-1.54,3.39-2.08,5.16,0,.01,0,.03.02.03,2.85-.34,5.64-1.09,8.27-2.22.66-.28,1.3-.59,1.94-.92.14-.07.35-.24.5-.26.11-.02.11-.17.19.08.02.05,0,.15,0,.21-.03.39-.19.76-.24,1.15-.05.41.09.9.47,1.12s.69-.05.83-.4c.27-.68.34-1.5.38-2.23.04-.82-.02-1.64-.18-2.45,0-.03-.04-.02-.05,0-.31.83-.61,1.65-.92,2.48l-.45,1.21-.24.63c-.14.37-.08-.05-.09-.2-.13-1.78-.26-3.56-.38-5.34,0-.03-.04-.03-.05,0-.32.97-.64,1.94-.96,2.92l-.46,1.4s-.13.33-.12.35c-.02-.02-.02-.19-.03-.24-.03-.26-.05-.53-.07-.79-.15-2.05-.07-4.11.23-6.13,0-.03-.03-.05-.05-.02-.37.76-.8,1.49-1.29,2.17-.25.36-.52.7-.81,1.03-.04.05-.4.51-.44.49-.02,0,.14-.5.15-.54.49-1.67,1.12-3.3,1.88-4.86.37-.76.77-1.5,1.2-2.23.06-.1.3-.41.27-.49.03.08-.16.44-.19.51-.18.44-.39.86-.63,1.26-.09.16-.19.31-.3.46-.03.05-.17.16-.09.19,0,0,.17-.27.18-.3.24-.39.49-.78.75-1.17.48-.73.97-1.44,1.49-2.14.6-.82,1.23-1.63,1.88-2.41.14-.17.34-.34.45-.53-.1.17-.26.42-.38.63l-.76,1.39s.03.05.04.03c.45-.67.93-1.32,1.43-1.95.22-.27.43-.54.66-.8s.51-.55.66-.8c-.82,1.3-1.64,2.59-2.52,3.84-.44.63-.89,1.25-1.35,1.86-.25.33-.5.65-.75.98-.06.08-.21.35-.3.38,0,0,.07-.38.1-.46.18-.66.52-1.28.97-1.8.18-.21.47-.58.74-.68.08-.03.04-.08.11,0,.02.02-.03.26-.03.31-.02.22-.05.45-.07.67-.2,1.83-.47,3.65-.8,5.46,0,.03.03.05.05.02.63-1.2,1.25-2.39,1.88-3.59l.43-.83c.05-.09.41-.89.47-.88.09.02.1,1.79.1,1.97.08,2.65-.01,5.31-.28,7.95-.01.11-.1,1.04-.1,1.04.05,0,.03-.94.03-1.05l.03-2.29s-.05-.03-.05,0c-.19,3.32-.17,6.64.05,9.96,0,.03.04.04.05,0,.32-2.01.1-4.06-.65-5.95,0-.02-.04-.03-.05,0-.45,2.01-.77,4.04-.95,6.09-.05.52-.09,1.04-.12,1.57,0,.07,0,.37.04.18.03-.11,0-.25.01-.37,0-.26,0-.53,0-.79,0-1.08-.06-2.15-.16-3.22-.11-1.15-.29-2.3-.52-3.44,0-.02-.04-.02-.05,0-.61,2.62-.68,5.35-.21,8,0,.03.05.02.05,0-.01-1.17-.2-2.39-.64-3.48-.08-.2-.27-.55-.55-.45-.17.07-.27.3-.11.42.01,0,.03.01.04,0,.35-.66-.14-1.43-.79-1.68-.99-.38-2.03.35-2.78.91-.12.09-1.47,1.01-1.51.9-.03-.08.44-.57.51-.65.22-.27.44-.55.66-.82.85-1.06,1.7-2.13,2.56-3.19s1.68-2.1,2.52-3.14c.41-.51.81-1.14,1.52-1.21.5-.05.99.06,1.49-.04.87-.18,1.63-.74,2.12-1.47.24-.36.42-.77.5-1.2.04-.19.08-.42.05-.61-.03-.22.01.13.03.19.04.18.09.36.13.53.71,2.9,1.51,5.78,2.37,8.64,0,.03.05.02.05,0,.25-2.05-.07-4.12-.93-6-.01-.02-.05,0-.05.01-.19,2.87-.26,5.75-.19,8.62.02.72.04,1.45.07,2.17.01.33.03.66.05.99,0,.03.01.43.07.38s-.06-.5-.07-.58c-.18-1.31-.44-2.62-.77-3.9-.38-1.47-.87-2.91-1.45-4.31,0-.02-.04-.02-.05,0-.7,1.7-.76,3.6-.17,5.34,0,.02.04.03.05,0,.39-2.76.32-5.56-.18-8.3,0-.03-.05-.02-.05,0-.26,2.35-.42,4.71-.5,7.07-.02.6-.03,1.19-.04,1.79,0,.14,0,.29,0,.43,0,.04-.01.36.04.31.04-.03,0-.39-.01-.43,0-.16,0-.33-.01-.49-.02-1.17-.03-2.34-.01-3.52s.05-2.39.09-3.58c.01-.29.03-.58.04-.86,0-.12.01-.25.02-.37,0-.06.07-.46.03-.49-.05-.04-.04.27-.03.31,0,.15,0,.29,0,.44,0,.31,0,.62.01.93.02,2.39-.01,4.78-.1,7.16-.01.33-.03.66-.04,1,0,.03-.04.43.03.38.04-.04.02-.42.02-.49l.08-2.03.16-3.99s-.04-.03-.05,0c-.76,3.76-1.19,7.59-1.27,11.43,0,.03.05.03.05,0,.28-2.76.57-5.51,1.01-8.25.11-.66.22-1.32.35-1.97.06-.34.12-.68.2-1.01.02-.08,0-.09,0,0,.01.08.01.16.02.24.02.18.03.35.05.53.14,1.3.34,2.59.61,3.86.31,1.47.72,2.91,1.2,4.33,0,.02.04.02.05,0,.77-2.48,1.1-5.08.95-7.68,0-.03-.05-.03-.05,0-.23,2.89-.18,5.8.16,8.69,0,.03.04.04.05,0,.33-2.21.55-4.43.66-6.66.01-.26.06-.54.04-.8-.03-.31-.01.03,0,.11.01.12.03.24.04.36.06.52.14,1.04.23,1.56.19,1.11.43,2.21.72,3.29,0,.02.04.03.05,0,.28-1.87.35-3.78.19-5.67,0-.06.02-.26-.07-.24,0,0,.06.32.06.33.04.22.09.44.14.66.11.44.23.87.38,1.3.28.82.64,1.61,1.06,2.37,0,.02.04.02.05,0,.46-2.38.15-4.8-.44-7.13-.31-1.22-.7-2.42-1.11-3.61-.03-.09-.16-.62-.23-.63.05,0,.21.26.25.3.1.11.2.22.3.32.34.33.71.63,1.1.89.94.6,2.01.97,3.12,1.06.01,0,.03-.01.02-.02-.11-.95-.92-1.69-1.87-1.73-.02,0-.03.03-.02.04.69.72,1.43,1.39,2.21,2.01.35.28.71.54,1.07.8.18.13.37.25.55.37.12.08.26.15.37.24.1.08.14.06-.05.08-1.06.09-2.14.1-3.2.2s-2.13.24-3.19.42c-.02,0-.02.04,0,.05,1.2.62,2.49,1.06,3.82,1.28.13.02.27.05.4.06-.11,0-.29-.01-.43,0-.36.02-.73.05-1.09.07-.75.05-1.49.09-2.24.14-.03,0-.04.04,0,.05,1.5.33,2.99.67,4.49,1,.15.03.42.04.55.12.09.05.08-.02.01.04-.06.05-.21.05-.29.07-.38.09-.76.15-1.15.2-.74.09-1.49.09-2.23.03-.03,0-.03.05,0,.05,1.7.22,3.4.43,5.09.65.03,0,.03-.05,0-.05-1.09-.16-2.19-.25-3.3-.29-.57-.02-1.14-.02-1.71,0-.27,0-.53.02-.79.03-.13,0-.3-.01-.43.03-.24.07-.07.05.06.04l6.85-.52s.04-.04,0-.05l-1.7-.26-.85-.13c-.1-.02-.32-.08-.37-.02.03-.04.37.02.43.02,1.17.05,2.34.1,3.51.15.02,0,.03-.02.02-.04-.93-1.96-2.34-3.67-4.09-4.95-.02-.02-.05.02-.03.04,1.27,1.35,2.81,2.4,4.52,3.11.02,0,.04-.02.03-.04-.66-1.03-1.53-1.9-2.57-2.55-.02-.01-.05.01-.03.03,1.03,1.56,2.41,2.86,4.04,3.77.02,0,.04,0,.04-.02,0-.81-.37-1.55-1.03-2.02-.02-.02-.05.02-.03.04.51.42,1.02.85,1.53,1.27.02.02.06-.01.04-.04-3.02-2.98-6.18-5.82-9.46-8.51-.94-.77-1.9-1.53-2.86-2.28-.02-.02-.06,0-.04.03,1.21,1.64,2.57,3.16,4.06,4.54.02.02.06-.01.04-.04-2.75-3.46-6.03-6.48-9.7-8.93-.02-.01-.05.01-.03.03,1.99,3.44,4.52,6.56,7.47,9.22.02.02.05,0,.04-.02-.49-1.84-1.56-3.48-3.06-4.65-.02-.02-.05,0-.04.03,1.27,2.75,3.09,5.23,5.32,7.28.02.02.05,0,.04-.02-.76-2.85-2.67-5.33-5.25-6.78-.02-.01-.04,0-.04.02-.26,2.56.49,5.16,2.08,7.18.02.02.05,0,.04-.02-1.05-4.51-2.92-8.8-5.5-12.63-.02-.03-.06,0-.04.03,1.46,2.65,2.94,5.33,4.93,7.64.23.27.48.54.72.8.12.13.25.26.38.39.06.06.16.21.25.23.14.04.37-.16.45-.25.16-.17.25-.4.3-.62.16-.63.08-1.33.04-1.97-.05-.75-.15-1.5-.29-2.25-.33-1.74-.91-3.44-1.7-5.02-.01-.03-.05,0-.05.02.67,2.71,1.94,5.24,3.69,7.4.02.02.05,0,.04-.03-.92-2.1-2.29-3.99-4-5.52-.02-.02-.05,0-.04.03.48,1.07,1.28,1.95,2.29,2.54.02.01.05-.01.03-.03-1.71-2.34-3.68-4.47-5.88-6.36-.02-.02-.05,0-.04.03.6,1.15,1.4,2.19,2.36,3.06.02.02.05,0,.04-.03-.74-1.69-1.99-3.11-3.57-4.06-.02-.01-.04,0-.04.02-.06,1.35.43,2.66,1.36,3.64.02.02.05,0,.04-.02-.35-1.43-1.23-2.69-2.46-3.49-.01,0-.03,0-.03,0-.61,1.38-.65,2.93-.11,4.34,0,.02.04.03.05,0,.39-.76.86-1.74.31-2.55-.19-.28-.48-.52-.83-.55s-.66.17-.92.4c-.88.77-1.69,1.63-2.5,2.48-.41.43-.82.86-1.22,1.3-.04.05-.21.29-.1.15.08-.11.15-.23.22-.34.16-.26.33-.53.48-.79.67-1.13,1.27-2.3,1.81-3.5,0-.02-.01-.05-.03-.03-3.56,2.56-6.73,5.65-9.37,9.15-.01.02.01.05.03.03.93-.7,1.85-1.4,2.78-2.1l.7-.53.3-.23c.06-.05.31-.3.12-.06-.34.44-.64.91-.96,1.36-1.31,1.87-2.63,3.74-3.94,5.6-.02.02.02.05.04.03,1.36-1.47,2.8-2.87,4.33-4.17.8-.69,1.63-1.35,2.47-1.99.39-.3.79-.59,1.19-.87.03-.02.28-.19.28-.2.01.03-.11.22-.13.25-.13.23-.25.47-.38.7-.98,1.76-2.06,3.45-3.23,5.08-.62.86-1.27,1.7-1.94,2.52-.14.18-.29.35-.44.52-.1.12-.13.2,0,.04.09-.11.16-.24.24-.36l.92-1.4c1.36-2.07,2.72-4.14,4.08-6.21.02-.03-.02-.05-.04-.03-1.22,1.69-2.45,3.38-3.67,5.08l-1.82,2.51-.91,1.26-.44.6c-.07.1-.16.2-.22.3-.11.19-.02.1.06-.02,1.12-1.65,2.29-3.28,3.5-4.87.62-.82,1.26-1.63,1.9-2.43.15-.18.3-.37.45-.55.02-.02.19-.21.12-.2-.06,0-.21.3-.25.36l-.88,1.28-4.03,5.83s.02.05.04.03c1.45-1.91,2.89-3.82,4.34-5.72.02-.02-.02-.05-.04-.03-1.87,1.88-3.63,3.86-5.28,5.94-.8,1.01-1.57,2.04-2.32,3.1-.39.56-.78,1.12-1.16,1.69-.17.25-.33.51-.5.76,0-.01-.13.19-.12.19.07.08.1-.07.13-.12.09-.14.18-.29.28-.43.85-1.3,1.82-2.52,2.88-3.65.02-.02-.01-.06-.04-.04-1.33,1.4-2.54,2.91-3.62,4.51-.01.02,0,.04.03.04l3.47-1.06.88-.27.35-.11c.08-.02.41-.13.11-.06-.26.07-.53.23-.77.34l-.88.39s-.01.04,0,.05c1.88.27,3.79.37,5.69.28.03,0,.03-.05,0-.05-2.79-.05-5.56.65-7.98,2.04-.02.01-.01.04.01.05,2.64.2,5.29-.28,7.69-1.39.03-.01,0-.04-.01-.05-3.25-.4-6.56.07-9.56,1.38-.02,0-.01.05.01.05,2.32-.3,4.63-.67,6.93-1.13.02,0,.02-.04,0-.05-1.51-.29-3.07-.3-4.58-.01-.7.13-1.52.28-2.14.64-.39.22-.54.62-.34,1.03s.67.67,1.14.61c.57-.08,1.03-.49,1.39-.91.89-1.04,1.54-2.38,1.77-3.73.09-.53.08-1.17-.32-1.58-.16-.16-.36-.27-.58-.32-.1-.02-.21-.03-.32,0-.04,0-.08.02-.12.03-.01,0-.03,0-.04.02-.09.03-.1.04-.02.03.58-.64,1.22-1.23,1.83-1.84s1.22-1.23,1.83-1.84c1.19-1.2,2.38-2.4,3.58-3.59,0,0,.25-.21.15-.21-.02,0-.13.14-.16.17-.13.14-.26.28-.4.42-.29.3-.59.6-.89.9-.57.57-1.16,1.12-1.77,1.65-.34.31-.69.61-1.05.9-.06.05-.13.09-.18.15-.18.19-.01.02.04-.05.15-.19.29-.37.44-.56.58-.72,1.17-1.44,1.77-2.14,1.21-1.41,2.46-2.77,3.75-4.1.02-.02-.01-.06-.04-.04l-4.77,4.07-2.36,2.01-1.23,1.05-.57.48-.28.24c-.08.07-.21.22-.07.05.29-.35.53-.76.8-1.13.29-.4.59-.8.9-1.19.58-.75,1.19-1.47,1.81-2.18,1.24-1.4,2.56-2.73,3.95-3.98.05-.04.21-.25.11-.1-.08.12-.16.24-.24.36l-.47.73-.95,1.45-1.97,3.01s.02.05.04.03l2.65-2.97s-.01-.06-.04-.04c-1.45,1.56-2.72,3.29-3.75,5.16-.48.85-.95,1.74-1.28,2.66-.25.68-.41,1.47-.24,2.19.16.67.66,1.13,1.35,1.2.53.05,1.08-.07,1.6-.15.61-.09,1.21-.19,1.81-.29,1.21-.21,2.41-.44,3.61-.69.28-.06.56-.12.84-.18.14-.03.28-.06.42-.09.08-.02.16-.04.24-.05,0,0,.25-.06.19-.09-.05-.02-.28.09-.33.1-.11.04-.22.07-.32.11-.2.07-.4.15-.6.23-1.97.84-3.68,2.24-4.9,4-.01.02,0,.04.02.04,3.12-.21,6.22-.68,9.26-1.42.03,0,.02-.05,0-.05-2.76.07-5.51.29-8.24.68-.03,0-.02.05,0,.05,2.32-.06,4.63-.13,6.95-.19.02,0,.03-.03.02-.04-.69-.76-1.91-.49-2.56.18-.94.96-.78,2.51-.68,3.73.07.81.14,1.66-.08,2.45-.08.3-.06.2-.07-.05l-.02-.62-.05-1.36-.1-2.65-.03-.68c0-.13-.07-.41-.04-.5-.04.12.13.45.17.57.06.23.13.46.19.69.48,1.89.81,3.82.97,5.76,0,.03.05.03.05,0,0-2.68.12-5.35.37-8.02.01-.15.06-.34.05-.49,0-.09-.01-.08-.02,0s0,.17.01.25c.02.35.03.7.05,1.05.03.66.05,1.32.08,1.98.05,1.36.09,2.72.13,4.08.04,1.53.07,3.05.09,4.58,0,.03.05.03.05,0,.19-3.03.59-6.04,1.21-9.01.15-.73.32-1.45.5-2.17.04-.17.1-.35.13-.53.01-.09,0-.08-.01,0-.01.1,0,.2-.01.3-.02.38-.04.77-.06,1.15-.09,1.5-.21,2.99-.37,4.48-.32,3.04-.79,6.06-1.4,9.06-.15.71-.3,1.43-.46,2.14-.02.07-.09.55-.06.25.02-.15,0-.31,0-.47,0-.39.01-.78.03-1.17.06-1.47.2-2.95.43-4.4s.51-2.83.89-4.22c.19-.7.39-1.39.61-2.07.1-.31.21-.63.32-.94.04-.11.45-1.05.41-1.09.03.02-.03.38-.03.44,0,.18-.01.37-.02.55-.02.39-.04.78-.06,1.17-.04.76-.09,1.52-.14,2.27-.1,1.51-.24,3.03-.39,4.54s-.35,3.1-.56,4.64c-.11.77-.22,1.54-.34,2.31-.05.34-.11.69-.17,1.03-.01.07-.06.15,0,.19,0,0,.01-.25.01-.24,0-.2.02-.39.03-.59.17-2.98.54-5.94,1.13-8.86.29-1.43.62-2.86,1.01-4.27.19-.71.4-1.41.62-2.1.11-.34.21-.68.33-1.02.05-.15.1-.3.15-.45.02-.07.05-.22.1-.28.08-.09.04.03.06.14.47,3.05.93,6.1,1.4,9.15l.34,2.21s.04.02.05,0c.63-3.27,1.25-6.54,1.88-9.82l.22-1.16.12-.61c.04-.2.03-.65.33-.51.25.11.32.54.35.78.07.47.13.93.19,1.4.22,1.65.42,3.31.59,4.97.19,1.84.35,3.69.49,5.54,0,.03.05.03.05,0,.11-3,.22-6,.33-9,0-.1.02-.21.01-.31,0,0,.02-.18-.03-.13-.04.05.05.43.06.49l.15,1.23.26,2.22.52,4.44.6,5.05s.05.03.05,0c.2-2.51.29-5.02.28-7.54,0-.03-.05-.03-.05,0,0,2.18-.02,4.36-.03,6.53v3.3c-.01.54-.02,1.08-.02,1.62,0,.05.03.22,0,.25.03-.03-.15-.36-.18-.42-.1-.25-.2-.5-.29-.75-.4-1.09-.69-2.21-.9-3.35,0-.02-.04-.02-.05,0-.25,1.7-.16,3.42.25,5.08,0,.03.05.02.05-.01-.24-1.69-.62-3.35-1.16-4.97-.26-.8-.7-1.63-.73-2.48s.28-1.79.46-2.65c.69-3.37,1.12-6.8,1.28-10.24.01-.24.02-.49.03-.73s.05-.5.02-.73c-.02-.16-.02-.17-.04,0-.01.11.01.25.02.36.01.24.03.48.05.72.09.96.25,1.91.47,2.85,0,.03.05.02.05,0,.25-2.05.32-4.11.2-6.17,0-.03-.05-.03-.05,0-.04.91-.08,1.97.5,2.73.37.49,1.07.75,1.67.6.65-.15.99-.83.72-1.44-.34-.78-1.24-1.19-2.03-1.32-1.17-.19-2.36,0-3.42.52-.03.01,0,.05.02.05,2.44-.58,4.81-1.45,7.05-2.57.03-.01,0-.06-.03-.04-1.99.93-3.99,1.86-5.98,2.8l-.73.34s-.29.16-.27.16c.05,0,.26-.18.3-.21l1.31-.92,2.72-1.92s0-.05-.02-.05l-8.18,1.65-2.07.42-.98.2-.49.1c-.19.04-.37.13-.06.02l3.94-1.34,4.47-1.52s.03-.03.01-.04c-1.26-1.22-3.01-1.83-4.75-1.65-.02,0-.04.04-.01.05,1.13.52,2.67.68,3.8.06.39-.22.79-.58.82-1.06.03-.52-.39-.87-.79-1.11-1.2-.73-2.61-1.16-4.01-1.3-1.2-.11-2.74-.12-3.75.63-.77.57-1.11,1.94-.16,2.53.01,0,.03,0,.04-.01.7-2.08.9-4.3.58-6.47,0-.02-.03-.02-.05,0-1.31,1.82-2.39,3.8-3.19,5.89-.01.03.03.04.05.02,1.2-2.36,2.41-4.72,3.61-7.08.01-.02-.01-.05-.03-.03-2.7,1.96-5.25,4.13-7.62,6.49-.3.3-.59.6-.89.9-.21.21-.15.22.01,0,.14-.19.28-.38.43-.57.55-.73,1.1-1.45,1.66-2.16,1.07-1.37,2.17-2.72,3.3-4.05,1.28-1.51,2.59-3,3.93-4.45.02-.02-.01-.06-.04-.04-1.92,1.65-3.77,3.38-5.54,5.2-.89.91-1.75,1.83-2.6,2.77-.41.46-.82.92-1.22,1.38-.19.22-.46.45-.6.7-.03.05-.11.07-.04.11,0,0,.15-.21.14-.2.1-.15.21-.29.31-.44,1.54-2.17,3.14-4.29,4.8-6.37.79-.99,1.57-2,2.42-2.93.38-.41.8-.8,1.3-1.04.14-.07.28-.12.43-.16.21-.06.18.04.14.22-.07.34-.14.68-.2,1.02-.54,2.93-.83,5.91-.88,8.89,0,.01,0,.02.02.02,1.22.28,1.94-1.42,2.42-2.23.84-1.42,1.68-2.84,2.52-4.25.21-.35.4-.73.63-1.06.15-.22.14-.06.22.13.07.16.13.32.2.48.24.58.48,1.15.74,1.71.53,1.14,1.13,2.26,1.88,3.27.81,1.1,1.79,2.05,2.98,2.72.01,0,.03,0,.03,0,.64-.87,1.14-1.84,1.48-2.87.17-.52.3-1.05.39-1.6.04-.23.06-.46.09-.69,0-.11-.01-.32.03-.42-.08.17.01-.05,0-.06.02,0,.11.24.13.27.86,1.83,1.78,3.67,3.05,5.25.71.87,1.52,1.64,2.47,2.25.02,0,.04,0,.04-.02-.07-1.1-1.11-1.98-2.21-1.87-.01,0-.03.01-.02.02.06,1.78.78,3.5,2.01,4.79.04.04.17.17.16.17-.01.02-.28-.08-.33-.1-.26-.07-.52-.13-.79-.18-.49-.1-.99-.16-1.5-.2-1.04-.07-2.09,0-3.11.21-.02,0-.02.04,0,.05,1.01.56,2.14.83,3.29.78.03,0,.03-.05,0-.05-1.32-.01-2.64-.03-3.96-.04-.62,0-1.24-.01-1.85-.02h-.49c-.08,0-.44,0-.12.01s.67-.08.99-.12l7.79-.98s.04-.04,0-.05c-1.87-.54-3.88-.35-5.61.54-.02,0-.02.04,0,.04.86.39,2.05.71,2.88.08.52-.4.76-1.23.45-1.83-.06-.12-.14-.22-.25-.3-.04-.03-.25-.14-.13-.05.14.1.41.14.57.19.65.22,1.3.45,1.95.66.36.12.85.25,1.13-.1.25-.32.16-.83.1-1.19-.18-1.21-.8-2.31-1.72-3.11-.02-.02-.06.01-.04.04.79.94,1.78,1.67,2.92,2.13.02,0,.04-.02.03-.04-.2-.43-.43-.84-.7-1.23-.11-.15-.22-.3-.33-.44-.04-.05-.15-.23-.21-.25.02,0,.2.17.25.2l2.6,1.78s.05-.02.03-.04c-2.94-3.08-6.04-6-9.27-8.77-.02-.02-.05,0-.04.03.41.71.99,1.3,1.71,1.7.02.01.05-.01.03-.03-2.33-3.34-4.96-6.47-7.85-9.34-.02-.02-.05,0-.04.03l.96,1.8c.03.06.23.33.21.39,0-.01-.26-.19-.3-.22-.25-.18-.51-.34-.77-.5-.99-.6-2.05-1.06-3.16-1.38-.01,0-.03,0-.03.02.13,2.01,1.07,3.9,2.59,5.21.02.02.05,0,.04-.03-1.25-2.04-2.99-3.74-5.05-4.96-.02-.01-.04.01-.03.03.49,1.03,1.25,1.9,2.22,2.51.03.02.05-.03.03-.04-.59-.37-1.11-.84-1.53-1.39-.2-.26-.38-.54-.54-.83-.08-.15-.15-.23.05-.1.16.1.32.2.47.3,1.1.73,2.1,1.62,2.96,2.62.45.53.87,1.09,1.24,1.67.13.21.07.1-.05-.01s-.24-.23-.35-.35c-.25-.26-.48-.55-.68-.84-.38-.54-.68-1.14-.9-1.76-.1-.28-.18-.57-.25-.86-.04-.16-.07-.32-.09-.49-.02-.1-.13-.51-.07-.59.11-.14.92.24,1.09.3.4.16.79.33,1.18.53.71.36,1.38.78,2.01,1.26.02.02.04-.01.03-.03l-.81-1.53-.17-.33c-.04-.08-.18-.25-.18-.33,0,.04.19.2.23.24.09.09.19.19.28.28.73.74,1.45,1.51,2.15,2.29,1.43,1.6,2.79,3.27,4.06,5,.3.41.59.84.9,1.25.13.17.05.09-.04.03s-.19-.12-.28-.19c-.21-.15-.4-.33-.57-.51-.16-.18-.32-.36-.45-.57-.04-.06-.12-.18-.13-.18.08,0,.3.26.36.31.4.35.8.7,1.2,1.05,1.62,1.44,3.21,2.92,4.76,4.43.87.86,1.73,1.72,2.58,2.6.04.04.08.09.12.13.15.14.1.07.04.03-.13-.1-.27-.19-.41-.28l-.76-.52-1.63-1.12s-.05.02-.03.04c.33.36.63.75.88,1.16.11.19.22.38.32.57.07.14.08.17-.08.11-.11-.04-.22-.1-.32-.15-.78-.39-1.49-.93-2.08-1.57-.03-.04-.16-.22-.2-.23-.07,0,.1.14.12.15.16.16.32.33.46.51.28.36.51.75.69,1.17.25.59.88,2.56-.24,2.57-.52,0-1.08-.29-1.57-.45-.56-.19-1.11-.37-1.67-.56-.03,0-.05.03-.02.05.47.21.63.7.57,1.18-.07.55-.41,1-.93,1.2-.62.24-1.32.13-1.93-.08-.06-.02-.44-.15-.43-.19.03-.08.4-.21.48-.24.3-.12.6-.22.91-.31.62-.17,1.25-.25,1.89-.26.3,0,.6.01.9.04.34.04.77.07,1.09.2.04.02.09.02.09.02,0,0-.26.03-.25.03l-.49.06-1.11.14-2.16.27-4.88.61s-.03.05,0,.05c2.08.02,4.16.04,6.24.06.05,0,.31.03.32-.02,0-.04-.22-.02-.27-.02-.27,0-.55-.02-.82-.07-.47-.07-.94-.2-1.38-.38-.07-.03-.61-.23-.58-.31.02-.07.79-.12.85-.13.48-.06.96-.08,1.44-.08,1.16,0,2.3.19,3.41.53.02,0,.04-.02.02-.04-.9-.86-1.57-1.93-1.94-3.12-.08-.27-.15-.55-.2-.83-.03-.16-.22-.91-.05-1.03.15-.1.6.05.75.11.29.11.56.29.78.51s.37.47.46.75c.02.08.13.36.04.38-.06.02-.35-.24-.4-.28-.47-.34-.9-.73-1.3-1.15-.81-.85-1.49-1.81-2.08-2.82-.67-1.14-1.24-2.34-1.81-3.53-.01-.02-.05-.01-.05.01-.04,1.16-.28,2.32-.7,3.4-.22.56-.49,1.09-.8,1.61-.09.15-.32.65-.52.65-.08,0-.25-.15-.32-.19-.12-.07-.23-.15-.34-.23-1.68-1.19-2.83-2.96-3.74-4.78-.53-1.06-.99-2.16-1.43-3.26,0-.02-.03-.03-.05,0-.67,1.13-1.35,2.27-2.02,3.4s-1.28,2.28-2,3.35c-.3.45-.75.99-1.34,1.02-.24,0-.25-.06-.26-.25-.01-.16,0-.33.01-.49,0-.35.02-.69.04-1.04.06-1.3.17-2.61.33-3.9.19-1.52.44-3.02.75-4.52,0-.02-.01-.03-.03-.03-.8.14-1.42.65-1.96,1.23-.67.72-1.27,1.5-1.89,2.27-1.3,1.6-2.56,3.24-3.79,4.9-.71.97-1.42,1.94-2.1,2.92-.02.02.02.05.04.03,2.42-2.88,5.02-5.61,7.78-8.16.34-.31.68-.62,1.02-.93.17-.15.34-.31.52-.46.19-.17.45-.33.61-.53.05-.06.12-.14.02-.05-.07.06-.14.15-.2.22-.16.18-.32.35-.48.53-.35.38-.69.77-1.03,1.15-1.29,1.45-2.54,2.93-3.76,4.44-1.35,1.66-2.66,3.35-3.93,5.07-.02.02.02.05.04.03,1.43-1.5,2.93-2.93,4.5-4.28.78-.68,1.58-1.33,2.4-1.97.45-.35.91-.7,1.37-1.04.09-.07.18-.15.28-.2.16-.09.09-.05.01.11l-.4.77c-.51,1-1.02,1.99-1.52,2.99-.13.26-1.54,2.9-1.48,2.94-.02-.01.55-1.27.62-1.42.21-.46.43-.91.67-1.35.47-.89,1-1.75,1.58-2.57.03-.04.2-.33.23-.32.08.02.07.27.08.35.03.27.05.53.07.8.03.52.03,1.03,0,1.55-.06,1.09-.25,2.17-.57,3.21-.02.07-.05.28-.1.33-.1.09-.17-.02-.25-.11-.14-.16-.23-.36-.27-.56-.08-.4,0-.84.21-1.18.53-.84,1.65-1.06,2.56-1.13,1.95-.15,4.14.28,5.77,1.4.46.32.8.83.48,1.38-.24.42-.72.68-1.16.81-.5.15-1.03.2-1.54.17-.27-.02-.53-.05-.79-.11-.06-.02-.82-.22-.81-.27.02-.12,1.22,0,1.37.03.44.07.88.18,1.3.35.45.18.87.4,1.26.68.14.1.5.3.57.47.05.12-.06.12-.17.16l-.47.16-6.35,2.16-1.59.54s-.02.05.01.05l6.77-1.36,3.36-.68c.57-.11,1.14-.23,1.71-.34.15-.03.15-.04.02.05s-.24.17-.35.25l-.71.5-3.18,2.24s0,.06.03.04c1.2-.56,2.41-1.13,3.61-1.69.6-.28,1.2-.56,1.8-.84l.85-.4.39-.18c.07-.03.54-.27.22-.15-.55.21-1.08.52-1.63.75-.6.26-1.21.49-1.82.71-.58.21-1.17.4-1.76.57-.28.08-.56.16-.84.23-.15.04-.3.08-.45.11-.1.02-.36.1-.12.03.31-.08.61-.24.92-.32s.64-.13.96-.15c.59-.04,1.22,0,1.8.16.54.16,1.07.49,1.38.96s.27,1.12-.22,1.44c-.35.23-.82.22-1.2.1-.5-.17-.85-.54-1.04-1.03-.21-.53-.25-1.11-.24-1.67,0-.11.02-.24,0-.35-.03-.25-.03.09-.02.17.02.35.03.7.03,1.05.02,1.46-.05,2.93-.21,4.38-.02.18,0,.38-.06.07-.04-.18-.08-.35-.11-.53-.07-.35-.13-.71-.18-1.06-.11-.75-.17-1.51-.19-2.26,0-.03-.05-.03-.05,0-.09,4.31-.6,8.61-1.52,12.82-.1.47-.23.95-.26,1.43s.06.91.21,1.35c.33.98.69,1.95.96,2.95s.49,2.02.65,3.05c0,.05.02.33.05.35.06.03-.01-.22-.02-.24-.06-.27-.11-.54-.16-.82-.09-.56-.14-1.14-.15-1.71s.01-1.15.08-1.72c.01-.1.02-.52.05-.24.02.13.05.27.08.4.06.28.12.56.2.84.28,1.09.65,2.14,1.1,3.17.01.02.05.01.05-.01,0-2.14.02-4.27.02-6.41v-3.17c.01-.54.02-1.08.02-1.62,0-.12.01-.25,0-.37-.02-.16-.03-.16-.05,0-.03.28,0,.58,0,.87,0,1.05-.03,2.1-.08,3.15-.02.54-.05,1.07-.08,1.61-.02.25-.03.49-.05.74,0,.09-.11.77-.05.8-.04-.02-.06-.59-.07-.68l-.1-.86-.18-1.54-.38-3.2-.85-7.15s-.05-.03-.05,0c-.06,1.57-.11,3.15-.17,4.72l-.09,2.36-.04,1.12-.02.62c0,.09-.08.56-.02.62.07.06.03-.15.02-.18,0-.1-.02-.21-.02-.31-.01-.16-.03-.33-.04-.49-.03-.41-.07-.82-.1-1.23-.07-.78-.14-1.56-.22-2.34-.15-1.56-.33-3.11-.53-4.67-.1-.82-.21-1.64-.33-2.46-.06-.4-.16-.98-.66-1.02-.01,0-.02,0-.02.02-.59,3.09-1.18,6.18-1.78,9.27l-.43,2.26c-.01.08-.15.5-.11.55-.05-.06-.06-.41-.07-.49l-.18-1.17-.71-4.61c-.27-1.76-.54-3.52-.81-5.28,0-.03-.04-.02-.05,0-1.56,4.52-2.62,9.22-3.12,13.97-.15,1.38-.25,2.75-.3,4.14,0,.03.04.03.05,0,.75-4.48,1.27-8.99,1.56-13.52.08-1.29.15-2.58.19-3.87,0-.03-.04-.03-.05,0-1.41,3.63-2.3,7.46-2.6,11.34-.09,1.12-.13,2.25-.12,3.38,0,.03.04.03.05,0,1.05-4.54,1.78-9.16,2.17-13.8.11-1.33.2-2.67.25-4,0-.03-.04-.03-.05,0-.76,2.96-1.32,5.97-1.64,9.01-.08.78-.15,1.56-.21,2.34,0,.1-.07.4.01.42-.01,0,0-.58,0-.62,0-.41-.01-.83-.02-1.24-.03-1.57-.07-3.14-.12-4.7-.06-1.81-.13-3.63-.21-5.44,0-.03-.05-.03-.05,0-.21,2.09-.35,4.2-.41,6.3-.01.51-.02,1.02-.03,1.53,0,.07-.03.73.02.74.03,0-.04-.63-.05-.71-.1-.97-.25-1.94-.44-2.9-.22-1.15-.51-2.29-.84-3.42,0-.03-.05-.02-.05,0,.08,2.1.17,4.2.25,6.29,0,.03.04.03.05,0,.45-1.22.16-2.51.11-3.76-.04-1.17.16-2.58,1.34-3.13.48-.22,1.07-.29,1.55-.03.07.04.31.19.26.23-.08.06-.43.02-.52.02l-1.12.03-4.4.12c-.18,0-.38-.02-.56.02-.08.01-.08,0-.12.04.03-.02.44-.06.36-.05.37-.05.73-.09,1.1-.14.74-.09,1.47-.16,2.21-.23s1.48-.12,2.21-.16c.35-.02.7-.04,1.05-.05.18,0,.37-.01.55-.02.14,0,.39-.05.49-.04-.13-.02-.34.08-.47.11-.16.04-.32.07-.47.11-.38.08-.75.16-1.13.24-.7.14-1.39.27-2.1.38-1.48.24-2.97.41-4.46.52-.08,0-.16.02-.24.02-.16,0-.18.03-.11-.11.08-.16.24-.32.35-.46.2-.25.42-.5.64-.74.47-.49.98-.95,1.53-1.35,1.08-.79,2.29-1.38,3.57-1.74.03,0,.02-.06-.01-.05-2.25.53-4.51.97-6.79,1.32-.96.15-2.4.58-3.07-.39-.45-.66-.34-1.59-.14-2.31.25-.91.71-1.77,1.15-2.6.47-.89,1-1.76,1.57-2.59s1.24-1.69,1.93-2.47c.08-.09.17-.19.25-.28.02-.02.24-.23.14-.22-.06,0-.26.29-.29.33l-.33.37-1.16,1.3c-.21.24-.49.48-.66.74-.1.16.09-.1.12-.14l.27-.42,1.08-1.66c.72-1.11,1.45-2.22,2.17-3.32.02-.02-.02-.05-.04-.03-2.98,2.63-5.62,5.62-7.85,8.91-.02.02.02.05.04.03l6.56-5.6,1.65-1.41.76-.64s.38-.32.38-.32c-.05-.06-.29.24-.35.31-.96.99-1.89,2.01-2.8,3.05-1.01,1.16-1.99,2.34-2.94,3.55-.02.03.01.06.04.04,1.66-1.36,3.23-2.84,4.69-4.41.02-.02-.01-.06-.04-.04-2.53,2.54-5.06,5.09-7.59,7.63-.02.02,0,.05.03.04.4-.25.9-.08,1.19.26.36.43.33,1.05.24,1.57-.16.86-.49,1.7-.93,2.45-.41.72-.96,1.56-1.73,1.92-.42.19-.88.2-1.24-.1-.4-.34-.54-.93-.05-1.27.34-.23.81-.34,1.2-.45.48-.13.97-.24,1.46-.31.94-.14,1.91-.17,2.86-.09.26.02.53.06.79.1.1.02.51.03.21.08-.52.09-1.05.2-1.57.3-.97.17-1.94.33-2.91.48-.53.08-1.05.15-1.58.22-.11.02-.4.1-.49.08.06.01.33-.14.41-.17.14-.06.28-.11.42-.16.84-.31,1.71-.56,2.59-.75,1.79-.38,3.64-.48,5.46-.31.11.01.23.01.33.04.15.03.14,0,0,.07-.23.12-.48.21-.72.3-.42.16-.85.31-1.28.43-.92.26-1.86.44-2.81.53-.43.04-.86.06-1.29.07-.23,0-.45,0-.68,0-.11,0-.23,0-.34-.02-.13,0-.32.04-.13-.09.75-.5,1.68-.83,2.53-1.12.98-.33,1.99-.56,3.02-.69.48-.06.96-.1,1.44-.11.11,0,.22,0,.33,0,.07,0,.34.04.32-.04,0-.02-.77.02-.85.02-1.09.01-2.18-.03-3.27-.14-.24-.02-.48-.05-.72-.08-.15-.02-.33-.03-.47-.06-.24-.06-.04-.07.1-.14l1.55-.69s0-.05-.02-.05l-3.18.97-1.59.48c-.15.05-.22.1-.14-.07.05-.1.13-.19.2-.29.15-.22.31-.44.47-.66.64-.87,1.32-1.71,2.03-2.51.17-.19.33-.37.5-.56.01-.02.25-.25.16-.25-.05,0-.23.25-.27.29-.34.38-.68.77-1,1.17-.71.89-1.37,1.82-1.97,2.79-.02.03.03.05.04.03,2.1-3.28,4.47-6.39,7.08-9.29.65-.72,1.31-1.42,1.98-2.11.04-.04.28-.24.28-.28s-.17.17-.18.19l-.49.64-.94,1.23-1.95,2.57-.45.59s-.24.26-.22.3c.02.07.19-.2.22-.23l.92-1.33c1.35-1.96,2.71-3.92,4.06-5.88.02-.02-.02-.05-.04-.03-2.21,2.69-4.3,5.49-6.25,8.38-.02.03.02.05.04.03,1.67-2.31,3.34-4.62,5.02-6.94l1.24-1.71.62-.85c.04-.06.29-.35.22-.37-.02,0-.28.43-.31.47-.78,1.19-1.56,2.38-2.35,3.57-.88,1.35-1.77,2.69-2.65,4.04-.02.02.02.05.04.03,2.46-2.89,4.59-6.04,6.37-9.4.01-.02-.01-.05-.03-.03-2.02,1.41-3.93,2.96-5.73,4.65-.46.43-.9.86-1.34,1.31-.2.2-.4.4-.59.61-.1.11-.21.22-.31.33-.05.06-.1.11-.16.17-.03.04-.18.15-.12.18.05.02,1.04-1.48,1.14-1.62l1.21-1.72c.88-1.25,1.75-2.49,2.63-3.74.01-.02-.01-.05-.03-.03l-1.99,1.5-.99.75-.45.34c-.05.04-.55.36-.55.41,0,0,.29-.36.33-.41.1-.13.2-.26.3-.39.24-.3.48-.6.73-.89.47-.56.95-1.11,1.45-1.64.97-1.04,1.99-2.04,3.06-2.98.55-.48,1.11-.95,1.68-1.41.31-.25.63-.49.95-.73.13-.1.26-.2.4-.29.09-.07.38-.39.27-.11-.31.78-.74,1.54-1.14,2.28-.43.78-.89,1.54-1.37,2.29-.02.02.02.05.04.03,1.19-1.33,2.43-2.61,3.73-3.83.32-.31.69-.68,1.18-.59.42.07.74.44.88.82.15.42.08.88-.06,1.29-.07.21-.16.41-.26.61-.03.06-.06.21-.14.2-.03,0-.09-.26-.1-.31-.26-.86-.31-1.78-.14-2.66.06-.32.12-.76.3-1.04.13-.2.15-.12.29-.02.1.07.2.15.3.23.15.12.29.26.43.39.54.55.97,1.21,1.24,1.93.06.17.12.33.17.51.08.29-.08.02-.16-.09-.25-.31-.46-.64-.63-1s-.29-.74-.37-1.12c-.04-.21-.07-.42-.08-.63,0-.08,0-.17,0-.25,0-.17-.03-.25.14-.17.31.13.61.42.87.62.3.25.59.52.86.8.51.55.96,1.16,1.32,1.81.09.16.17.32.24.48.13.28-.08-.01-.17-.1-.3-.29-.57-.6-.83-.92s-.5-.65-.72-1c-.11-.17-.21-.34-.3-.51-.02-.03-.14-.22-.13-.24,0,.01.22.2.25.23.61.54,1.21,1.09,1.79,1.67,1.19,1.19,2.3,2.46,3.32,3.81.03.04.37.49.37.49,0,0-.27-.18-.32-.21-.35-.25-.67-.53-.95-.85-.24-.27-.45-.56-.63-.88-.04-.07-.19-.42-.23-.43.03,0,.13.12.16.14.1.1.21.19.31.29,1.14,1.12,2.11,2.41,2.87,3.82.17.32.3.68.49.99.09.16.04.08,0,0-.06-.1-.15-.19-.23-.29-.14-.18-.28-.37-.41-.56-.45-.64-.86-1.31-1.23-2s-.72-1.47-1.01-2.23c-.14-.37-.27-.74-.38-1.11-.05-.17-.1-.34-.15-.51-.03-.1-.04-.21-.08-.31-.09-.22,0,0,.03.07.75,1.54,1.28,3.18,1.59,4.87.16.85.25,1.71.29,2.57.03.66.14,1.62-.38,2.14-.18.18-.32.23-.53.06-.14-.11-.26-.26-.38-.38-.3-.31-.59-.63-.87-.96-.53-.63-1.03-1.29-1.51-1.96-.92-1.32-1.74-2.71-2.53-4.12-.19-.33-.37-.66-.55-1-.04-.08-.31-.57-.18-.27.08.19.25.38.36.56.44.68.86,1.38,1.25,2.09.82,1.48,1.55,3.02,2.16,4.6s1.08,3.07,1.47,4.65c.03.1.06.22.08.32.02.19.03.09-.03.03-.14-.12-.26-.35-.36-.51-.21-.32-.4-.64-.57-.98-.37-.74-.65-1.52-.83-2.32s-.25-1.56-.24-2.35c0-.17.01-.34.02-.52.02-.27.06-.25.28-.12.31.19.62.39.91.61,1.19.9,2.2,2.04,2.94,3.33.36.63.66,1.3.89,2,.04.13.14.32.14.46s.07.1-.06.02c-.07-.04-.13-.12-.19-.18-.29-.28-.58-.57-.86-.86-1.11-1.17-2.09-2.47-2.93-3.85-.18-.3-.36-.61-.52-.92-.19-.36-.44-.74-.57-1.13-.06-.17-.07-.09-.01-.07.06.02.14.11.19.16.15.13.3.26.44.4.26.26.5.53.73.81.47.6.86,1.25,1.16,1.95.09.21.17.43.25.64.02.07.18.44.14.47-.02.02-.83-.77-.89-.82-2.36-2.27-4.42-4.86-6.11-7.66-.09-.15-.22-.31-.28-.47-.04-.13-.11-.11.04-.03.06.03.12.08.18.12.36.25.72.5,1.07.76.68.49,1.34,1.01,1.98,1.54,1.27,1.04,2.47,2.16,3.61,3.34.56.58,1.1,1.17,1.62,1.78.26.3.52.61.77.92.06.07.33.4.14.15-.13-.17-.34-.32-.49-.47-.59-.58-1.16-1.18-1.71-1.8-.27-.31-.54-.63-.8-.95-.14-.17-.28-.35-.42-.53-.07-.09-.14-.18-.2-.27-.03-.03-.22-.26-.22-.26,0,.05.43.33.46.36.15.12.31.24.46.36.37.29.74.59,1.11.88.67.54,1.34,1.09,2,1.65,1.35,1.14,2.69,2.3,4,3.49s2.54,2.35,3.77,3.56c.08.08.16.19.25.25.14.09.12.09.01-.03-.13-.15-.33-.27-.48-.4l-.48-.4s-.29-.21-.29-.24c0,.09.13.17.19.22.27.27.47.61.59.98.05.15.15.44.1.59s-.38-.13-.49-.2c-.67-.42-1.29-.91-1.86-1.46s-1.14-1.14-1.52-1.81c-.08-.14-.09-.08.02-.03.09.04.17.12.25.17.16.12.32.24.48.36.3.25.58.52.84.8.15.16.28.33.42.5.09.12.24.27.29.41.05.13.13.14-.14.01-.08-.03-.16-.07-.24-.11-.2-.09-.41-.19-.61-.3-.7-.37-1.37-.81-2-1.3-.3-.24-.59-.49-.86-.75-.12-.12-.24-.27-.37-.37-.12-.09-.1-.09,0,.01s.22.17.32.25c1.23.98,2.27,2.2,3.07,3.56.09.16.54.81.45.93-.06.09-.53,0-.64,0l-.62-.03c-.9-.04-1.81-.08-2.71-.12-.03,0-.03.04,0,.05l2.49.38c.1.02.2.04.3.05.05,0,.22,0,.06,0-.21,0-.41.03-.62.05l-1.3.1-5.06.38s-.03.05,0,.05c1.3-.09,2.61-.11,3.91-.03.61.03,1.22.09,1.83.16.06,0,.6.07.6.08,0-.09-.27-.08-.36-.09l-.97-.12-1.94-.25-.85-.11-.49-.06c-.1-.01-.42-.05-.13.02s.65.03.94.02c.31,0,.63-.03.94-.06.59-.06,1.17-.17,1.74-.32.02,0,.02-.04,0-.05-1.5-.33-2.99-.67-4.49-1-.18-.04-.37-.08-.55-.12-.08-.02-.09,0,0,0,.1-.01.2-.01.3-.02l1.09-.07c.77-.05,1.53-.1,2.3-.14.03,0,.03-.05,0-.05-.88-.11-1.75-.31-2.59-.6-.45-.15-.88-.33-1.31-.54-.07-.03-.21-.07-.26-.13-.06-.08-.02-.04.09-.07.23-.06.49-.08.73-.11,1.87-.27,3.76-.43,5.65-.47.02,0,.03-.03.01-.05-1.04-.64-2.03-1.35-2.95-2.15-.44-.38-.92-.77-1.29-1.22-.16-.19,0-.11.16-.08.14.03.27.08.4.14.23.11.44.27.61.45.19.21.34.45.42.72.02.05.03.11.04.17,0,.12-.05.16-.15.12-.12.04-.34-.05-.47-.07-.54-.1-1.07-.27-1.57-.5-1-.46-1.88-1.16-2.55-2.04-.02-.02-.06-.01-.05.02.71,2.05,1.4,4.12,1.77,6.26.19,1.1.29,2.21.25,3.32-.01.25-.03.51-.05.76-.01.14-.03.27-.05.4s0,.4-.08.52c-.07.1-.06.04-.12-.08s-.12-.23-.18-.35c-.12-.23-.23-.47-.33-.71-.48-1.1-.81-2.26-1-3.45,0-.03-.05-.02-.05,0,.09.94.13,1.89.12,2.83,0,.46-.03.93-.07,1.39-.02.24-.04.48-.07.72-.03.27-.02.58-.1.83-.04.11.03.19-.05,0-.04-.11-.06-.24-.09-.35-.05-.21-.11-.43-.16-.64-.1-.45-.2-.9-.29-1.35-.19-.98-.33-1.97-.43-2.97,0-.03-.05-.03-.05,0-.08,2.17-.26,4.33-.54,6.48-.04.3-.08.6-.12.91-.02.11-.02.29-.02.07,0-.14-.03-.29-.05-.43-.06-.55-.1-1.1-.14-1.65-.07-1.08-.1-2.16-.09-3.25,0-.55.02-1.1.05-1.65.01-.24.03-.49.04-.73,0-.14.02-.29.03-.43,0-.12,0-.3-.01-.07-.02.53.03,1.06.02,1.59s-.05,1.02-.1,1.53c-.11,1.09-.3,2.17-.57,3.24-.06.23-.12.46-.19.68-.01.05-.05.28-.11.28-.02,0-.12-.35-.13-.39-.17-.51-.32-1.02-.47-1.53-.65-2.31-1.07-4.69-1.26-7.09,0-.03-.04-.04-.05,0-.39,1.82-.68,3.66-.93,5.51-.13.96-.24,1.93-.35,2.89-.05.44-.1.89-.14,1.33-.03.24-.05.48-.08.73s-.09.5-.08.72c.01.17,0,.15.03,0,.02-.11,0-.25.01-.37,0-.2.01-.41.02-.61.02-.53.05-1.06.08-1.59.06-.94.14-1.87.25-2.81.11-1.01.25-2.02.4-3.03.07-.44.14-.89.22-1.33.04-.2.07-.4.11-.6.04-.22.15-.55.11-.72.05.26-.02.6-.03.86l-.03.74-.06,1.6-.13,3.32s.05.03.05,0c.16-3.49.2-6.98.13-10.46,0-.03-.05-.03-.05,0-.19,3.33-.24,6.66-.15,9.99,0,.03.05.03.05,0,0-2.16.09-4.31.24-6.46.02-.27.29-3.12.28-3.13.02,0,.1.63.11.72.05.32.09.63.13.95.06.52.1,1.04.13,1.56.06,1.04.05,2.09-.03,3.13,0,.12-.17,1.67-.17,1.67-.06-.01-.14-.46-.17-.56-.06-.26-.11-.53-.15-.8-.13-.99-.06-2,.21-2.96.06-.22.12-.47.22-.67.06-.13.06-.11.12.01.06.12.1.25.15.38.19.49.37.98.54,1.48.75,2.21,1.26,4.5,1.53,6.82,0,.03.05.03.05,0-.22-3.72-.23-7.45-.03-11.17.01-.25.03-.5.04-.74,0,0,0-.23.02-.25.02-.02.16.33.14.29.17.41.32.83.44,1.26.23.82.36,1.67.39,2.52.02.41,0,.82-.02,1.23,0,.06-.04.43-.04.43-.05,0-.22-.73-.24-.82-.25-.86-.5-1.72-.74-2.58-.56-2-1.08-4-1.56-6.02,0-.03-.05-.02-.05,0,.07,1.04-.41,2.05-1.21,2.71-.41.34-.9.59-1.42.7s-1.06-.04-1.59.05c-.5.09-.83.46-1.14.83-.41.51-.82,1.02-1.23,1.54-.84,1.05-1.68,2.1-2.52,3.14-.96,1.19-1.91,2.39-2.87,3.58-.01.02,0,.05.02.04.71-.22,1.28-.68,1.87-1.11.66-.48,1.53-1.01,2.38-.76.34.1.65.34.83.65.09.16.16.34.16.53,0,.07.02.2-.03.25-.01.1-.04.1-.09-.02.26-.13.43-.09.53.11.2.32.29.75.39,1.12.13.49.23.98.28,1.49.02.19.04.39.05.58,0,.07.05.56.02.23-.05-.51-.15-1.01-.19-1.52-.08-.86-.1-1.73-.06-2.6s.14-1.8.3-2.69c.04-.19.07-.39.12-.58,0-.01.05-.23.05-.23.01,0,.05.27.06.3.09.46.17.92.24,1.38.3,2.05.41,4.12.34,6.18,0,.03.05.03.05,0,.09-1.81.28-3.61.58-5.39.07-.4.14-.79.21-1.19.02-.12.19-1.3.29-1.31.06,0,.32.95.35,1.06.11.41.2.83.27,1.26.13.83.16,1.67.1,2.5-.02.22-.04.44-.07.66,0-.01-.03.29,0,.21.03-.09-.02-.27-.02-.37-.03-.45-.05-.9-.07-1.35-.08-1.8-.1-3.61-.06-5.41.01-.49.03-.98.05-1.48.01-.25.02-.49.03-.74,0-.03.01-.37.02-.37-.09,0-.05.17-.05.25l-.04,3.1s.05.03.05,0c.44-3.72.55-7.48.31-11.22,0-.02-.03-.04-.05-.01l-1.5,2.87-.75,1.44-.35.66s-.19.29-.17.33c0,0,.05-.24.06-.29.36-2.04.64-4.09.84-6.15,0-.02-.02-.03-.04-.02-1.08.74-1.81,1.89-2.01,3.19,0,.02.02.05.04.02,1.83-2.32,3.51-4.74,5.05-7.25.01-.02-.02-.05-.04-.03-.75.83-1.46,1.69-2.13,2.59-.16.22-.32.44-.47.66-.04.06-.23.26-.16.3,0,0,.22-.39.24-.43l.88-1.6s-.02-.05-.04-.03c-1.81,2.12-3.44,4.37-4.89,6.75-.02.03.02.05.04.03.59-.8,1.04-1.67,1.35-2.61,0-.03-.03-.04-.05-.02-1.6,2.59-2.82,5.4-3.62,8.33,0,.02.02.04.04.02.63-.67,1.2-1.39,1.7-2.16.26-.4.5-.81.72-1.23.03-.05.17-.25.15-.29,0,0-.05.25-.05.24-.03.22-.06.45-.08.67-.23,2.08-.22,4.19.02,6.27,0,.03.04.03.05,0,.28-.86.56-1.71.85-2.57l.4-1.23.21-.64s.08-.22.08-.23c.04.04.02.25.02.31.13,1.8.26,3.6.39,5.4,0,.03.04.03.05,0,.4-1.08.8-2.15,1.2-3.23l.3-.81c.04-.11.08-.24.13-.35.1-.23.08-.02.1.11.09.55.13,1.12.13,1.68s-.06,1.12-.16,1.68c-.08.42-.2,1.55-.87,1.37-.61-.17-.63-.95-.51-1.44.1-.42.24-.82.15-1.26,0-.02-.02-.02-.04-.01-2.03,1.11-4.18,1.99-6.41,2.62-1.09.3-2.19.55-3.31.72-.3.05-.64.14-.94.14-.18,0-.17-.03-.12-.22.05-.15.09-.29.14-.44.19-.57.39-1.13.61-1.69.49-1.26,1.07-2.48,1.72-3.66.01-.03-.02-.05-.04-.03-1.76,1.51-3.19,3.37-4.18,5.46-.01.02.02.05.04.03,1.51-1.54,2.95-3.14,4.31-4.81.66-.81,1.3-1.63,1.92-2.46.32-.43.64-.87.95-1.31.03-.05.21-.28.18-.29-.03-.01-.17.29-.18.32l-.39.76-1.79,3.49s.02.05.04.03c1.74-1.77,3.27-3.73,4.57-5.85.02-.03-.02-.05-.04-.03-1.68,2.37-3.25,4.81-4.72,7.32-.01.02.02.05.04.03l4.99-5.07c.1-.1.21-.2.31-.31.13-.15-.09.11-.12.14l-.49.72-.98,1.43-2.02,2.97s.02.05.04.03c.94-1.25,1.89-2.51,2.83-3.76.02-.02-.02-.05-.04-.03-2.73,2.8-5.45,5.59-8.18,8.39-.02.02,0,.04.02.04,1.21.13,2.43-.05,3.55-.53.02,0,.01-.05-.01-.05l-1.72.21s-.39,0-.41.05c-.04.07.31,0,.35,0,.31-.04.62-.07.93-.07.6-.02,1.21.03,1.8.13.07.01.74.17.74.17-.04.06-.27.08-.34.1-.15.04-.31.07-.46.11-.6.13-1.2.21-1.81.24-.28.02-.55.02-.83.02-.06,0-.3.01-.29.01.1.03.35-.07.47-.1,1.12-.24,2.24-.51,3.34-.82,1.26-.35,2.5-.75,3.73-1.2.03,0,.02-.05,0-.05-1.61-.14-3.23-.02-4.81.34-.03,0-.02.05.01.05,1.39-.27,2.82-.44,4.23-.43.26,0,.54.02.78.14.39.19.49.56.51.96.03.71.04,1.42.06,2.12.04,1.41.07,2.81.11,4.22,0,.33.02.66.03.99,0-.29-.11-.72-.15-1.06-.08-.68-.09-1.36-.04-2.04,0-.01.03-.21.02-.24,0,0,.02.25.02.26l.1.61.17,1.11.38,2.46s.05.02.05,0c-.04-.91-.04-1.81,0-2.72.02-.45.05-.91.09-1.36.02-.19.02-.48.03-.62-.02.2.04.46.06.66.18,1.75.47,3.49.86,5.2,0,.02.04.02.05,0,.23-.85.47-1.7.7-2.55l.34-1.25s.04-.22.08-.24c0,0,.07.28.07.3l.16.66c.41,1.72.81,3.44,1.22,5.16,0,.02.04.03.05,0l.67-4.76.34-2.44c.03-.2.07-.41.09-.61.02-.26.03.02.05.12l.21,1.29c.52,3.21,1.03,6.41,1.55,9.62l.87,5.39s.05.02.05,0c.03-4.1.15-8.19.35-12.28.05-.99.1-1.98.16-2.97.03-.5.06-.99.09-1.49,0-.12.03-.25.02-.37,0-.19,0-.13,0,0,.02.28.1.57.14.86.33,2,.64,4,.92,6,.32,2.29.6,4.58.85,6.88,0,.03.05.03.05,0,.16-2.15.32-4.3.48-6.45,0-.03.05-.36.03-.37-.07-.06-.04.21-.04.25v.87c0,.54,0,1.07,0,1.61v3.22s.04.03.04,0c.09-1.95.08-3.9-.04-5.85,0-.03-.04-.04-.05,0-.43,2.31-.87,4.63-1.3,6.94-.11.57-.21,1.14-.32,1.71-.03.16-.06.33-.09.49-.03.11,0,.2-.07.01-.1-.26-.17-.53-.25-.8-.35-1.06-.76-2.1-1.21-3.13,0-.02-.04-.01-.05,0-.79,3.31-1.07,6.73-.84,10.12,0,.03.05.03.05,0,.49-5.16.34-10.36-.45-15.48,0-.03-.04-.02-.05,0-.57,1.92-1.07,3.85-1.5,5.8-.21.97-.41,1.93-.59,2.91-.09.48-.17.95-.25,1.43-.04.24-.08.48-.12.72-.02.12-.04.24-.06.36-.04.28-.05,0-.07-.1-.45-1.9-.36-3.88-.16-5.8.02-.19.04-.39.06-.58.01-.12.03-.23.04-.35.01-.18,0-.12.03.02.08.53.21,1.05.31,1.57.2,1.01.39,2.02.57,3.03.4,2.22.76,4.45,1.09,6.68,0,.03.05.02.05,0,.2-5.26.23-10.52.08-15.78,0-.03-.05-.03-.05,0-.2,2.26-.41,4.51-.61,6.77l-.15,1.66-.07.8-.04.43c-.01.13,0,.29.02.06.04-.57,0-1.16,0-1.73s.01-1.11.02-1.67c.02-1.13.07-2.26.13-3.39.03-.55.06-1.11.1-1.66.01-.16,0-.28-.04-.06-.02.12-.01.25-.02.37-.02.31-.03.61-.05.92-.14,2.27-.37,4.53-.7,6.78-.09.63-.19,1.26-.3,1.88-.05.3-.11.61-.16.91-.03.16-.06.32-.09.48-.05.25-.05.02-.09-.1-.32-1.18-.71-2.33-1.18-3.46,0-.02-.04-.03-.05,0l-.82,2.69-.41,1.34c-.06.21-.11.44-.2.64.07-.15.08-.42.11-.62.24-1.89.49-3.78.73-5.66,0-.03-.04-.03-.05,0-.35,2.16-.56,4.34-.63,6.53,0,.03.04.03.05,0l.57-2.93c.09-.49.19-.98.28-1.47-.07.36-.04.89-.04,1.31,0,.06-.06.26.05.24,0,0,0-.35,0-.37v-.74c0-.5,0-.99,0-1.49v-2.98c0-1.94,0-3.89,0-5.83v-.74c0-.1.04-.63-.05-.62-.01,0,.03,1.34.04,1.48l.08,2.95.02.86s.04.34,0,.37c.05-.04.01-.15,0-.24-.09-.55-.19-1.1-.3-1.64-.22-1.05-.49-2.09-.8-3.12,0-.03-.05-.02-.05,0l.05,6.54v.81c0,.26.05.55.01.81-.02.04-.01.06.01.07-.03-.08-.05-.15-.08-.23-.04-.11-.08-.23-.12-.34-.09-.24-.18-.49-.27-.73-.37-.95-.78-1.88-1.22-2.8-.01-.02-.04,0-.05.01-.48,4.17-.66,8.37-.52,12.56,0,.03.05.03.05,0h0Z"/><path d="M70.78,35.67c.25-5.3.39-11.12-3.21-15.44-1.53-1.84-3.57-3.25-5.84-4.01-1.27-.43-2.67-.68-3.99-.33-1.18.31-2.21,1.04-3.15,1.79-1.93,1.56-3.5,3.55-4.6,5.77s-1.86,4.71-1.64,7.11c.2,2.14,1.61,3.67,3.77,3.87s4.46-.86,6.08-2.35c.96-.88,1.75-1.95,2.31-3.12.49-1.03,1.09-2.5.8-3.66-.24-.96-1.23-1.49-2.18-1.43-1.23.07-2.14,1.08-2.69,2.1-.02.04,0,.08.03.1,1.15.65,2.67-.67,2.16-1.9-.01-.03-.04-.06-.07-.06-1.66.18-3.28.61-4.8,1.32-.39.18-.77.38-1.15.6-.2.11-.82.65-1.03.57-.11-.05-.34-.7-.42-.82-.21-.31-.47-.59-.75-.84-1.13-1.04-2.68-1.71-3.48-3.08-.45-.77-.52-1.65-.02-2.43.23-.35.57-.67.98-.78.22-.06.48-.13.53.11.03.14-.36.65-.43.78-1.69,2.96-3.78,5.87-4.08,9.37-.14,1.64.17,3.25,1.03,4.66.48.78,1.05,1.51,1.37,2.38.29.78.38,1.61.3,2.44-.32,3.52-3.14,5.99-6.13,7.44-1.62.79-3.34,1.36-5.03,1.98-1.77.65-3.7,1.47-5.63,1.11-1.51-.28-3.03-1.7-2.93-3.34.07-1.03,1.33-2.41,2.16-1.15.58.88-.02,2.18-.83,2.72-.25.17-.16.19-.27-.1-.09-.23-.11-.59-.13-.82-.04-.42-.03-.85.01-1.27.1-.92.36-2.19,1.19-2.73.72-.46,1.29.18,1.05.88-.13.39-.41.75-.7,1.04-.62.62-1.32,1.15-1.94,1.78-1.33,1.36-2.48,2.9-3.42,4.56-.69,1.22-1.35,2.65-1.16,4.09.18,1.36,1.34,2.26,2.72,2.04,1.6-.25,2.48-1.76,2.69-3.24,0-.06-.07-.14-.13-.07-.82,1.02-1.35,2.22-1.54,3.52-.15,1.08-.16,2.61.44,3.59.68,1.11,1.77-.57,2.2-1.09.94-1.14,1.77-2.37,2.51-3.65,3.16-5.43,4.95-11.86,9.56-16.34,2.15-2.09,4.91-3.69,7.93-3.99,1.69-.17,3.33.2,4.96.59.79.19,1.58.38,2.38.49.59.08,1.24.17,1.82-.05,1.16-.44,1.57-2.17,1.93-3.22.5-1.47.85-2.98,1.03-4.52.08-.64.2-2.19-.89-2.04-1.02.14-1.44,1.98-1.51,2.76-.1,1.03.48,2.4,1.72,2.29.55-.05,1-.43,1.4-.78.71-.6,1.39-1.04,2.36-1,1.83.07,3.18,1.41,4.01,2.94.42.77.73,1.59,1.04,2.41.18.47.37.96.38,1.47,0,.74-.53,1.58-1.37,1.37l.02.14c1.97-.95,4.08.17,5.47,1.6s2.09,3.27,3.01,4.98c.85,1.59,1.91,3.06,3.51,3.95,1.7.95,3.72,1.3,5.62,1.59,1.25.19,3.51,0,3.49-1.78-.01-1.21-1.69-1.8-2.22-.58-.35.8-.28,1.87-.27,2.72.01.73,0,1.62.49,2.21,1.01,1.23,2.42-.94,2.83-1.72,1.84-3.51.03-7.83-3.73-9.03-.04-.01-.08.02-.09.05-.26.66.45,1.18.86,1.59.64.65,1.26,1.32,1.82,2.03,1.28,1.61,2.29,3.48,2.49,5.55.18,1.85-.31,3.83-1.75,5.09-1.34,1.17-3.32,1.64-4.95.79-.07-.04-.14.04-.1.1.77,1.57,1.68,3.43,3.4,4.14,1.29.53,2.96.35,3.76-.9.05-.08-.08-.16-.13-.08-.87,1.35-2.81,1.36-4.07.58-1.39-.85-2.14-2.41-2.83-3.82l-.1.1c1.6.83,3.53.45,4.92-.64,1.61-1.27,2.2-3.38,2.01-5.37-.21-2.23-1.33-4.2-2.73-5.9-.38-.46-.78-.9-1.19-1.34-.15-.16-1.7-1.57-1.17-1.79.14-.06.67.27.82.35.24.13.48.27.7.42.52.36.97.79,1.36,1.29,1.53,1.94,1.72,4.61.54,6.78-.28.51-.63,1-1.05,1.4-.28.27-.66.62-1.09.5-.41-.11-.61-.59-.71-.95-.18-.61-.15-1.31-.14-1.94.01-.71-.05-1.67.32-2.31.48-.83,1.6-.42,1.83.38s-.54,1.59-1.26,1.84c-1.27.45-2.88-.06-4.16-.33s-2.43-.6-3.51-1.22-1.95-1.54-2.64-2.6c-1.33-2.04-2.04-4.49-3.76-6.26-1.45-1.49-3.62-2.6-5.65-1.63-.06.03-.04.12.02.14.83.2,1.48-.52,1.55-1.3.06-.66-.22-1.31-.45-1.92s-.45-1.15-.71-1.71c-.92-1.94-2.73-3.96-5.13-3.5-.47.09-.89.3-1.27.59-.51.39-.98.97-1.64,1.11-.99.21-1.67-.77-1.72-1.64-.05-.8.26-1.82.68-2.5.3-.47.93-.87,1.33-.27.18.27.18.66.16.98-.04.82-.21,1.66-.38,2.47-.32,1.5-.78,2.98-1.4,4.38-.39.87-.91,1.46-1.93,1.47-.81,0-1.63-.19-2.42-.36-1.43-.32-2.86-.74-4.33-.83-2.52-.16-5.01.69-7.1,2.05-4.7,3.05-7.11,8.29-9.43,13.17-1.39,2.95-2.84,5.93-4.88,8.5-.32.41-1.56,2.31-2.24,1.46-.43-.54-.48-1.7-.49-2.34-.03-1.66.52-3.29,1.57-4.58l-.13-.07c-.16,1.13-.67,2.29-1.72,2.85-1.18.63-2.75.27-3.25-1.04-.73-1.94.69-4.2,1.7-5.76,1.26-1.94,2.82-3.48,4.51-5.03.45-.41,1.03-1.11.94-1.78-.07-.49-.58-.78-1.04-.64-.87.26-1.23,1.37-1.42,2.15-.27,1.13-.23,2.29.08,3.4.02.06.08.07.13.03.88-.82,2.22-2.48.83-3.54-1.22-.92-2.21.93-2.11,1.96.13,1.35,1.25,2.54,2.5,2.97,1.95.68,4.11-.18,5.94-.86,3.52-1.3,7.56-2.46,9.92-5.6,1.01-1.34,1.69-3,1.68-4.7,0-.8-.18-1.58-.53-2.31-.45-.96-1.16-1.77-1.61-2.73-2.31-4.97,1.8-9.95,4-14.1.02-.04,0-.1-.04-.11-.72-.19-1.38.15-1.79.76-.5.74-.53,1.61-.15,2.4,1.06,2.2,4.07,2.71,4.82,5.13.01.04.07.07.11.04,1.18-.82,2.46-1.48,3.82-1.93.61-.2,1.24-.37,1.88-.49.27-.05.94-.26,1.14-.13.29.18.12.73-.03.99-.26.43-.96,1-1.51.78-.36-.14-.17-.36.01-.61.26-.38.58-.72.95-.98,1.16-.8,3.1-.56,3.33,1.06.17,1.25-.48,2.77-1.07,3.83s-1.38,2.05-2.31,2.84c-1.8,1.54-4.46,2.65-6.83,1.82-2.83-1-2.73-4.3-2.2-6.72s1.68-4.86,3.27-6.86c.76-.96,1.61-1.83,2.56-2.6,1.1-.9,2.35-1.76,3.8-1.93,2.65-.32,5.54,1.19,7.5,2.87,2.25,1.93,3.68,4.54,4.31,7.42.68,3.1.54,6.31.39,9.46,0,.1.15.1.15,0h0Z"/></svg>