<svg width="2112" height="574" viewBox="0 0 2112 574" fill="none" xmlns="http://www.w3.org/2000/svg">
<path d="M1579.42 547.153C1580.42 550.882 1581.83 554.403 1583.66 557.718C1585.57 560.949 1588.11 563.559 1591.26 565.548C1594.42 567.537 1598.41 568.531 1603.24 568.531C1609.55 568.531 1614.46 566.791 1617.95 563.311C1621.44 559.748 1623.19 555.273 1623.19 549.887C1623.19 545.496 1622.19 541.891 1620.19 539.074C1618.2 536.257 1615.66 533.978 1612.59 532.238C1609.51 530.498 1606.31 529.006 1602.99 527.763C1600.24 526.686 1597.5 525.485 1594.76 524.159C1592.01 522.75 1589.48 521.134 1587.15 519.311C1584.91 517.406 1583.12 515.168 1581.79 512.6C1580.46 510.031 1579.79 506.965 1579.79 503.402C1579.79 499.342 1580.71 495.82 1582.54 492.837C1584.45 489.771 1587.07 487.41 1590.39 485.752C1593.72 484.095 1597.5 483.267 1601.74 483.267C1606.31 483.267 1610.22 484.137 1613.46 485.877C1616.7 487.617 1619.36 489.771 1621.44 492.34C1623.52 494.909 1625.06 497.477 1626.06 500.046L1622.31 502.035C1621.48 499.715 1620.19 497.436 1618.45 495.199C1616.79 492.961 1614.58 491.097 1611.84 489.605C1609.1 488.114 1605.69 487.368 1601.61 487.368C1596.21 487.368 1591.89 488.777 1588.65 491.594C1585.49 494.411 1583.91 498.223 1583.91 503.029C1583.91 506.758 1584.82 509.948 1586.65 512.6C1588.56 515.168 1591.14 517.406 1594.38 519.311C1597.71 521.217 1601.57 522.957 1605.98 524.532C1608.47 525.526 1610.97 526.686 1613.46 528.012C1616.04 529.338 1618.37 530.953 1620.44 532.859C1622.52 534.765 1624.18 537.085 1625.43 539.82C1626.76 542.554 1627.43 545.786 1627.43 549.514C1627.43 552.829 1626.84 555.895 1625.68 558.712C1624.52 561.529 1622.85 563.974 1620.69 566.045C1618.61 568.034 1616.08 569.608 1613.09 570.768C1610.09 571.928 1606.77 572.508 1603.11 572.508C1597.87 572.508 1593.43 571.431 1589.77 569.277C1586.11 567.122 1583.16 564.264 1580.91 560.701C1578.67 557.138 1577.05 553.285 1576.05 549.141L1579.42 547.153Z" fill="#665D26"/>
<path d="M1645.74 571.39V567.537H1688.51V571.39H1645.74ZM1645.74 488.238V484.385H1688.51V488.238H1645.74ZM1645.74 525.277V521.424H1686.02V525.277H1645.74ZM1643.87 484.385H1647.98V571.39H1643.87V484.385Z" fill="#665D26"/>
<path d="M1708.39 527.887C1708.39 535.676 1710.02 542.637 1713.26 548.769C1716.58 554.817 1721.07 559.582 1726.73 563.062C1732.38 566.542 1738.78 568.283 1745.93 568.283C1750.09 568.283 1753.83 567.868 1757.15 567.04C1760.56 566.211 1763.64 564.968 1766.38 563.311C1769.12 561.571 1771.66 559.499 1773.99 557.096V562.565C1770.33 565.797 1766.34 568.283 1762.01 570.023C1757.69 571.68 1752.33 572.508 1745.93 572.508C1739.86 572.508 1734.25 571.431 1729.09 569.277C1724.02 567.04 1719.62 563.932 1715.88 559.955C1712.14 555.895 1709.23 551.172 1707.15 545.786C1705.07 540.317 1704.03 534.351 1704.03 527.887C1704.03 521.424 1705.07 515.5 1707.15 510.114C1709.23 504.645 1712.14 499.922 1715.88 495.944C1719.62 491.884 1724.02 488.777 1729.09 486.622C1734.25 484.385 1739.86 483.267 1745.93 483.267C1752.33 483.267 1757.69 484.137 1762.01 485.877C1766.34 487.534 1770.33 489.978 1773.99 493.21V498.555C1771.74 496.152 1769.16 494.121 1766.25 492.464C1763.43 490.807 1760.31 489.564 1756.9 488.735C1753.58 487.907 1749.92 487.493 1745.93 487.493C1738.78 487.493 1732.38 489.233 1726.73 492.713C1721.07 496.11 1716.58 500.833 1713.26 506.882C1710.02 512.931 1708.39 519.933 1708.39 527.887Z" fill="#665D26"/>
<path d="M1793.63 527.887C1793.63 535.676 1795.25 542.637 1798.5 548.769C1801.82 554.817 1806.39 559.623 1812.21 563.187C1818.03 566.667 1824.64 568.407 1832.04 568.407C1839.61 568.407 1846.26 566.667 1851.99 563.187C1857.81 559.623 1862.34 554.817 1865.58 548.769C1868.83 542.637 1870.45 535.676 1870.45 527.887C1870.45 520.016 1868.83 513.055 1865.58 507.006C1862.34 500.958 1857.81 496.193 1851.99 492.713C1846.26 489.15 1839.61 487.368 1832.04 487.368C1824.64 487.368 1818.03 489.15 1812.21 492.713C1806.39 496.193 1801.82 500.958 1798.5 507.006C1795.25 513.055 1793.63 520.016 1793.63 527.887ZM1789.39 527.887C1789.39 521.424 1790.43 515.5 1792.51 510.114C1794.67 504.645 1797.67 499.922 1801.49 495.944C1805.31 491.967 1809.8 488.86 1814.96 486.622C1820.19 484.385 1825.89 483.267 1832.04 483.267C1838.28 483.267 1843.97 484.385 1849.12 486.622C1854.28 488.86 1858.77 491.967 1862.59 495.944C1866.5 499.922 1869.49 504.645 1871.57 510.114C1873.73 515.5 1874.81 521.424 1874.81 527.887C1874.81 534.268 1873.73 540.192 1871.57 545.661C1869.49 551.13 1866.5 555.853 1862.59 559.831C1858.77 563.808 1854.28 566.915 1849.12 569.153C1843.97 571.39 1838.28 572.508 1832.04 572.508C1825.89 572.508 1820.19 571.39 1814.96 569.153C1809.8 566.915 1805.31 563.808 1801.49 559.831C1797.67 555.853 1794.67 551.13 1792.51 545.661C1790.43 540.192 1789.39 534.268 1789.39 527.887Z" fill="#665D26"/>
<path d="M1958.02 484.385H1962.14V574L1895.67 492.837V571.39H1891.56V481.775L1958.02 563.311V484.385Z" fill="#665D26"/>
<path d="M1983.86 484.385H1987.98V571.39H1983.86V484.385ZM2005.68 571.39H1985.98V567.288H2005.68C2011.5 567.288 2016.78 566.377 2021.52 564.554C2026.26 562.731 2030.25 560.079 2033.49 556.599C2036.82 553.119 2039.35 548.976 2041.1 544.17C2042.93 539.281 2043.84 533.854 2043.84 527.887C2043.84 521.921 2042.93 516.536 2041.1 511.73C2039.35 506.841 2036.82 502.656 2033.49 499.176C2030.25 495.696 2026.26 493.044 2021.52 491.221C2016.78 489.398 2011.5 488.487 2005.68 488.487H1985.98V484.385H2005.68C2014.16 484.385 2021.56 486.208 2027.88 489.854C2034.28 493.5 2039.23 498.596 2042.72 505.142C2046.21 511.605 2047.96 519.187 2047.96 527.887C2047.96 536.588 2046.21 544.211 2042.72 550.757C2039.23 557.221 2034.28 562.275 2027.88 565.921C2021.56 569.567 2014.16 571.39 2005.68 571.39Z" fill="#665D26"/>
<path d="M2063.35 547.153C2064.35 550.882 2065.76 554.403 2067.59 557.718C2069.5 560.949 2072.04 563.559 2075.19 565.548C2078.35 567.537 2082.34 568.531 2087.17 568.531C2093.48 568.531 2098.39 566.791 2101.88 563.311C2105.37 559.748 2107.12 555.273 2107.12 549.887C2107.12 545.496 2106.12 541.891 2104.12 539.074C2102.13 536.257 2099.59 533.978 2096.52 532.238C2093.44 530.498 2090.24 529.006 2086.92 527.763C2084.17 526.686 2081.43 525.485 2078.69 524.159C2075.94 522.75 2073.41 521.134 2071.08 519.311C2068.84 517.406 2067.05 515.168 2065.72 512.6C2064.39 510.031 2063.72 506.965 2063.72 503.402C2063.72 499.342 2064.64 495.82 2066.47 492.837C2068.38 489.771 2071 487.41 2074.32 485.752C2077.65 484.095 2081.43 483.267 2085.67 483.267C2090.24 483.267 2094.15 484.137 2097.39 485.877C2100.63 487.617 2103.29 489.771 2105.37 492.34C2107.45 494.909 2108.99 497.477 2109.99 500.046L2106.24 502.035C2105.41 499.715 2104.12 497.436 2102.38 495.199C2100.72 492.961 2098.51 491.097 2095.77 489.605C2093.03 488.114 2089.62 487.368 2085.54 487.368C2080.14 487.368 2075.82 488.777 2072.58 491.594C2069.42 494.411 2067.84 498.223 2067.84 503.029C2067.84 506.758 2068.75 509.948 2070.58 512.6C2072.49 515.168 2075.07 517.406 2078.31 519.311C2081.64 521.217 2085.5 522.957 2089.91 524.532C2092.4 525.526 2094.9 526.686 2097.39 528.012C2099.97 529.338 2102.3 530.953 2104.37 532.859C2106.45 534.765 2108.11 537.085 2109.36 539.82C2110.69 542.554 2111.36 545.786 2111.36 549.514C2111.36 552.829 2110.77 555.895 2109.61 558.712C2108.45 561.529 2106.78 563.974 2104.62 566.045C2102.54 568.034 2100.01 569.608 2097.02 570.768C2094.02 571.928 2090.7 572.508 2087.04 572.508C2081.8 572.508 2077.36 571.431 2073.7 569.277C2070.04 567.122 2067.09 564.264 2064.85 560.701C2062.6 557.138 2060.98 553.285 2059.98 549.141L2063.35 547.153Z" fill="#665D26"/>
<path d="M110.817 484.385H114.932V571.39H110.817V484.385ZM132.639 571.39H112.937V567.288H132.639C138.458 567.288 143.737 566.377 148.475 564.554C153.214 562.731 157.204 560.079 160.446 556.599C163.771 553.119 166.307 548.976 168.052 544.17C169.881 539.281 170.796 533.854 170.796 527.887C170.796 521.921 169.881 516.536 168.052 511.73C166.307 506.841 163.771 502.656 160.446 499.176C157.204 495.696 153.214 493.044 148.475 491.221C143.737 489.398 138.458 488.487 132.639 488.487H112.937V484.385H132.639C141.118 484.385 148.517 486.208 154.835 489.854C161.236 493.5 166.182 498.596 169.673 505.142C173.165 511.605 174.911 519.187 174.911 527.887C174.911 536.588 173.165 544.211 169.673 550.757C166.182 557.221 161.236 562.275 154.835 565.921C148.517 569.567 141.118 571.39 132.639 571.39Z" fill="#665D26"/>
<path d="M193.76 539.82L194.883 536.091H236.407L237.529 539.82H193.76ZM215.582 491.221L196.753 537.458L196.379 538.452L183.036 571.39H178.547L215.582 481.775L252.617 571.39H248.003L234.91 538.701L234.536 537.707L215.582 491.221Z" fill="#665D26"/>
<path d="M304.472 484.385H309.086L279.533 536.961V571.39H275.543V537.085L246.863 484.385H251.476L277.413 532.984L304.472 484.385Z" fill="#665D26"/>
<path d="M320.114 547.153C321.112 550.882 322.525 554.403 324.354 557.718C326.266 560.949 328.801 563.559 331.96 565.548C335.119 567.537 339.11 568.531 343.931 568.531C350.249 568.531 355.154 566.791 358.645 563.311C362.137 559.748 363.883 555.273 363.883 549.887C363.883 545.496 362.885 541.891 360.89 539.074C358.895 536.257 356.359 533.978 353.283 532.238C350.208 530.498 347.007 529.006 343.682 527.763C340.938 526.686 338.195 525.485 335.452 524.159C332.708 522.75 330.173 521.134 327.845 519.311C325.601 517.406 323.813 515.168 322.483 512.6C321.153 510.031 320.488 506.965 320.488 503.402C320.488 499.342 321.403 495.82 323.232 492.837C325.144 489.771 327.762 487.41 331.087 485.752C334.413 484.095 338.195 483.267 342.435 483.267C347.007 483.267 350.914 484.137 354.156 485.877C357.398 487.617 360.059 489.771 362.137 492.34C364.215 494.909 365.753 497.477 366.751 500.046L363.01 502.035C362.178 499.715 360.89 497.436 359.144 495.199C357.482 492.961 355.279 491.097 352.535 489.605C349.792 488.114 346.384 487.368 342.31 487.368C336.907 487.368 332.584 488.777 329.342 491.594C326.183 494.411 324.603 498.223 324.603 503.029C324.603 506.758 325.518 509.948 327.347 512.6C329.259 515.168 331.836 517.406 335.078 519.311C338.403 521.217 342.269 522.957 346.675 524.532C349.168 525.526 351.662 526.686 354.156 528.012C356.733 529.338 359.061 530.953 361.139 532.859C363.218 534.765 364.88 537.085 366.127 539.82C367.457 542.554 368.122 545.786 368.122 549.514C368.122 552.829 367.54 555.895 366.377 558.712C365.213 561.529 363.55 563.974 361.389 566.045C359.31 568.034 356.775 569.608 353.782 570.768C350.789 571.928 347.464 572.508 343.806 572.508C338.569 572.508 334.122 571.431 330.464 569.277C326.806 567.122 323.855 564.264 321.61 560.701C319.366 557.138 317.745 553.285 316.747 549.141L320.114 547.153Z" fill="#665D26"/>
<path d="M813.876 494.826L805.771 571.39H801.656L811.382 481.775L846.297 551.627L881.212 481.775L890.939 571.39H886.824L878.718 494.826L846.297 559.831L813.876 494.826Z" fill="#665D26"/>
<path d="M908.174 484.385H912.164V571.39H908.174V484.385Z" fill="#665D26"/>
<path d="M999.853 484.385H1003.97V574L937.505 492.837V571.39H933.39V481.775L999.853 563.311V484.385Z" fill="#665D26"/>
<path d="M1025.07 484.385H1029.19V543.673C1029.19 551.379 1031.14 557.511 1035.05 562.068C1039.04 566.542 1044.57 568.78 1051.63 568.78C1058.78 568.78 1064.31 566.542 1068.22 562.068C1072.21 557.511 1074.2 551.379 1074.2 543.673V484.385H1078.32V543.673C1078.32 547.981 1077.73 551.917 1076.57 555.48C1075.41 559.043 1073.7 562.109 1071.46 564.678C1069.21 567.164 1066.43 569.111 1063.1 570.52C1059.78 571.928 1055.95 572.633 1051.63 572.633C1047.31 572.633 1043.48 571.928 1040.16 570.52C1036.92 569.111 1034.13 567.164 1031.8 564.678C1029.56 562.109 1027.86 559.043 1026.69 555.48C1025.61 551.917 1025.07 547.981 1025.07 543.673V484.385Z" fill="#665D26"/>
<path d="M1090.64 488.238V484.385H1141.39V488.238H1118.07V571.39H1113.96V488.238H1090.64Z" fill="#665D26"/>
<path d="M1156.28 571.39V567.537H1199.05V571.39H1156.28ZM1156.28 488.238V484.385H1199.05V488.238H1156.28ZM1156.28 525.277V521.424H1196.56V525.277H1156.28ZM1154.41 484.385H1158.52V571.39H1154.41V484.385Z" fill="#665D26"/>
<path d="M1218.19 547.153C1219.18 550.882 1220.6 554.403 1222.43 557.718C1224.34 560.949 1226.87 563.559 1230.03 565.548C1233.19 567.537 1237.18 568.531 1242 568.531C1248.32 568.531 1253.23 566.791 1256.72 563.311C1260.21 559.748 1261.96 555.273 1261.96 549.887C1261.96 545.496 1260.96 541.891 1258.96 539.074C1256.97 536.257 1254.43 533.978 1251.36 532.238C1248.28 530.498 1245.08 529.006 1241.75 527.763C1239.01 526.686 1236.27 525.485 1233.52 524.159C1230.78 522.75 1228.25 521.134 1225.92 519.311C1223.67 517.406 1221.89 515.168 1220.56 512.6C1219.23 510.031 1218.56 506.965 1218.56 503.402C1218.56 499.342 1219.48 495.82 1221.3 492.837C1223.22 489.771 1225.84 487.41 1229.16 485.752C1232.49 484.095 1236.27 483.267 1240.51 483.267C1245.08 483.267 1248.99 484.137 1252.23 485.877C1255.47 487.617 1258.13 489.771 1260.21 492.34C1262.29 494.909 1263.83 497.477 1264.82 500.046L1261.08 502.035C1260.25 499.715 1258.96 497.436 1257.22 495.199C1255.55 492.961 1253.35 491.097 1250.61 489.605C1247.86 488.114 1244.46 487.368 1240.38 487.368C1234.98 487.368 1230.66 488.777 1227.41 491.594C1224.26 494.411 1222.68 498.223 1222.68 503.029C1222.68 506.758 1223.59 509.948 1225.42 512.6C1227.33 515.168 1229.91 517.406 1233.15 519.311C1236.48 521.217 1240.34 522.957 1244.75 524.532C1247.24 525.526 1249.74 526.686 1252.23 528.012C1254.81 529.338 1257.13 530.953 1259.21 532.859C1261.29 534.765 1262.95 537.085 1264.2 539.82C1265.53 542.554 1266.2 545.786 1266.2 549.514C1266.2 552.829 1265.61 555.895 1264.45 558.712C1263.29 561.529 1261.62 563.974 1259.46 566.045C1257.38 568.034 1254.85 569.608 1251.86 570.768C1248.86 571.928 1245.54 572.508 1241.88 572.508C1236.64 572.508 1232.19 571.431 1228.54 569.277C1224.88 567.122 1221.93 564.264 1219.68 560.701C1217.44 557.138 1215.82 553.285 1214.82 549.141L1218.19 547.153Z" fill="#665D26"/>
<path d="M0 93.2268C0 41.739 41.8748 0 93.53 0H150.855C202.51 0 244.385 41.739 244.385 93.2268V318.775C244.385 370.263 202.51 412.002 150.855 412.002H93.53C41.8748 412.002 0 370.263 0 318.775V93.2268Z" fill="#665D26"/>
<path d="M262.487 93.2268C262.487 41.739 304.362 0 356.017 0H413.342C464.997 0 506.872 41.739 506.872 93.2268V318.775C506.872 370.263 464.997 412.002 413.342 412.002H356.017C304.362 412.002 262.487 370.263 262.487 318.775V93.2268Z" fill="#665D26"/>
<path d="M70.8069 113.978C70.5901 109.226 70.6985 104.689 71.132 100.368C71.7822 96.0478 72.5407 91.7272 73.4077 87.4066C75.7917 75.957 82.5105 68.2879 93.5639 64.3993C98.5487 62.6711 103.425 61.3749 108.193 60.5108C113.178 59.4306 118.38 59.3226 123.798 60.1867C127.266 60.6188 130.734 60.4027 134.201 59.5386C137.886 58.6745 141.462 58.0264 144.93 57.5943C150.348 56.9463 155.658 56.8382 160.86 57.2703C166.061 57.7024 171.046 59.1066 175.814 61.4829C184.267 65.5875 190.66 72.2844 194.995 81.5737C199.33 90.8631 200.955 100.26 199.872 109.766C198.571 119.919 195.97 129.641 192.069 138.93C188.385 148.003 184.158 156.968 179.39 165.826C173.322 177.275 166.82 188.509 159.884 199.526C153.166 210.328 145.688 220.805 137.452 230.959C134.418 234.847 131.275 238.736 128.024 242.625C124.99 246.297 121.631 249.646 117.946 252.67C115.129 254.614 115.454 256.126 118.922 257.207C121.956 258.071 124.99 258.827 128.024 259.475C131.059 259.907 133.985 260.555 136.802 261.419C141.787 262.931 146.664 264.768 151.432 266.928C156.2 269.088 160.534 271.573 164.436 274.381C168.554 277.189 172.672 278.81 176.789 279.242C181.124 279.458 185.35 279.998 189.468 280.862C194.02 281.726 196.729 282.698 197.596 283.778C198.463 284.859 198.571 287.667 197.921 292.204C197.271 295.66 196.512 299.117 195.645 302.573C194.995 306.03 194.345 309.594 193.695 313.267C192.828 316.939 190.444 318.667 186.542 318.451C184.375 318.019 182.099 317.695 179.715 317.479C177.548 317.263 175.381 316.723 173.213 315.859C169.312 314.131 167.036 315.211 166.386 319.099C166.17 319.964 165.953 320.72 165.736 321.368C165.519 322.016 165.303 322.772 165.086 323.636C164.219 329.469 161.943 333.573 158.259 335.95C154.574 338.326 150.24 339.946 145.255 340.811C135.285 342.107 125.315 343.187 115.346 344.051C105.593 345.131 95.6228 345.455 85.4364 345.023C78.7176 344.591 71.9989 344.051 65.2802 343.403C58.7782 342.971 52.1678 343.079 45.4491 343.727C43.2817 343.943 41.2228 344.267 39.2722 344.699C37.5383 345.131 35.5877 345.239 33.4204 345.023C29.9526 344.591 27.6769 343.619 26.5933 342.107C25.5096 340.811 25.4012 338.434 26.2682 334.978C27.7853 329.361 29.5192 323.96 31.4698 318.775C33.4204 313.375 35.4793 307.974 37.6467 302.573C45.8825 283.346 54.6602 264.336 63.9798 245.541C73.516 226.746 82.6188 207.844 91.2882 188.833C94.3224 182.352 97.4651 175.979 100.716 169.714C103.967 163.233 107.652 156.968 111.769 150.92C114.804 146.167 117.513 141.306 119.897 136.338C122.498 131.369 124.232 126.184 125.099 120.783C125.532 119.271 125.749 117.759 125.749 116.247C125.749 114.734 125.532 113.222 125.099 111.71C124.665 110.198 124.232 108.686 123.798 107.173C123.365 105.445 122.281 104.473 120.547 104.257C118.813 103.825 117.188 104.041 115.671 104.905C114.154 105.769 112.745 106.741 111.444 107.821C109.494 109.766 108.193 112.034 107.543 114.626C106.893 117.003 106.134 119.487 105.267 122.079C105.051 122.944 104.834 123.808 104.617 124.672C104.617 125.536 104.509 126.508 104.292 127.588C103.208 131.909 102.125 134.501 101.041 135.365C100.174 136.229 97.4651 136.554 92.9137 136.338C90.5296 136.121 88.0372 136.121 85.4364 136.338C83.0523 136.338 80.6682 136.878 78.2842 137.958C75.9001 138.822 74.2746 138.822 73.4077 137.958C72.7575 136.878 72.4324 135.473 72.4324 133.745C72.2156 130.289 71.7822 126.94 71.132 123.7C70.6985 120.243 70.5901 117.003 70.8069 113.978ZM133.226 62.131C134.093 62.7791 134.743 63.3192 135.177 63.7512C135.61 63.9672 136.044 64.1833 136.477 64.3993C136.911 64.3993 137.344 64.3993 137.777 64.3993C144.713 65.9115 149.806 68.936 153.057 73.4726C156.308 77.7932 158.367 83.302 159.234 89.9989C160.101 95.3997 160.101 100.692 159.234 105.877C158.367 111.062 157.392 116.247 156.308 121.431C154.574 128.992 152.515 136.554 150.131 144.115C147.964 151.676 144.496 158.697 139.728 165.178C135.177 171.442 130.95 178.031 127.049 184.944C123.365 191.641 119.68 198.446 115.996 205.359C109.711 216.593 103.642 228.151 97.7902 240.032C92.1551 251.698 85.8698 262.931 78.9344 273.733C77.8507 275.461 77.5256 276.757 77.9591 277.622C78.3925 278.27 79.6929 278.702 81.8603 278.918C87.9288 279.35 93.9973 279.458 100.066 279.242C106.134 279.026 112.203 280.754 118.271 284.426C122.389 286.803 126.941 288.531 131.926 289.611C137.127 290.475 142.112 291.556 146.88 292.852C147.964 293.068 148.831 293.284 149.481 293.5C150.348 293.5 151.215 293.068 152.082 292.204C153.816 290.043 155.441 287.991 156.958 286.047C158.475 284.102 159.993 282.05 161.51 279.89C163.027 277.946 162.81 276.649 160.86 276.001C154.791 273.841 148.939 271.141 143.304 267.9C137.886 264.444 131.817 262.391 125.099 261.743C122.931 261.527 120.764 261.095 118.597 260.447C116.646 259.583 114.695 258.827 112.745 258.179C109.494 257.099 109.277 255.262 112.095 252.67C113.395 251.59 114.695 250.51 115.996 249.43C117.296 248.133 118.597 246.837 119.897 245.541C131.167 233.011 141.57 219.941 151.107 206.331C160.86 192.722 169.529 178.355 177.115 163.233C181.666 154.376 185.784 145.411 189.468 136.338C193.153 127.264 195.537 117.651 196.621 107.497C197.704 97.9921 195.645 88.9188 190.444 80.2776C185.459 71.6363 178.523 65.6955 169.637 62.455C163.785 60.2947 157.825 59.5386 151.757 60.1867C145.905 60.8348 139.728 61.4829 133.226 62.131ZM92.2635 341.783C101.15 341.783 109.169 341.351 116.321 340.486C123.69 339.838 130.734 339.082 137.452 338.218C143.521 337.354 147.964 336.49 150.781 335.626C153.816 334.762 156.091 333.033 157.609 330.441C159.126 327.849 160.751 323.744 162.485 318.127C164.436 311.862 162.16 308.946 155.658 309.378C150.89 309.81 146.122 310.242 141.354 310.674C136.585 311.106 131.926 311.862 127.374 312.943C116.104 315.751 104.726 316.831 93.2388 316.183C81.9686 315.535 70.6985 314.455 59.4284 312.943C55.0937 312.294 53.7933 310.242 55.5272 306.786C57.9112 301.817 60.2953 297.064 62.6794 292.528C65.0634 287.775 67.7726 283.238 70.8069 278.918C76.6587 270.925 81.7519 262.607 86.0866 253.966C90.638 245.109 95.2977 236.36 100.066 227.718C105.051 218.429 109.819 209.14 114.37 199.851C118.922 190.345 124.232 181.272 130.3 172.631C135.935 165.07 140.487 157.184 143.954 148.975C147.639 140.55 150.456 131.693 152.407 122.404C153.491 117.435 154.358 112.358 155.008 107.173C155.875 101.773 156.091 96.4799 155.658 91.2951C155.224 86.5424 154.032 82.1138 152.082 78.0092C150.348 73.9047 147.205 70.9882 142.654 69.26C135.068 66.2356 127.374 64.0753 119.572 62.7791C111.769 61.4829 103.75 62.6711 95.5145 66.3436C90.9631 68.2879 87.0619 70.7722 83.8109 73.7966C80.7766 76.605 78.7176 80.4936 77.634 85.4623C75.9001 92.5913 74.7081 99.7203 74.0579 106.849C73.6244 113.978 74.0579 121.215 75.3583 128.56C76.0085 132.449 78.3925 134.393 82.5105 134.393C87.7121 134.177 91.3965 133.853 93.5639 133.421C95.7312 132.773 97.3567 131.477 98.4404 129.533C99.524 127.372 100.716 123.808 102.016 118.839C103.1 115.167 104.509 111.926 106.243 109.118C108.193 106.093 111.119 103.825 115.02 102.313C122.823 99.5043 127.483 102.097 129 110.09C129.867 114.626 129.65 119.055 128.35 123.376C127.266 127.48 125.749 131.585 123.798 135.689C118.813 146.059 113.287 156.104 107.218 165.826C101.366 175.547 96.1647 185.809 91.6133 196.61C85.9782 209.788 79.6929 222.858 72.7575 235.82C65.822 248.565 59.5367 261.635 53.9017 275.029C49.7837 284.751 45.4491 294.364 40.8977 303.869C36.3463 313.159 32.8785 322.88 30.4945 333.033C29.6275 336.706 29.7359 339.19 30.8196 340.486C31.9032 341.783 34.3957 342.107 38.2969 341.459C41.3311 341.027 44.257 340.486 47.0746 339.838C49.8921 339.406 52.7096 339.298 55.5272 339.514C62.4626 339.73 69.073 340.054 75.3583 340.486C81.8603 340.919 87.4953 341.351 92.2635 341.783ZM164.111 285.075C161.943 286.587 160.209 288.099 158.909 289.611C157.825 291.123 156.742 292.744 155.658 294.472C154.791 295.336 153.924 296.092 153.057 296.74C152.19 297.388 150.89 297.496 149.156 297.064C145.038 295.984 140.92 294.796 136.802 293.5C132.684 292.204 128.458 291.123 124.123 290.259C120.656 289.611 117.405 288.315 114.37 286.371C111.553 284.426 108.41 283.346 104.942 283.13C100.391 282.698 95.7312 282.59 90.9631 282.806C86.4117 283.022 81.7519 283.13 76.9838 283.13C76.1168 283.13 75.1415 283.238 74.0579 283.454C73.1909 283.67 72.324 284.318 71.4571 285.399C67.3391 291.447 63.763 298.144 60.7288 305.49C60.0786 308.082 60.7288 309.486 62.6794 309.702C69.6148 310.35 76.4419 311.322 83.1607 312.619C90.0961 313.915 96.9232 314.023 103.642 312.943C111.011 311.862 118.271 310.89 125.424 310.026C132.576 308.946 139.836 307.65 147.205 306.138C149.589 305.706 152.19 305.814 155.008 306.462C157.825 307.11 160.101 306.246 161.835 303.869C163.352 301.493 163.894 299.009 163.46 296.416C163.244 293.608 163.46 291.015 164.111 288.639C164.327 288.207 164.327 287.775 164.111 287.343C164.111 286.695 164.111 285.939 164.111 285.075ZM174.189 283.454C172.021 282.806 170.396 283.13 169.312 284.426C168.445 285.507 167.903 286.911 167.687 288.639C167.47 290.367 167.362 292.204 167.362 294.148C167.578 295.876 167.47 297.604 167.036 299.333C166.82 301.277 166.603 303.221 166.386 305.165C166.386 307.11 167.47 308.73 169.637 310.026C172.238 311.538 175.056 312.727 178.09 313.591C181.124 314.455 184.158 314.779 187.193 314.563C188.276 314.347 188.927 313.915 189.143 313.267C189.577 312.402 189.902 311.538 190.119 310.674C191.852 304.193 193.153 297.712 194.02 291.231C194.887 287.127 193.044 284.859 188.493 284.426C186.109 284.21 183.725 284.102 181.341 284.102C178.957 283.886 176.573 283.67 174.189 283.454Z" fill="#FFFDF9"/>
<path d="M480.488 270.493C480.055 279.134 476.37 288.207 469.435 297.712C462.716 307.218 454.589 316.507 445.052 325.58C436.817 333.79 426.955 338.974 415.468 341.135C404.198 343.511 391.953 343.295 378.732 340.486C376.565 340.054 374.506 339.946 372.555 340.162C370.821 340.594 369.087 341.135 367.354 341.783C341.346 352.152 322.707 346.103 311.436 323.636C307.318 314.995 304.609 306.138 303.309 297.064C302.009 287.991 300.816 278.81 299.733 269.52C297.999 253.534 296.915 237.548 296.482 221.562C296.265 205.359 295.723 189.157 294.856 172.955C294.206 160.857 293.339 148.867 292.256 136.986C291.389 124.888 291.063 112.898 291.28 101.017V99.3963C291.063 87.9466 293.231 79.3054 297.782 73.4726C302.55 67.6398 310.786 63.3192 322.49 60.5108C335.927 57.4863 348.389 57.3783 359.876 60.1867C371.58 62.9951 381.333 68.7199 389.135 77.3611C391.736 80.3856 394.445 82.5459 397.263 83.8421C400.08 84.9222 403.765 85.2463 408.316 84.8142C418.286 83.734 427.605 85.5703 436.275 90.323C445.161 94.8596 451.446 101.017 455.131 108.794C461.849 122.404 466.617 136.338 469.435 150.596C472.469 164.638 475.72 178.68 479.188 192.722C482.006 204.387 483.306 216.377 483.089 228.691C483.089 240.788 482.222 254.722 480.488 270.493ZM404.74 241.328C405.607 237.008 406.257 233.227 406.691 229.987C407.341 226.746 407.883 223.722 408.316 220.913C409.4 212.056 408.858 203.307 406.691 194.666C404.74 185.809 403.656 177.059 403.44 168.418C403.223 160.209 403.006 152 402.789 143.791C402.789 135.581 402.248 127.48 401.164 119.487C399.864 108.686 396.613 98.5322 391.411 89.0268C386.426 79.5215 377.215 71.7444 363.777 65.6955C356.842 62.455 349.581 60.9428 341.996 61.1589C334.41 61.3749 327.258 62.8871 320.539 65.6955C314.037 68.2879 308.619 71.9604 304.284 76.7131C300.166 81.4657 297.999 86.9745 297.782 93.2394C297.565 101.881 297.349 110.414 297.132 118.839C297.132 127.264 297.565 135.689 298.432 144.115C299.95 159.885 300.816 175.655 301.033 191.425C301.25 207.196 301.683 222.966 302.334 238.736C303.201 254.29 304.934 269.952 307.535 285.723C308.836 293.716 310.136 301.601 311.436 309.378C312.737 317.155 316.205 324.608 321.84 331.737C330.292 342.539 341.887 345.887 356.625 341.783C364.428 339.622 370.279 336.166 374.181 331.413C378.299 326.877 381.441 321.908 383.609 316.507C388.377 303.761 392.928 291.123 397.263 278.594C401.814 266.064 404.307 253.642 404.74 241.328ZM474.311 261.743C476.262 254.614 477.346 247.161 477.562 239.384C477.779 231.607 477.454 223.83 476.587 216.053C475.287 202.875 472.903 189.805 469.435 176.843C466.184 163.665 462.716 150.488 459.032 137.31C456.431 127.372 452.205 117.435 446.353 107.497C443.102 101.881 437.684 97.128 430.098 93.2394C422.729 89.3508 415.468 87.5146 408.316 87.7306C405.282 87.9467 403.006 88.5947 401.489 89.6749C400.189 90.539 399.972 92.4833 400.839 95.5077C403.44 103.501 405.39 111.602 406.691 119.811C408.425 131.693 408.966 143.467 408.316 155.132C407.883 166.798 408.858 178.463 411.242 190.129C413.843 204.603 414.06 218.537 411.892 231.931C409.291 249.214 405.824 266.388 401.489 283.454C397.154 300.305 390.219 316.507 380.683 332.061C379.382 334.222 379.166 335.518 380.033 335.95C381.116 336.598 382.742 337.138 384.909 337.57C394.445 339.082 403.44 339.19 411.892 337.894C420.345 336.598 427.822 333.141 434.324 327.525C444.727 318.667 453.722 308.946 461.307 298.36C469.11 287.775 473.445 275.569 474.311 261.743ZM377.107 258.827C376.456 263.148 375.806 267.468 375.156 271.789C374.506 276.109 373.964 280.43 373.53 284.751C373.314 287.775 372.23 290.475 370.279 292.852C368.546 295.012 366.162 296.956 363.127 298.685C355.325 303.005 347.848 302.033 340.695 295.768C333.326 289.287 328.558 282.266 326.391 274.705C324.224 266.928 323.14 259.043 323.14 251.05C322.923 235.712 322.815 220.373 322.815 205.035C322.815 189.481 322.923 174.035 323.14 158.697C323.14 155.456 323.357 152.108 323.79 148.651C324.224 144.979 326.174 142.386 329.642 140.874C335.277 138.066 341.454 136.554 348.173 136.338C355.108 135.905 361.61 137.202 367.679 140.226C372.23 142.17 375.048 145.195 376.131 149.299C377.432 153.188 378.082 156.968 378.082 160.641C378.082 177.059 378.407 193.478 379.057 209.896C379.707 226.314 379.057 242.625 377.107 258.827ZM371.255 254.29C373.639 240.68 374.181 226.962 372.88 213.136C371.797 199.31 371.363 185.484 371.58 171.659C371.797 167.338 371.363 163.017 370.279 158.697C369.196 154.376 367.787 150.163 366.053 146.059C364.97 143.467 362.802 141.846 359.551 141.198C357.384 140.766 355.975 141.09 355.325 142.17C354.675 143.034 354.133 144.115 353.699 145.411C353.049 147.571 352.399 149.623 351.749 151.568C351.099 153.512 350.557 155.672 350.123 158.049C346.656 179.004 346.114 200.175 348.498 221.562C350.882 242.949 354.35 264.228 358.901 285.399C359.118 286.263 359.443 287.343 359.876 288.639C360.31 289.935 361.285 290.583 362.802 290.583C364.536 290.583 365.62 289.935 366.053 288.639C366.487 287.343 366.812 286.155 367.028 285.075C367.895 280.106 368.654 275.029 369.304 269.844C369.954 264.66 370.605 259.475 371.255 254.29ZM328.992 162.909C329.425 178.68 329.317 194.45 328.667 210.22C328.233 225.774 328.775 241.436 330.292 257.207C330.942 263.904 332.243 270.385 334.193 276.649C336.144 282.914 340.154 288.747 346.222 294.148C347.523 295.228 348.823 296.2 350.123 297.064C351.64 297.928 353.266 297.928 355 297.064C356.517 296.2 356.842 295.228 355.975 294.148C355.108 293.068 354.458 292.096 354.024 291.231C353.808 289.935 353.374 288.747 352.724 287.667C352.291 286.371 351.966 285.183 351.749 284.102C349.581 275.029 347.739 266.064 346.222 257.207C344.705 248.133 343.513 239.06 342.646 229.987C341.779 216.377 341.02 202.767 340.37 189.157C339.937 175.331 341.454 161.829 344.922 148.651C345.355 147.571 345.789 146.275 346.222 144.763C346.872 143.25 346.005 142.17 343.621 141.522C341.887 141.09 340.045 141.198 338.095 141.846C336.361 142.494 335.06 143.575 334.193 145.087C332.676 147.895 331.267 150.812 329.967 153.836C328.883 156.644 328.558 159.669 328.992 162.909Z" fill="#FFFDF9"/>
<path d="M784.445 93.2268C784.445 41.739 826.32 0 877.975 0H935.3C986.955 0 1028.83 41.739 1028.83 93.2268V318.775C1028.83 370.263 986.955 412.002 935.3 412.002H877.975C826.32 412.002 784.445 370.263 784.445 318.775V93.2268Z" fill="#665D26"/>
<path d="M1046.93 93.2268C1046.93 41.739 1088.81 0 1140.46 0H1197.79C1249.44 0 1291.32 41.739 1291.32 93.2268V318.775C1291.32 370.263 1249.44 412.002 1197.79 412.002H1140.46C1088.81 412.002 1046.93 370.263 1046.93 318.775V93.2268Z" fill="#665D26"/>
<path d="M882.365 121.431C876.08 126.184 870.336 130.937 865.135 135.689C859.933 140.226 854.948 144.979 850.18 149.947C840.861 160.317 831.866 170.578 823.197 180.732C822.33 181.596 821.463 182.46 820.596 183.324C819.729 184.188 818.645 184.512 817.345 184.296C815.828 183.864 814.961 183.108 814.744 182.028C814.744 180.732 814.744 179.544 814.744 178.463C813.877 171.551 813.335 164.638 813.119 157.725C813.119 150.596 812.469 143.683 811.168 136.986C810.735 134.609 811.168 133.097 812.468 132.449C813.769 131.801 815.178 131.369 816.695 131.153C823.414 130.289 829.59 128.452 835.226 125.644C840.861 122.836 846.387 119.487 851.806 115.599C853.973 113.87 856.032 112.25 857.982 110.738C860.15 109.226 862.317 107.713 864.485 106.201C878.572 95.1837 888.325 80.9257 893.743 63.4272C894.61 60.8348 895.694 58.7825 896.994 57.2703C898.512 55.7581 900.679 55.218 903.496 55.6501C906.964 56.0821 910.215 55.7581 913.249 54.6779C916.284 53.5978 919.426 52.7337 922.677 52.0856C927.446 51.0054 930.697 53.0577 932.43 58.2424C937.199 74.2287 941.316 90.431 944.784 106.849C948.252 123.052 951.069 139.47 953.237 156.104C955.621 173.819 957.463 191.641 958.763 209.572C960.281 227.286 961.039 245.109 961.039 263.039C961.039 270.601 961.256 278.27 961.689 286.047C962.123 293.608 962.881 301.169 963.965 308.73C964.615 311.754 964.507 314.239 963.64 316.183C962.773 318.127 960.497 319.315 956.813 319.748C954.645 320.18 952.478 320.72 950.311 321.368C948.36 322.016 946.301 322.664 944.134 323.312C941.533 324.176 938.932 325.04 936.332 325.904C933.948 326.769 932.322 328.929 931.455 332.385C931.238 333.898 930.371 334.762 928.854 334.978C927.554 335.41 926.253 335.734 924.953 335.95C914.333 338.11 903.496 339.838 892.443 341.135C881.606 342.647 870.77 343.943 859.933 345.023C856.899 345.239 855.057 344.807 854.406 343.727C853.756 342.647 853.648 340.811 854.081 338.218C858.199 315.751 862.426 293.284 866.76 270.817C871.312 248.133 874.454 225.342 876.188 202.443C877.272 189.265 878.247 176.087 879.114 162.909C880.198 149.515 881.281 135.689 882.365 121.431ZM922.027 56.9463C919.86 56.5142 917.801 56.8382 915.85 57.9184C914.116 58.9985 912.383 59.4306 910.649 59.2146C906.314 58.5665 903.171 59.2146 901.221 61.1589C899.487 63.1031 898.62 66.0196 898.62 69.9081C898.403 70.9883 897.97 72.1764 897.32 73.4726C896.886 74.5528 897.428 75.5249 898.945 76.389C901.546 77.9012 904.038 77.9012 906.422 76.389C910.54 74.2287 913.791 71.5283 916.175 68.2879C918.559 65.0474 920.51 61.2669 922.027 56.9463ZM927.554 62.7791C923.219 66.2356 921.377 70.4482 922.027 75.4169C923.111 82.7619 924.194 90.215 925.278 97.776C926.362 105.121 927.337 112.574 928.204 120.135C929.071 127.696 929.721 135.365 930.155 143.142C930.805 150.704 931.238 158.265 931.455 165.826C932.105 176.411 932.43 187.105 932.43 197.906C932.43 208.708 932.755 219.509 933.406 230.311C934.056 242.409 934.381 254.614 934.381 266.928C934.381 279.242 934.164 291.448 933.731 303.545C933.514 308.946 933.514 312.835 933.731 315.211C933.948 317.371 935.14 318.451 937.307 318.451C939.474 318.451 943.159 318.019 948.36 317.155C953.345 316.075 956.379 314.671 957.463 312.943C958.763 310.998 959.197 307.434 958.763 302.249C958.547 297.496 958.222 292.852 957.788 288.315C957.571 283.562 957.246 278.81 956.813 274.057C955.946 265.2 955.729 256.343 956.163 247.485C956.813 238.628 956.596 229.879 955.512 221.238C954.646 212.596 953.779 204.063 952.912 195.638C952.261 187.213 951.395 178.68 950.311 170.038C948.794 156.428 946.951 142.926 944.784 129.533C942.617 115.923 939.799 102.529 936.332 89.3509C935.248 85.0302 933.839 80.7096 932.105 76.389C930.588 72.0684 929.071 67.5318 927.554 62.7791ZM818.645 177.491C819.729 176.195 820.488 175.223 820.921 174.575C821.571 173.927 822.221 173.279 822.872 172.631C831.758 162.909 840.644 153.296 849.53 143.791C858.416 134.069 868.169 125.212 878.789 117.219C879.873 116.571 880.956 115.815 882.04 114.95C883.34 114.086 884.641 114.086 885.941 114.95C887.458 115.599 888.108 116.679 887.892 118.191C887.892 119.487 888 120.783 888.217 122.079C888.217 123.376 888.108 124.672 887.892 125.968C887.675 127.264 887.458 128.56 887.241 129.857C886.374 138.282 885.399 146.815 884.316 155.456C883.449 163.881 882.798 172.307 882.365 180.732C881.498 196.502 880.198 212.272 878.464 228.043C876.947 243.813 874.671 259.367 871.637 274.705C869.903 284.427 868.061 294.04 866.11 303.545C864.159 312.835 862.209 322.232 860.258 331.737C859.825 333.898 859.933 335.626 860.583 336.922C861.233 338.218 862.967 338.65 865.785 338.218C875.104 337.138 884.424 336.058 893.743 334.978C903.063 334.114 912.274 332.817 921.377 331.089C923.111 330.657 924.411 330.117 925.278 329.469C926.145 329.037 926.687 327.741 926.904 325.58C927.987 314.347 928.746 303.113 929.179 291.88C929.613 280.43 929.613 268.98 929.179 257.531C928.312 232.039 927.662 206.331 927.229 180.408C927.012 163.773 926.145 147.247 924.628 130.829C923.111 114.41 920.835 97.9921 917.801 81.5737C917.367 78.9814 916.609 77.5772 915.525 77.3611C914.658 76.9291 913.249 77.4692 911.299 78.9814C909.565 80.0615 907.723 81.0337 905.772 81.8978C903.822 82.5459 901.654 82.5459 899.27 81.8978C896.669 81.0337 894.502 81.1417 892.768 82.2218C891.034 83.302 889.517 84.9222 888.217 87.0825C886.483 89.8909 884.857 92.9154 883.34 96.1558C881.823 99.1802 879.547 101.773 876.513 103.933C867.844 110.414 859.175 116.895 850.505 123.376C842.053 129.641 832.191 133.637 820.921 135.365C819.404 135.581 818.104 136.013 817.02 136.662C816.153 137.31 815.828 138.498 816.045 140.226C817.128 146.059 817.562 152 817.345 158.049C817.345 164.097 817.778 170.578 818.645 177.491Z" fill="#FFFDF9"/>
<path d="M1117.74 113.978C1117.52 109.226 1117.63 104.689 1118.06 100.368C1118.71 96.0478 1119.47 91.7272 1120.34 87.4066C1122.72 75.957 1129.44 68.2879 1140.5 64.3993C1145.48 62.6711 1150.36 61.3749 1155.13 60.5108C1160.11 59.4306 1165.31 59.3226 1170.73 60.1867C1174.2 60.6188 1177.67 60.4027 1181.13 59.5386C1184.82 58.6745 1188.39 58.0264 1191.86 57.5943C1197.28 56.9463 1202.59 56.8382 1207.79 57.2703C1212.99 57.7024 1217.98 59.1066 1222.75 61.4829C1231.2 65.5875 1237.59 72.2844 1241.93 81.5737C1246.26 90.8631 1247.89 100.26 1246.8 109.766C1245.5 119.919 1242.9 129.641 1239 138.93C1235.32 148.003 1231.09 156.968 1226.32 165.826C1220.25 177.275 1213.75 188.509 1206.82 199.526C1200.1 210.328 1192.62 220.805 1184.38 230.959C1181.35 234.847 1178.21 238.736 1174.96 242.625C1171.92 246.297 1168.56 249.646 1164.88 252.67C1162.06 254.614 1162.39 256.126 1165.85 257.207C1168.89 258.071 1171.92 258.827 1174.96 259.475C1177.99 259.907 1180.92 260.555 1183.73 261.419C1188.72 262.931 1193.6 264.768 1198.36 266.928C1203.13 269.088 1207.47 271.573 1211.37 274.381C1215.49 277.189 1219.6 278.81 1223.72 279.242C1228.06 279.458 1232.28 279.998 1236.4 280.862C1240.95 281.726 1243.66 282.698 1244.53 283.778C1245.4 284.859 1245.5 287.667 1244.85 292.204C1244.2 295.66 1243.44 299.117 1242.58 302.573C1241.93 306.03 1241.28 309.594 1240.63 313.267C1239.76 316.939 1237.38 318.667 1233.47 318.451C1231.31 318.019 1229.03 317.695 1226.65 317.479C1224.48 317.263 1222.31 316.723 1220.15 315.859C1216.24 314.131 1213.97 315.211 1213.32 319.099C1213.1 319.964 1212.89 320.72 1212.67 321.368C1212.45 322.016 1212.24 322.772 1212.02 323.636C1211.15 329.469 1208.88 333.573 1205.19 335.95C1201.51 338.326 1197.17 339.946 1192.19 340.811C1182.22 342.107 1172.25 343.187 1162.28 344.051C1152.53 345.131 1142.56 345.455 1132.37 345.023C1125.65 344.591 1118.93 344.051 1112.21 343.403C1105.71 342.971 1099.1 343.079 1092.38 343.727C1090.21 343.943 1088.16 344.267 1086.2 344.699C1084.47 345.131 1082.52 345.239 1080.35 345.023C1076.89 344.591 1074.61 343.619 1073.53 342.107C1072.44 340.811 1072.33 338.434 1073.2 334.978C1074.72 329.361 1076.45 323.96 1078.4 318.775C1080.35 313.375 1082.41 307.974 1084.58 302.573C1092.82 283.346 1101.59 264.336 1110.91 245.541C1120.45 226.746 1129.55 207.844 1138.22 188.833C1141.25 182.352 1144.4 175.979 1147.65 169.714C1150.9 163.233 1154.58 156.968 1158.7 150.92C1161.74 146.167 1164.45 141.306 1166.83 136.338C1169.43 131.369 1171.16 126.184 1172.03 120.783C1172.46 119.271 1172.68 117.759 1172.68 116.247C1172.68 114.734 1172.46 113.222 1172.03 111.71C1171.6 110.198 1171.16 108.686 1170.73 107.173C1170.3 105.445 1169.21 104.473 1167.48 104.257C1165.75 103.825 1164.12 104.041 1162.6 104.905C1161.09 105.769 1159.68 106.741 1158.38 107.821C1156.43 109.766 1155.13 112.034 1154.48 114.626C1153.83 117.003 1153.07 119.487 1152.2 122.079C1151.98 122.944 1151.77 123.808 1151.55 124.672C1151.55 125.536 1151.44 126.508 1151.22 127.588C1150.14 131.909 1149.06 134.501 1147.97 135.365C1147.11 136.229 1144.4 136.554 1139.85 136.338C1137.46 136.121 1134.97 136.121 1132.37 136.338C1129.98 136.338 1127.6 136.878 1125.22 137.958C1122.83 138.822 1121.21 138.822 1120.34 137.958C1119.69 136.878 1119.36 135.473 1119.36 133.745C1119.15 130.289 1118.71 126.94 1118.06 123.7C1117.63 120.243 1117.52 117.003 1117.74 113.978ZM1180.16 62.131C1181.03 62.7791 1181.68 63.3192 1182.11 63.7512C1182.54 63.9672 1182.98 64.1833 1183.41 64.3993C1183.84 64.3993 1184.28 64.3993 1184.71 64.3993C1191.65 65.9115 1196.74 68.936 1199.99 73.4726C1203.24 77.7932 1205.3 83.302 1206.17 89.9989C1207.03 95.3997 1207.03 100.692 1206.17 105.877C1205.3 111.062 1204.32 116.247 1203.24 121.431C1201.51 128.992 1199.45 136.554 1197.06 144.115C1194.9 151.676 1191.43 158.697 1186.66 165.178C1182.11 171.442 1177.88 178.031 1173.98 184.944C1170.3 191.641 1166.61 198.446 1162.93 205.359C1156.64 216.593 1150.57 228.151 1144.72 240.032C1139.09 251.698 1132.8 262.931 1125.87 273.733C1124.78 275.461 1124.46 276.757 1124.89 277.622C1125.33 278.27 1126.63 278.702 1128.79 278.918C1134.86 279.35 1140.93 279.458 1147 279.242C1153.07 279.026 1159.14 280.754 1165.2 284.426C1169.32 286.803 1173.87 288.531 1178.86 289.611C1184.06 290.475 1189.04 291.556 1193.81 292.852C1194.9 293.068 1195.76 293.284 1196.41 293.5C1197.28 293.5 1198.15 293.068 1199.01 292.204C1200.75 290.043 1202.37 287.991 1203.89 286.047C1205.41 284.102 1206.93 282.05 1208.44 279.89C1209.96 277.946 1209.74 276.649 1207.79 276.001C1201.72 273.841 1195.87 271.141 1190.24 267.9C1184.82 264.444 1178.75 262.391 1172.03 261.743C1169.86 261.527 1167.7 261.095 1165.53 260.447C1163.58 259.583 1161.63 258.827 1159.68 258.179C1156.43 257.099 1156.21 255.262 1159.03 252.67C1160.33 251.59 1161.63 250.51 1162.93 249.43C1164.23 248.133 1165.53 246.837 1166.83 245.541C1178.1 233.011 1188.5 219.941 1198.04 206.331C1207.79 192.722 1216.46 178.355 1224.05 163.233C1228.6 154.376 1232.72 145.411 1236.4 136.338C1240.09 127.264 1242.47 117.651 1243.55 107.497C1244.64 97.9921 1242.58 88.9188 1237.38 80.2776C1232.39 71.6363 1225.46 65.6955 1216.57 62.455C1210.72 60.2947 1204.76 59.5386 1198.69 60.1867C1192.84 60.8348 1186.66 61.4829 1180.16 62.131ZM1139.2 341.783C1148.08 341.783 1156.1 341.351 1163.25 340.486C1170.62 339.838 1177.67 339.082 1184.38 338.218C1190.45 337.354 1194.9 336.49 1197.71 335.626C1200.75 334.762 1203.02 333.033 1204.54 330.441C1206.06 327.849 1207.68 323.744 1209.42 318.127C1211.37 311.862 1209.09 308.946 1202.59 309.378C1197.82 309.81 1193.05 310.242 1188.29 310.674C1183.52 311.106 1178.86 311.862 1174.31 312.943C1163.04 315.751 1151.66 316.831 1140.17 316.183C1128.9 315.535 1117.63 314.455 1106.36 312.943C1102.03 312.294 1100.73 310.242 1102.46 306.786C1104.84 301.817 1107.23 297.064 1109.61 292.528C1112 287.775 1114.71 283.238 1117.74 278.918C1123.59 270.925 1128.68 262.607 1133.02 253.966C1137.57 245.109 1142.23 236.36 1147 227.718C1151.98 218.429 1156.75 209.14 1161.3 199.851C1165.85 190.345 1171.16 181.272 1177.23 172.631C1182.87 165.07 1187.42 157.184 1190.89 148.975C1194.57 140.55 1197.39 131.693 1199.34 122.404C1200.42 117.435 1201.29 112.358 1201.94 107.173C1202.81 101.773 1203.02 96.4799 1202.59 91.2951C1202.16 86.5424 1200.97 82.1138 1199.01 78.0092C1197.28 73.9047 1194.14 70.9882 1189.59 69.26C1182 66.2356 1174.31 64.0753 1166.5 62.7791C1158.7 61.4829 1150.68 62.6711 1142.45 66.3436C1137.9 68.2879 1133.99 70.7722 1130.74 73.7966C1127.71 76.605 1125.65 80.4936 1124.57 85.4623C1122.83 92.5913 1121.64 99.7203 1120.99 106.849C1120.56 113.978 1120.99 121.215 1122.29 128.56C1122.94 132.449 1125.33 134.393 1129.44 134.393C1134.64 134.177 1138.33 133.853 1140.5 133.421C1142.66 132.773 1144.29 131.477 1145.37 129.533C1146.46 127.372 1147.65 123.808 1148.95 118.839C1150.03 115.167 1151.44 111.926 1153.18 109.118C1155.13 106.093 1158.05 103.825 1161.95 102.313C1169.76 99.5043 1174.42 102.097 1175.93 110.09C1176.8 114.626 1176.58 119.055 1175.28 123.376C1174.2 127.48 1172.68 131.585 1170.73 135.689C1165.75 146.059 1160.22 156.104 1154.15 165.826C1148.3 175.547 1143.1 185.809 1138.55 196.61C1132.91 209.788 1126.63 222.858 1119.69 235.82C1112.75 248.565 1106.47 261.635 1100.83 275.029C1096.72 284.751 1092.38 294.364 1087.83 303.869C1083.28 313.159 1079.81 322.88 1077.43 333.033C1076.56 336.706 1076.67 339.19 1077.75 340.486C1078.84 341.783 1081.33 342.107 1085.23 341.459C1088.26 341.027 1091.19 340.486 1094.01 339.838C1096.82 339.406 1099.64 339.298 1102.46 339.514C1109.4 339.73 1116.01 340.054 1122.29 340.486C1128.79 340.919 1134.43 341.351 1139.2 341.783ZM1211.04 285.075C1208.88 286.587 1207.14 288.099 1205.84 289.611C1204.76 291.123 1203.67 292.744 1202.59 294.472C1201.72 295.336 1200.86 296.092 1199.99 296.74C1199.12 297.388 1197.82 297.496 1196.09 297.064C1191.97 295.984 1187.85 294.796 1183.73 293.5C1179.62 292.204 1175.39 291.123 1171.06 290.259C1167.59 289.611 1164.34 288.315 1161.3 286.371C1158.49 284.426 1155.34 283.346 1151.87 283.13C1147.32 282.698 1142.66 282.59 1137.9 282.806C1133.34 283.022 1128.68 283.13 1123.92 283.13C1123.05 283.13 1122.07 283.238 1120.99 283.454C1120.12 283.67 1119.26 284.318 1118.39 285.399C1114.27 291.447 1110.7 298.144 1107.66 305.49C1107.01 308.082 1107.66 309.486 1109.61 309.702C1116.55 310.35 1123.37 311.322 1130.09 312.619C1137.03 313.915 1143.86 314.023 1150.57 312.943C1157.94 311.862 1165.2 310.89 1172.36 310.026C1179.51 308.946 1186.77 307.65 1194.14 306.138C1196.52 305.706 1199.12 305.814 1201.94 306.462C1204.76 307.11 1207.03 306.246 1208.77 303.869C1210.28 301.493 1210.83 299.009 1210.39 296.416C1210.18 293.608 1210.39 291.015 1211.04 288.639C1211.26 288.207 1211.26 287.775 1211.04 287.343C1211.04 286.695 1211.04 285.939 1211.04 285.075ZM1221.12 283.454C1218.95 282.806 1217.33 283.13 1216.24 284.426C1215.38 285.507 1214.84 286.911 1214.62 288.639C1214.4 290.367 1214.29 292.204 1214.29 294.148C1214.51 295.876 1214.4 297.604 1213.97 299.333C1213.75 301.277 1213.54 303.221 1213.32 305.165C1213.32 307.11 1214.4 308.73 1216.57 310.026C1219.17 311.538 1221.99 312.727 1225.02 313.591C1228.06 314.455 1231.09 314.779 1234.13 314.563C1235.21 314.347 1235.86 313.915 1236.08 313.267C1236.51 312.402 1236.83 311.538 1237.05 310.674C1238.79 304.193 1240.09 297.712 1240.95 291.231C1241.82 287.127 1239.98 284.859 1235.43 284.426C1233.04 284.21 1230.66 284.102 1228.27 284.102C1225.89 283.886 1223.51 283.67 1221.12 283.454Z" fill="#FFFDF9"/>
<path d="M1596.04 93.2268C1596.04 41.739 1637.92 0 1689.57 0H1746.9C1798.55 0 1840.43 41.739 1840.43 93.2268V318.775C1840.43 370.263 1798.55 412.002 1746.9 412.002H1689.57C1637.92 412.002 1596.04 370.263 1596.04 318.775V93.2268Z" fill="#665D26"/>
<path d="M1858.53 93.2268C1858.53 41.739 1900.41 0 1952.06 0H2009.39C2061.04 0 2102.92 41.739 2102.92 93.2268V318.775C2102.92 370.263 2061.04 412.002 2009.39 412.002H1952.06C1900.41 412.002 1858.53 370.263 1858.53 318.775V93.2268Z" fill="#665D26"/>
<path d="M1666.81 129.857C1666.81 122.296 1666.7 114.734 1666.48 107.173C1666.26 99.3963 1666.37 91.6192 1666.81 83.8421C1667.24 79.3054 1668.22 74.9848 1669.73 70.8802C1671.47 66.7756 1673.63 62.7791 1676.23 58.8905C1681.44 51.5455 1688.05 49.1691 1696.07 51.7615C1704.74 54.3539 1712.1 58.4585 1718.17 64.0753C1724.46 69.6921 1729.66 76.605 1733.78 84.8142C1734.21 85.2463 1734.43 85.6783 1734.43 86.1104C1734.21 91.5112 1734.97 96.6959 1736.7 101.665C1738.44 106.417 1740.5 111.062 1742.88 115.599C1745.48 120.135 1747.54 124.78 1749.06 129.533C1750.14 132.989 1750.57 135.149 1750.36 136.013C1750.14 136.662 1748.19 137.094 1744.51 137.31C1739.3 137.526 1734.21 138.282 1729.23 139.578C1724.24 140.874 1719.26 141.522 1714.27 141.522C1708.64 141.522 1705.49 138.93 1704.84 133.745C1704.63 132.017 1704.19 130.181 1703.54 128.236C1703.11 126.292 1702.68 124.348 1702.24 122.404C1702.03 121.971 1701.92 121.431 1701.92 120.783C1701.92 119.919 1701.38 119.379 1700.29 119.163C1699.42 119.163 1698.77 119.487 1698.34 120.135C1698.12 120.783 1697.91 121.431 1697.69 122.079C1695.96 127.264 1694.66 132.449 1693.79 137.634C1692.92 142.818 1692.92 148.219 1693.79 153.836C1694.87 159.237 1696.28 164.638 1698.02 170.038C1699.75 175.223 1701.16 180.516 1702.24 185.917C1703.33 190.237 1704.95 193.262 1707.12 194.99C1709.5 196.718 1712.75 197.582 1716.87 197.582C1722.72 197.582 1728.25 198.446 1733.45 200.175C1738.65 201.903 1743.42 204.819 1747.76 208.924C1749.49 210.436 1751.44 211.408 1753.61 211.84C1755.99 212.056 1758.27 212.38 1760.44 212.812C1767.59 214.325 1773.01 218.429 1776.69 225.126C1779.51 229.879 1781.68 234.847 1783.19 240.032C1784.93 245.217 1786.23 250.618 1787.09 256.235C1788.18 262.499 1789.04 268.872 1789.69 275.353C1790.34 281.618 1790.45 287.883 1790.02 294.148C1789.8 302.573 1786.66 310.458 1780.59 317.803C1774.31 325.148 1767.15 330.117 1759.14 332.709C1751.12 335.302 1742.45 335.842 1733.13 334.33C1730.74 333.898 1728.58 334.006 1726.62 334.654C1724.67 335.518 1722.72 336.49 1720.77 337.57C1714.05 341.027 1707.23 343.187 1700.29 344.051C1693.36 344.915 1686.31 343.943 1679.16 341.135C1673.09 338.758 1668.11 335.194 1664.21 330.441C1660.52 325.688 1657.49 320.288 1655.1 314.239C1652.29 307.326 1650.88 300.413 1650.88 293.5C1651.09 286.587 1651.09 279.566 1650.88 272.437C1650.88 270.277 1650.99 268.116 1651.2 265.956C1651.42 263.796 1651.31 261.635 1650.88 259.475C1650.01 252.13 1652.61 246.081 1658.68 241.328C1662.15 238.52 1663.88 234.307 1663.88 228.691C1664.1 216.161 1664.64 203.739 1665.51 191.425C1666.59 178.896 1667.02 166.366 1666.81 153.836V129.857ZM1719.47 113.654C1719.69 116.463 1719.8 119.379 1719.8 122.404C1720.01 125.428 1720.23 128.452 1720.45 131.477C1720.66 135.149 1722.62 136.77 1726.3 136.338C1729.12 135.905 1731.83 135.581 1734.43 135.365C1737.24 135.149 1740.06 134.933 1742.88 134.717C1746.13 134.717 1746.89 133.205 1745.16 130.181C1743.86 127.156 1742.55 124.24 1741.25 121.431C1739.95 118.407 1738.44 115.491 1736.7 112.682C1734.54 109.226 1733.02 105.661 1732.15 101.989C1731.28 98.1001 1730.74 94.2115 1730.53 90.323C1730.31 84.7062 1728.14 79.5215 1724.02 74.7688C1718.17 68.2879 1711.56 62.563 1704.19 57.5943C1699.42 54.3539 1694.66 53.2737 1689.89 54.3539C1685.12 55.434 1681.11 58.3504 1677.86 63.1031C1675.04 67.4237 1673.09 71.9604 1672.01 76.7131C1670.92 81.2497 1670.27 86.0024 1670.06 90.9711C1669.84 101.773 1669.73 112.682 1669.73 123.7C1669.95 134.501 1670.06 145.303 1670.06 156.104C1670.27 169.498 1669.84 183 1668.76 196.61C1667.67 210.004 1666.7 223.398 1665.83 236.792C1665.83 238.736 1665.18 240.248 1663.88 241.328C1656.08 247.161 1652.83 255.046 1654.13 264.984C1654.13 265.848 1654.02 266.712 1653.8 267.576C1653.8 268.44 1653.69 269.304 1653.48 270.169C1652.83 277.514 1652.72 284.859 1653.15 292.204C1653.8 299.549 1655.32 306.678 1657.7 313.591C1660.74 322.448 1665.4 329.253 1671.68 334.006C1677.97 338.758 1685.66 340.919 1694.77 340.486C1707.12 339.838 1717.63 336.382 1726.3 330.117C1734.97 323.852 1742.12 315.643 1747.76 305.49C1752.09 297.496 1754.69 289.179 1755.56 280.538C1756.64 271.897 1757.29 263.256 1757.51 254.614C1757.94 242.301 1755.56 230.851 1750.36 220.265C1747.76 214.649 1744.29 210.22 1739.95 206.98C1735.84 203.739 1730.53 202.011 1724.02 201.795C1720.34 201.795 1716.55 201.471 1712.65 200.823C1708.96 199.959 1705.28 199.418 1701.59 199.202C1695.52 198.554 1690.86 195.422 1687.61 189.805C1684.58 184.188 1682.41 178.463 1681.11 172.631C1680.03 166.798 1679.59 160.857 1679.81 154.808C1680.24 148.327 1680.79 141.954 1681.44 135.689C1682.09 129.209 1682.3 122.728 1682.09 116.247C1681.65 106.093 1684.58 97.1279 1690.86 89.3509C1694.77 84.1661 1699.86 82.3298 1706.14 83.8421C1709.39 84.7062 1712.1 85.8944 1714.27 87.4066C1716.44 88.9188 1717.74 91.5112 1718.17 95.1837C1718.61 98.2081 1718.82 101.341 1718.82 104.581C1719.04 107.605 1719.26 110.63 1719.47 113.654ZM1714.92 116.247C1715.14 112.79 1715.14 109.442 1714.92 106.201C1714.7 102.745 1714.38 99.3963 1713.95 96.1558C1713.73 93.7795 1713.19 91.8352 1712.32 90.323C1711.45 88.8108 1709.83 87.7306 1707.44 87.0825C1702.03 85.7864 1697.8 87.1905 1694.77 91.2951C1689.78 98.2081 1687.07 106.093 1686.64 114.95C1686.64 118.407 1686.64 121.863 1686.64 125.32C1686.64 128.56 1686.42 132.017 1685.99 135.689C1685.55 141.306 1685.12 147.031 1684.69 152.864C1684.25 158.481 1684.47 164.097 1685.34 169.714C1686.42 178.139 1689.56 185.701 1694.77 192.397C1695.2 193.046 1695.74 193.586 1696.39 194.018C1697.26 194.45 1698.12 194.558 1698.99 194.342C1700.08 193.91 1700.4 193.262 1699.97 192.397C1699.75 191.533 1699.53 190.777 1699.32 190.129C1698.45 186.457 1697.37 182.784 1696.07 179.112C1694.98 175.439 1693.9 171.875 1692.81 168.418C1687.4 152.864 1687.5 137.094 1693.14 121.107C1693.79 119.379 1694.66 117.975 1695.74 116.895C1696.82 115.815 1698.45 115.383 1700.62 115.599C1702.78 115.815 1704.3 116.679 1705.17 118.191C1706.04 119.487 1706.58 121.107 1706.79 123.052C1707.23 125.212 1707.66 127.264 1708.09 129.208C1708.53 131.153 1708.96 133.205 1709.39 135.365C1709.83 137.094 1710.59 138.066 1711.67 138.282C1712.97 138.282 1714.27 138.174 1715.57 137.958C1717.31 137.742 1717.85 137.202 1717.2 136.338C1716.55 135.473 1716.22 134.717 1716.22 134.069C1716.01 131.045 1715.79 128.02 1715.57 124.996C1715.57 121.971 1715.35 119.055 1714.92 116.247ZM1752.31 214.433C1753.61 219.401 1755.23 222.318 1757.18 223.182C1759.35 223.83 1763.14 223.074 1768.56 220.913C1766.4 218.537 1763.9 217.025 1761.09 216.377C1758.27 215.729 1755.34 215.081 1752.31 214.433ZM1761.74 232.579C1763.04 232.579 1764.34 232.579 1765.64 232.579C1767.15 232.363 1768.56 232.147 1769.86 231.931C1770.73 231.931 1771.6 231.931 1772.46 231.931C1773.55 231.931 1774.09 231.391 1774.09 230.311C1774.09 227.935 1772.9 226.422 1770.51 225.774C1769 225.342 1767.37 225.234 1765.64 225.45C1764.12 225.666 1762.6 225.882 1761.09 226.098C1760.22 226.098 1759.35 226.206 1758.48 226.422C1757.62 226.638 1757.29 227.502 1757.51 229.015C1757.94 229.879 1758.38 230.743 1758.81 231.607C1759.24 232.471 1760.22 232.795 1761.74 232.579ZM1769.21 235.172C1768.56 235.172 1767.8 235.172 1766.94 235.172C1766.29 235.172 1765.53 235.28 1764.66 235.496C1763.58 235.712 1762.49 235.928 1761.41 236.144C1760.33 236.36 1759.89 237.332 1760.11 239.06C1760.33 240.788 1760.87 241.868 1761.74 242.301C1762.6 242.733 1763.79 242.841 1765.31 242.625C1766.4 242.193 1767.59 241.976 1768.89 241.976C1770.19 241.976 1771.49 241.868 1772.79 241.652C1773.87 241.436 1775.06 241.436 1776.37 241.652C1777.67 241.652 1778.32 240.68 1778.32 238.736C1778.1 236.792 1777.34 235.604 1776.04 235.172C1774.96 234.739 1773.66 234.631 1772.14 234.847C1771.49 235.064 1770.51 235.172 1769.21 235.172ZM1676.23 285.075C1676.02 278.594 1676.99 272.545 1679.16 266.928C1681.54 261.311 1684.47 256.018 1687.94 251.05C1690.76 247.161 1694.98 244.353 1700.62 242.625C1706.47 240.68 1711.45 240.572 1715.57 242.301C1725.76 245.973 1730.63 253.75 1730.2 265.632C1729.77 276.433 1727.38 286.587 1723.05 296.092C1721.32 300.197 1718.93 303.653 1715.9 306.462C1713.08 309.27 1709.83 311.754 1706.14 313.915C1703.54 315.427 1700.29 315.751 1696.39 314.887C1692.71 314.023 1689.35 312.294 1686.31 309.702C1678.94 303.221 1675.58 295.012 1676.23 285.075ZM1689.56 269.844C1689.78 271.357 1689.89 273.085 1689.89 275.029C1690.11 276.757 1690.21 278.486 1690.21 280.214C1691.3 290.151 1695.09 298.901 1701.59 306.462C1702.68 307.542 1703.76 308.298 1704.84 308.73C1705.93 308.946 1707.23 308.514 1708.74 307.434C1712.65 304.625 1715.79 300.953 1718.17 296.416C1721.21 291.448 1723.27 286.263 1724.35 280.862C1725.65 275.245 1726.41 269.52 1726.62 263.688C1726.62 259.799 1725.87 256.235 1724.35 252.994C1723.05 249.754 1720.56 247.377 1716.87 245.865C1713.4 244.353 1709.94 244.029 1706.47 244.893C1703.22 245.541 1699.97 246.945 1696.72 249.106C1693.03 251.698 1690.97 254.83 1690.54 258.503C1690.11 262.175 1689.78 265.956 1689.56 269.844ZM1779.94 248.781C1779.94 247.917 1779.94 247.053 1779.94 246.189C1780.16 245.325 1779.62 244.893 1778.32 244.893C1775.72 244.893 1773.01 245.001 1770.19 245.217C1767.59 245.217 1764.99 245.649 1762.39 246.513C1764.55 246.729 1766.61 246.837 1768.56 246.837C1770.73 246.837 1772.9 246.945 1775.06 247.161C1775.93 247.161 1776.91 247.053 1777.99 246.837C1779.07 246.621 1779.72 247.269 1779.94 248.781C1777.56 250.294 1775.06 250.942 1772.46 250.726C1769.86 250.294 1767.37 250.186 1764.99 250.402C1763.69 250.618 1762.71 250.942 1762.06 251.374C1761.41 251.59 1761.19 252.454 1761.41 253.966C1761.41 255.478 1761.84 256.343 1762.71 256.559C1763.58 256.775 1764.44 256.775 1765.31 256.559C1767.48 256.343 1769.54 256.018 1771.49 255.586C1773.66 254.938 1775.82 254.83 1777.99 255.262C1778.64 255.262 1779.29 255.262 1779.94 255.262C1780.81 255.262 1781.24 255.802 1781.24 256.883C1781.24 257.531 1780.81 257.855 1779.94 257.855C1779.29 257.855 1778.64 257.963 1777.99 258.179C1775.39 258.179 1772.79 258.395 1770.19 258.827C1767.8 259.259 1765.31 259.907 1762.71 260.771C1765.75 260.771 1768.56 260.771 1771.16 260.771C1773.98 260.771 1776.8 260.879 1779.62 261.095C1780.05 261.095 1780.59 261.203 1781.24 261.419C1781.89 261.419 1782.22 261.959 1782.22 263.039C1782 263.688 1781.57 264.012 1780.92 264.012C1780.48 264.012 1780.05 264.012 1779.62 264.012C1776.8 264.012 1774.09 264.012 1771.49 264.012C1768.89 264.012 1766.29 264.228 1763.69 264.66C1761.95 264.876 1760.98 265.524 1760.76 266.604C1760.76 267.684 1760.65 268.764 1760.44 269.844C1760.44 271.357 1760.87 272.113 1761.74 272.113C1762.6 272.113 1763.47 272.005 1764.34 271.789C1766.72 271.357 1769.1 271.033 1771.49 270.817C1774.09 270.601 1776.69 270.709 1779.29 271.141C1779.94 271.141 1780.7 271.249 1781.57 271.465C1782.43 271.465 1782.76 272.005 1782.54 273.085C1782.54 273.949 1782.11 274.381 1781.24 274.381C1780.37 274.165 1779.62 274.057 1778.97 274.057C1776.15 273.625 1773.33 273.625 1770.51 274.057C1767.91 274.489 1765.2 274.921 1762.39 275.353C1761.09 275.569 1760.33 276.109 1760.11 276.973C1759.89 277.622 1759.79 278.486 1759.79 279.566C1760 280.862 1760.44 281.402 1761.09 281.186C1761.95 280.97 1762.71 280.754 1763.36 280.538C1765.75 279.89 1768.13 279.35 1770.51 278.918C1773.11 278.486 1775.61 278.486 1777.99 278.918C1778.86 279.134 1779.62 279.458 1780.27 279.89C1781.13 280.106 1781.35 280.754 1780.92 281.834C1780.7 282.698 1780.59 282.914 1780.59 282.482C1780.81 282.05 1780.05 281.834 1778.32 281.834C1776.8 282.05 1775.28 282.158 1773.76 282.158C1772.25 281.942 1770.73 281.834 1769.21 281.834C1767.7 282.05 1766.18 282.806 1764.66 284.102C1763.36 285.183 1761.95 285.831 1760.44 286.047C1759.57 286.047 1758.81 286.695 1758.16 287.991C1757.73 289.071 1757.62 290.151 1757.83 291.231C1758.05 292.096 1758.48 292.528 1759.14 292.528C1760 292.312 1760.76 292.204 1761.41 292.204C1763.79 292.42 1766.18 292.528 1768.56 292.528C1771.16 292.312 1773.66 292.204 1776.04 292.204C1776.91 292.204 1777.67 292.42 1778.32 292.852C1779.18 293.284 1779.4 293.716 1778.97 294.148C1777.88 295.012 1777.12 295.336 1776.69 295.12C1776.26 294.904 1774.85 294.688 1772.46 294.472C1770.08 294.04 1768.02 294.148 1766.29 294.796C1764.55 295.444 1762.49 295.768 1760.11 295.768C1759.68 295.768 1758.7 296.524 1757.18 298.036C1755.88 299.333 1755.23 300.305 1755.23 300.953C1755.45 301.817 1756.1 302.249 1757.18 302.249C1760.22 301.817 1763.14 302.033 1765.96 302.897C1769 303.545 1771.92 303.977 1774.74 304.193C1779.72 304.409 1782.65 304.085 1783.52 303.221C1784.6 302.141 1785.25 299.117 1785.47 294.148C1785.9 287.019 1785.68 279.998 1784.82 273.085C1783.95 265.956 1782.98 258.827 1781.89 251.698C1781.46 250.186 1780.81 249.214 1779.94 248.781ZM1685.34 264.984C1682.52 269.736 1680.68 274.597 1679.81 279.566C1679.16 284.318 1679.27 289.287 1680.14 294.472C1681 298.577 1682.74 302.033 1685.34 304.841C1687.94 307.434 1691.08 309.594 1694.77 311.322C1695.85 311.754 1696.82 312.186 1697.69 312.619C1698.77 312.835 1699.75 312.51 1700.62 311.646C1701.05 310.782 1700.83 310.026 1699.97 309.378C1699.32 308.514 1698.77 307.866 1698.34 307.434C1694.87 303.113 1692.16 298.685 1690.21 294.148C1688.26 289.611 1687.07 284.643 1686.64 279.242C1686.42 276.865 1686.2 274.489 1685.99 272.113C1685.77 269.736 1685.55 267.36 1685.34 264.984ZM1779.94 309.702C1777.77 308.19 1774.85 307.218 1771.16 306.786C1767.48 306.138 1763.9 305.922 1760.44 306.138C1756.97 306.354 1754.26 307.11 1752.31 308.406C1757.29 307.974 1762.06 308.19 1766.61 309.054C1771.16 309.702 1775.61 309.918 1779.94 309.702ZM1745.81 330.765C1751.87 331.197 1757.08 330.009 1761.41 327.201C1765.96 324.392 1770.19 321.044 1774.09 317.155C1775.61 315.211 1775.39 314.023 1773.44 313.591C1769.97 312.51 1766.29 311.97 1762.39 311.97C1758.48 311.754 1754.69 311.862 1751.01 312.294C1749.06 312.511 1747.76 313.375 1747.11 314.887C1746.46 316.399 1745.48 317.695 1744.18 318.775C1743.75 319.207 1743.31 319.64 1742.88 320.072C1742.45 320.72 1742.01 321.368 1741.58 322.016C1740.71 323.312 1739.41 324.5 1737.68 325.58C1736.16 326.661 1735.73 327.849 1736.38 329.145C1737.03 330.441 1738.33 330.873 1740.28 330.441C1742.45 330.225 1744.29 330.333 1745.81 330.765Z" fill="#FFFDF9"/>
<path d="M2076.53 270.493C2076.1 279.134 2072.41 288.207 2065.48 297.712C2058.76 307.218 2050.63 316.507 2041.1 325.58C2032.86 333.79 2023 338.974 2011.51 341.135C2000.24 343.511 1988 343.295 1974.78 340.486C1972.61 340.054 1970.55 339.946 1968.6 340.162C1966.87 340.594 1965.13 341.135 1963.4 341.783C1937.39 352.152 1918.75 346.103 1907.48 323.636C1903.36 314.995 1900.65 306.138 1899.35 297.064C1898.05 287.991 1896.86 278.81 1895.78 269.52C1894.04 253.534 1892.96 237.548 1892.53 221.562C1892.31 205.359 1891.77 189.157 1890.9 172.955C1890.25 160.857 1889.38 148.867 1888.3 136.986C1887.43 124.888 1887.11 112.898 1887.32 101.017V99.3963C1887.11 87.9466 1889.27 79.3054 1893.83 73.4726C1898.59 67.6398 1906.83 63.3192 1918.53 60.5108C1931.97 57.4863 1944.43 57.3783 1955.92 60.1867C1967.62 62.9951 1977.38 68.7199 1985.18 77.3611C1987.78 80.3856 1990.49 82.5459 1993.31 83.8421C1996.12 84.9222 1999.81 85.2463 2004.36 84.8142C2014.33 83.734 2023.65 85.5703 2032.32 90.323C2041.2 94.8596 2047.49 101.017 2051.17 108.794C2057.89 122.404 2062.66 136.338 2065.48 150.596C2068.51 164.638 2071.76 178.68 2075.23 192.722C2078.05 204.387 2079.35 216.377 2079.13 228.691C2079.13 240.788 2078.27 254.722 2076.53 270.493ZM2000.78 241.328C2001.65 237.008 2002.3 233.227 2002.73 229.987C2003.39 226.746 2003.93 223.722 2004.36 220.913C2005.44 212.056 2004.9 203.307 2002.73 194.666C2000.78 185.809 1999.7 177.059 1999.48 168.418C1999.27 160.209 1999.05 152 1998.83 143.791C1998.83 135.581 1998.29 127.48 1997.21 119.487C1995.91 108.686 1992.66 98.5322 1987.46 89.0268C1982.47 79.5215 1973.26 71.7444 1959.82 65.6955C1952.89 62.455 1945.63 60.9428 1938.04 61.1589C1930.45 61.3749 1923.3 62.8871 1916.58 65.6955C1910.08 68.2879 1904.66 71.9604 1900.33 76.7131C1896.21 81.4657 1894.04 86.9745 1893.83 93.2394C1893.61 101.881 1893.39 110.414 1893.18 118.839C1893.18 127.264 1893.61 135.689 1894.48 144.115C1895.99 159.885 1896.86 175.655 1897.08 191.425C1897.29 207.196 1897.73 222.966 1898.38 238.736C1899.24 254.29 1900.98 269.952 1903.58 285.723C1904.88 293.716 1906.18 301.601 1907.48 309.378C1908.78 317.155 1912.25 324.608 1917.88 331.737C1926.34 342.539 1937.93 345.887 1952.67 341.783C1960.47 339.622 1966.32 336.166 1970.22 331.413C1974.34 326.877 1977.49 321.908 1979.65 316.507C1984.42 303.761 1988.97 291.123 1993.31 278.594C1997.86 266.064 2000.35 253.642 2000.78 241.328ZM2070.36 261.743C2072.31 254.614 2073.39 247.161 2073.61 239.384C2073.82 231.607 2073.5 223.83 2072.63 216.053C2071.33 202.875 2068.95 189.805 2065.48 176.843C2062.23 163.665 2058.76 150.488 2055.08 137.31C2052.48 127.372 2048.25 117.435 2042.4 107.497C2039.15 101.881 2033.73 97.128 2026.14 93.2394C2018.77 89.3508 2011.51 87.5146 2004.36 87.7306C2001.33 87.9467 1999.05 88.5947 1997.53 89.6749C1996.23 90.539 1996.02 92.4833 1996.88 95.5077C1999.48 103.501 2001.43 111.602 2002.73 119.811C2004.47 131.693 2005.01 143.467 2004.36 155.132C2003.93 166.798 2004.9 178.463 2007.29 190.129C2009.89 204.603 2010.1 218.537 2007.94 231.931C2005.34 249.214 2001.87 266.388 1997.53 283.454C1993.2 300.305 1986.26 316.507 1976.73 332.061C1975.43 334.222 1975.21 335.518 1976.08 335.95C1977.16 336.598 1978.79 337.138 1980.95 337.57C1990.49 339.082 1999.48 339.19 2007.94 337.894C2016.39 336.598 2023.87 333.141 2030.37 327.525C2040.77 318.667 2049.77 308.946 2057.35 298.36C2065.15 287.775 2069.49 275.569 2070.36 261.743ZM1973.15 258.827C1972.5 263.148 1971.85 267.468 1971.2 271.789C1970.55 276.109 1970.01 280.43 1969.57 284.751C1969.36 287.775 1968.27 290.475 1966.32 292.852C1964.59 295.012 1962.21 296.956 1959.17 298.685C1951.37 303.005 1943.89 302.033 1936.74 295.768C1929.37 289.287 1924.6 282.266 1922.44 274.705C1920.27 266.928 1919.18 259.043 1919.18 251.05C1918.97 235.712 1918.86 220.373 1918.86 205.035C1918.86 189.481 1918.97 174.035 1919.18 158.697C1919.18 155.456 1919.4 152.108 1919.83 148.651C1920.27 144.979 1922.22 142.386 1925.69 140.874C1931.32 138.066 1937.5 136.554 1944.22 136.338C1951.15 135.905 1957.65 137.202 1963.72 140.226C1968.27 142.17 1971.09 145.195 1972.18 149.299C1973.48 153.188 1974.13 156.968 1974.13 160.641C1974.13 177.059 1974.45 193.478 1975.1 209.896C1975.75 226.314 1975.1 242.625 1973.15 258.827ZM1967.3 254.29C1969.68 240.68 1970.22 226.962 1968.92 213.136C1967.84 199.31 1967.41 185.484 1967.62 171.659C1967.84 167.338 1967.41 163.017 1966.32 158.697C1965.24 154.376 1963.83 150.163 1962.1 146.059C1961.01 143.467 1958.85 141.846 1955.6 141.198C1953.43 140.766 1952.02 141.09 1951.37 142.17C1950.72 143.034 1950.18 144.115 1949.74 145.411C1949.09 147.571 1948.44 149.623 1947.79 151.568C1947.14 153.512 1946.6 155.672 1946.17 158.049C1942.7 179.004 1942.16 200.175 1944.54 221.562C1946.93 242.949 1950.39 264.228 1954.95 285.399C1955.16 286.263 1955.49 287.343 1955.92 288.639C1956.35 289.935 1957.33 290.583 1958.85 290.583C1960.58 290.583 1961.66 289.935 1962.1 288.639C1962.53 287.343 1962.86 286.155 1963.07 285.075C1963.94 280.106 1964.7 275.029 1965.35 269.844C1966 264.66 1966.65 259.475 1967.3 254.29ZM1925.04 162.909C1925.47 178.68 1925.36 194.45 1924.71 210.22C1924.28 225.774 1924.82 241.436 1926.34 257.207C1926.99 263.904 1928.29 270.385 1930.24 276.649C1932.19 282.914 1936.2 288.747 1942.27 294.148C1943.57 295.228 1944.87 296.2 1946.17 297.064C1947.68 297.928 1949.31 297.928 1951.04 297.064C1952.56 296.2 1952.89 295.228 1952.02 294.148C1951.15 293.068 1950.5 292.096 1950.07 291.231C1949.85 289.935 1949.42 288.747 1948.77 287.667C1948.33 286.371 1948.01 285.183 1947.79 284.102C1945.63 275.029 1943.78 266.064 1942.27 257.207C1940.75 248.133 1939.56 239.06 1938.69 229.987C1937.82 216.377 1937.06 202.767 1936.41 189.157C1935.98 175.331 1937.5 161.829 1940.97 148.651C1941.4 147.571 1941.83 146.275 1942.27 144.763C1942.92 143.25 1942.05 142.17 1939.67 141.522C1937.93 141.09 1936.09 141.198 1934.14 141.846C1932.4 142.494 1931.1 143.575 1930.24 145.087C1928.72 147.895 1927.31 150.812 1926.01 153.836C1924.93 156.644 1924.6 159.669 1925.04 162.909Z" fill="#FFFDF9"/>
</svg>
