<svg width="677" height="649" viewBox="0 0 677 649" fill="none" xmlns="http://www.w3.org/2000/svg">
<g filter="url(#filter0_d_189_20597)">
<rect x="43.6643" y="94.6348" width="339" height="417" transform="rotate(-5 43.6643 94.6348)" fill="#FFFDF9"/>
</g>
<rect x="66.3275" y="112.729" width="297" height="306" transform="rotate(-5 66.3275 112.729)" fill="#AB5534"/>
<path d="M237.464 99.2222C236.082 111.727 235.253 124.296 234.996 136.873C234.736 149.464 235.044 162.069 235.915 174.635C236.353 180.917 236.931 187.188 237.648 193.446C238.208 198.294 238.526 203.474 240.582 207.973C242.164 211.435 245.389 214.724 249.513 214.173C253.26 213.676 256.301 210.276 257.042 206.664C257.782 203.053 255.768 199.474 252.284 198.146C249.075 196.925 245.131 197.431 242.415 199.568C240.887 200.771 239.758 202.546 239.492 204.498C239.196 206.705 240.293 208.611 242.31 209.508C244.192 210.349 246.367 210.392 248.391 210.322C250.416 210.252 252.637 209.999 254.651 209.356C256.461 208.775 258.256 207.802 259.362 206.204C260.57 204.451 260.767 202.262 260.045 200.27C258.221 195.217 252.693 193.742 247.909 193.228C235.559 191.894 223.019 192.136 210.65 193.019C204.374 193.466 198.115 194.106 191.87 194.847C188.771 195.215 185.67 195.608 182.575 196.019C179.773 196.396 176.96 196.817 174.237 197.594C169.433 198.967 164.867 201.679 162.535 206.27C161.519 208.273 161.04 210.564 161.367 212.805C161.678 214.911 162.661 216.85 164.074 218.427C167.007 221.703 171.493 223.516 175.845 223.563C181.734 223.626 187.274 221.081 192.404 218.456C197.822 215.684 203.29 212.538 209.408 211.672C212.424 211.248 215.328 211.592 218.28 212.261C220.935 212.865 223.668 213.626 226.419 213.449C230.13 213.207 234.655 210.746 234.629 206.522C234.605 202.642 230.095 200.233 226.63 201.012C222.567 201.926 220.902 206.663 221.688 210.389C222.634 214.888 226.89 217.659 231.205 218.297C236.729 219.116 242.061 216.628 246.606 213.733C249.117 212.134 251.506 210.36 254.011 208.747C256.516 207.133 259.128 205.632 262.021 204.907C264.7 204.236 267.606 204.38 269.945 205.963C272.011 207.366 273.372 209.681 272.921 212.228C272.47 214.774 270.57 217.204 268.881 219.169C267.191 221.134 265.232 222.894 263.099 224.383C260.966 225.871 258.655 227.099 256.221 228.021C254.086 228.825 251.922 229.466 249.621 229.148C247.973 228.918 245.678 228.171 245.346 226.261C245.241 225.668 245.384 225.257 245.73 224.775C246.036 224.34 246.378 223.931 246.742 223.55C247.488 222.77 248.361 222.111 249.298 221.572C253.132 219.366 258.11 219.203 262.156 220.914C266.785 222.865 270.242 226.916 272.423 231.355C274.994 236.586 275.84 242.43 276.242 248.191C276.447 251.141 276.569 254.094 276.697 257.052C276.793 259.307 276.84 261.567 276.737 263.821C276.538 268.089 275.849 272.673 273.341 276.25C271.992 278.17 270.163 279.642 268.016 280.583C265.444 281.711 262.645 282.18 260.009 283.12C256.169 284.486 251.765 287.99 252.841 292.599C252.864 292.694 252.978 292.777 253.072 292.793C258.752 293.627 264.625 290.903 267.7 286.052C267.768 285.949 267.718 285.764 267.62 285.69C264.034 283.093 259.458 282.804 255.18 283.047C250.242 283.328 245.342 284.15 240.506 285.161C230.711 287.209 221.095 290.134 211.187 291.613C201.877 293.001 191.735 293.126 182.965 289.219C178.835 287.379 175.182 284.507 173.135 280.391C172.029 278.166 171.353 275.752 170.802 273.332C170.196 270.674 169.68 267.993 169.203 265.31C168.242 259.913 167.49 254.479 166.955 249.026C166.519 244.595 165.785 239.533 167.895 235.399C170.1 231.076 175.297 229.431 179.425 227.588C184.476 225.334 189.527 223.075 194.579 220.821C195.838 220.259 197.094 219.663 198.372 219.139C199.434 218.705 200.65 218.366 201.742 218.883C203.223 219.584 203.74 221.443 203.659 222.961C203.427 227.398 198.371 229.108 195.21 231.134C188.624 235.354 185.055 242.701 183.454 250.158C182.617 254.05 182.268 258.04 182.248 262.016C182.222 266.6 182.449 271.404 185.463 275.115C188.271 278.567 192.507 280.839 196.577 282.441C200.924 284.15 205.56 285.075 210.227 285.177C212.567 285.23 214.908 285.064 217.216 284.692C217.336 284.672 217.478 284.582 217.486 284.445C217.75 279.432 217.698 273.577 214.78 269.251C213.332 267.104 211.176 265.728 208.654 265.21C205.659 264.593 202.143 265.013 199.593 263.01C197.387 261.28 196.559 258.243 196.908 255.535C197.316 252.39 199.362 249.733 201.776 247.807C207.023 243.626 214.992 241.204 221.418 243.921C226.763 246.179 231.045 252.475 228.303 258.239C227.103 260.764 224.731 262.891 221.936 263.407C219.088 263.933 216.366 262.563 214.572 260.388C210.061 254.923 211.491 247.559 210.984 241.04C210.757 238.164 210.218 234.451 207.546 232.77C205.505 231.486 202.218 231.91 201.594 234.583C201.015 237.058 203.456 239.313 205.351 240.415C207.495 241.661 211.143 242.634 212.8 240.138C214.042 238.265 213.279 235.645 212.339 233.818C210.984 231.177 208.465 229.362 207.236 226.618C206.61 225.22 206.442 223.743 207.208 222.364L206.961 222.536C214.41 221.374 222.288 220.122 229.688 222.277C235.476 223.962 241.103 228.115 242.999 234.056C244.122 237.582 243.244 241.341 244.261 244.877C245.055 247.64 247.005 249.986 249.433 251.479C251.861 252.972 254.837 253.586 257.634 252.928C260.431 252.271 262.997 250.409 263.718 247.576C264.346 245.117 263.431 242.019 261.001 240.896C258.955 239.947 256.213 240.79 255.04 242.719C254.743 243.212 254.573 243.761 254.531 244.328C254.518 244.46 254.569 244.597 254.7 244.658C256.094 245.299 257.792 244.869 258.685 243.615C258.758 243.511 258.788 243.353 258.701 243.244C255.808 239.645 248.796 242.707 249.567 247.308C249.597 247.481 249.782 247.659 249.973 247.564C252.403 246.375 253.898 243.742 253.647 241.034C253.634 240.894 253.529 240.796 253.4 240.764C250.003 239.885 246.709 242.063 244.917 244.839C242.744 248.202 242.729 252.464 242.588 256.329C242.293 264.376 240.622 272.976 234.602 278.784C231.483 281.792 227.381 283.817 223.005 283.879L223.278 284.006C220.743 280.623 221.306 276.206 222.84 272.52C224.373 268.835 227.16 265.617 229.626 262.341C231.923 259.288 234.11 255.924 234.629 252.05C235.147 248.176 233.843 244.35 231.543 241.272C226.333 234.29 217.386 232.395 209.167 232.021C201.625 231.675 192.711 232.659 188.678 240.013C184.975 246.77 186.759 255.082 190.062 261.59C192.111 265.623 194.699 269.337 197.102 273.154C199.574 277.082 201.697 281.186 203.398 285.507C206.796 294.155 208.616 303.328 209.884 312.502C210.519 317.106 211.02 321.726 211.502 326.348C212.017 331.283 212.551 336.226 212.68 341.194C212.809 346.212 212.357 351.124 211.485 356.059C210.643 360.836 209.697 365.592 209.691 370.461C209.685 375.48 210.471 380.474 211.557 385.364C212.605 390.077 213.999 394.711 215.726 399.224C216.574 401.429 217.5 403.602 218.497 405.745C218.659 406.095 219.227 405.89 219.065 405.535C216.549 400.148 214.512 394.54 213.001 388.789C211.49 383.037 210.316 376.766 210.289 370.647C210.264 364.6 211.753 358.742 212.628 352.791C213.508 346.835 213.404 340.83 212.924 334.842C212.444 328.855 211.81 323.216 211.119 317.427C210.429 311.638 209.633 306.198 208.455 300.656C207.296 295.223 205.794 289.85 203.72 284.697C201.645 279.544 198.877 274.772 195.856 270.095C192.834 265.419 189.832 260.906 188.273 255.659C186.99 251.35 186.734 246.485 188.323 242.221C189.113 240.111 190.37 238.189 192.067 236.704C193.931 235.079 196.21 234.039 198.588 233.413C200.966 232.787 203.521 232.569 206.015 232.545C208.663 232.517 211.328 232.673 213.955 233.011C219.166 233.683 224.485 235.267 228.485 238.829C232.169 242.102 234.719 246.989 234.01 252.017C233.301 257.044 229.996 260.87 227.064 264.635C224.114 268.42 221.279 272.633 220.932 277.58C220.777 279.794 221.205 282.03 222.454 283.894C222.838 284.467 222.927 284.484 223.612 284.453C224.235 284.423 224.854 284.354 225.465 284.247C226.592 284.052 227.693 283.737 228.756 283.308C233.279 281.494 236.908 277.887 239.211 273.629C241.739 268.953 242.773 263.6 243.088 258.335C243.397 253.222 242.882 247.116 246.966 243.285C248.659 241.694 250.966 240.748 253.282 241.348L253.035 241.078C253.261 243.497 251.936 245.916 249.752 246.986L250.158 247.242C249.496 243.277 255.657 240.416 258.197 243.58L258.213 243.209C257.475 244.246 256.108 244.627 254.947 244.093L255.116 244.423C255.264 242.51 257.043 241.242 258.853 241.108C260.953 240.953 262.565 242.488 263.099 244.439C263.699 246.64 262.925 248.924 261.244 250.426C259.563 251.929 257.283 252.629 255.069 252.579C250.722 252.479 246.571 249.451 245.061 245.38C244.092 242.778 244.427 239.965 244.214 237.248C244.043 235.077 243.426 233.003 242.367 231.099C240.268 227.318 236.676 224.484 232.773 222.756C228.15 220.711 222.993 220.312 218 220.584C215.246 220.733 212.504 221.08 209.777 221.483C209.112 221.58 208.452 221.682 207.787 221.784C207.122 221.886 206.776 221.809 206.49 222.412C206.072 223.284 205.979 224.274 206.159 225.22C206.582 227.452 208.13 229.357 209.57 231.034C210.881 232.556 212.03 234.054 212.572 236.033C213 237.608 213.011 239.609 211.477 240.584C210.32 241.317 208.896 241.101 207.656 240.729C206.516 240.386 205.461 239.847 204.524 239.108C203.092 237.975 201.336 235.845 202.488 233.951C203.777 231.837 206.827 232.527 208.217 234.121C209.892 236.039 210.227 238.866 210.401 241.305C210.608 244.168 210.447 247.038 210.577 249.903C210.768 254.191 211.825 258.739 215.076 261.777C216.506 263.115 218.358 264.007 220.325 264.102C222.291 264.197 224.106 263.509 225.636 262.384C228.933 259.958 230.469 255.8 229.405 251.837C228.291 247.693 224.767 244.367 220.772 243.011C215.892 241.354 210.477 242.338 205.928 244.524C201.984 246.418 198.022 249.437 196.674 253.797C195.54 257.452 196.608 262.076 200.105 264.049C202.134 265.193 204.529 265.251 206.781 265.515C209.034 265.78 211.003 266.302 212.676 267.745C215.669 270.33 216.566 274.6 216.862 278.368C217.016 280.347 217.001 282.335 216.898 284.317L217.167 284.07C207.723 285.591 197.283 283.579 189.437 277.94C187.591 276.615 185.909 275.008 184.766 273.024C183.468 270.761 183.07 268.144 182.927 265.576C182.701 261.384 182.892 257.14 183.537 252.993C184.759 245.185 187.872 237.173 194.441 232.372C196.185 231.097 198.146 230.182 199.963 229.022C201.551 228.004 203.208 226.669 203.881 224.836C204.866 222.136 203.879 217.889 200.37 217.997C199.099 218.035 197.922 218.653 196.784 219.156C195.501 219.73 194.223 220.298 192.94 220.872C190.379 222.014 187.814 223.162 185.254 224.304C182.693 225.446 180.128 226.594 177.567 227.736C175.454 228.679 173.283 229.569 171.34 230.846C169.548 232.023 168.05 233.568 167.15 235.532C166.251 237.496 165.978 239.575 165.918 241.669C165.856 244.055 166.099 246.449 166.331 248.819C166.602 251.584 166.926 254.349 167.302 257.1C168.048 262.52 168.977 267.929 170.181 273.27C171.221 277.901 172.813 282.368 176.369 285.666C179.539 288.61 183.631 290.4 187.769 291.495C192.477 292.74 197.361 293.173 202.219 293.029C212.201 292.729 221.948 290.132 231.601 287.792C236.579 286.584 241.575 285.413 246.631 284.596C249.111 284.195 251.604 283.88 254.108 283.694C256.419 283.521 258.749 283.454 261.051 283.782C263.352 284.11 265.405 284.805 267.226 286.123L267.146 285.76C264.225 290.374 258.563 292.958 253.177 292.166L253.407 292.36C252.84 289.927 254.192 287.647 255.959 286.078C257.92 284.342 260.361 283.546 262.835 282.853C265.309 282.161 268.023 281.496 270.275 280.031C271.898 278.975 273.242 277.555 274.266 275.911C276.459 272.391 277.126 268.106 277.327 264.032C277.573 259.089 277.218 254.091 276.913 249.162C276.298 239.193 274.146 227.726 265.148 221.823C261.575 219.478 257.238 218.594 253.047 219.5C251.073 219.925 249.172 220.738 247.57 221.981C246.78 222.594 246.062 223.308 245.454 224.11C245.224 224.416 244.871 224.812 244.757 225.181C244.644 225.55 244.693 226.047 244.764 226.415C245.089 228.028 246.605 228.96 248.069 229.41C249.882 229.965 251.863 229.952 253.681 229.458C258.429 228.168 262.866 225.705 266.522 222.407C268.329 220.782 269.952 218.954 271.333 216.953C272.713 214.952 273.943 212.668 273.534 210.201C273.185 208.099 271.743 206.35 269.965 205.247C267.853 203.94 265.348 203.664 262.932 204.079C257.432 205.027 252.795 208.814 248.298 211.865C243.801 214.916 238.342 218.163 232.544 217.81C228.061 217.537 223.237 214.966 222.261 210.237C221.455 206.333 223.575 201.377 228.098 201.443C230.019 201.469 232.019 202.397 233.156 203.973C234.363 205.646 234.227 207.849 233.038 209.493C231.849 211.137 229.851 212.172 227.882 212.607C225.328 213.165 222.683 212.624 220.177 212.057C217.477 211.447 214.802 210.787 212.019 210.832C209.237 210.876 206.305 211.545 203.602 212.501C198.036 214.47 193.034 217.677 187.644 220.053C182.809 222.181 177.337 223.777 172.068 222.436C167.849 221.362 163.648 218.489 162.286 214.167C160.823 209.515 163.32 204.763 166.893 201.847C171.177 198.353 176.869 197.378 182.185 196.656C194.216 195.02 206.313 193.685 218.449 193.143C224.561 192.871 230.682 192.811 236.794 193.044C239.901 193.161 243.01 193.355 246.107 193.634C248.735 193.87 251.429 194.135 253.905 195.123C256.214 196.043 258.245 197.649 259.267 199.969C260.187 202.06 260.023 204.46 258.536 206.242C257.242 207.793 255.263 208.598 253.351 209.067C251.31 209.566 249.164 209.734 247.069 209.718C244.973 209.702 242.667 209.486 241.158 208.025C239.31 206.233 240.002 203.287 241.391 201.436C243.513 198.607 247.474 197.571 250.831 198.322C254.578 199.165 257.195 202.487 256.461 206.39C255.772 210.045 252.488 213.607 248.601 213.602C244.195 213.599 241.53 209.338 240.313 205.621C239.638 203.557 239.242 201.415 238.957 199.268C238.561 196.291 238.217 193.304 237.898 190.314C236.59 178.142 235.812 165.918 235.574 153.676C235.337 141.434 235.63 129.165 236.465 116.941C236.866 111.051 237.398 105.17 238.048 99.3023C238.092 98.9147 237.496 98.8065 237.452 99.1941L237.464 99.2222Z" fill="#FFFDF9"/>
<g filter="url(#filter1_d_189_20597)">
<rect x="259.481" y="115.09" width="339" height="417" transform="rotate(5 259.481 115.09)" fill="#FFFDF9"/>
</g>
<rect x="277.789" y="136.768" width="297" height="306" transform="rotate(5 277.789 136.768)" fill="#303030"/>
<path d="M399.465 371.135C440.063 378.294 478.777 351.185 485.936 310.587C493.094 269.989 465.986 231.275 425.388 224.116C384.79 216.957 346.075 244.066 338.917 284.664C331.758 325.262 358.866 363.977 399.465 371.135Z" fill="#665D26"/>
<path d="M457.383 312.392C457.261 312.275 457.21 312.028 457.049 311.857C455.612 310.556 453.638 313.921 453.082 314.918C450.917 318.822 449.87 323.684 448.319 327.886C444.404 338.479 437.393 350.43 425.603 353.303C418.634 355.026 410.314 351.988 403.887 349.283C398.39 346.981 400.102 338.618 406.553 339.565C407.985 339.817 409.62 340.534 411.065 340.979C414.37 341.943 418.942 343.559 422.353 343.113C430.974 342.014 436.543 332.57 440.516 325.7C440.719 325.355 441.941 323.285 441.92 323.139C438.614 321.366 435.259 317.441 434.082 313.854C433.805 312.995 433.112 309.636 433.965 309.119C434.926 308.527 435.318 310.358 435.636 310.985C437.575 314.565 441.218 316.588 445.102 317.511L445.241 317.535C447.331 314.047 451.054 308.324 455.677 308.568C457.041 308.665 458.548 309.836 458.891 311.134C459.211 312.286 458.171 313.054 457.392 312.346L457.383 312.392Z" fill="#FBB94B"/>
<path d="M391.67 290.854C404.52 290.072 411.217 302.584 408.904 314.079C406.874 324.243 398.996 333.28 389.441 336.976C386.679 338.06 382.519 339.516 379.645 340.152C374.2 341.334 372.218 333.939 376.887 331.763C380.619 330.04 384.929 329.086 388.669 327.317C397.512 323.068 406.036 310.907 401.056 301.078C396.084 291.203 383.854 294.951 377.399 301.049C376.598 301.812 374.564 304.168 374.292 305.167C374.021 306.167 374.474 306.294 373.714 306.017C372.953 305.74 373.475 304.404 373.657 303.912C375.978 297.228 384.69 291.289 391.624 290.846L391.67 290.854Z" fill="#FBB94B"/>
<path d="M376.132 269.356L377.563 269.608C378.071 269.698 379.448 270.798 379.744 271.278C381.38 273.614 380.044 276.33 377.401 277.007C371.923 278.374 369.258 274.047 364.16 273.529C363.274 273.421 360.034 273.706 359.442 274.364C359.146 274.693 359.233 275.279 358.462 275.334C357.204 275.445 356.908 274.155 357.41 273.196C358.456 271.048 364.548 269.979 366.778 269.754C367.943 269.626 369.121 269.691 370.265 269.416C374.059 265.181 376.505 259.947 380.016 255.425C380.049 255.24 380.041 255.286 379.902 255.262C379.003 254.96 377.947 255.012 377.023 254.849C374.198 254.399 371.368 253.709 368.519 254.207C367.639 254.337 365.73 254.905 365.466 255.858C365.361 256.459 365.926 257.034 365.258 257.583C363.992 258.55 363.435 256.31 363.815 255.234C365.501 250.532 375.464 251.813 379.264 251.864C382.015 251.92 384.905 252.002 387.634 251.912C391.752 251.781 396.081 251.259 399.329 248.499C397.01 246.804 396.675 243.031 399.73 241.904C402.786 240.776 403.69 242.126 405.187 243.628C410.221 248.562 405.482 254.916 399.713 256.041C393.945 257.166 387.847 256.377 382.089 255.552C380.582 257.619 379.403 259.982 378.418 262.332C377.494 264.597 376.609 266.917 376.232 269.326L376.132 269.356Z" fill="#FBB94B"/>
<path d="M419.478 310.278C418.918 307.513 418.235 303.822 414.555 305.792C413.928 306.11 413.257 306.944 412.624 306.213C411.19 304.627 414.446 301.821 415.869 301.31C419.528 300.003 422.494 302.621 423.844 305.764C425.776 310.199 426.559 315.479 427.88 320.139C428.641 322.844 429.603 325.49 430.41 328.203C430.437 330.207 428.449 331.761 426.523 330.803C424.513 329.782 424.127 325.762 422.763 324.046C419.789 323.902 416.125 324.161 413.795 321.988C410.364 318.765 412.419 312.509 416.436 310.789C416.691 310.692 417.712 310.3 417.905 310.287L419.469 310.324L419.478 310.278ZM420.222 313.885C418.566 313.831 416.439 316.17 416.678 317.783C416.89 319.011 420.408 319.583 421.432 319.716L420.214 313.931L420.222 313.885Z" fill="#FBB94B"/>
<path d="M456.612 275.453C453.033 276.583 450.352 279.634 448.259 282.597C447.947 283.019 447.599 283.909 447.173 284.168C446.366 284.692 445.516 284.113 445.44 283.195C445.371 281.422 446.848 275.207 448.146 274.056C449.444 272.904 448.836 273.653 449.148 274.042C449.621 274.601 448.978 277.44 449.024 278.257C450.716 276.223 454.55 271.757 457.424 271.93C459.874 272.077 460.586 274.249 460.836 276.341C461.113 278.818 461.019 281.515 461.196 284.022C461.373 286.529 461.552 288.75 461.661 291.102C461.77 293.454 462.05 296.456 461.638 297.716C460.774 300.182 457.086 300.579 455.752 298.154C455.176 297.1 455.002 293.499 454.953 292.157C454.759 286.505 456.298 281.016 456.566 275.445L456.612 275.453Z" fill="#FBB94B"/>
<path d="M467.79 262.284C469.088 261.942 470.335 261.352 471.701 261.165C474.542 260.713 477.823 261.816 477.405 265.265C476.952 269.184 473.283 269.204 470.224 268.998C469.57 268.93 468.654 268.721 468.038 268.708C467.421 268.694 467.845 268.721 467.783 268.805C467.957 269.979 468.122 271.198 468.435 272.396C469.226 275.202 471.043 277.855 472.562 280.313C474.072 282.817 474.466 282.743 474.309 283.906C474.084 285.723 471.794 286.557 470.512 285.188C469.626 284.27 468.113 282.052 467.361 280.919C466.532 279.678 465.706 278.152 465.195 276.728C464.288 274.045 464.377 271.109 464.396 268.303C464.32 268.195 462.915 268.328 462.676 268.333C461.897 268.434 459.746 269.293 459.558 267.926C459.371 266.56 460.003 266.481 460.617 265.971C461.799 264.941 463.523 264.341 464.933 263.637C465.299 261.559 465.858 259.468 466.67 257.564C467.482 255.66 467.27 256.051 467.542 255.861C468.047 255.426 468.62 255.956 468.623 256.48C468.661 257.343 468.14 258.68 468.069 259.62L467.798 262.238L467.79 262.284Z" fill="#FBB94B"/>
<path d="M423.065 269.681C423.278 273.337 423.544 276.955 425.34 280.271C426.174 281.751 427.027 282.853 428.312 283.937C428.931 284.475 429.79 285.007 430.371 285.49C431.509 286.595 430.491 288.32 428.785 287.734C427.441 287.259 424.773 285.646 423.866 284.581C420.435 280.548 419.975 274.516 420.061 269.437C419.955 269.228 418.646 269.092 418.323 269.035C417.462 268.788 415.911 268.134 415.96 267.047C416.055 265.16 418.966 264.578 420.253 263.758L420.888 258.537C421.149 257.869 421.749 253.928 422.482 253.819C423.215 253.71 423.221 253.949 423.202 254.327C423.131 256.076 422.96 257.855 422.936 259.612C422.936 260.422 422.831 261.832 422.893 262.557C422.877 262.649 422.861 262.741 422.991 262.812C423.95 262.505 424.938 262.298 425.919 262.138C426.899 261.978 428.173 261.774 429.012 261.874C433.98 262.322 433.807 269.242 428.954 269.767C424.062 270.238 424.945 269.822 423.057 269.727L423.065 269.681Z" fill="#FBB94B"/>
<path d="M437.422 284.115C437.283 284.09 437.237 284.082 437.175 284.166C435.936 284.71 435.504 285.538 433.834 285.291C430.338 284.865 429.781 280.196 430.5 277.467C431.339 274.33 435.033 271.743 438.216 273.4C438.403 272.338 438.297 271.319 438.153 270.246C437.518 269.801 434.94 270.918 435.076 269.609C435.236 268.161 437.585 266.718 439.041 266.832C444.533 267.277 442.869 276.172 442.574 279.738C442.484 281.056 442.403 282.327 442.267 283.636C442.121 285.277 442.439 287.523 440.277 287.903C437.922 288.297 437.343 285.91 437.438 284.022L437.422 284.115ZM435.873 276.7C433.591 276.679 432.989 280.096 433.69 281.79C434.437 283.493 436.449 281.801 437.172 281.214C437.245 280.798 437.196 280.266 437.261 279.897C437.326 279.527 437.663 278.158 437.589 277.765C437.448 277.216 436.451 276.659 435.881 276.654L435.873 276.7Z" fill="#FBB94B"/>
<path d="M395.481 270.863C393.213 271.844 392.665 274.413 391.277 276.073C388.61 279.316 384.058 275.704 386.116 272.401C386.507 271.804 389.394 268.933 389.921 268.645C390.803 268.229 391.037 268.794 391.377 268.758C391.716 268.723 393.786 267.517 394.359 267.237C395.744 266.672 397.477 266.025 398.745 267.201C401.084 269.327 398.037 275.265 398.464 278.245C398.891 281.224 401.148 281.384 400.307 283.997C399.878 285.35 398.042 286.311 396.656 286.067C394.717 285.725 393.084 282.295 392.831 280.489C392.339 277.069 394.227 273.927 395.427 270.901L395.481 270.863Z" fill="#FBB94B"/>
<path d="M413.54 270.239C415.189 270.339 417.519 271.702 416.993 273.609C416.466 275.516 415.097 275.179 415.159 274.286C415.222 273.392 415.906 273.56 415.458 272.862C414.295 271.086 410.292 272.189 410.567 274.142C410.645 274.775 412.316 275.022 412.892 275.266C417.49 277.268 416.815 283.528 412.54 285.631C406.182 288.747 399.877 282.922 401.767 276.257C402.326 274.165 404.977 273.442 406.512 274.998C407.962 276.492 406.724 278.654 408.242 280.303C409.761 281.951 410.513 281.465 411.187 280.346C412.604 277.977 409.611 277.402 408.926 275.615C407.804 272.798 410.767 270.036 413.548 270.193L413.54 270.239Z" fill="#FBB94B"/>
<path d="M386.962 301.355C387.356 301.282 387.579 301.368 387.932 301.526C389.005 302.191 388.264 303.156 388.155 304.041C387.626 308.661 388.629 313.504 388.863 318.116C388.893 319.025 389.01 320.522 388.902 321.407C388.476 325.712 382.566 326.289 381.759 321.957C380.943 317.671 383.644 308.292 385.072 303.974C385.382 303.028 385.697 301.513 386.916 301.347L386.962 301.355Z" fill="#FBB94B"/>
<defs>
<filter id="filter0_d_189_20597" x="39.6643" y="65.0889" width="382.054" height="452.959" filterUnits="userSpaceOnUse" color-interpolation-filters="sRGB">
<feFlood flood-opacity="0" result="BackgroundImageFix"/>
<feColorMatrix in="SourceAlpha" type="matrix" values="0 0 0 0 0 0 0 0 0 0 0 0 0 0 0 0 0 0 127 0" result="hardAlpha"/>
<feOffset dy="4"/>
<feGaussianBlur stdDeviation="2"/>
<feComposite in2="hardAlpha" operator="out"/>
<feColorMatrix type="matrix" values="0 0 0 0 0 0 0 0 0 0 0 0 0 0 0 0 0 0 0.25 0"/>
<feBlend mode="normal" in2="BackgroundImageFix" result="effect1_dropShadow_189_20597"/>
<feBlend mode="normal" in="SourceGraphic" in2="effect1_dropShadow_189_20597" result="shape"/>
</filter>
<filter id="filter1_d_189_20597" x="219.137" y="115.09" width="382.054" height="452.959" filterUnits="userSpaceOnUse" color-interpolation-filters="sRGB">
<feFlood flood-opacity="0" result="BackgroundImageFix"/>
<feColorMatrix in="SourceAlpha" type="matrix" values="0 0 0 0 0 0 0 0 0 0 0 0 0 0 0 0 0 0 127 0" result="hardAlpha"/>
<feOffset dy="4"/>
<feGaussianBlur stdDeviation="2"/>
<feComposite in2="hardAlpha" operator="out"/>
<feColorMatrix type="matrix" values="0 0 0 0 0 0 0 0 0 0 0 0 0 0 0 0 0 0 0.25 0"/>
<feBlend mode="normal" in2="BackgroundImageFix" result="effect1_dropShadow_189_20597"/>
<feBlend mode="normal" in="SourceGraphic" in2="effect1_dropShadow_189_20597" result="shape"/>
</filter>
</defs>
</svg>
