<svg width="1929" height="3314" viewBox="0 0 1929 3314" fill="none" xmlns="http://www.w3.org/2000/svg">
<ellipse cx="964.214" cy="1657" rx="964.214" ry="1657" fill="#FFFDF9"/>
<path d="M546.564 2415.1C594.917 2408.16 628.389 2368.66 644.151 2324.68C652.602 2301.16 656.57 2275.88 655.982 2250.9C655.247 2220.73 647.274 2190.9 637.391 2162.57C615.015 2098.49 580.734 2039.01 565.45 1972.46C550.165 1905.92 550.092 1829.68 570.226 1762.26C578.64 1734.15 592.823 1704.39 618.726 1688.44C639.669 1675.55 669.283 1672.87 690.519 1686.61C695.81 1690.02 700.256 1694.47 703.783 1699.69C704.702 1701.05 706.87 1701.3 707.751 1699.69C718.443 1679.66 722.779 1654.16 712.05 1633.22C703.416 1616.36 684.237 1606.84 665.498 1609.45C655.762 1610.81 647.201 1615.69 641.616 1623.85C641.138 1624.55 641.285 1625.47 641.616 1626.17C655.431 1654.6 707.311 1636.78 701.469 1605.96C701.285 1605.04 700.183 1604.19 699.264 1604.27C663.073 1606.88 631.659 1627.64 610.238 1656.22C587.385 1686.68 576.619 1724.27 578.273 1762.15C580.22 1806.65 597.195 1849.19 619.681 1887.15C640.918 1922.94 666.931 1957.77 699.705 1983.82C732.479 2009.87 769.625 2023.94 809.931 2016.37C850.898 2008.69 886.465 1981.61 914.756 1952.18C969.355 1895.34 999.924 1819.91 1015.94 1743.71C1024.14 1704.76 1028.99 1664.97 1030.86 1625.25C1031.56 1610.22 1030.64 1591.59 1019.62 1580.05C1006.54 1566.35 988.424 1573.44 973.36 1579.06C964.799 1582.26 955.834 1585.2 946.758 1582.37L947.787 1586.19C965.901 1571.79 992.392 1590.75 995.882 1610.37C1000.59 1636.78 975.16 1658.72 952.968 1666.8L955.209 1667.39C941.908 1652.69 955.099 1631.27 969.391 1623.12C991.106 1610.7 1018.33 1624.37 1038.14 1634.36C1060.03 1645.42 1082.3 1655.16 1105.67 1662.61C1129.04 1670.07 1153.32 1675.66 1177.65 1679.74C1226.7 1687.97 1276.52 1690.43 1326.16 1691.31C1350.41 1691.75 1374.77 1692.38 1399.02 1691.64C1420.58 1690.98 1443 1688.37 1462.21 1677.79C1479.85 1668.05 1491.75 1651.37 1494.54 1631.31C1497.01 1613.86 1491.57 1595.49 1475.7 1586.23L1475.15 1590.42C1513.83 1581.49 1555.83 1597.14 1581.33 1627.12C1606.83 1657.1 1610.83 1701.27 1594.26 1737.35C1585.08 1757.34 1570.27 1774.46 1551.05 1785.37L1554.43 1786.73C1545.1 1759.5 1550.06 1730.66 1550.91 1702.59C1551.57 1680.88 1548.52 1659.34 1536.95 1640.53C1527.39 1624.99 1511.78 1612.64 1492.74 1613.34C1473.71 1614.04 1458.1 1628.33 1450.34 1645.27C1428.37 1693.29 1467.14 1737.53 1490.76 1776.11C1504.69 1798.89 1516.7 1825.42 1511.34 1852.72C1507.44 1872.52 1495.17 1888.95 1479.63 1901.4C1445.09 1929.11 1401.29 1936.2 1359.59 1946.38C1319.69 1956.11 1275.82 1970.66 1253.44 2007.92C1240.36 2029.71 1237.31 2055.36 1233.31 2079.94C1229.52 2103.08 1225.04 2126.45 1208.69 2144.27C1196.05 2158.05 1176.07 2170.84 1156.52 2166.69C1131.68 2161.43 1126.57 2133.65 1125.54 2112.2C1122.9 2056.79 1128.63 2000.87 1141.78 1947C1148.32 1920.29 1156.7 1894.06 1166.88 1868.52C1172.1 1855.44 1177.83 1842.54 1184 1829.87C1189.59 1818.4 1195.32 1806.79 1202.48 1796.21C1209.65 1785.63 1218.54 1776.26 1230.15 1770.86C1240.62 1766.01 1252.38 1764.65 1263.81 1765.9C1288.13 1768.54 1309.25 1782.32 1324.47 1801.02C1340.6 1820.86 1350.44 1845.08 1358.75 1869.03C1368.34 1896.77 1376.35 1925.03 1382.81 1953.65C1394.97 2007.55 1402.36 2063.33 1401.55 2118.7C1400.85 2166.65 1393.39 2215.81 1371.68 2259.02C1361.43 2279.45 1348.02 2298.85 1331.08 2314.28C1316.49 2327.54 1299.15 2337.83 1280.74 2344.81C1245.18 2358.26 1203.36 2360.76 1168.09 2344.96C1151.01 2337.32 1135.98 2325.3 1125.32 2309.83C1110.15 2287.86 1103.72 2261.22 1100.85 2234.99C1095.31 2184.58 1099.31 2132.96 1110.92 2083.65C1122.5 2034.34 1141.97 1986.94 1168.5 1943.81C1181.76 1922.24 1196.82 1901.73 1213.51 1882.67C1226.88 1867.42 1239.63 1851.32 1245.29 1831.41C1249.62 1816.12 1247.68 1799.52 1232.13 1791.84C1231.07 1791.32 1229.6 1791.51 1228.97 1792.65C1209.35 1830.23 1189.18 1871.83 1189.81 1915.26C1190.1 1934.91 1195.43 1953.98 1206.01 1970.59C1215.38 1985.29 1227.5 1997.89 1238.34 2011.45C1250.58 2026.7 1261.45 2043.89 1260.31 2064.21C1260.2 2066.12 1262.96 2067.37 1264.25 2065.83C1293.01 2031.47 1287.21 1978.86 1259.91 1945.42C1245.47 1927.75 1225.34 1917.02 1202.63 1914.74C1176.8 1912.13 1151.71 1921.21 1130.65 1935.76C1081.67 1969.67 1053.42 2025.08 1028.8 2077.51C998.307 2142.51 972.11 2209.45 948.485 2277.24C924.86 2345.03 903.366 2414.66 882.607 2483.92C877.389 2501.3 872.172 2518.64 867.065 2536.06C864.897 2543.52 862.84 2551.56 865.191 2559.24C866.808 2564.61 870.298 2569.02 874.707 2572.4C885.289 2580.52 899.251 2582.57 912.037 2584.78C929.343 2587.79 946.722 2590.36 964.174 2592.5C1035.09 2601.24 1106.84 2602.82 1178.05 2597.38C1248.63 2591.98 1318.7 2579.75 1386.85 2560.64C1448.32 2543.41 1512 2522.28 1562.48 2481.83C1609.03 2444.53 1636.74 2391.4 1650.29 2334.05C1664.07 2275.81 1665.06 2215.33 1664.7 2155.81C1664.18 2079.86 1663.37 2003.88 1662.68 1927.93C1662.35 1889.72 1662.01 1851.51 1661.65 1813.3C1661.35 1780.7 1661.02 1748 1656.8 1715.63C1652.57 1683.26 1644.89 1653.61 1629.76 1625.95C1617.41 1603.35 1600.4 1583.54 1580.08 1567.82C1539.74 1536.59 1488.92 1522.22 1438.77 1517.59C1383.66 1512.48 1328.69 1519.17 1274.97 1531.48C1204.14 1547.72 1134.47 1570.61 1062.09 1579.36C1026.41 1583.65 990.077 1584.39 954.511 1578.66C931.253 1574.91 905.864 1568.85 882.717 1576.42C873.274 1579.5 864.934 1585.46 860.598 1594.6C853.948 1608.68 858.504 1623.85 864.272 1637.37C871.106 1653.36 878.087 1669.19 884.003 1685.58C889.918 1701.97 895.026 1718.21 899.582 1734.81C917.953 1801.83 926.33 1871.17 930.665 1940.39C932.833 1975 934.009 2009.65 934.854 2044.3C935.699 2078.94 936.911 2116.05 936.25 2151.88C935.589 2187.7 932.466 2226.36 923.17 2262.44C914.683 2295.36 901.125 2326.7 884.995 2356.57C868.902 2386.37 850.31 2414.77 831.205 2442.73C813.715 2468.31 796.52 2494.43 775.651 2517.47C756.545 2538.56 733.544 2557.63 705.62 2565.27C679.681 2572.36 652.455 2568.47 628.94 2555.75C605.425 2543.04 586.209 2523.05 570.52 2501.59C553.949 2478.89 540.612 2453.79 529.81 2427.89C503.062 2363.7 482.854 2296.42 468.12 2228.52C453.093 2159.3 444.091 2088.79 441.262 2017.99C438.469 1948.18 441.556 1877.96 451.072 1808.7C459.376 1748.22 473.08 1688.19 494.795 1631.05C516.436 1574.18 546.417 1519.98 586.87 1474.27C607.409 1451.09 630.63 1428.16 657.819 1412.88C685.596 1397.3 716.937 1393.92 747.139 1404.28C776.349 1414.31 801.407 1434.37 822.276 1456.64C843.146 1478.9 860.525 1504.81 875.993 1531.26C906.599 1583.47 928.828 1640.24 943.415 1698.92C958.148 1758.07 965.203 1818.99 966.378 1879.87C967.554 1940.76 962.704 2004.72 953.188 2066.38C943.782 2127.33 929.93 2187.63 912.221 2246.71C895.907 2301.13 875.699 2354.73 848.179 2404.59C821.395 2453.09 787.188 2498.51 742.803 2532.27C720.464 2549.29 695.443 2563.69 668.878 2572.98C638.97 2583.46 603.367 2587.17 576.583 2566.89C563.576 2557.04 554.023 2543.37 545.315 2529.78C536.607 2516.18 527.899 2501.48 520 2486.86C504.164 2457.61 490.423 2427.26 478.775 2396.11C455.407 2333.64 440.27 2268.17 432.37 2202C424.324 2134.39 423.883 2066.08 429.578 1998.29C435.677 1925.76 448.757 1853.93 466.614 1783.42C484.213 1713.91 506.185 1645.31 531.61 1578.25C552.884 1522.22 582.167 1463.1 641.285 1439.66C699.044 1416.73 765.436 1430.84 820.66 1454.32C880.917 1479.97 934.744 1518.55 995.588 1543.09C1027.7 1556.06 1061.1 1563.89 1095.71 1566.17C1132.45 1568.59 1169.27 1565.69 1205.86 1562.38C1281.4 1555.55 1357.02 1549.26 1432.45 1541.55C1446.67 1540.08 1461.44 1537.91 1473.97 1530.52C1486.5 1523.14 1494.07 1511.16 1499.06 1497.93C1504.91 1482.47 1507.96 1465.78 1511.48 1449.69C1515.3 1432.05 1518.76 1414.34 1521.81 1396.6C1534.19 1325.02 1540.47 1252.38 1540.66 1179.74C1540.84 1107.1 1534.89 1034.43 1522.91 962.816C1519.9 944.738 1516.48 926.734 1512.66 908.804C1509.09 892.049 1506.05 874.633 1499.39 858.797C1487.97 831.681 1462.98 818.381 1435.32 812.612C1420.55 809.526 1405.45 808.313 1390.42 807.137C1372.56 805.778 1354.67 804.823 1336.77 804.345C1300.4 803.353 1263.95 804.198 1227.65 806.843C1156 812.061 1084.83 824.296 1015.58 843.439C962.116 858.209 902.153 875.846 863.574 918.32C844.468 939.374 834.181 965.461 833.556 993.9C833.189 1011.72 835.908 1029.47 838.663 1047.03C841.639 1065.99 844.652 1084.98 847.628 1103.94C859.533 1179.6 871.474 1255.25 883.378 1330.94C888.89 1365.92 893.005 1401.78 905.019 1435.29C914.793 1462.59 930.592 1487.1 951.241 1507.41C991.253 1546.8 1046.15 1569.8 1101.52 1576.12C1172.46 1584.24 1243.82 1567.38 1310.03 1542.91C1337.91 1532.62 1368.08 1522.15 1391.01 1502.53C1401.92 1493.19 1410.48 1481.58 1415.33 1468.03C1420.88 1452.59 1421.61 1435.88 1421.43 1419.64C1420.99 1382.12 1419.22 1344.53 1418.05 1307.02C1416.87 1268.88 1415.7 1230.71 1414.52 1192.57C1413.35 1154.43 1412.17 1115.63 1410.96 1077.2C1410.41 1059.78 1410.22 1042.29 1409.19 1024.87C1408.38 1011.1 1406.84 997.096 1402.32 983.979C1398.13 971.781 1391.19 960.538 1380.75 952.711C1368.26 943.305 1352.57 939.778 1337.4 937.426C1301.1 931.731 1264.36 928.094 1227.69 925.816C1191.02 923.538 1152.07 922.84 1114.27 923.868C1084.36 924.677 1054.23 925.926 1024.84 931.805C999.777 936.802 974.425 945.142 953.739 960.574C931.033 977.513 917.585 1001.73 913.36 1029.65C910.861 1046.15 910.861 1062.87 911.045 1079.51C911.229 1098.36 911.817 1117.24 912.809 1136.06C914.756 1173.06 918.357 1209.95 923.464 1246.62C926.073 1265.28 929.085 1283.91 932.539 1302.46C935.405 1317.9 938.344 1333.47 944.444 1347.99C949.881 1360.85 958.001 1372.24 969.428 1380.39C980.855 1388.55 995.221 1393.22 1009.26 1395.61C1024.39 1398.21 1039.83 1398.62 1055.15 1398.88C1073.08 1399.13 1091.04 1398.91 1108.97 1398.18C1145.05 1396.71 1181.03 1393.22 1216.7 1387.74C1252.45 1382.27 1287.94 1374.81 1322.85 1365.37C1340.45 1360.63 1357.94 1355.37 1375.24 1349.6C1389.1 1345.01 1403.57 1340.42 1415.15 1331.2C1426.72 1321.97 1432.01 1308.82 1433.85 1294.53C1436.05 1277.11 1435.06 1259.14 1435.24 1241.65C1435.57 1203.33 1435.9 1165.01 1436.2 1126.69C1436.49 1091.34 1438 1055.77 1436.53 1020.46C1435.35 991.952 1430.8 961.75 1413.23 938.308C1395.67 914.867 1368.63 903.293 1340.89 897.708C1309.29 891.351 1276.19 890.91 1244.04 891.682C1173.38 893.409 1102.99 906.452 1036.45 930.262C983.096 949.368 926.844 975.786 892.931 1023.18C874.707 1048.65 866.293 1078.81 866.697 1110.01C867.102 1141.2 875.075 1174.42 886.281 1204.43C907.114 1260.28 942.092 1310.8 987.248 1349.71C1029.13 1385.83 1095.6 1427.5 1149.1 1389.51C1170.59 1374.22 1181.58 1348.83 1174.01 1322.97C1166 1295.63 1143.14 1275.13 1123.82 1255.51C1100.6 1231.95 1080.72 1205.5 1065.29 1176.18C1052.91 1152.63 1040.67 1124.3 1047.03 1097.11C1049.71 1085.65 1056.43 1075.95 1066.94 1070.43C1077.45 1064.92 1090.42 1065.73 1101.44 1070.84C1125.29 1081.9 1142.85 1106.04 1155.01 1128.52C1155.78 1129.96 1158.25 1130.1 1158.98 1128.52C1171.22 1102.07 1186.54 1069.74 1218.5 1064.26C1231.25 1062.06 1245.73 1064.67 1254.66 1074.7C1266.05 1087.52 1263.58 1106.04 1259.21 1121.18C1254.18 1138.59 1246.87 1155.49 1240.47 1172.47C1233.6 1190.69 1226.77 1208.88 1219.9 1227.1C1213.03 1245.33 1206.19 1263.52 1199.32 1281.74C1192.86 1298.94 1185.62 1316.32 1183.96 1334.76C1182.46 1351.44 1186.5 1367.9 1198.77 1379.81C1208.91 1389.65 1223.61 1395.17 1237.24 1389.62C1239.96 1388.51 1238.75 1384.07 1236.03 1385.17C1221.85 1390.9 1207.15 1383.52 1198.11 1372.27C1186.61 1357.98 1186.76 1338.99 1190.69 1321.9C1195.06 1302.98 1203.03 1284.83 1209.87 1266.71C1216.7 1248.6 1223.79 1229.71 1230.77 1211.23C1237.75 1192.75 1244.92 1173.68 1252.01 1154.91C1257.93 1139.22 1264.98 1123.38 1267.04 1106.59C1268.73 1092.66 1265.86 1077.71 1254.69 1068.27C1245.43 1060.44 1232.76 1057.94 1220.93 1059.3C1185.69 1063.31 1168.39 1097.4 1155.09 1126.21H1159.05C1146.52 1103.03 1128.34 1078.33 1103.83 1066.87C1093.51 1062.02 1081.79 1060.11 1070.8 1063.86C1059.81 1067.61 1050.96 1075.51 1046.11 1085.87C1035.86 1107.88 1041.88 1135.21 1050.89 1156.56C1063.19 1185.73 1080.57 1213.03 1100.89 1237.25C1119.96 1259.95 1144.32 1278.73 1160.23 1304.01C1167.69 1315.84 1172.72 1329.25 1171.88 1343.43C1171.03 1357.61 1164.27 1369.92 1154.28 1379.4C1131.68 1400.86 1099.46 1403.65 1070.65 1394.87C1040.34 1385.61 1013.15 1366.1 989.452 1345.53C944.186 1306.17 909.171 1254.99 889.037 1198.48C878.051 1167.66 870.298 1134.44 871.437 1101.56C872.576 1068.67 883.709 1040.71 903.917 1016.53C942.57 970.238 1002.68 945.547 1058.67 927.579C1125.62 906.122 1195.94 895.43 1266.19 896.091C1297.31 896.385 1329.68 897.524 1359.52 907.224C1389.35 916.924 1411.43 935.626 1422.27 964.359C1433.11 993.091 1432.6 1023.81 1432.34 1053.64C1432.01 1091.38 1431.72 1129.08 1431.39 1166.81C1431.05 1204.54 1431.2 1241.4 1430.43 1278.69C1430.1 1294.67 1428.37 1311.8 1416.65 1323.81C1405.81 1334.94 1390.16 1339.87 1375.79 1344.64C1307.64 1367.42 1236.91 1382.53 1165.37 1389.65C1129.66 1393.22 1093.73 1394.76 1057.87 1394.32C1028.44 1393.95 994.302 1393.99 969.906 1374.96C944.26 1354.93 940.108 1318.74 934.891 1288.87C928.498 1252.2 923.684 1215.24 920.488 1178.16C917.291 1141.09 915.638 1104.38 915.748 1067.46C915.858 1035.86 919.202 1003.23 940.953 978.578C958.112 959.178 982.325 947.788 1006.83 940.843C1033.69 933.275 1061.5 930.739 1089.24 929.417C1163.32 925.889 1237.68 928.902 1311.24 938.345C1327.96 940.476 1345.45 942.056 1361.43 947.678C1375.98 952.785 1387.44 962.448 1394.35 976.263C1400.71 988.976 1403.06 1003.42 1404.23 1017.45C1405.63 1033.95 1405.7 1050.59 1406.18 1067.16C1408.5 1142.56 1410.81 1217.96 1413.16 1293.35C1414.34 1331.2 1415.51 1369.04 1416.65 1406.92C1417.17 1423.64 1417.68 1440.69 1413.86 1457.11C1410.3 1472.51 1402.47 1485.92 1390.9 1496.65C1368.23 1517.7 1336.55 1528.39 1308.08 1538.87C1274.75 1551.14 1240.55 1561.35 1205.53 1567.49C1142.52 1578.58 1076.53 1575.5 1018 1547.87C992.465 1535.82 968.804 1519.5 949.367 1498.93C928.314 1476.66 913.69 1449.99 905.093 1420.63C895.099 1386.42 891.094 1350.45 885.546 1315.29C879.704 1278.21 873.862 1241.14 868.02 1204.07C862.178 1166.99 856.226 1129.3 850.347 1091.93C847.445 1073.45 844.395 1054.97 841.639 1036.45C838.884 1017.93 836.863 1000.15 838.92 981.995C845.461 923.501 898.773 889.441 948.963 869.673C979.055 857.805 1010.58 849.134 1041.96 841.271C1076.42 832.637 1111.33 825.692 1146.45 820.438C1217.66 809.82 1289.97 806.292 1361.91 809.893C1378.95 810.738 1396.04 811.84 1413.01 813.714C1427.01 815.294 1441.09 817.719 1454.31 822.716C1467.54 827.713 1480.4 836.017 1488.56 848.142C1498 862.141 1501.42 879.263 1505.05 895.466C1520.96 966.233 1530.74 1038.36 1534.41 1110.78C1538.08 1182.83 1535.7 1255.21 1527.28 1326.86C1523.06 1363.05 1517.25 1399.1 1509.9 1434.77C1506.49 1451.34 1503.07 1468.06 1498.55 1484.38C1494.51 1499 1488.59 1514.06 1476.14 1523.54C1463.68 1533.02 1447.04 1535.49 1431.72 1537.03C1413.34 1538.87 1394.97 1540.41 1376.6 1542.1C1338.98 1545.55 1301.36 1549.01 1263.77 1552.46C1227.17 1555.84 1190.54 1559.85 1153.84 1561.68C1117.35 1563.48 1080.46 1562.6 1044.79 1554.15C980.23 1538.87 924.088 1501.76 866.073 1471.22C812.687 1443.08 753.495 1420.11 692.063 1424.01C663.661 1425.81 635.664 1434 611.928 1450.02C588.193 1466.04 569.785 1489.12 555.676 1514.03C540.833 1540.22 530.177 1568.52 519.89 1596.7C507.618 1630.39 496.118 1664.38 485.609 1698.66C464.666 1766.85 447.581 1836.3 436.228 1906.73C425.463 1975.51 419.841 2045.21 421.715 2114.81C423.479 2180.13 431.672 2245.42 447.324 2308.92C462.829 2371.78 485.683 2433 516.62 2489.91C524.409 2504.28 532.749 2518.35 541.567 2532.13C549.687 2544.8 558.505 2557.41 570.006 2567.29C593.631 2587.53 625.008 2589.37 654.145 2582.28C681.187 2575.7 706.98 2562.55 730.017 2547.19C753.054 2531.83 772.234 2514.78 790.164 2495.16C827.347 2454.45 855.381 2406.06 877.61 2355.84C900.684 2303.59 917.769 2248.88 931.915 2193.62C947.015 2134.57 958.295 2074.5 964.909 2013.91C971.522 1953.17 973.396 1891.85 968.914 1830.9C964.431 1769.94 954.254 1712.91 936.324 1656.29C918.393 1599.67 892.894 1545.59 859.533 1496.46C828.082 1450.21 782.668 1401.34 723.955 1394.32C693.716 1390.68 665.168 1401.23 640.697 1418.5C616.154 1435.84 594.513 1457.88 575.333 1480.92C537.452 1526.45 509.271 1579.32 488.732 1634.69C467.716 1691.31 454.452 1750.69 446.406 1810.47C437.257 1878.37 434.134 1947.11 436.742 2015.53C439.351 2084.75 447.875 2153.79 462.094 2221.58C476.35 2289.44 496.375 2356.13 522.057 2420.54C541.384 2469.08 568.72 2519.19 611.928 2550.42C631.732 2564.72 655.247 2573.76 679.901 2573.54C707.017 2573.28 732.001 2562.11 753.018 2545.46C775.467 2527.72 793.397 2504.83 809.931 2481.68C828.963 2455.08 847.445 2427.96 864.86 2400.26C882.276 2372.55 898.59 2343.2 911.229 2312.59C923.868 2281.98 932.723 2248.03 936.911 2214.08C941.357 2178 941.467 2141.55 940.843 2105.25C940.218 2068.95 939.483 2035.81 938.271 2001.12C935.846 1933.3 931.18 1865.29 918.834 1798.45C912.662 1765.09 904.578 1732.09 893.887 1699.87C888.632 1684.07 882.79 1668.49 876.287 1653.17C869.784 1637.85 858.394 1619.74 862.766 1602.36C868.975 1577.52 899.361 1576.49 920.047 1578.18C933.825 1579.32 947.273 1582.37 960.941 1584.24C977.952 1586.56 995.111 1587.55 1012.27 1587.37C1082.96 1586.67 1151.82 1567.45 1219.75 1549.89C1278.13 1534.79 1336.52 1520.82 1397.14 1520.46C1448.54 1520.13 1501.75 1528.14 1547.64 1552.39C1569.61 1564 1589.49 1579.39 1605.51 1598.46C1625.02 1621.61 1637.77 1649.42 1645.22 1678.63C1653.23 1709.98 1655.62 1742.42 1656.54 1774.64C1657.57 1810.47 1657.42 1846.29 1657.75 1882.11C1658.41 1957.62 1659.08 2033.13 1659.77 2108.63C1660.32 2171.06 1662.2 2234.07 1652.98 2296.02C1644.49 2353.08 1625.6 2409.99 1586.25 2453.42C1543.08 2501.04 1481.72 2526.4 1421.72 2545.54C1354.12 2567.07 1284.38 2581.8 1213.87 2589.56C1143.99 2597.24 1073.37 2598.08 1003.34 2592.05C985.411 2590.51 967.481 2588.53 949.661 2586.07C932.98 2583.75 916.042 2581.55 899.582 2577.83C887.42 2575.08 871.584 2569.68 869.196 2555.61C867.616 2546.49 871.768 2536.87 874.34 2528.27C876.912 2519.67 879.447 2511.15 881.982 2502.62C902.337 2434.43 923.023 2366.31 946.023 2298.96C969.171 2231.13 994.596 2164 1024.25 2098.71C1049.08 2044.08 1075.65 1986.13 1123.23 1947.3C1143.59 1930.65 1168.5 1918.53 1195.28 1919C1219.2 1919.44 1240.8 1929.62 1256.13 1947.96C1282.29 1979.3 1288.39 2030.08 1261.12 2062.67L1265.05 2064.28C1266.96 2029.6 1237.5 2004.91 1218.21 1979.81C1205.94 1963.83 1197.3 1946.08 1195.17 1925.84C1193.04 1905.59 1196.79 1883.91 1203 1864C1210.49 1840.01 1221.51 1817.3 1233.09 1795.03L1229.93 1795.84C1249.4 1805.43 1243.08 1828.8 1235.4 1844.45C1225.08 1865.43 1207.85 1881.45 1193.66 1899.71C1162.51 1939.8 1138.07 1984.88 1121.21 2032.76C1104.23 2080.86 1094.9 2131.74 1094.13 2182.74C1093.4 2230.43 1096.74 2286.61 1130.65 2323.69C1156.33 2351.72 1195.32 2362.49 1232.39 2360.06C1271.19 2357.53 1309.81 2341.62 1337.8 2314.39C1371.68 2281.51 1390.64 2235.5 1399.38 2189.8C1408.97 2139.64 1407.5 2087.98 1401.73 2037.46C1395.01 1978.78 1381.93 1920.73 1362.31 1864.99C1346.77 1820.79 1321.67 1772.14 1271.19 1762.41C1248.81 1758.11 1226.18 1763.47 1209.94 1779.9C1201.38 1788.53 1194.99 1799.04 1189.26 1809.69C1182.72 1821.89 1176.73 1834.35 1171.1 1847.03C1148.44 1898.28 1133.15 1952.66 1125.69 2008.21C1122.02 2035.66 1120.25 2063.37 1120.47 2091.07C1120.66 2113.56 1119.37 2141.85 1135.65 2159.67C1165.34 2192.11 1213.32 2155.92 1226.73 2125.35C1236.84 2102.35 1237.9 2076.23 1242.79 2051.87C1247.68 2027.5 1257.01 2004.98 1275.97 1988.23C1309.7 1958.43 1357.72 1951.93 1399.9 1941.89C1438.62 1932.67 1482.6 1915.59 1505.02 1880.61C1517.14 1861.69 1519.97 1839.02 1514.46 1817.37C1507.81 1791.07 1491.57 1768.8 1476.91 1746.5C1462.25 1724.19 1447.81 1700.31 1448.4 1673.67C1448.84 1653.17 1459.49 1630.1 1478.97 1621.28C1498.44 1612.46 1519.93 1623.26 1531.43 1640.39C1544.77 1660.3 1547.23 1683.48 1546.24 1706.85C1545.07 1733.93 1541.06 1761.75 1550.1 1787.98C1550.58 1789.38 1552.12 1790.11 1553.48 1789.34C1589.27 1769.02 1610.61 1727.69 1609.14 1686.86C1607.6 1644.54 1579.71 1608.57 1541.17 1592.36C1520.01 1583.43 1496.46 1580.86 1474.01 1586.04C1472.06 1586.48 1471.8 1589.28 1473.45 1590.23C1488.92 1599.23 1492.93 1617.9 1489.44 1634.47C1485.36 1653.87 1472.61 1668.16 1454.86 1676.43C1433.92 1686.2 1409.96 1687.16 1387.22 1687.27C1362.53 1687.38 1337.8 1687.08 1313.11 1686.46C1263.4 1685.25 1213.51 1682.16 1164.6 1672.76C1140.39 1668.09 1116.47 1661.84 1093.21 1653.58C1081.27 1649.31 1069.48 1644.5 1058.01 1639.1C1046.55 1633.7 1035.64 1627.6 1024.1 1622.6C1003.56 1613.71 978.65 1608.31 960.096 1624.14C946.869 1635.46 938.895 1656.22 951.976 1670.66C952.49 1671.21 953.482 1671.51 954.217 1671.25C975.086 1663.64 995.515 1647.15 1000.03 1624.37C1003.97 1604.56 992.135 1585.53 973.286 1578.73C963.402 1575.17 952.857 1576.38 944.591 1582.99C943.158 1584.13 944.113 1586.37 945.619 1586.81C962.704 1592.18 977.989 1580.05 994.229 1577.08C1002.72 1575.53 1011.31 1577.41 1017.16 1584.1C1022.37 1590.08 1024.58 1598.31 1025.68 1606.03C1028.18 1623.92 1025.46 1642.88 1023.77 1660.74C1022.01 1679.74 1019.58 1698.7 1016.35 1717.51C1003.71 1791.47 978.944 1865.62 932.135 1925.25C908.216 1955.75 878.198 1983.82 842.925 2000.61C823.673 2009.76 802.546 2014.98 781.162 2013.69C762.13 2012.51 743.759 2006.23 727.188 1996.93C692.43 1977.46 665.278 1946.34 642.681 1914.15C618.101 1879.18 597.305 1840.49 587.826 1798.49C579.154 1760.06 581.175 1719.9 598.628 1684.18C613.949 1652.8 640.146 1625.21 673.839 1613.97C682.106 1611.21 690.63 1609.56 699.301 1608.93L697.096 1607.24C702.02 1633.11 657.084 1647.44 645.658 1623.92V1626.24C657.893 1608.35 685.706 1611.14 700.146 1624.7C719.95 1643.32 715.431 1675.77 703.894 1697.45H707.862C693.973 1676.98 668.401 1670.33 644.886 1674.11C617.587 1678.49 596.607 1697.3 582.939 1720.56C566.956 1747.78 559.791 1779.9 555.088 1810.83C549.651 1846.44 548.659 1882.67 552.149 1918.53C555.603 1953.76 563.355 1988.45 575.186 2021.81C587.017 2055.17 600.906 2084.75 614.243 2116.02C627.58 2147.29 640.073 2179.4 646.907 2212.91C652.381 2239.8 653.153 2267.03 647.936 2294.04C638.823 2341.18 611.451 2390.85 563.282 2406.65C557.477 2408.56 551.524 2409.88 545.499 2410.73C542.596 2411.13 543.809 2415.58 546.711 2415.18L546.564 2415.1Z" fill="#303030"/>
<path d="M577.161 2414.78C612.696 2377.76 633.343 2329.62 642.071 2279.47C650.799 2229.32 648.562 2175.28 639.174 2124.24C627.549 2060.96 606.609 1999.95 588.713 1938.31C579.728 1907.38 571.44 1876.23 565.462 1844.57C559.778 1814.67 553.103 1781.58 567.369 1753.04C579.031 1729.74 600.778 1712.5 624.468 1702.52C653.733 1690.19 686.335 1688.57 717.69 1689.31C725.611 1689.49 733.532 1689.86 741.49 1690.26C742.664 1690.34 743.874 1689.16 743.764 1687.99C741.087 1656.8 736.32 1622.35 714.059 1598.47C696.603 1579.76 665.578 1566.77 641.668 1581.45C623.625 1592.53 612.77 1619.16 623.955 1638.57C635.14 1657.98 662.241 1655.63 677.277 1641.17C684.538 1634.2 689.305 1624.41 687.985 1614.21C687.728 1612.19 687.545 1609.15 685.821 1607.82C683.548 1606.14 678.927 1605.66 676.213 1605.18C669.466 1603.97 662.571 1603.86 655.787 1604.74C626.375 1608.63 602.428 1629.29 589.153 1655.04C574.74 1683 570.78 1715.72 570.596 1746.8C570.413 1778.09 574.997 1809.43 583.688 1839.47C601.035 1899.42 634.663 1954.78 680.101 1997.6C703.498 2019.65 730.892 2038.62 762.724 2045.62C792.539 2052.15 823.894 2048.52 852.315 2037.95C912.935 2015.43 955.145 1963.7 983.053 1907.16C998.308 1876.27 1010.15 1843.62 1019.54 1810.49C1029.44 1775.53 1036.7 1739.53 1040.11 1703.36C1043.16 1670.89 1042.13 1636.81 1028.38 1606.65C1016.94 1581.63 995.228 1561.41 968.75 1553.23C956.538 1549.45 943.41 1548.54 930.941 1551.51C919.792 1554.15 903.51 1560.97 904.133 1574.81C904.683 1586.77 916.382 1598.03 925.623 1604.34C935.782 1611.31 947.847 1615.2 959.875 1617.51C986.94 1622.65 1014.63 1620.59 1041.95 1623.27C1076.93 1626.72 1110.49 1638.42 1142.94 1651.41C1175.4 1664.4 1205.98 1678.63 1238.77 1688.65C1266.6 1697.16 1295.91 1702.3 1325.1 1701.56C1352.71 1700.87 1380.69 1694.55 1404.16 1679.51C1431.59 1661.9 1446.45 1633.43 1467.42 1609.55C1488.4 1585.66 1520.97 1567.39 1550.27 1586.8C1561.89 1594.51 1570.25 1606.39 1576.6 1618.65C1583.79 1632.55 1588.92 1647.85 1592.22 1663.15C1595.85 1679.95 1596.58 1699.4 1586.32 1714.11C1578.36 1725.48 1563.51 1734.4 1549.35 1730.44C1535.19 1726.47 1528.41 1712.46 1522.58 1700.46C1516.75 1688.46 1511.43 1677.68 1500.17 1670.27C1491.41 1664.51 1478.79 1660.8 1469.62 1667.77C1464.49 1671.66 1462.07 1677.72 1461.08 1683.92C1459.72 1692.35 1459.69 1701.16 1459.47 1709.71C1458.92 1729.3 1459.47 1748.93 1461.19 1768.48C1462.8 1786.79 1465.44 1804.99 1466.8 1823.29C1469.26 1856.61 1467.42 1892.89 1444.43 1919.27C1426.9 1939.37 1397.6 1954.05 1371.56 1941.39C1348.57 1930.24 1339.66 1904.78 1332.73 1881.96C1325.79 1859.14 1319.49 1832.76 1303.02 1813.39C1268.18 1772.3 1204.04 1769.77 1159.08 1794.13C1106.75 1822.45 1074.66 1878.99 1057.31 1934.02C1039.97 1989.05 1036.37 2053.25 1047.6 2112.32C1058.82 2171.39 1084.49 2228.73 1123.73 2274.59C1143.71 2297.96 1168.73 2315.43 1200.01 2318.14C1228.94 2320.64 1258.5 2311.5 1282.41 2295.39C1336.58 2258.93 1360.01 2190.54 1371.49 2129.23C1378.27 2092.99 1380.8 2055.97 1378.9 2019.17C1377.43 1991.14 1372.99 1963.29 1364.19 1936.59C1348.24 1888.16 1316.99 1840.79 1266.6 1823.84C1215.04 1806.49 1154.13 1828.87 1125.2 1874.8C1108.03 1902.06 1103.82 1934.9 1100.99 1966.34C1097.98 1999.62 1095.2 2032.34 1083.54 2063.97C1060.91 2125.38 1017.71 2176.12 986.793 2233.21C954.521 2292.72 937.982 2359.01 930.574 2425.97C926.76 2460.34 925.257 2494.94 925.037 2529.5C924.927 2547.07 925.147 2564.68 925.55 2582.26C925.77 2590.88 925.99 2599.5 926.283 2608.09C926.54 2615.46 926.54 2623.05 928.667 2630.17C932.811 2643.93 944.84 2649.58 958.262 2651.08C973.884 2652.85 990.057 2652.04 1005.75 2652.11C1038.94 2652.26 1072.13 2651.78 1105.28 2650.35C1170.49 2647.49 1235.69 2640.89 1299.61 2627.35C1363.53 2613.81 1424.22 2593.63 1481.25 2563.66C1509.56 2548.76 1536.99 2531.7 1561.97 2511.71C1586.17 2492.34 1608.21 2469.37 1622.95 2441.89C1639.31 2411.48 1644.52 2377.1 1646.42 2343.02C1648.59 2304.79 1648.66 2266.37 1648.99 2228.07C1649.65 2150 1648.88 2071.93 1648.37 1993.86C1647.85 1916 1647.41 1838.12 1646.86 1760.26C1646.61 1725.92 1645.54 1690.67 1630.87 1658.93C1619.1 1633.4 1599.88 1611.97 1577.4 1595.31C1523.53 1555.36 1455.62 1546.15 1390.23 1547.44C1352.38 1548.17 1314.57 1551.73 1276.84 1554.63C1237.63 1557.64 1198.43 1560.64 1159.23 1563.65C1120.32 1566.62 1081.44 1569.63 1042.54 1572.6C1032.63 1573.37 1022.7 1574.18 1012.79 1574.88C1003.66 1575.54 994.311 1575.98 985.363 1573.67C969.264 1569.49 958.042 1556.17 946.673 1544.94C902.593 1501.28 844.174 1475.12 783.921 1462.94C752.786 1456.63 720.844 1453.77 689.085 1454.25C655.567 1454.76 621.351 1459.9 591.94 1476.88C564.692 1492.62 543.129 1516.4 525.012 1541.75C505.356 1569.23 488.743 1598.98 475.174 1629.87C447.67 1692.46 432.744 1760.34 431.754 1828.72C430.69 1903.16 445.139 1976.65 460.945 2049.03C468.94 2085.54 477.338 2121.97 484.452 2158.69C491.09 2192.89 496.188 2227.37 502.752 2261.6C514.964 2325.11 533.044 2391.11 576.977 2440.5C614.2 2482.36 670.016 2514.05 727.592 2506.57C788.761 2498.61 832.952 2448.16 855.945 2394.12C869.661 2361.87 877.472 2327.61 884.22 2293.34C891.591 2255.73 898.192 2217.95 904.06 2180.08C915.685 2104.91 924.413 2029.26 930.171 1953.39C936.002 1876.82 938.789 1800.07 938.569 1723.28C938.459 1684.76 937.579 1646.2 935.965 1607.71C935.378 1593.74 930.904 1569.93 947.664 1563.36C955.438 1560.31 964.68 1561.05 972.858 1560.79C982.612 1560.5 992.404 1560.24 1002.16 1559.95C1080.6 1557.71 1159.04 1555.43 1237.52 1553.2C1276.58 1552.06 1315.67 1550.96 1354.73 1549.82C1385.97 1548.94 1423.38 1552.17 1448.9 1530.52C1470.25 1512.44 1477.69 1482.94 1482.46 1456.56C1489.06 1420.02 1494.19 1383.18 1499.15 1346.39C1509.41 1269.78 1517.08 1192.85 1522.1 1115.73C1527.13 1038.61 1529.51 961.308 1529.25 884.043C1529.25 874.651 1529.25 865.222 1529.03 855.83C1528.85 847.796 1528.3 839.541 1525.55 831.946C1520.89 819.069 1510.33 810.521 1497.97 805.384C1483.6 799.404 1467.72 797.35 1452.39 795.295C1433.5 792.8 1414.51 791.443 1395.44 791.113C1319.78 789.718 1244.75 803.77 1171.4 820.94C1096.3 838.55 1021.63 858.178 946.82 876.999C927.97 881.732 909.157 886.465 890.308 891.198C880.589 893.656 870.871 896.077 861.153 898.535C853.452 900.48 845.457 902.02 838.049 905.029C832.548 907.267 827.378 910.495 824.15 915.595C819.97 922.236 820.52 930.344 821.107 937.828C822.647 957.273 824.187 976.717 825.727 996.162C831.925 1074.23 838.123 1152.27 844.357 1230.34C850.591 1308.41 854.662 1381.28 874.428 1454.21C882.166 1482.79 892.508 1511.59 910.918 1535.22C920.122 1547.03 931.381 1557.16 944.473 1564.42C959.179 1572.6 975.498 1577.23 991.817 1580.9C1065.02 1597.26 1140.6 1604.78 1215.56 1604.74C1249.55 1604.74 1284.54 1604.52 1317.95 1597.48C1347.72 1591.2 1375.45 1577.7 1394.85 1553.71C1414.25 1529.72 1423.49 1501.94 1430.16 1473.4C1438.09 1439.43 1442.71 1404.43 1446.15 1369.72C1453.63 1294.66 1452.9 1218.75 1443.95 1143.83C1439.66 1107.88 1433.65 1072.03 1425.4 1036.78C1418.69 1007.98 1409.96 979.395 1396.72 952.87C1383.48 926.345 1366.9 904.295 1344.13 887.199C1319.3 868.598 1289.23 859.132 1258.65 855.83C1226.45 852.345 1193.88 855.17 1161.98 859.903C1125.09 865.369 1088.41 872.89 1052.25 882.026C1034.06 886.612 1015.98 891.601 998.052 897.178C984.189 901.47 970.437 906.35 957.455 912.88C944.473 919.411 932.921 927.262 923.496 937.828C913.485 949.018 906.957 962.666 903.656 977.304C900.099 993.043 899.806 1009.33 900.283 1025.4C900.796 1044.08 901.823 1062.75 902.63 1081.39C904.28 1120.13 905.783 1158.91 907.654 1197.65C909.341 1232.69 912.311 1268.61 925.55 1301.44C936.075 1327.49 952.834 1350.79 973.701 1369.54C994.568 1388.28 1019.14 1402.33 1045.73 1410.55C1072.31 1418.77 1100.26 1421.89 1126.33 1414.37C1138.29 1410.92 1149.95 1404.94 1158.2 1395.36C1166.86 1385.35 1171.26 1372.03 1170.19 1358.82C1167.81 1329.22 1144.45 1304.45 1125.31 1283.76C1114.23 1271.8 1103.27 1259.88 1093.58 1246.7C1083.9 1233.53 1075.21 1219.48 1067.66 1204.88C1052.66 1175.9 1042.24 1144.56 1036.81 1112.35C1034.06 1096.03 1032.49 1079.37 1032.71 1062.82C1032.93 1046.28 1035.49 1027.49 1046.72 1014.21C1056.14 1003.06 1071.54 995.428 1086.14 1000.09C1095.27 1003.02 1101.72 1009.99 1105.94 1018.36C1114.34 1035.16 1115.48 1054.94 1119.77 1073.02C1123.73 1089.68 1130.44 1107.22 1146.87 1115.07C1148.26 1115.73 1149.73 1115.18 1150.24 1113.71C1165.57 1068.73 1213.43 1038.54 1260.59 1043.6L1258.32 1041.32C1258.65 1080.29 1252.52 1119.1 1240.09 1156.01C1233.93 1174.28 1225.97 1191.6 1217.43 1208.88C1209.43 1225.02 1201.33 1241.46 1197.22 1259.1C1193.48 1275.14 1193.7 1291.98 1201.22 1306.91C1208.74 1321.84 1221.57 1331.97 1235.29 1340C1262.83 1356.11 1295.06 1363.56 1326.86 1362.6C1362.69 1361.54 1398.11 1349.87 1426.75 1328.19C1429.06 1326.43 1426.79 1322.47 1424.44 1324.23C1374.02 1362.34 1302.1 1369.06 1245.63 1340.41C1231.18 1333.07 1216.84 1323.46 1207.97 1309.59C1198.5 1294.77 1197.7 1277.08 1201.58 1260.32C1205.47 1243.55 1213.54 1226.97 1221.35 1211.19C1229.16 1195.41 1236.64 1179.42 1242.58 1162.76C1256.41 1123.87 1263.23 1082.64 1262.86 1041.36C1262.86 1040.04 1261.8 1039.2 1260.59 1039.09C1211.38 1033.84 1161.79 1065.8 1145.84 1112.57L1149.22 1111.22C1131.47 1102.78 1126.26 1082.45 1122.63 1064.77C1119 1047.08 1117.27 1026.72 1107.01 1011.09C1094.79 992.53 1071.14 989.705 1053.24 1002.25C1028.05 1019.94 1026.95 1053.65 1028.67 1081.5C1032.49 1142.4 1054.49 1202.05 1090.94 1250.96C1109.02 1275.21 1132.31 1295.17 1149.44 1320.12C1157.43 1331.78 1164.66 1345.14 1165.61 1359.52C1166.56 1373.9 1161.24 1386.63 1151.2 1396.02C1131.98 1413.96 1102.09 1415.73 1077.34 1412.72C1050.05 1409.42 1023.72 1399.4 1000.69 1384.5C977.662 1369.61 957.675 1349.69 943.189 1326.32C926.32 1299.17 918.545 1268.13 915.025 1236.62C911.138 1201.47 910.771 1165.84 909.231 1130.55C907.69 1095.26 905.49 1058.38 904.72 1022.32C904.06 991.172 907.69 958.96 931.308 936.287C951.991 916.439 980.522 907.157 1007.37 899.159C1041.84 888.886 1076.75 880.264 1112.03 873.257C1144.41 866.837 1177.2 861.15 1210.2 859.426C1240.79 857.811 1272.07 859.683 1301.22 869.808C1330.38 879.934 1352.79 896.958 1370.83 920.071C1407.1 966.518 1420.15 1027.68 1430.38 1084.4C1443.15 1155.28 1448.35 1227.48 1446.08 1299.46C1444.94 1335.34 1441.97 1371.19 1437.1 1406.74C1432.84 1437.7 1428.07 1469.11 1418.21 1498.86C1409.22 1526.01 1394.92 1552.43 1371.6 1569.82C1346.84 1588.27 1315.67 1594.84 1285.49 1597.59C1251.09 1600.74 1216.22 1600.74 1181.71 1599.64C1145.66 1598.51 1109.68 1595.53 1073.96 1590.69C1055.85 1588.23 1037.8 1585.33 1019.87 1581.92C1003.3 1578.8 986.536 1575.65 970.437 1570.48C954.338 1565.3 940.622 1558.3 928.52 1547.51C918.032 1538.12 909.524 1526.74 902.593 1514.53C887.227 1487.45 878.976 1456.71 872.301 1426.48C864.564 1391.4 859.906 1355.74 856.422 1320.04C849.271 1247.14 844.43 1173.95 838.599 1100.91C835.666 1063.85 832.695 1026.8 829.761 989.742C828.294 971.324 826.607 952.943 825.397 934.526C824.847 926.088 825.764 917.906 833.135 912.697C838.856 908.661 845.897 907.047 852.572 905.359C924.083 887.345 995.631 869.368 1067.14 851.391C1137.33 833.744 1207.49 814.997 1279.11 804.137C1314.94 798.707 1351.17 795.368 1387.4 795.552C1404.97 795.625 1422.54 796.506 1439.99 798.377C1456.17 800.101 1472.85 802.009 1488.44 806.815C1502.23 811.071 1515.83 818.812 1521 833.084C1523.79 840.825 1524.23 849.153 1524.38 857.334C1524.52 866.213 1524.56 875.091 1524.6 883.933C1524.71 920.621 1524.27 957.309 1523.2 993.997C1521.08 1067.04 1516.6 1140.02 1509.74 1212.77C1502.85 1285.92 1493.61 1358.82 1481.98 1431.39C1477.55 1459.13 1474.02 1489.54 1457.93 1513.39C1449.6 1525.72 1437.79 1534.63 1423.56 1539.07C1408.16 1543.88 1391.77 1544.06 1375.78 1544.54C1301.92 1546.67 1228.03 1548.76 1154.17 1550.88C1116.91 1551.95 1079.68 1553.01 1042.43 1554.08C1023.8 1554.63 1005.17 1555.14 986.573 1555.69C977.772 1555.95 968.934 1556.02 960.169 1556.46C953.568 1556.79 946.6 1557.67 941.062 1561.56C930.464 1569.01 930.317 1583.35 930.831 1595.02C931.638 1613.22 932.371 1631.41 932.884 1649.65C933.911 1686.08 934.241 1722.51 933.911 1758.98C933.215 1831.55 929.841 1904.12 923.753 1976.47C917.665 2048.81 908.827 2121.68 897.275 2193.77C891.591 2229.32 885.357 2264.83 878.206 2300.13C871.531 2333.11 863.573 2366.17 849.711 2396.98C826.241 2449.19 781.757 2497.44 721.687 2502.53C665.542 2507.3 612.366 2474.95 577.014 2433.49C535.501 2384.77 518.595 2320.23 506.859 2258.71C500.698 2226.46 495.858 2193.95 489.697 2161.7C483.022 2126.7 475.101 2091.96 467.436 2057.18C452.181 1987.99 437.695 1918.02 436.375 1846.92C435.128 1780.74 446.643 1714.81 470.48 1653.02C482.252 1622.61 496.958 1593.33 514.341 1565.74C530.77 1539.73 549.51 1514.56 573.53 1495.08C599.531 1473.99 630.703 1463.35 663.781 1460.12C694.733 1457.11 726.491 1458.69 757.26 1462.98C816.156 1471.16 874.648 1491.63 921.663 1528.84C933.398 1538.12 943.666 1548.72 954.375 1559.07C965.083 1569.41 976.415 1577.48 991.23 1579.35C999.518 1580.42 1007.84 1579.79 1016.13 1579.17C1025.56 1578.44 1034.98 1577.74 1044.41 1577.01C1062.93 1575.58 1081.48 1574.14 1100 1572.75C1173.42 1567.1 1246.87 1561.41 1320.29 1555.84C1387.92 1550.7 1459.28 1545.97 1523.83 1571.1C1576.6 1591.64 1623.21 1632.33 1636.37 1689.16C1644.33 1723.47 1642.32 1759.71 1642.54 1794.68C1642.76 1831.84 1643.01 1868.97 1643.23 1906.13C1643.71 1980.06 1644.33 2053.95 1644.59 2127.88C1644.74 2164.9 1644.7 2201.95 1644.33 2238.97C1643.97 2275.99 1643.89 2310.62 1641.69 2346.32C1639.6 2380 1633.84 2413.71 1616.9 2443.36C1601.98 2469.48 1580.49 2491.23 1557.01 2509.76C1508.86 2547.84 1452.35 2575.87 1394.63 2596.13C1335.92 2616.71 1274.67 2629.37 1212.99 2636.96C1151.31 2644.55 1088.3 2647.23 1025.81 2647.45C1010.19 2647.49 994.604 2647.42 978.982 2647.2C965.78 2647.01 947.994 2648.63 938.129 2637.95C932.591 2631.97 931.638 2623.31 931.234 2615.57C930.831 2607.83 930.684 2599.79 930.464 2591.91C930.024 2575.43 929.694 2558.96 929.657 2542.45C929.511 2476.85 933.398 2410.7 948.837 2346.76C956.465 2315.17 966.917 2284.2 980.925 2254.85C994.934 2225.5 1011.07 2200.67 1027.87 2174.65C1044.66 2148.64 1061.28 2123.18 1074.84 2095.66C1088.41 2068.15 1097.29 2040.63 1101.25 2010.88C1105.47 1979.18 1105.39 1946.75 1113.31 1915.6C1120.5 1887.42 1135.32 1862.59 1159.19 1845.53C1180.86 1830.04 1207.53 1821.57 1234.19 1822.49C1259.89 1823.37 1284.65 1833.71 1304.34 1850.11C1343.58 1882.76 1363.13 1934.6 1370.86 1983.77C1375.93 2016.05 1376.11 2049.36 1373.36 2081.87C1370.46 2116.36 1363.82 2150.81 1352.97 2183.68C1334.3 2240.14 1298.07 2295.72 1236.9 2310.51C1208.59 2317.33 1178.63 2313.7 1154.42 2296.9C1130.22 2280.1 1110.93 2252.8 1095.67 2227.15C1066.08 2177.37 1049.32 2120.21 1046.13 2062.43C1042.94 2004.64 1053.21 1945.94 1078.03 1893.62C1101.58 1844.02 1142.03 1794.82 1198.91 1784.77C1224.03 1780.33 1251.13 1783.63 1273.72 1795.74C1284.83 1801.68 1294.84 1809.83 1302.47 1819.88C1310.1 1829.93 1314.68 1840.68 1318.64 1852.02C1326.45 1874.25 1330.67 1898.28 1342.48 1918.98C1354.29 1939.67 1373.84 1952.62 1397.23 1950.45C1420.63 1948.29 1443.26 1931.34 1456.17 1911.16C1473.29 1884.42 1473.62 1850.44 1471.13 1819.84C1469.7 1802.38 1467.2 1785.03 1465.74 1767.56C1464.27 1750.1 1463.61 1731.43 1464.01 1713.34C1464.2 1704.35 1464.27 1695.18 1465.44 1686.26C1466.36 1679.26 1469.11 1671.84 1476.37 1669.39C1488 1665.46 1501.38 1674.96 1508.2 1683.62C1516.23 1693.82 1519.76 1707.03 1526.94 1717.82C1533.25 1727.32 1542.42 1734.99 1554.19 1735.87C1565.96 1736.75 1577.95 1730.51 1585.99 1721.85C1595.74 1711.36 1599.48 1697.34 1599.37 1683.25C1599.22 1667.37 1594.79 1651.56 1589.47 1636.73C1585.14 1624.7 1579.71 1612.89 1572.31 1602.43C1557.2 1581.15 1533.36 1568.53 1507.21 1576.49C1477.69 1585.44 1459.58 1611.57 1442.12 1635.12C1432.99 1647.45 1423.34 1659.48 1411.24 1669.06C1400.42 1677.6 1388.03 1684.14 1375.01 1688.57C1320.55 1707.25 1260.63 1693.16 1208.7 1673.2C1177.75 1661.28 1147.57 1647.41 1116.25 1636.37C1084.93 1625.32 1056.1 1618.9 1024.49 1617.58C999.005 1616.52 972.454 1617.58 947.884 1609.81C936.332 1606.17 925.55 1600.16 917.519 1590.91C912.788 1585.44 906.37 1576.9 910.001 1569.38C913.118 1562.84 921.149 1559.43 927.64 1557.31C953.384 1548.9 981.549 1559.36 1001.06 1576.71C1024.31 1597.37 1034.25 1627.93 1036.56 1658.23C1039.12 1691.47 1034.03 1725.26 1027.68 1757.81C1020.94 1792.48 1011.25 1826.56 998.822 1859.58C977.222 1916.99 945.683 1974.92 894.342 2010.88C869.551 2028.23 840.433 2040.23 810.215 2043.46C779.997 2046.69 749.485 2040.34 722.934 2024.64C696.383 2008.93 673.353 1986.26 653.77 1962.38C634.7 1939.15 618.674 1913.36 606.132 1886.07C580.975 1831.25 569.679 1768.88 578.114 1708.9C582.038 1681.09 591.206 1652.03 611.743 1631.93C630.519 1613.51 658.684 1603.24 684.355 1612.04L682.741 1610.43C688.169 1627.86 672.766 1643.78 656.703 1647.67C638.367 1652.14 623.735 1637.98 624.395 1619.75C625.055 1601.51 638.807 1583.98 657.254 1580.6C679.404 1576.57 701.774 1589.41 715.123 1606.39C733.092 1629.21 737.053 1659.99 739.473 1687.99L741.747 1685.71C685.161 1682.85 620.508 1683.59 579.141 1728.6C570.963 1737.52 564.289 1747.83 559.998 1759.16C554.717 1773.07 553.8 1788 554.937 1802.71C557.394 1834.63 565.022 1866.55 572.98 1897.48C589.226 1960.54 611.156 2022 626.412 2085.28C639.504 2139.62 646.839 2195.42 641.521 2251.33C636.57 2303.58 620.214 2355.89 586.916 2397.17C582.882 2402.16 578.628 2406.96 574.19 2411.59C572.137 2413.71 575.4 2416.98 577.417 2414.81L577.161 2414.78Z" fill="#303030"/>
</svg>
