<svg width="606" height="606" viewBox="0 0 606 606" fill="none" xmlns="http://www.w3.org/2000/svg">
<path d="M303 606C470.342 606 606 470.342 606 303C606 135.658 470.342 0 303 0C135.658 0 0 135.658 0 303C0 470.342 135.658 606 303 606Z" fill="#665D26"/>
<path d="M479.052 354.008C478.482 353.627 478.101 352.675 477.34 352.104C470.678 347.917 465.159 362.763 463.636 367.14C457.736 384.27 456.975 404.444 453.739 422.335C445.555 467.442 425.951 520.163 380.844 539.957C354.198 551.757 318.798 545.476 291.2 539.195C267.6 533.866 268.551 499.227 295.007 498.466C300.907 498.466 307.949 500.178 314.039 500.94C327.933 502.462 347.346 505.698 360.669 501.511C394.357 491.043 409.964 449.361 421.003 419.099C421.574 417.577 425 408.441 424.809 407.87C410.345 403.112 394.167 389.789 386.934 376.276C385.221 373.04 380.083 360.098 383.128 357.433C386.554 354.388 389.409 361.43 391.122 363.714C401.399 376.656 417.387 382.176 433.564 383.127H434.135C440.036 367.711 450.884 342.207 469.536 339.923C475.056 339.352 481.907 342.968 484.191 347.917C486.285 352.294 482.669 356.101 479.052 353.817V354.008Z" fill="#FBB94B"/>
<path d="M201.176 314.229C251.993 302.048 287.584 347.346 286.442 394.927C285.491 436.989 260.367 478.671 224.776 500.178C214.499 506.459 198.892 515.214 187.853 519.781C166.917 528.346 153.784 500.178 170.914 488.187C184.617 478.671 201.176 471.819 214.879 462.112C247.235 438.893 272.739 384.269 245.903 348.488C219.067 312.516 172.817 336.116 151.31 365.046C148.646 368.662 142.175 379.511 141.794 383.698C141.413 387.885 143.317 388.075 140.081 387.504C136.845 386.933 137.987 381.224 138.368 379.13C142.936 350.771 173.578 320.89 200.985 314.229H201.176Z" fill="#FBB94B"/>
<path d="M123.902 239.24H129.803C131.896 239.24 138.177 242.666 139.7 244.379C147.884 252.563 144.458 264.363 134.37 268.931C113.434 278.257 99.7309 262.841 78.9853 264.363C75.3691 264.554 62.6172 267.979 60.714 271.025C59.7623 272.547 60.5236 274.831 57.4784 275.592C52.5299 276.925 50.4363 271.976 51.7686 267.789C54.4332 258.463 78.0337 249.898 86.7887 247.424C91.3565 246.092 96.1147 245.521 100.492 243.618C112.673 224.014 118.764 201.365 129.612 180.81C129.612 180.048 129.612 180.239 129.041 180.239C125.235 179.668 121.047 180.619 117.241 180.619C105.631 180.81 93.8308 180.048 82.7919 184.045C79.366 185.187 72.1336 188.803 71.7529 192.8C71.7529 195.274 74.4175 197.178 72.1336 199.842C67.756 204.601 63.9495 196.036 64.7108 191.468C68.1367 171.484 108.867 169.58 124.093 167.106C135.132 165.393 146.742 163.68 157.59 161.396C173.958 157.97 190.897 152.832 201.936 139.509C191.468 134.37 187.472 119.524 198.891 112.863C210.311 106.202 214.879 110.96 221.921 115.908C245.521 132.086 231.056 160.825 208.788 169.39C186.52 177.955 161.587 179.097 137.987 179.858C133.419 189.184 130.373 199.462 128.09 209.549C125.996 219.256 124.093 229.153 124.283 239.05L123.902 239.24Z" fill="#FBB94B"/>
<path d="M326.03 372.279C321.843 361.62 316.514 347.346 303.191 357.814C300.907 359.527 298.813 363.333 295.768 360.859C288.916 355.53 299.955 342.017 305.284 338.971C318.988 331.168 332.691 339.543 340.304 351.152C351.153 367.521 358.005 388.076 366.569 405.776C371.518 416.054 377.228 425.951 382.367 436.228C383.889 444.222 377.037 451.835 368.663 449.361C359.908 446.696 355.53 430.899 348.869 424.999C336.878 426.522 322.414 430.138 311.565 423.096C295.578 412.628 299.384 386.172 314.23 376.466C315.181 375.895 318.988 373.611 319.749 373.421L326.03 372.469V372.279ZM331.549 386.173C324.888 387.124 318.036 397.973 320.13 404.254C321.843 409.012 336.307 408.821 340.495 408.631L331.549 386.363V386.173Z" fill="#FBB94B"/>
<path d="M449.932 206.885C436.419 213.927 427.855 228.011 421.574 241.334C420.622 243.237 419.861 247.044 418.338 248.376C415.483 251.041 411.677 249.328 410.725 245.712C409.202 238.669 410.725 212.785 415.103 207.266C419.48 201.746 417.577 205.172 419.099 206.504C421.383 208.408 420.812 220.208 421.574 223.443C426.903 214.117 439.084 193.562 450.694 192.23C460.591 191.088 464.968 199.272 467.442 207.456C470.297 217.163 471.82 228.011 474.294 237.908C476.768 247.805 479.052 256.56 481.146 265.886C483.24 275.212 486.475 287.012 485.714 292.342C484.001 302.81 469.536 306.997 462.494 298.242C459.449 294.435 456.213 280.161 455.071 274.832C450.313 252.373 452.597 229.343 449.742 206.885H449.932Z" fill="#FBB94B"/>
<path d="M485.333 146.361C490.281 144.077 494.849 140.841 500.178 139.128C511.217 135.322 525.111 137.415 525.872 151.5C526.824 167.487 512.169 170.152 499.798 171.484C497.133 171.674 493.327 171.484 490.852 171.864C488.378 172.245 490.091 172.055 489.901 172.436C491.423 177.003 492.946 181.762 495.04 186.329C500.178 196.988 509.314 206.314 517.117 215.069C524.921 224.014 526.443 223.443 526.634 228.201C527.014 235.624 518.45 240.572 512.359 236.005C508.172 232.959 500.559 225.156 496.753 221.159C492.565 216.782 488.188 211.262 485.143 205.933C479.623 195.846 477.91 184.045 476.007 172.816C475.626 172.435 470.107 173.958 469.155 174.148C466.11 175.1 458.116 180.048 456.403 174.719C454.69 169.39 457.165 168.629 459.258 166.155C463.255 161.206 469.726 157.59 474.865 153.783C474.865 145.219 475.626 136.464 477.53 128.28C479.433 120.096 478.862 121.809 479.813 120.857C481.526 118.763 484.191 120.476 484.572 122.57C485.333 125.996 484.191 131.706 484.572 135.512L485.333 146.17V146.361Z" fill="#FBB94B"/>
<path d="M311.756 207.456C315.182 221.92 318.798 236.195 328.314 248.186C332.692 253.515 336.879 257.321 342.779 260.747C345.634 262.46 349.44 263.983 352.105 265.505C357.434 269.121 354.579 276.734 347.347 275.592C341.637 274.641 329.837 270.073 325.459 266.457C308.901 252.753 302.81 228.962 299.575 208.598C299.004 207.836 293.675 208.217 292.342 208.217C288.726 207.836 282.065 206.314 281.494 201.936C280.542 194.323 291.771 189.946 296.339 185.758L295.197 164.442C295.768 161.587 295.388 145.409 298.242 144.458C301.097 143.506 301.288 144.457 301.478 145.98C302.43 153.022 303.001 160.255 304.143 167.297C304.714 170.532 305.285 176.242 306.046 179.097C306.046 179.478 306.046 179.858 306.617 180.049C310.233 178.145 314.04 176.623 317.846 175.29C321.653 173.958 326.601 172.245 330.027 172.055C350.202 170.342 354.389 198.13 335.356 203.649C316.133 208.978 319.369 206.694 311.756 207.646V207.456Z" fill="#FBB94B"/>
<path d="M379.32 255.037C378.749 255.037 378.559 255.037 378.369 255.418C373.801 258.463 372.659 262.079 365.807 262.269C351.533 263.031 346.013 244.759 346.965 233.34C348.107 220.207 361.049 207.265 374.943 211.642C374.943 207.265 373.801 203.268 372.469 199.081C369.614 197.749 360.097 204.03 359.717 198.7C359.336 192.8 367.711 185.377 373.611 184.806C395.879 182.713 395.498 219.446 396.831 233.911C397.401 239.24 397.972 244.379 398.353 249.708C398.924 256.369 401.779 265.124 393.405 268.17C384.269 271.405 380.272 262.269 379.32 254.656V255.037ZM367.901 226.488C358.765 228.011 358.765 242.095 362.762 248.376C366.949 254.656 373.801 246.472 376.275 243.617C376.275 241.905 375.704 239.811 375.704 238.288C375.704 236.766 376.085 231.056 375.514 229.533C374.562 227.44 370.185 225.917 367.901 226.298V226.488Z" fill="#FBB94B"/>
<path d="M202.318 231.627C193.943 237.146 193.563 247.804 189.185 255.418C180.811 270.263 160.065 259.034 165.965 244.379C167.107 241.714 176.624 228.201 178.527 226.678C181.762 224.394 183.095 226.488 184.427 226.107C185.759 225.727 193.182 219.446 195.276 217.923C200.414 214.688 206.886 210.881 212.786 214.688C223.634 221.539 215.641 247.424 219.447 259.034C223.254 270.644 232.389 269.692 230.867 280.731C230.105 286.441 223.444 291.58 217.734 291.58C209.74 291.58 200.795 279.018 198.511 271.976C194.134 258.653 199.463 244.759 202.127 231.817L202.318 231.627Z" fill="#FBB94B"/>
<path d="M274.071 216.401C280.733 215.639 291.01 219.446 290.249 227.44C289.488 235.433 283.778 235.053 283.397 231.437C283.017 227.82 285.871 228.011 283.588 225.537C277.687 219.256 262.461 226.488 264.936 234.101C265.697 236.575 272.549 236.385 275.023 236.956C294.817 241.714 296.53 267.218 280.923 278.638C257.703 295.577 228.393 276.734 231.248 248.756C232.009 240.001 242.096 235.243 249.329 240.382C256.181 245.33 252.755 254.847 259.987 260.366C267.219 265.886 269.884 263.411 271.787 258.463C275.784 247.995 263.413 247.805 259.416 241.143C252.945 230.675 262.842 217.543 274.071 216.21V216.401Z" fill="#FBB94B"/>
<path d="M189.756 359.527C191.279 358.956 192.23 359.146 193.753 359.527C198.511 361.43 196.227 365.807 196.417 369.424C197.559 388.266 204.982 406.918 209.169 425.189C209.931 428.806 211.453 434.705 211.643 438.322C212.976 455.832 189.756 462.303 183.475 445.554C177.194 428.996 181.382 389.598 184.046 371.327C184.617 367.33 184.807 361.049 189.566 359.527H189.756Z" fill="#FBB94B"/>
</svg>
