<?xml version="1.0" encoding="UTF-8"?><svg id="uuid-6f1925d0-1f79-4ed7-8dad-4218d6f1c870" xmlns="http://www.w3.org/2000/svg" width="68.55" height="133.75" viewBox="0 0 68.55 133.75"><defs><style>.uuid-7740c11c-e1c2-4e62-ab4f-f4be13a5c014{fill:none;stroke:#000;stroke-miterlimit:10;stroke-width:.25px;}</style></defs><g id="uuid-61638f68-fc3e-4e0a-b2ac-78e0bbaebd25"><path class="uuid-7740c11c-e1c2-4e62-ab4f-f4be13a5c014" d="M23.56.14C35.25,0,47.13.84,58.83,1.02c11.04,1.59,8.74,8.75,8.89,17.71.25,14.23.25,28.53.29,42.77.07,19.45.98,41.37-.15,60.55-.65,11.04-5.39,11.06-15.06,11.39s-19.54.18-28.95,0c-5.91-.11-20.3,1.08-22.26-6.25-.8-2.97-1.03-11.92-1.18-15.43-.81-19.87.34-39.82.59-59.67.12-9.6-.27-19.22-.15-28.8.05-3.39.02-15.75,1.32-18.08C5.07.04,18.32.21,23.56.14Z"/><path class="uuid-7740c11c-e1c2-4e62-ab4f-f4be13a5c014" d="M21.5.58c9.92-.2,21.24-.01,31.16.44,6.15.28,13.92.06,14.62,7.72.95,10.39.22,23.54.29,34.24.19,27.7.22,55.52-.44,83.18-1.34,7.59-10.17,6.81-16.09,6.98-11.78.35-27.05.7-38.65-.29-3.47-.3-9.43-1.5-10.51-5.51-.83-3.08-1.06-13.73-1.18-17.49-.61-19.28.36-38.65.59-57.9.14-12.04-.4-24.31,0-36.3.07-2.25.13-8.41,1.03-10.14C4.9.53,16.63.68,21.5.58Z"/><path class="uuid-7740c11c-e1c2-4e62-ab4f-f4be13a5c014" d="M33.7,4.7c1.56-.05,8.43-.21,9.41.29.26.14.49.57.66.81l-.66.51c.13-.48.63-.46,0-.88-1.24-.82-13.09-.37-15.28-.15-.82.08-3.18.22-1.47,1.18l14.77-.22c-2.45.08-13.87,1.2-15.36.22-.34-.22-.45-.74-.15-1.03s7.07-.7,8.08-.73Z"/><path class="uuid-7740c11c-e1c2-4e62-ab4f-f4be13a5c014" d="M28.7,119.33c2.21-.21,12.51-.05,14.26.59,2.7.98,3.85,6.5,1.18,7.64-3.97,1.69-14.05-.3-18.66.29-3.84-3.53-2.03-8.01,3.23-8.52Z"/><path class="uuid-7740c11c-e1c2-4e62-ab4f-f4be13a5c014" d="M29.14,119.62c2.25-.15,11.94-.05,13.67.59,2.2.81,3.46,5.63,1.47,6.91-.65.42-4.84.71-5.88.73-1.48.04-12.13-.07-12.79-.29-1.8-.62-2-3.87-1.54-5.36.57-1.85,3.46-2.46,5.07-2.57Z"/><path class="uuid-7740c11c-e1c2-4e62-ab4f-f4be13a5c014" d="M16.36,3.67c2.99-.35,3.8,3.51,1.32,4.56-3.65,1.55-4.75-4.15-1.32-4.56Z"/><path class="uuid-7740c11c-e1c2-4e62-ab4f-f4be13a5c014" d="M16.65,3.96c2.26-.12,3.13,2.77,1.18,3.82-3.48,1.86-4.59-3.64-1.18-3.82Z"/><path class="uuid-7740c11c-e1c2-4e62-ab4f-f4be13a5c014" d="M20.77,4.11c1.95,0,1.72,3.81-.29,2.94-1.18-.51-1.2-2.94.29-2.94Z"/><path class="uuid-7740c11c-e1c2-4e62-ab4f-f4be13a5c014" d="M20.47,4.55c1.72-.5,1.65,2.15.73,2.35-.99.22-2.05-1.97-.73-2.35Z"/><path class="uuid-7740c11c-e1c2-4e62-ab4f-f4be13a5c014" d="M23.41,11.75c11.4-.21,22.84.55,34.24.15,8.98.31,6.8,13.28,6.83,19.77.12,26.72-.49,53.53-.88,80.24-.96,4.07-4.17,4.19-7.72,4.19-9.6-.01-19.16-1.27-28.8-.88-5.28.21-20.24,3.58-22.41-2.57-.49-24.72-.64-49.71-.59-74.51,0-4.29-.39-19.53,1.03-22.63,1.86-4.08,14.27-3.67,18.3-3.75Z"/><path class="uuid-7740c11c-e1c2-4e62-ab4f-f4be13a5c014" d="M22.24,12.05c12.53-.3,25.35.1,37.77.73,1.03.53,2.36,1.13,3.01,2.13,1.55,2.39,1.18,18.01,1.18,21.9-.01,24.38-.56,48.8-.73,73.19-.44,5.23-2.8,5.79-7.57,5.8-9.74.03-19.46-1.3-29.25-.88-5.74.24-21.08,4.19-22.12-3.89-.01-18.61.13-37.23.15-55.84,0-11.03-1.63-27.37.15-37.77,1.04-6.07,12.66-5.25,17.41-5.36Z"/><path class="uuid-7740c11c-e1c2-4e62-ab4f-f4be13a5c014" d="M59.56,82c.15.09.13.9-.15.73-.19-.11-.08-.64.15-.73Z"/><path class="uuid-7740c11c-e1c2-4e62-ab4f-f4be13a5c014" d="M28.26,96.84c1.21-.21,10.97.18,11.9.59.17.07.73.76.81.96.44,1.09.3,8.73-.29,9.55-.07.1-.43.47-.51.51-.63.34-10.63.33-11.76.15-2.79-.46-2.45-5.49-2.28-7.72.12-1.51.29-3.72,2.13-4.04Z"/><path class="uuid-7740c11c-e1c2-4e62-ab4f-f4be13a5c014" d="M28.7,97.13c1.62-.23,5.47-.12,7.2,0,1.3.09,4.6.14,4.92,1.54.23,1,.06,8.44-.44,9.11-.35.46-1.03.59-1.54.66-1.13.16-10.74-.13-11.32-.44-.45-.25-.87-1.06-.96-1.54-.2-1.15-.08-7.68.44-8.52.34-.55,1.1-.73,1.69-.81Z"/><path class="uuid-7740c11c-e1c2-4e62-ab4f-f4be13a5c014" d="M31.2,98.6c.29-.06,1.62-.12,1.84.22-5.69-.32-3.01,5.37-.22,7.42-2.57-.69-5.16-6.88-1.62-7.64Z"/><path class="uuid-7740c11c-e1c2-4e62-ab4f-f4be13a5c014" d="M35.46,99.49c.95-.21,2.3,1.14,2.13,2.28-.15.99-2.98,3.31-3.75,4.19.53-1.84,5.42-4,2.65-5.88-.22-.15-1.76-.43-1.03-.59Z"/><path class="uuid-7740c11c-e1c2-4e62-ab4f-f4be13a5c014" d="M52.66,96.11c2.14-.11,4.43,0,5.51,2.13.78,1.52,1.26,9.27.44,10.58-1.19,1.92-10.08,2.12-11.61.59-1.26-1.26-1.21-9.05-.73-10.73.55-1.94,4.62-2.48,6.39-2.57Z"/><path class="uuid-7740c11c-e1c2-4e62-ab4f-f4be13a5c014" d="M52.95,96.4c3.82-.19,5.22.98,5.66,4.78.12,1.02.32,5.79.15,6.61-.53,2.59-7.61,2.57-9.63,2.28-1.43-.2-2.49-1.09-2.72-2.57-.16-1.05-.12-7.95.15-8.82.52-1.65,4.88-2.2,6.39-2.28Z"/><path class="uuid-7740c11c-e1c2-4e62-ab4f-f4be13a5c014" d="M51.77,98.02c1.86-.29,4.02.45,4.48,2.42-1.88-3.57-6.94-2.57-7.79,1.18-.18.78-.25,4.52,0,5.14.11.28.98.58,1.18.15-.55-2.22-.4-5.75,2.28-6.39-.4.52-1.12.63-1.54,1.25-.86,1.24-1.05,6.26.37,6.69.67.2,1.4-.3,1.76-.29,1.73.03,4.4,1.08,4.78-1.54.15-1.04-.4-1.85-.59-2.79-.05-.26.29-.99.15-1.47-.34-1.14-2.44-1.16-3.38-1.18.69-.43,2.26-.21,2.87.22,1.11.78.47,1.52.66,2.57.03.19.43.89.44,1.03.34,4.65-1.88,3.48-5.07,3.45-.36,0-.94.45-1.62.29-.58-.13-.75-.97-1.18-1.32-.1-.08-1.16.09-1.4-.81-.72-2.78.05-8.05,3.6-8.6Z"/><path class="uuid-7740c11c-e1c2-4e62-ab4f-f4be13a5c014" d="M43.99,18.66c3.24-.04,12-.42,14.4,1.47,1.57,1.24,1.44,4.22,1.03,6.03-.34-2.74.71-5.25-2.5-6.47-4.57-1.73-19.22-.42-24.84-.29-4.85.11-20.19-1.32-22.71,3.16-1.39,2.48-.93,13.88-.88,17.34.17,13.01.78,26.08,1.03,39.09.25,1.23,1.23,2.75,2.28,3.45,3.93,2.63,26.87,2.24,32.63,2.06,3.41-.11,12.16.18,13.89-3.16,1.38-2.67.31-28.25.44-33.51.11-4.37,1.88-17.93-.15-21.02s-14.49-3.36-18.15-3.45c-7.43-.19-20.77-.68-24.32,7.42-3.05,6.96-.63,24.29.15,32.33.3,3.12,2.54,14.26.88,16.31-1.11,1.36-3.6,1.16-4.56-.29-1.1-1.69-.48-8.21-.59-10.58-.41-9.14-.35-18.19-.59-27.33-.11-4.34-1.83-11.57.29-15.43,1.84-3.35,6.85-3.65,10.21-4.04l-6.17,1.32c-7.5,2.35-4.2,13.07-4.04,19.03.26,10.28.3,20.44.73,30.71.06,1.52-.38,3.43-.15,4.85.51,3.08,4.88,3.2,5.29-.15.17-11.55-7.13-39.16-.73-48.64,4.84-7.18,21.61-6.06,29.32-5.51,3.1.22,11.01.58,12.71,3.31,1.98,3.16.24,17.01.15,21.46-.2,9.48,1.22,22.25.15,31.16-.59,4.91-5.34,5.07-9.33,5.36-6.52.48-32.35.84-37.33-1.47-2.22-1.03-3.22-3.19-3.45-5.51-.82-8.07-.14-17.75-.29-26.01-.15-8.31-1.44-18.62-.44-26.75.5-4.04,3.83-5.23,7.42-5.66,7.92-.94,19.87-.5,28.22-.59Z"/><path class="uuid-7740c11c-e1c2-4e62-ab4f-f4be13a5c014" d="M31.2,37.91c.13,0,.33-.04.37.07-15.88,5.67-16.79,28.81,1.54,31.96,12.34,2.12,18.59-10.29,15.65-20.94-1.9-6.89-8.88-9.31-15.28-10.14,3.1-.12,7.08,1.14,9.77,2.72,12.98,7.6,5.88,34.85-13.67,27.63-11.13-4.11-13.49-16.91-6.25-25.79,1.27-1.55,5.94-5.43,7.86-5.51Z"/><path class="uuid-7740c11c-e1c2-4e62-ab4f-f4be13a5c014" d="M33.11,39.38c5.44.4,13.12,3.84,14.77,9.48,4.28,14.63-8.23,26.96-21.82,17.41-8.53-6-6.3-22.02,2.94-26.31-6.54,3.88-9.14,11.72-7.57,19.03.94,4.37,4.43,7.43,8.45,9.04,18.94,7.56,26.09-21.69,8.82-27.19l-5.58-1.47Z"/><path class="uuid-7740c11c-e1c2-4e62-ab4f-f4be13a5c014" d="M9.74,82c.31,1.44-.09,2.89,1.32,3.82,5.08,3.36,35.42.02,43.06,1.32,2.47-.27,4.76-.58,5.22-3.45.52,2.39-2.13,3.33-4.04,3.6-12.38-.46-25.63.79-37.92,0-3.4-.22-8.96-.41-7.64-5.29Z"/><path class="uuid-7740c11c-e1c2-4e62-ab4f-f4be13a5c014" d="M32.08,43.94c4.89-.45,9.5,1.1,10.8,6.25.5,1.99.85,10.26-.29,11.76-1.24,1.63-8.92,2.01-10.95,1.69-10.9-1.71-9.61-18.78.44-19.69Z"/><path class="uuid-7740c11c-e1c2-4e62-ab4f-f4be13a5c014" d="M31.64,44.23c4.88-.55,9.59.77,10.95,5.95.54,2.07,1.01,9.85-.15,11.46-1.26,1.76-8.88,2.02-10.95,1.69-10.35-1.64-8.95-18.08.15-19.1Z"/><path class="uuid-7740c11c-e1c2-4e62-ab4f-f4be13a5c014" d="M28.48,49.37c.09-.01.22.02.29,0-.26.79-.44,1.75-.29,2.57.19,1.09,5.82,8.58,6.54,8.45,2.47-2.58,7.15-8.37,5.8-12.12-1.11-3.11-6.31.15-6.69,2.42-.87-1-1.97-2.89-3.45-2.94v-.29c1.3,0,2.62,1.71,3.31,2.65,3.22-5.15,9.19-4.41,6.69,2.72-.41,1.15-4.63,7.53-5.51,7.86-.61.23-.85-.29-1.25-.66-2.34-2.17-6.37-7.43-5.44-10.65Z"/><path class="uuid-7740c11c-e1c2-4e62-ab4f-f4be13a5c014" d="M30.69,47.76c-.58-.02-.48.07-.88.29-.32.18-1.09.75-.88,1.18,0,0,.06.08-.15.15-.07.02-.2-.01-.29,0,.23-.78,1.02-1.91,2.2-1.91v.29Z"/><path class="uuid-7740c11c-e1c2-4e62-ab4f-f4be13a5c014" d="M28.78,49.37c.2-.06.14-.14.15-.15.32-.23.98-.98,1.25-1.03,2.19-.4,3.97,4.39,4.26,4.26.45-1.77,2.86-5.61,5-4.7.23.1,1.05,1.14,1.1,1.4.59,3.01-4,8.51-5.88,10.73.14.44.97-.67,1.03-.73,1.79-2,6.78-8.71,4.41-11.17-2.17-2.25-5.14,2.11-5.8,3.89-.98-1.73-2.12-4.19-4.48-3.82.4-.22.3-.31.88-.29,1.48.05,2.58,1.94,3.45,2.94.37-2.28,5.57-5.53,6.69-2.42,1.35,3.76-3.34,9.55-5.8,12.12-.72.13-6.35-7.36-6.54-8.45-.14-.82.04-1.79.29-2.57Z"/><path class="uuid-7740c11c-e1c2-4e62-ab4f-f4be13a5c014" d="M28.92,49.23c-.21-.43.57-1,.88-1.18,2.37-.37,3.5,2.09,4.48,3.82.66-1.79,3.64-6.14,5.8-3.89,2.38,2.46-2.62,9.17-4.41,11.17-.05.06-.89,1.17-1.03.73,1.88-2.22,6.47-7.72,5.88-10.73-.05-.25-.87-1.3-1.1-1.4-2.14-.9-4.54,2.94-5,4.7-.29.13-2.07-4.66-4.26-4.26-.27.05-.93.8-1.25,1.03Z"/><path class="uuid-7740c11c-e1c2-4e62-ab4f-f4be13a5c014" d="M14.74,96.11c6.03-.69,7.7,4.27,7.86,9.33.06,2.03-.79,2.17-2.57,2.42s-8.69.88-9.99.15c-4.07-2.3-1.07-11.24,4.7-11.9Z"/><path class="uuid-7740c11c-e1c2-4e62-ab4f-f4be13a5c014" d="M14.89,96.4c5.62-.62,7.2,4.01,7.42,8.74.05,1.02.07,1.62-.81,2.28-5.14-.49-13.57,4.13-12.86-4.48.28-3.4,2.82-6.16,6.25-6.54Z"/><path class="uuid-7740c11c-e1c2-4e62-ab4f-f4be13a5c014" d="M17.83,99.34c1.56-.24,2.62,1.2,2.28,2.72-.13.57-.64,1.17-1.18.59,2.46-1.04-.21-4.53-2.2-2.35.03-.45.77-.9,1.1-.96Z"/><path class="uuid-7740c11c-e1c2-4e62-ab4f-f4be13a5c014" d="M20.62,103.01c.28-.03.49-.03.66.22-2.48.12-.16,2.66-2.87,2.72-.58-1,.35-.22.59-.29,1.27-.4.83-2-.22-2.42,1.39.82,1.04-.13,1.84-.22Z"/><path class="uuid-7740c11c-e1c2-4e62-ab4f-f4be13a5c014" d="M15.03,99.63c1.62-.26,4.05,6.07.66,4.19,1.04,4.89-1.35,2.02-2.42,1.98-.4-.01-.78.57-.88.59-1.82.4-3.93-3.29-1.84-4.34-.05.68-.96,1.84-.37,2.42.19-1.22,1.02-2.22,2.06-2.79.33-.18,1.69-.38,1.76-.44.13-.11.24-1.49,1.03-1.62Z"/><path class="uuid-7740c11c-e1c2-4e62-ab4f-f4be13a5c014" d="M13.42,101.54c1.55-.07,3.05,4.49,1.91,4.85-.61.19-1.53-.85-1.91-.88-.62-.05-1.01.72-1.76.59-2.55-.45-.5-4.45,1.76-4.56Z"/><path class="uuid-7740c11c-e1c2-4e62-ab4f-f4be13a5c014" d="M15.03,99.93c1.28-.28,2.41,3.7,2.06,3.97-1.55.4-3.92-3.56-2.06-3.97Z"/></g></svg>