<svg width="164" height="240" viewBox="0 0 164 240" fill="none" xmlns="http://www.w3.org/2000/svg">
<path d="M60.3367 103.99C57.3268 99.1707 48.8076 89.4316 43.3395 87.7462C37.2847 85.8799 29.9634 88.7939 24.3493 91.6682C14.9397 96.4859 9.91516 107.871 6.37616 113.998C4.29986 117.592 3.18377 123.687 2.1166 129.631C1.60796 132.465 1.66054 135.558 1.20448 145.953C0.814693 154.837 1.04942 171.079 1.35042 180.645C1.86478 196.992 4.38776 202.365 6.35792 209.179C8.48096 216.523 11.6847 221.506 13.0483 223.323C17.5611 229.338 30.2005 231.226 39.1712 231.235C47.8932 231.244 53.0216 225.778 55.6165 222.289C59.9052 216.522 60.9387 205.152 62.1564 199.973C63.713 193.352 65.1892 184.836 66.5665 174.637C67.5963 167.011 67.0225 160.192 67.4786 151.742C69.0207 123.169 65.8094 118.895 64.9019 114.936C64.0423 111.187 61.8691 107.652 59.5842 104.004C59.0402 103.135 58.8226 102.186 58.6676 101.12C58.3402 98.8702 75.9703 97.6128 88.7445 96.7063C94.7862 96.2776 101.947 94.8797 110.152 94.1235C130.774 92.2228 136.316 96.0822 140.589 97.6082C144.314 98.9385 148.483 101.548 152.446 105.038C157.734 109.693 162.165 125.145 162.954 146.126C163.511 160.933 158.863 169.221 157.481 176.846C155.413 188.258 150.964 202.601 147.758 211.466C144.338 220.923 141.825 225.141 136.521 230.907C133.169 234.552 127.559 236.073 117.836 238.515C112.179 239.935 88.521 239.736 72.5225 237.923C69.5484 237.585 67.6427 235.791 65.9736 234.884C61.4606 232.433 61.2488 220.367 62.4574 213.488C64.1303 203.967 69.1477 197.244 71.273 192.53C74.9104 184.46 77.9587 170.223 80.2436 165.955C82.078 162.528 85.2556 159.582 90.2586 155.031C98.7804 147.28 101.364 143.784 106.526 139.539C110.292 136.442 113.54 134.975 113.394 133.909C112.724 129.016 102.932 140.414 98.9647 144.513C91.368 152.363 88.0102 164.082 87.5496 171.23C87.1264 177.797 87.992 187.442 90.5778 194.015C91.5223 196.416 94.9788 198.119 98.7686 200.091C102.519 202.043 106.836 201.171 110.175 200.415C117.162 198.832 123.546 186.95 126.155 179.629C129.357 170.645 127.231 156.867 121.321 142.459C118.73 136.145 112.655 133.162 108.391 131.326C105.83 130.223 102.914 130.711 100.488 132.068C94.4804 135.43 94.7051 141.926 91.8137 155.245C89.5039 165.886 92.5525 173.521 94.8283 175.644C95.8611 176.607 96.803 177.165 97.8702 177.325C103.196 178.12 107.146 168.711 109.582 163.531C112.571 157.174 112.327 153.505 111.876 150.777C111.662 149.488 110.521 148.649 109.454 148.185C107.329 147.26 105.039 148.021 103.521 148.927C102.005 149.832 101.993 152.266 101.988 153.933C101.977 158.15 110.777 159.545 113.992 162.292C114.342 162.591 114.753 161.404 114.457 160.639C114.16 159.873 113.257 159.272 112.491 159.413C111.725 159.555 111.123 160.457 110.964 160.47C110.066 160.547 111.415 157.45 113.07 155.628C119.741 148.286 135.641 148.686 143.024 142.272C147.478 138.403 142.445 125.618 139.549 118.439C135.807 109.162 136.042 104.309 136.644 102.332C137.859 98.3435 146.039 106.705 150.622 109.297C152.339 110.268 153.372 117.583 152.921 128.666C152.762 132.556 151.566 132.834 150.65 132.688C148.707 132.379 147.298 130.419 146.235 128.602C144.054 124.872 146.075 118.895 146.832 114.636C147.047 113.428 146.987 111.916 145.934 111.142C144.88 110.367 142.773 110.367 141.538 110.818C140.302 111.269 140.001 112.171 140.297 113.087C140.593 114.002 141.496 114.904 142.112 114.918C143.389 114.946 132.202 113.101 114.575 113.251C99.5935 113.379 86.8062 114.613 82.6972 113.715C80.8886 113.32 80.4123 110.677 77.2382 109.766C71.576 108.141 66.7306 110.058 65.513 111.57C64.9083 112.321 65.4993 113.684 66.2563 114.453C67.0134 115.223 68.2174 115.524 69.2891 115.528C73.5722 115.547 76.7456 112.499 78.2643 111.137C78.993 110.484 79.181 109.475 78.734 108.709C78.2871 107.944 77.0831 107.343 76.0114 107.183C74.9396 107.024 74.0367 107.325 73.12 107.78C72.2033 108.236 71.3003 108.837 70.8351 110.049C70.37 111.26 70.37 113.064 70.8215 114.294C71.273 115.524 72.1759 116.125 73.0926 115.984C74.0093 115.843 74.9123 114.941 75.528 113.875C76.1436 112.809 76.4446 111.606 76.1482 110.686C75.8518 109.766 74.9488 109.165 74.0321 109.005C73.1154 108.846 72.2124 109.147 71.8978 109.752C70.1694 113.08 74.6204 117.638 74.3285 128.087C74.0356 138.574 65.8276 143.147 62.9317 146.795C59.3786 151.272 51.2521 152.877 43.0385 152.886C35.127 152.895 31.1674 148.34 27.5144 145.151C24.1811 142.241 22.3381 137.425 21.271 131.203C19.9724 123.632 21.7179 117.064 23.3825 114.034C25.2945 110.555 28.4037 108.855 30.3738 107.794C32.4822 106.658 34.7885 107.024 36.6081 107.93C38.7239 108.984 39.6591 111.57 40.1152 113.993C40.3428 115.203 40.2703 116.417 39.8188 117.337C39.3673 118.257 38.4643 118.858 37.0961 119.168C35.7279 119.478 33.922 119.478 32.8411 119.027C29.1336 117.48 30.237 111.898 30.6885 109.625C30.9148 108.486 32.043 107.652 32.8092 107.639C33.5754 107.625 34.1773 108.527 34.4875 109.593C34.7976 110.659 34.7976 111.862 34.3461 112.782C33.8946 113.702 32.9916 114.303 32.2254 114.162C31.4592 114.021 30.8573 113.119 29.4936 114.007C21.2595 119.371 20.824 125.837 18.6897 132.961C16.7156 139.551 17.4674 153.077 18.375 162.579C19.0549 169.697 23.5239 178.04 25.6719 183.387C27.4853 187.902 28.1027 192.343 28.1118 199.923C25.9866 205.107 23.5604 208.742 18.5529 213.602C17.1756 214.527 15.9716 214.828 14.7311 215.137" stroke="#FFFDF9" stroke-width="0.426877" stroke-linecap="round"/>
<path d="M67.5567 99.0744C65.0146 94.4326 60.8102 86.4673 59.9931 82.8493C58.47 76.1051 59.176 72.2195 58.5963 67.6549C58.0496 63.3494 57.7792 50.7918 58.3554 34.2161C58.8998 18.555 63.1289 15.6491 66.0272 11.9119C70.583 6.03747 77.0688 5.59431 86.2387 4.42336C91.4455 3.75847 100.661 2.34088 109.212 1.62569C125.33 0.277799 133.897 1.37327 135.29 2.42152C138.535 4.86285 139.715 12.0872 141.464 17.7211C142.941 22.4757 142.746 27.7653 143.098 40.5932C143.209 44.6069 143.682 55.0409 143.566 69.4114C143.505 77.1147 142.522 81.7555 141.59 85.7381C141.152 87.6096 140.658 89.251 140.193 90.6498C137.974 97.3336 119.028 93.2266 111.14 94.3906C98.9544 96.1886 90.6107 99.0744 88.6412 99.3058C80.5942 100.251 73.8492 100.014 72.8016 98.9657C70.1868 96.3492 71.0487 86.5094 71.8588 81.5556C72.3837 78.3463 76.6219 77.5765 80.1138 76.7561C83.5377 75.9517 89.165 75.0102 94.3121 74.302C99.7436 73.5547 103.859 72.6683 107.236 72.3142C110.418 71.9805 114.098 70.8032 123.393 69.8636C125.331 69.6677 125.747 68.4753 125.984 67.5357C126.852 64.1004 126.92 61.2252 127.5 57.835C127.997 54.9292 129.239 51.1844 129.829 47.8994C130.346 45.0213 131.11 37.6659 130.416 32.358C130.181 30.5663 129.253 28.9643 127.632 27.9126C122.716 24.7215 118.553 26.8538 114.597 25.6899C110.959 24.6196 106.681 24.0491 103.884 23.4672C101.123 22.8929 91.8468 22.6468 79.7437 23.4566C75.4105 23.7466 75.0156 25.8862 74.7781 27.1834C74.0348 31.244 73.8423 36.8665 73.2626 44.4567C71.8803 62.5568 72.4455 66.7925 71.8658 71.1292C71.7251 72.1818 71.7471 73.3414 72.3232 73.9374C74.9003 76.6031 79.178 75.2346 82.7922 73.9549C86.1983 72.749 90.3523 71.2659 96.4003 71.1432C100.456 71.061 103.161 72.8927 105.148 75.2241C105.658 75.8233 105.731 76.6229 105.734 76.6334C106.456 78.8058 102.49 71.7427 99.2323 68.4718C94.1026 63.3217 90.8551 58.2102 88.6307 54.0943C86.9718 51.0248 87.3492 46.9774 87.227 43.1104C87.1778 41.554 88.5015 40.1831 89.8948 39.247C92.2887 37.6387 96.8613 43.6539 100.371 45.4348C103.879 47.2153 108.734 39.0261 113.864 36.9086C115.177 36.3663 116.877 36.6702 118.054 37.0173C119.231 37.3644 119.922 38.0585 120.278 39.4573C122.356 47.6176 116.919 55.3494 115.054 58.396C112.886 61.9382 109.237 65.4042 106.792 68.328C105.039 71.7217 104.572 74.0566 104.917 75.1119C105.263 75.2416 105.954 74.5474 106.667 73.8322" stroke="#FFFDF9" stroke-width="0.426877" stroke-linecap="round"/>
</svg>
