<svg width="1461" height="2216" viewBox="0 0 1461 2216" fill="none" xmlns="http://www.w3.org/2000/svg">
<path d="M147.117 1933.21C203.932 1924.94 243.262 1877.93 261.783 1825.58C271.712 1797.58 276.375 1767.49 275.684 1737.75C274.82 1701.85 265.452 1666.33 253.839 1632.61C227.547 1556.34 187.267 1485.53 169.308 1406.32C151.348 1327.12 151.262 1236.36 174.92 1156.11C184.807 1122.65 201.471 1087.22 231.907 1068.24C256.516 1052.89 291.312 1049.7 316.266 1066.05C322.483 1070.12 327.706 1075.41 331.851 1081.62C332.93 1083.24 335.477 1083.55 336.513 1081.62C349.077 1057.79 354.171 1027.44 341.565 1002.51C331.419 982.431 308.883 971.104 286.865 974.209C275.425 975.827 265.366 981.644 258.804 991.354C258.242 992.185 258.415 993.278 258.804 994.109C275.036 1027.96 335.995 1006.75 329.131 970.054C328.915 968.961 327.62 967.955 326.541 968.042C284.016 971.148 247.104 995.858 221.935 1029.89C195.082 1066.14 182.432 1110.88 184.375 1155.98C186.663 1208.94 206.609 1259.59 233.03 1304.77C257.983 1347.37 288.549 1388.83 327.059 1419.84C365.568 1450.84 409.215 1467.6 456.575 1458.59C504.712 1449.45 546.503 1417.21 579.745 1382.18C643.899 1314.52 679.818 1224.73 698.641 1134.02C708.269 1087.66 713.967 1040.29 716.169 993.016C716.99 975.127 715.91 952.953 702.959 939.22C687.589 922.907 666.305 931.348 648.605 938.039C638.546 941.844 628.012 945.343 617.348 941.976L618.557 946.524C639.841 929.38 670.968 951.947 675.069 975.302C680.595 1006.75 650.72 1032.86 624.644 1042.48L627.278 1043.18C611.65 1025.69 627.148 1000.19 643.942 990.479C669.457 975.696 701.448 991.966 724.717 1003.86C750.448 1017.03 776.61 1028.62 804.068 1037.5C831.525 1046.37 860.062 1053.02 888.642 1057.88C946.277 1067.67 1004.82 1070.6 1063.14 1071.65C1091.64 1072.18 1120.26 1072.92 1148.75 1072.05C1174.1 1071.26 1200.43 1068.15 1223.01 1055.56C1243.73 1043.97 1257.72 1024.11 1261 1000.23C1263.89 979.457 1257.5 957.589 1238.85 946.568L1238.21 951.554C1283.67 940.926 1333.01 959.557 1362.97 995.246C1392.94 1030.93 1397.64 1083.51 1378.17 1126.45C1367.38 1150.25 1349.98 1170.63 1327.4 1183.62L1331.37 1185.24C1320.41 1152.83 1326.23 1118.49 1327.23 1085.08C1328 1059.23 1324.42 1033.6 1310.82 1011.21C1299.6 992.709 1281.25 978.014 1258.89 978.845C1236.52 979.676 1218.17 996.689 1209.07 1016.85C1183.25 1074.01 1228.8 1126.67 1256.55 1172.6C1272.92 1199.71 1287.03 1231.29 1280.73 1263.79C1276.16 1287.36 1261.74 1306.91 1243.47 1321.74C1202.89 1354.71 1151.43 1363.15 1102.43 1375.27C1055.55 1386.86 1004 1404.18 977.706 1448.53C962.337 1474.46 958.753 1504.99 954.048 1534.25C949.601 1561.8 944.334 1589.62 925.122 1610.83C910.271 1627.23 886.786 1642.45 863.818 1637.51C834.634 1631.26 828.633 1598.19 827.424 1572.65C824.315 1506.7 831.05 1440.13 846.506 1376.01C854.191 1344.22 864.034 1312.99 875.993 1282.59C882.123 1267.02 888.858 1251.67 896.111 1236.58C902.673 1222.94 909.408 1209.12 917.826 1196.52C926.245 1183.92 936.693 1172.77 950.335 1166.34C962.639 1160.57 976.454 1158.95 989.881 1160.44C1018.46 1163.59 1043.28 1179.99 1061.16 1202.25C1080.11 1225.87 1091.68 1254.69 1101.44 1283.2C1112.71 1316.23 1122.12 1349.86 1129.72 1383.93C1144.01 1448.09 1152.68 1514.48 1151.73 1580.39C1150.91 1637.47 1142.15 1695.99 1116.63 1747.42C1104.59 1771.74 1088.83 1794.83 1068.93 1813.2C1051.79 1828.99 1031.41 1841.23 1009.78 1849.54C967.992 1865.55 918.862 1868.52 877.417 1849.72C857.342 1840.62 839.685 1826.32 827.165 1807.91C809.335 1781.75 801.78 1750.04 798.412 1718.82C791.893 1658.81 796.599 1597.36 810.241 1538.67C823.841 1479.97 846.722 1423.55 877.892 1372.21C893.477 1346.53 911.178 1322.13 930.778 1299.43C946.493 1281.28 961.473 1262.12 968.122 1238.42C973.216 1220.22 970.928 1200.46 952.666 1191.31C951.414 1190.7 949.687 1190.92 948.953 1192.28C925.899 1237.02 902.198 1286.53 902.932 1338.22C903.277 1361.62 909.537 1384.32 921.971 1404.09C932.98 1421.59 947.227 1436.59 959.962 1452.73C974.339 1470.88 987.118 1491.34 985.779 1515.53C985.65 1517.8 988.888 1519.29 990.399 1517.45C1024.2 1476.56 1017.38 1413.93 985.304 1374.13C968.338 1353.09 944.679 1340.32 917.999 1337.61C887.649 1334.51 858.162 1345.31 833.425 1362.63C775.876 1403 742.677 1468.95 713.752 1531.36C677.919 1608.73 647.137 1688.42 619.377 1769.11C591.618 1849.81 566.362 1932.68 541.97 2015.13C535.839 2035.81 529.709 2056.46 523.708 2077.19C521.161 2086.07 518.743 2095.65 521.506 2104.79C523.406 2111.17 527.507 2116.42 532.688 2120.44C545.121 2130.11 561.527 2132.56 576.551 2135.18C596.885 2138.77 617.305 2141.83 637.812 2144.37C721.134 2154.78 805.449 2156.66 889.117 2150.18C972.05 2143.76 1054.38 2129.19 1134.46 2106.45C1206.69 2085.94 1281.51 2060.79 1340.83 2012.63C1395.53 1968.24 1428.08 1905 1444.01 1836.73C1460.2 1767.41 1461.36 1695.42 1460.93 1624.56C1460.33 1534.16 1459.38 1443.72 1458.56 1353.31C1458.17 1307.83 1457.78 1262.34 1457.35 1216.86C1457 1178.06 1456.61 1139.14 1451.65 1100.61C1446.68 1062.07 1437.66 1026.78 1419.88 993.847C1405.37 966.949 1385.38 943.375 1361.51 924.656C1314.1 887.48 1254.4 870.38 1195.47 864.869C1130.71 858.79 1066.12 866.75 1003 881.401C919.769 900.732 837.915 927.98 752.866 938.389C710.945 943.506 668.248 944.381 626.458 937.558C599.13 933.097 569.298 925.881 542.099 934.89C531.004 938.564 521.204 945.649 516.11 956.54C508.295 973.291 513.649 991.354 520.427 1007.45C528.457 1026.47 536.659 1045.32 543.61 1064.83C550.561 1084.34 556.562 1103.67 561.915 1123.44C583.501 1203.21 593.345 1285.74 598.439 1368.14C600.986 1409.34 602.367 1450.58 603.36 1491.83C604.353 1533.07 605.778 1577.24 605.001 1619.88C604.224 1662.53 600.554 1708.54 589.632 1751.49C579.659 1790.67 563.728 1827.98 544.776 1863.54C525.866 1899.01 504.021 1932.82 481.572 1966.1C461.022 1996.54 440.817 2027.64 416.296 2055.06C393.846 2080.16 366.82 2102.86 334.009 2111.96C303.53 2120.4 271.539 2115.76 243.909 2100.63C216.279 2085.5 193.7 2061.71 175.266 2036.16C155.795 2009.14 140.123 1979.26 127.431 1948.43C96.0015 1872.02 72.2568 1791.94 54.9448 1711.12C37.2874 1628.72 26.7102 1544.79 23.386 1460.51C20.1049 1377.41 23.7313 1293.83 34.9129 1211.39C44.6698 1139.4 60.773 1067.94 86.2878 999.926C111.716 932.222 146.945 867.712 194.477 813.304C218.61 785.707 245.895 758.415 277.843 740.221C310.481 721.677 347.306 717.653 382.794 729.987C417.116 741.927 446.559 765.807 471.081 792.311C495.603 818.815 516.023 849.649 534.199 881.139C570.161 943.288 596.28 1010.86 613.42 1080.71C630.732 1151.12 639.021 1223.64 640.402 1296.11C641.784 1368.58 636.085 1444.72 624.903 1518.11C613.851 1590.67 597.575 1662.44 576.766 1732.77C557.598 1797.54 533.853 1861.35 501.517 1920.7C470.045 1978.43 429.852 2032.49 377.7 2072.68C351.451 2092.93 322.051 2110.08 290.837 2121.14C255.695 2133.61 213.861 2138.03 182.389 2113.88C167.106 2102.16 155.881 2085.89 145.649 2069.71C135.418 2053.53 125.186 2036.03 115.904 2018.63C97.2967 1983.81 81.1503 1947.69 67.4647 1910.6C40.0072 1836.25 22.2203 1758.31 12.9383 1679.54C3.48362 1599.07 2.96555 1517.76 9.65723 1437.07C16.8238 1350.73 32.1931 1265.23 53.1747 1181.3C73.8542 1098.55 99.6711 1016.9 129.546 937.077C154.543 870.38 188.951 800.008 258.415 772.105C326.282 744.813 404.294 761.608 469.181 789.555C539.984 820.083 603.231 866.006 674.724 895.222C712.456 910.661 751.7 919.976 792.368 922.688C835.54 925.575 878.799 922.119 921.798 918.183C1010.56 910.048 1099.41 902.569 1188.04 893.385C1204.75 891.635 1222.1 889.055 1236.83 880.264C1251.55 871.473 1260.44 857.215 1266.31 841.47C1273.18 823.057 1276.76 803.201 1280.9 784.045C1285.39 763.051 1289.45 741.971 1293.04 720.846C1307.58 635.648 1314.97 549.182 1315.18 462.716C1315.4 376.25 1308.4 289.74 1294.33 204.498C1290.79 182.98 1286.78 161.549 1282.29 140.206C1278.1 120.262 1274.51 99.5315 1266.7 80.6812C1253.27 48.404 1223.92 32.5715 1191.41 25.705C1174.05 22.0312 1156.31 20.5879 1138.65 19.1883C1117.67 17.5701 1096.65 16.4329 1075.62 15.8644C1032.88 14.6835 990.053 15.6894 947.399 18.8384C863.214 25.0489 779.589 39.6131 698.21 62.3995C635.394 79.9814 564.937 100.975 519.606 151.534C497.157 176.594 485.069 207.647 484.335 241.499C483.903 262.711 487.098 283.835 490.336 304.741C493.833 327.309 497.373 349.92 500.87 372.488C514.858 462.541 528.888 552.593 542.876 642.69C549.352 684.326 554.187 727.013 568.305 766.9C579.788 799.396 598.352 828.568 622.615 852.754C669.63 899.639 734.129 927.018 799.189 934.54C882.555 944.206 966.395 924.131 1044.19 895.003C1076.96 882.757 1112.4 870.292 1139.34 846.937C1152.16 835.828 1162.22 822.008 1167.92 805.869C1174.44 787.5 1175.3 767.6 1175.09 748.269C1174.57 703.614 1172.5 658.872 1171.12 614.217C1169.74 568.819 1168.35 523.378 1166.97 477.98C1165.59 432.582 1164.21 386.396 1162.78 340.648C1162.14 319.918 1161.92 299.099 1160.71 278.368C1159.76 261.967 1157.95 245.304 1152.64 229.69C1147.72 215.17 1139.56 201.786 1127.3 192.471C1112.62 181.274 1094.18 177.076 1076.35 174.276C1033.7 167.497 990.528 163.167 947.442 160.456C904.357 157.744 858.594 156.913 814.17 158.138C779.028 159.1 743.627 160.587 709.089 167.585C679.646 173.533 649.857 183.461 625.551 201.83C598.871 221.992 583.07 250.815 578.105 284.054C575.169 303.691 575.169 323.591 575.385 343.404C575.601 365.84 576.292 388.321 577.457 410.714C579.745 454.756 583.976 498.667 589.977 542.315C593.042 564.533 596.582 586.707 600.641 608.794C604.008 627.163 607.462 645.707 614.628 662.983C621.018 678.291 630.559 691.849 643.985 701.558C657.412 711.268 674.292 716.822 690.784 719.665C708.571 722.77 726.703 723.251 744.706 723.558C765.774 723.864 786.885 723.601 807.953 722.727C850.348 720.977 892.614 716.822 934.534 710.306C976.54 703.789 1018.24 694.911 1059.26 683.67C1079.94 678.028 1100.49 671.774 1120.82 664.908C1137.1 659.441 1154.11 653.974 1167.71 642.996C1181.31 632.018 1187.52 616.361 1189.68 599.347C1192.27 578.616 1191.11 557.229 1191.32 536.411C1191.71 490.794 1192.1 445.178 1192.44 399.561C1192.79 357.487 1194.56 315.15 1192.83 273.12C1191.45 239.181 1186.1 203.23 1165.46 175.326C1144.83 147.422 1113.05 133.646 1080.46 126.998C1043.33 119.431 1004.43 118.907 966.654 119.825C883.634 121.881 800.916 137.407 722.731 165.748C660.045 188.491 593.949 219.937 554.101 276.356C532.688 306.665 522.801 342.573 523.276 379.705C523.751 416.837 533.119 456.374 546.287 492.106C570.765 558.585 611.865 618.722 664.924 665.039C714.14 708.031 792.239 757.628 855.097 712.405C880.353 694.211 893.261 663.989 884.368 633.199C874.956 600.659 848.103 576.255 825.395 552.9C798.11 524.865 774.754 493.375 756.622 458.473C742.073 430.439 727.696 396.718 735.165 364.353C738.317 350.708 746.217 339.161 758.564 332.601C770.912 326.041 786.151 327.003 799.103 333.082C827.122 346.247 847.758 374.981 862.048 401.748C862.954 403.453 865.847 403.628 866.71 401.748C881.087 370.258 899.09 331.77 936.649 325.253C951.63 322.629 968.64 325.734 979.131 337.674C992.514 352.938 989.622 374.981 984.484 393C978.569 413.731 969.978 433.85 962.466 454.056C954.393 475.749 946.363 497.398 938.29 519.092C930.217 540.785 922.187 562.434 914.114 584.127C906.515 604.596 898.01 625.283 896.068 647.238C894.297 667.094 899.046 686.688 913.466 700.859C925.381 712.58 942.65 719.14 958.667 712.536C961.862 711.224 960.437 705.932 957.242 707.244C940.578 714.067 923.309 705.276 912.689 691.893C899.176 674.879 899.349 652.268 903.968 631.931C909.106 609.407 918.474 587.801 926.504 566.239C934.534 544.677 942.866 522.197 951.069 500.198C959.272 478.198 967.69 455.499 976.022 433.15C982.973 414.475 991.262 395.625 993.68 375.637C995.666 359.061 992.298 341.261 979.174 330.021C968.295 320.705 953.4 317.731 939.499 319.349C898.097 324.116 877.763 364.703 862.134 398.992H866.797C852.075 371.395 830.705 342.004 801.909 328.359C789.778 322.585 776.006 320.311 763.097 324.772C750.189 329.233 739.784 338.637 734.086 350.97C722.041 377.168 729.121 409.708 739.698 435.118C754.161 469.845 774.581 502.341 798.455 531.163C820.862 558.192 849.485 580.541 868.178 610.631C876.942 624.714 882.857 640.678 881.864 657.56C880.871 674.442 872.927 689.094 861.184 700.378C834.634 725.919 796.772 729.243 762.925 718.79C727.308 707.769 695.36 684.545 667.514 660.053C614.326 613.212 573.183 552.287 549.525 485.021C536.616 448.327 527.507 408.789 528.845 369.645C530.184 330.502 543.265 297.218 567.01 268.44C612.427 213.333 683.056 183.942 748.851 162.555C827.51 137.013 910.142 124.286 992.687 125.073C1029.25 125.423 1067.29 126.779 1102.34 138.325C1137.4 149.872 1163.35 172.133 1176.08 206.335C1188.82 240.537 1188.21 277.1 1187.91 312.614C1187.52 357.531 1187.18 402.404 1186.79 447.321C1186.4 492.238 1186.57 536.105 1185.67 580.497C1185.28 599.522 1183.25 619.903 1169.48 634.205C1156.74 647.457 1138.35 653.318 1121.47 659.003C1041.38 686.12 958.279 704.095 874.222 712.58C832.259 716.822 790.037 718.659 747.901 718.134C713.32 717.697 673.213 717.741 644.547 695.085C614.413 671.249 609.534 628.169 603.404 592.612C595.892 548.963 590.236 504.965 586.48 460.835C582.724 416.705 580.781 373.013 580.911 329.058C581.04 291.445 584.969 252.608 610.527 223.261C630.688 200.168 659.139 186.61 687.935 178.344C719.494 169.334 752.175 166.316 784.77 164.742C871.805 160.543 959.185 164.13 1045.62 175.37C1065.26 177.907 1085.81 179.787 1104.59 186.479C1121.69 192.558 1135.15 204.061 1143.27 220.505C1150.74 235.638 1153.5 252.826 1154.88 269.534C1156.53 289.171 1156.61 308.983 1157.17 328.708C1159.89 418.455 1162.61 508.201 1165.38 597.948C1166.76 642.996 1168.14 688.044 1169.48 733.136C1170.08 753.036 1170.69 773.329 1166.2 792.879C1162.01 811.205 1152.81 827.168 1139.21 839.939C1112.58 865 1075.36 877.727 1041.9 890.192C1002.75 904.8 962.553 916.959 921.41 924.262C847.369 937.471 769.832 933.797 701.059 900.907C671.054 886.562 643.252 867.143 620.413 842.651C595.676 816.147 578.493 784.394 568.391 749.449C556.648 708.731 551.942 665.914 545.423 624.058C538.559 579.928 531.695 535.799 524.83 491.669C517.966 447.539 510.972 402.666 504.065 358.187C500.654 336.187 497.071 314.188 493.833 292.145C490.595 270.102 488.22 248.934 490.638 227.328C498.323 157.7 560.965 117.157 619.939 93.6271C655.297 79.5003 692.338 69.1786 729.207 59.8191C769.703 49.5411 810.716 41.275 851.989 35.0208C935.656 22.381 1020.62 18.1824 1105.15 22.4685C1125.18 23.4744 1145.26 24.7865 1165.2 27.0171C1181.65 28.8977 1198.19 31.7843 1213.73 37.7324C1229.27 43.6805 1244.38 53.5649 1253.96 67.9978C1265.06 84.6612 1269.07 105.042 1273.35 124.33C1292.04 208.565 1303.53 294.419 1307.84 380.623C1312.16 466.39 1309.35 552.55 1299.47 637.835C1294.5 680.915 1287.68 723.82 1279.05 766.288C1275.03 786.013 1271.02 805.913 1265.71 825.331C1260.96 842.738 1254.01 860.67 1239.37 871.954C1224.74 883.238 1205.18 886.168 1187.18 888.005C1165.59 890.192 1144.01 892.029 1122.42 894.041C1078.21 898.152 1034 902.263 989.837 906.374C946.838 910.398 903.795 915.165 860.666 917.352C817.796 919.495 774.452 918.446 732.531 908.386C656.678 890.192 590.711 846.019 522.542 809.674C459.813 776.172 390.263 748.837 318.079 753.473C284.707 755.616 251.81 765.369 223.921 784.438C196.031 803.507 174.402 830.973 157.824 860.626C140.382 891.81 127.863 925.487 115.774 959.033C101.355 999.139 87.842 1039.59 75.4947 1080.4C50.8866 1161.57 30.8116 1244.24 17.4714 1328.08C4.82195 1409.95 -1.78338 1492.92 0.418395 1575.75C2.49066 1653.52 12.118 1731.24 30.5094 1806.81C48.728 1881.64 75.5811 1954.51 111.932 2022.26C121.085 2039.36 130.885 2056.11 141.246 2072.51C150.787 2087.6 161.148 2102.6 174.661 2114.36C202.421 2138.46 239.29 2140.65 273.525 2132.21C305.3 2124.38 335.607 2108.72 362.676 2090.44C389.745 2072.16 412.281 2051.87 433.349 2028.51C477.039 1980.05 509.979 1922.45 536.098 1862.66C563.21 1800.47 583.285 1735.35 599.907 1669.57C617.65 1599.28 630.904 1527.78 638.675 1455.66C646.446 1383.36 648.648 1310.36 643.381 1237.81C638.114 1165.25 626.155 1097.37 605.087 1029.97C584.019 962.575 554.058 898.196 514.858 839.721C477.902 784.657 424.541 726.488 355.552 718.134C320.022 713.804 286.477 726.357 257.724 746.913C228.885 767.556 203.457 793.798 180.921 821.22C136.411 875.409 103.298 938.345 79.1644 1004.26C54.4699 1071.65 38.8848 1142.33 29.4301 1213.49C18.6802 1294.31 15.0106 1376.14 18.0758 1457.58C21.141 1539.98 31.157 1622.16 47.8646 1702.85C64.6154 1783.63 88.1442 1863.01 118.321 1939.68C141.03 1997.46 173.15 2057.11 223.921 2094.29C247.19 2111.3 274.82 2122.06 303.789 2121.8C335.65 2121.49 365.007 2108.2 389.702 2088.39C416.08 2067.26 437.148 2040.01 456.575 2012.46C478.938 1980.79 500.654 1948.52 521.118 1915.54C541.581 1882.56 560.75 1847.62 575.601 1811.19C590.452 1774.75 600.857 1734.34 605.778 1693.93C611.002 1650.98 611.131 1607.59 610.398 1564.38C609.664 1521.17 608.8 1481.72 607.375 1440.44C604.526 1359.7 599.043 1278.74 584.537 1199.19C577.284 1159.48 567.787 1120.2 555.224 1081.84C549.05 1063.04 542.186 1044.49 534.544 1026.25C526.903 1008.02 513.519 986.455 518.657 965.768C525.953 936.202 561.656 934.978 585.962 936.99C602.152 938.345 617.953 941.976 634.013 944.206C654.001 946.961 674.163 948.142 694.324 947.924C777.387 947.093 858.292 924.219 938.117 903.313C1006.72 885.337 1075.32 868.718 1146.55 868.28C1206.95 867.887 1269.46 877.421 1323.39 906.287C1349.2 920.108 1372.56 938.433 1391.38 961.132C1414.31 988.686 1429.29 1021.79 1438.05 1056.56C1447.46 1093.87 1450.27 1132.49 1451.35 1170.85C1452.56 1213.49 1452.38 1256.13 1452.77 1298.77C1453.55 1388.65 1454.33 1478.53 1455.15 1568.41C1455.79 1642.71 1458 1717.72 1447.16 1791.46C1437.19 1859.38 1415 1927.13 1368.76 1978.83C1318.03 2035.51 1245.93 2065.69 1175.43 2088.47C1096 2114.1 1014.06 2131.64 931.21 2140.87C849.096 2150.01 766.119 2151.02 683.833 2143.84C662.765 2142.01 641.697 2139.64 620.759 2136.71C601.159 2133.96 581.256 2131.33 561.915 2126.92C547.625 2123.64 529.018 2117.21 526.212 2100.46C524.355 2089.61 529.234 2078.15 532.256 2067.92C535.278 2057.68 538.257 2047.54 541.236 2037.39C565.153 1956.21 589.459 1875.13 616.485 1794.96C643.683 1714.22 673.558 1634.32 708.398 1556.6C737.583 1491.56 768.796 1422.59 824.704 1376.36C848.621 1356.55 877.892 1342.12 909.365 1342.69C937.47 1343.21 962.855 1355.33 980.858 1377.15C1011.6 1414.46 1018.76 1474.9 986.729 1513.69L991.348 1515.62C993.593 1474.33 958.969 1444.94 936.304 1415.07C921.884 1396.04 911.739 1374.92 909.235 1350.82C906.731 1326.72 911.135 1300.92 918.431 1277.21C927.238 1248.65 940.189 1221.62 953.789 1195.12L950.076 1196.08C972.957 1207.5 965.531 1235.31 956.509 1253.94C944.377 1278.92 924.129 1297.99 907.465 1319.72C870.855 1367.44 842.146 1421.1 822.33 1478.09C802.384 1535.34 791.418 1595.92 790.512 1656.62C789.648 1713.39 793.577 1780.26 833.425 1824.39C863.602 1857.77 909.408 1870.58 952.968 1867.69C998.558 1864.68 1043.93 1845.74 1076.83 1813.33C1116.63 1774.19 1138.91 1719.43 1149.19 1665.02C1160.45 1605.32 1158.73 1543.83 1151.95 1483.69C1144.05 1413.84 1128.68 1344.74 1105.63 1278.39C1087.36 1225.78 1057.88 1167.87 998.558 1156.28C972.266 1151.17 945.672 1157.55 926.59 1177.1C916.531 1187.38 909.019 1199.89 902.284 1212.57C894.6 1227.09 887.563 1241.92 880.957 1257.01C854.32 1318.02 836.36 1382.75 827.597 1448.88C823.279 1481.55 821.207 1514.52 821.466 1547.5C821.682 1574.27 820.171 1607.94 839.296 1629.16C874.179 1667.78 930.562 1624.7 946.32 1588.31C958.192 1560.93 959.444 1529.83 965.186 1500.84C970.928 1471.84 981.894 1445.03 1004.17 1425.08C1043.8 1389.61 1100.23 1381.87 1149.79 1369.93C1195.29 1358.96 1246.97 1338.62 1273.31 1296.98C1287.55 1274.46 1290.88 1247.47 1284.4 1221.71C1276.59 1190.4 1257.5 1163.89 1240.28 1137.34C1223.05 1110.8 1206.09 1082.37 1206.78 1050.66C1207.3 1026.25 1219.82 998.789 1242.7 988.292C1265.58 977.795 1290.83 990.654 1304.35 1011.03C1320.02 1034.74 1322.91 1062.34 1321.74 1090.15C1320.36 1122.39 1315.66 1155.5 1326.28 1186.72C1326.84 1188.38 1328.65 1189.26 1330.25 1188.34C1372.3 1164.15 1397.38 1114.95 1395.66 1066.36C1393.84 1015.98 1361.07 973.159 1315.79 953.872C1290.92 943.244 1263.25 940.182 1236.87 946.349C1234.58 946.874 1234.28 950.198 1236.22 951.335C1254.4 962.05 1259.1 984.268 1255 1003.99C1250.21 1027.09 1235.23 1044.1 1214.38 1053.94C1189.77 1065.57 1161.62 1066.71 1134.9 1066.84C1105.88 1066.97 1076.83 1066.62 1047.82 1065.88C989.406 1064.44 930.778 1060.76 873.316 1049.57C844.865 1044.01 816.76 1036.58 789.432 1026.74C775.401 1021.66 761.543 1015.93 748.073 1009.5C734.604 1003.07 721.782 995.815 708.226 989.867C684.092 979.282 654.822 972.853 633.02 991.703C617.478 1005.17 608.109 1029.89 623.479 1047.07C624.083 1047.73 625.249 1048.08 626.112 1047.77C650.634 1038.72 674.638 1019.08 679.948 991.966C684.567 968.392 670.666 945.737 648.519 937.646C636.905 933.403 624.515 934.847 614.801 942.719C613.117 944.075 614.24 946.743 616.01 947.268C636.085 953.653 654.045 939.22 673.127 935.678C683.099 933.841 693.202 936.071 700.066 944.031C706.196 951.16 708.787 960.957 710.082 970.142C713.018 991.441 709.823 1014.01 707.837 1035.26C705.765 1057.88 702.915 1080.44 699.116 1102.84C684.265 1190.88 655.167 1279.14 600.166 1350.12C572.061 1386.42 536.789 1419.84 495.344 1439.82C472.722 1450.71 447.898 1456.92 422.771 1455.39C400.408 1453.99 378.822 1446.51 359.352 1435.45C318.511 1412.27 286.606 1375.23 260.056 1336.91C231.173 1295.28 206.738 1249.22 195.6 1199.23C185.411 1153.48 187.785 1105.68 208.292 1063.17C226.295 1025.82 257.077 992.972 296.666 979.589C306.379 976.308 316.395 974.34 326.584 973.597L323.994 971.585C329.779 1002.38 276.979 1019.43 263.553 991.441V994.196C277.929 972.897 310.61 976.221 327.577 992.36C350.847 1014.53 345.536 1053.15 331.98 1078.96H336.643C320.324 1054.6 290.276 1046.68 262.646 1051.18C230.569 1056.39 205.918 1078.78 189.858 1106.47C171.078 1138.88 162.659 1177.1 157.133 1213.93C150.744 1256.31 149.578 1299.43 153.679 1342.12C157.738 1384.06 166.847 1425.35 180.748 1465.06C194.65 1504.77 210.969 1539.98 226.64 1577.2C242.312 1614.42 256.99 1652.64 265.02 1692.53C271.453 1724.55 272.36 1756.95 266.229 1789.1C255.523 1845.21 223.359 1904.34 166.761 1923.15C159.939 1925.42 152.946 1927 145.865 1928.01C142.455 1928.49 143.879 1933.78 147.29 1933.3L147.117 1933.21Z" fill="#303030"/>
<path d="M183.069 1932.82C224.824 1888.76 249.084 1831.46 259.339 1771.76C269.595 1712.07 266.966 1647.74 255.935 1586.99C242.275 1511.66 217.671 1439.03 196.642 1365.67C186.085 1328.85 176.347 1291.77 169.323 1254.09C162.644 1218.49 154.801 1179.1 171.564 1145.13C185.266 1117.4 210.819 1096.87 238.656 1084.99C273.042 1070.32 311.349 1068.4 348.192 1069.27C357.499 1069.49 366.807 1069.93 376.158 1070.41C377.536 1070.49 378.958 1069.1 378.829 1067.7C375.683 1030.58 370.082 989.57 343.926 961.141C323.415 938.868 286.96 923.409 258.865 940.877C237.665 954.066 224.91 985.771 238.052 1008.87C251.195 1031.98 283.039 1029.18 300.706 1011.97C309.238 1003.68 314.84 992.016 313.288 979.875C312.987 977.474 312.771 973.849 310.746 972.277C308.074 970.268 302.645 969.7 299.456 969.132C291.528 967.691 283.427 967.56 275.455 968.608C240.896 973.237 212.758 997.824 197.159 1028.48C180.225 1061.76 175.571 1100.71 175.356 1137.7C175.14 1174.95 180.526 1212.25 190.739 1248.02C211.121 1319.37 250.635 1385.27 304.024 1436.24C331.516 1462.49 363.704 1485.06 401.107 1493.4C436.14 1501.18 472.982 1496.85 506.377 1484.28C577.606 1457.46 627.203 1395.89 659.995 1328.59C677.92 1291.82 691.839 1252.95 702.87 1213.52C714.504 1171.9 723.036 1129.06 727.044 1086C730.62 1047.35 729.414 1006.78 713.255 970.879C699.81 941.095 674.301 917.033 643.19 907.294C628.84 902.796 613.414 901.704 598.763 905.241C585.664 908.386 566.531 916.509 567.264 932.973C567.91 947.209 581.656 960.616 592.515 968.128C604.451 976.425 618.628 981.055 632.762 983.806C664.562 989.92 697.096 987.474 729.198 990.662C770.307 994.767 809.734 1008.7 847.87 1024.16C886.005 1039.62 921.942 1056.56 960.465 1068.48C993.171 1078.62 1027.6 1084.73 1061.9 1083.86C1094.35 1083.03 1127.23 1075.52 1154.8 1057.61C1187.04 1036.65 1204.49 1002.76 1229.13 974.329C1253.78 945.899 1292.05 924.151 1326.48 947.253C1340.14 956.424 1349.96 970.574 1357.42 985.16C1365.86 1001.71 1371.89 1019.92 1375.77 1038.13C1380.04 1058.13 1380.9 1081.28 1368.83 1098.79C1359.48 1112.33 1342.03 1122.94 1325.4 1118.23C1308.77 1113.51 1300.79 1096.83 1293.94 1082.55C1287.09 1068.27 1280.84 1055.43 1267.61 1046.6C1257.32 1039.75 1242.49 1035.34 1231.72 1043.64C1225.69 1048.26 1222.84 1055.47 1221.68 1062.85C1220.09 1072.89 1220.04 1083.38 1219.78 1093.55C1219.14 1116.87 1219.78 1140.24 1221.81 1163.51C1223.71 1185.3 1226.81 1206.97 1228.4 1228.76C1231.29 1268.41 1229.13 1311.6 1202.12 1343C1181.52 1366.93 1147.09 1384.4 1116.5 1369.33C1089.48 1356.06 1079.01 1325.75 1070.86 1298.59C1062.72 1271.42 1055.31 1240.02 1035.96 1216.97C995.024 1168.05 919.658 1165.04 866.829 1194.04C805.339 1227.75 767.635 1295.05 747.253 1360.56C726.871 1426.06 722.648 1502.49 735.834 1572.8C749.02 1643.11 779.183 1711.37 825.29 1765.96C848.774 1793.77 878.162 1814.56 914.918 1817.79C948.917 1820.76 983.648 1809.89 1011.74 1790.72C1075.39 1747.31 1102.92 1665.91 1116.41 1592.93C1124.38 1549.78 1127.35 1505.72 1125.11 1461.92C1123.39 1428.55 1118.18 1395.41 1107.83 1363.61C1089.09 1305.97 1052.38 1249.59 993.171 1229.41C932.586 1208.76 861.012 1235.4 827.014 1290.07C806.847 1322.52 801.892 1361.6 798.574 1399.03C795.041 1438.64 791.766 1477.6 778.063 1515.24C751.476 1588.35 700.715 1648.74 664.39 1716.69C626.47 1787.53 607.037 1866.44 598.332 1946.14C593.851 1987.06 592.084 2028.24 591.826 2069.38C591.696 2090.3 591.955 2111.26 592.429 2132.18C592.687 2142.44 592.946 2152.71 593.291 2162.93C593.592 2171.7 593.592 2180.74 596.092 2189.22C600.961 2205.59 615.094 2212.32 630.866 2214.11C649.222 2216.21 668.225 2215.24 686.668 2215.33C725.665 2215.51 764.662 2214.94 803.616 2213.24C880.231 2209.83 956.846 2201.97 1031.95 2185.85C1107.06 2169.74 1178.37 2145.72 1245.38 2110.04C1278.65 2092.31 1310.88 2072 1340.22 2048.2C1368.66 2025.14 1394.56 1997.81 1411.88 1965.1C1431.1 1928.89 1437.22 1887.97 1439.46 1847.4C1442 1801.9 1442.09 1756.17 1442.48 1710.58C1443.25 1617.65 1442.35 1524.72 1441.74 1431.78C1441.14 1339.11 1440.62 1246.4 1439.98 1153.73C1439.67 1112.85 1438.43 1070.89 1421.19 1033.11C1407.36 1002.72 1384.78 977.212 1358.36 957.385C1295.06 909.827 1215.26 898.866 1138.43 900.394C1093.96 901.267 1049.53 905.503 1005.19 908.953C959.129 912.535 913.066 916.116 867.002 919.697C821.283 923.234 775.607 926.815 729.888 930.352C718.253 931.269 706.576 932.23 694.941 933.06C684.212 933.846 673.224 934.37 662.71 931.619C643.793 926.64 630.607 910.788 617.249 897.424C565.454 845.456 496.811 814.318 426.013 799.819C389.429 792.308 351.898 788.902 314.581 789.469C275.196 790.081 234.993 796.195 200.434 816.414C168.418 835.149 143.081 863.448 121.794 893.625C98.6975 926.335 79.1775 961.752 63.234 998.523C30.9161 1073.03 13.3783 1153.82 12.2148 1235.22C10.9652 1323.83 27.9429 1411.3 46.5149 1497.47C55.9086 1540.92 65.7764 1584.28 74.1359 1628C81.9353 1668.7 87.9249 1709.75 95.6381 1750.5C109.987 1826.09 131.231 1904.66 182.853 1963.44C226.59 2013.27 292.174 2051 359.826 2042.09C431.701 2032.61 483.625 1972.56 510.643 1908.24C526.759 1869.85 535.937 1829.06 543.866 1788.27C552.527 1743.51 560.283 1698.53 567.178 1653.46C580.838 1563.98 591.093 1473.93 597.858 1383.62C604.71 1292.47 607.985 1201.11 607.726 1109.71C607.597 1063.85 606.563 1017.96 604.667 972.146C603.977 955.507 598.72 927.164 618.412 919.347C627.548 915.723 638.406 916.596 648.016 916.29C659.478 915.941 670.983 915.635 682.445 915.286C774.616 912.622 866.786 909.914 959 907.25C1004.89 905.897 1050.83 904.586 1096.72 903.233C1133.43 902.184 1177.38 906.028 1207.37 880.262C1232.45 858.732 1241.2 823.62 1246.8 792.221C1254.56 748.724 1260.59 704.878 1266.41 661.076C1278.47 569.891 1287.48 478.313 1293.38 386.516C1299.29 294.719 1302.09 202.704 1301.79 110.733C1301.79 99.5529 1301.79 88.3294 1301.53 77.1496C1301.31 67.5856 1300.66 57.7596 1297.43 48.7197C1291.96 33.3911 1279.55 23.2158 1265.03 17.1018C1248.14 9.9834 1229.48 7.53782 1211.47 5.09224C1189.28 2.1226 1166.95 0.506768 1144.55 0.113728C1055.65 -1.54577 967.489 15.1803 881.308 35.6184C793.058 56.5805 705.326 79.9446 617.421 102.348C595.273 107.981 573.167 113.615 551.019 119.249C539.6 122.175 528.181 125.057 516.762 127.983C507.713 130.297 498.319 132.132 489.615 135.713C483.151 138.377 477.076 142.22 473.284 148.29C468.371 156.194 469.018 165.846 469.707 174.755C471.517 197.9 473.327 221.046 475.136 244.192C482.419 337.124 489.701 430.012 497.026 522.944C504.352 615.877 509.135 702.607 532.361 789.426C541.453 823.445 553.604 857.727 575.236 885.851C586.051 899.914 599.28 911.967 614.664 920.614C631.943 930.352 651.118 935.855 670.293 940.222C756.302 959.699 845.112 968.652 933.189 968.608C973.134 968.608 1014.24 968.346 1053.5 959.961C1088.49 952.494 1121.06 936.423 1143.86 907.862C1166.65 879.301 1177.51 846.242 1185.35 812.266C1194.66 771.826 1200.09 730.164 1204.14 688.851C1212.93 599.5 1212.07 509.144 1201.56 419.968C1196.52 377.17 1189.45 334.504 1179.75 292.536C1171.87 258.254 1161.61 224.234 1146.06 192.66C1130.5 161.086 1111.02 134.839 1084.26 114.488C1055.09 92.3471 1019.76 81.08 983.82 77.1496C945.987 73.0008 907.722 76.3635 870.234 81.9971C826.884 88.5041 783.794 97.4567 741.307 108.331C719.934 113.79 698.69 119.729 677.619 126.367C661.331 131.476 645.172 137.285 629.918 145.058C614.664 152.832 601.09 162.177 590.016 174.755C578.252 188.074 570.582 204.32 566.704 221.745C562.524 240.48 562.179 259.87 562.74 278.998C563.343 301.226 564.549 323.455 565.497 345.64C567.436 391.756 569.203 437.917 571.401 484.033C573.383 525.739 576.873 568.493 592.429 607.579C604.796 638.586 624.488 666.317 649.007 688.633C673.525 710.949 702.396 727.675 733.637 737.457C764.877 747.239 797.712 750.951 828.35 741.999C842.397 737.894 856.1 730.775 865.795 719.377C875.965 707.455 881.135 691.602 879.886 675.881C877.085 640.638 849.636 611.16 827.143 586.53C814.13 572.293 801.246 558.1 789.87 542.422C778.494 526.744 768.281 510.018 759.405 492.637C741.781 458.136 729.543 420.841 723.166 382.498C719.934 363.064 718.081 343.238 718.339 323.542C718.598 303.846 721.614 281.487 734.8 265.678C745.874 252.402 763.972 243.318 781.122 248.864C791.852 252.358 799.436 260.656 804.391 270.613C814.259 290.614 815.595 314.153 820.636 335.683C825.29 355.509 833.176 376.384 852.48 385.73C854.118 386.516 855.841 385.861 856.445 384.114C874.456 330.573 930.69 294.632 986.104 300.658L983.432 297.951C983.82 344.33 976.624 390.534 962.016 434.467C954.777 456.215 945.427 476.828 935.386 497.397C925.993 516.612 916.47 536.177 911.644 557.183C907.248 576.267 907.507 596.312 916.34 614.086C925.174 631.86 940.256 643.913 956.371 653.477C988.732 672.649 1026.61 681.514 1063.97 680.379C1106.07 679.112 1147.69 665.225 1181.35 639.415C1184.06 637.319 1181.39 632.603 1178.63 634.699C1119.38 680.073 1034.88 688.065 968.523 653.958C951.545 645.224 934.697 633.782 924.269 617.274C913.152 599.631 912.204 578.581 916.771 558.624C921.339 538.666 930.819 518.927 939.997 500.148C949.175 481.37 957.966 462.329 964.947 442.502C981.192 396.211 989.207 347.124 988.776 297.994C988.776 296.422 987.526 295.418 986.104 295.287C928.277 289.042 870.018 327.079 851.274 382.76L855.238 381.144C834.382 371.1 828.263 346.906 823.997 325.857C819.731 304.807 817.706 280.57 805.641 261.966C791.292 239.868 763.498 236.506 742.47 251.441C712.867 272.491 711.574 312.624 713.599 345.771C718.081 418.265 743.935 489.274 786.767 547.488C808.011 576.354 835.373 600.111 855.497 629.808C864.89 643.695 873.379 659.591 874.499 676.71C875.62 693.83 869.372 708.983 857.565 720.163C834.985 741.518 799.867 743.615 770.781 740.034C738.721 736.103 707.782 724.181 680.721 706.451C653.66 688.72 630.176 665.007 613.155 637.188C593.334 604.871 584.199 567.926 580.062 530.412C575.494 488.575 575.063 446.171 573.254 404.159C571.444 362.147 568.858 318.258 567.953 275.329C567.178 238.252 571.444 199.909 599.194 172.92C623.497 149.294 657.022 138.246 688.564 128.725C729.069 116.497 770.091 106.235 811.544 97.8934C849.593 90.2509 888.116 83.4819 926.898 81.4294C962.835 79.5078 999.591 81.7351 1033.85 93.7883C1068.11 105.842 1094.43 126.105 1115.63 153.618C1158.25 208.905 1173.59 281.705 1185.61 349.221C1200.61 433.593 1206.73 519.538 1204.06 605.221C1202.72 647.931 1199.23 690.598 1193.5 732.915C1188.5 769.774 1182.9 807.156 1171.31 842.573C1160.75 874.89 1143.94 906.333 1116.54 927.033C1087.45 949 1050.83 956.817 1015.36 960.092C974.944 963.848 933.964 963.848 893.416 962.538C851.058 961.184 808.786 957.647 766.816 951.882C745.53 948.956 724.329 945.506 703.258 941.445C683.781 937.733 664.088 933.977 645.172 927.819C626.255 921.662 610.139 913.321 595.919 900.481C583.595 889.302 573.598 875.763 565.454 861.221C547.399 828.992 537.704 792.395 529.861 756.41C520.769 714.661 515.297 672.212 511.203 629.72C502.801 542.946 497.113 455.822 490.261 368.873C486.814 324.765 483.324 280.657 479.876 236.549C478.153 214.626 476.171 192.747 474.749 170.824C474.102 160.78 475.18 151.041 483.841 144.84C490.563 140.036 498.836 138.114 506.679 136.106C590.705 114.663 674.775 93.2642 758.801 71.8654C841.277 50.8596 923.709 28.5436 1007.86 15.617C1049.96 9.15365 1092.54 5.17958 1135.11 5.39793C1155.75 5.48528 1176.39 6.53338 1196.9 8.76061C1215.91 10.8132 1235.51 13.0841 1253.83 18.805C1270.03 23.8708 1286.01 33.0854 1292.09 50.0735C1295.36 59.2881 1295.88 69.2015 1296.05 78.9401C1296.23 89.5085 1296.27 100.077 1296.31 110.602C1296.44 154.273 1295.92 197.944 1294.68 241.615C1292.18 328.564 1286.92 415.426 1278.86 502.026C1270.76 589.106 1259.9 675.881 1246.24 762.262C1241.03 795.278 1236.89 831.481 1217.97 859.867C1208.19 874.541 1194.32 885.153 1177.6 890.437C1159.5 896.158 1140.24 896.376 1121.45 896.944C1034.67 899.477 947.84 901.966 861.055 904.499C817.275 905.766 773.538 907.032 729.758 908.298C707.868 908.954 685.978 909.565 664.132 910.22C653.79 910.526 643.405 910.613 633.106 911.137C625.35 911.53 617.163 912.578 610.656 917.207C598.203 926.073 598.031 943.148 598.634 957.035C599.582 978.696 600.444 1000.36 601.047 1022.06C602.254 1065.43 602.641 1108.79 602.254 1152.2C601.435 1238.58 597.47 1324.96 590.317 1411.08C583.164 1497.2 572.78 1583.93 559.206 1669.75C552.527 1712.07 545.202 1754.34 536.799 1796.35C528.957 1835.61 519.606 1874.96 503.318 1911.64C475.74 1973.79 423.471 2031.21 352.889 2037.28C286.917 2042.96 224.436 2004.44 182.896 1955.1C134.118 1897.1 114.253 1820.28 100.464 1747.05C93.2251 1708.66 87.5371 1669.97 80.2979 1631.58C72.4554 1589.92 63.1479 1548.56 54.1419 1507.16C36.2163 1424.8 19.1955 1341.52 17.6442 1256.88C16.1792 1178.1 29.7096 1099.62 57.7184 1026.08C71.5505 989.876 88.8298 955.027 109.255 922.186C128.559 891.223 150.579 861.265 178.803 838.075C209.354 812.964 245.981 800.3 284.849 796.457C321.217 792.876 358.533 794.754 394.686 799.863C463.89 809.602 532.619 833.97 587.861 878.253C601.65 889.301 613.716 901.922 626.298 914.238C638.88 926.553 652.195 936.161 669.604 938.388C679.342 939.654 689.124 938.912 698.862 938.169C709.937 937.296 721.011 936.466 732.085 935.593C753.846 933.89 775.65 932.187 797.411 930.527C883.678 923.802 969.988 917.033 1056.26 910.395C1135.71 904.281 1219.57 898.647 1295.41 928.562C1357.42 953.018 1412.18 1001.45 1427.65 1069.1C1437 1109.93 1434.63 1153.08 1434.89 1194.69C1435.15 1238.93 1435.45 1283.13 1435.71 1327.37C1436.27 1415.36 1437 1503.32 1437.31 1591.31C1437.48 1635.38 1437.43 1679.49 1437 1723.55C1436.57 1767.62 1436.49 1808.84 1433.9 1851.33C1431.44 1891.42 1424.68 1931.56 1404.77 1966.84C1387.23 1997.94 1361.98 2023.83 1334.4 2045.89C1277.83 2091.22 1211.42 2124.58 1143.6 2148.69C1074.61 2173.19 1002.65 2188.26 930.172 2197.3C857.694 2206.34 783.665 2209.52 710.238 2209.79C691.882 2209.83 673.568 2209.74 655.212 2209.48C639.699 2209.26 618.8 2211.18 607.209 2198.47C600.702 2191.36 599.582 2181.05 599.108 2171.84C598.634 2162.62 598.462 2153.06 598.203 2143.67C597.686 2124.06 597.298 2104.45 597.255 2084.8C597.083 2006.71 601.65 1927.98 619.791 1851.86C628.754 1814.26 641.035 1777.4 657.496 1742.46C673.956 1707.52 692.916 1677.96 712.651 1647C732.387 1616.03 751.907 1585.73 767.85 1552.97C783.794 1520.22 794.222 1487.47 798.876 1452.05C803.831 1414.32 803.745 1375.71 813.052 1338.63C821.498 1305.09 838.907 1275.53 866.959 1255.22C892.425 1236.79 923.752 1226.7 955.079 1227.8C985.285 1228.84 1014.37 1241.16 1037.51 1260.68C1083.62 1299.55 1106.59 1361.26 1115.68 1419.77C1121.62 1458.21 1121.84 1497.86 1118.61 1536.55C1115.2 1577.6 1107.4 1618.61 1094.65 1657.74C1072.72 1724.95 1030.14 1791.11 958.267 1808.71C925.002 1816.83 889.797 1812.51 861.357 1792.51C832.917 1772.51 810.252 1740.02 792.326 1709.49C757.552 1650.23 737.859 1582.19 734.111 1513.41C730.362 1444.62 742.427 1374.75 771.599 1312.47C799.263 1253.43 846.792 1194.87 913.626 1182.9C943.143 1177.62 974.987 1181.55 1001.53 1195.96C1014.59 1203.03 1026.35 1212.73 1035.31 1224.7C1044.28 1236.66 1049.66 1249.46 1054.32 1262.95C1063.49 1289.42 1068.45 1318.02 1082.33 1342.65C1096.2 1367.28 1119.17 1382.7 1146.66 1380.12C1174.15 1377.54 1200.74 1357.37 1215.91 1333.35C1236.03 1301.51 1236.42 1261.07 1233.49 1224.65C1231.81 1203.86 1228.88 1183.21 1227.15 1162.42C1225.43 1141.63 1224.65 1119.4 1225.13 1097.87C1225.34 1087.18 1225.43 1076.26 1226.81 1065.65C1227.88 1057.3 1231.12 1048.48 1239.65 1045.56C1253.31 1040.88 1269.04 1052.19 1277.05 1062.5C1286.49 1074.64 1290.62 1090.36 1299.07 1103.2C1306.48 1114.51 1317.25 1123.64 1331.09 1124.69C1344.92 1125.74 1359.01 1118.31 1368.45 1108.01C1379.91 1095.52 1384.3 1078.83 1384.17 1062.06C1384 1043.15 1378.79 1024.33 1372.54 1006.69C1367.46 992.365 1361.08 978.303 1352.37 965.857C1334.62 940.528 1306.61 925.505 1275.89 934.982C1241.2 945.637 1219.91 976.731 1199.4 1004.77C1188.67 1019.44 1177.34 1033.77 1163.12 1045.16C1150.41 1055.34 1135.84 1063.11 1120.55 1068.4C1056.56 1090.63 986.147 1073.86 925.131 1050.1C888.762 1035.91 853.299 1019.4 816.5 1006.25C779.7 993.108 745.831 985.465 708.687 983.893C678.739 982.627 647.542 983.893 618.671 974.635C605.097 970.311 592.429 963.149 582.992 952.144C577.433 945.637 569.893 935.462 574.158 926.509C577.821 918.736 587.258 914.674 594.885 912.142C625.135 902.141 658.228 914.587 681.152 935.244C708.472 959.83 720.149 996.208 722.864 1032.28C725.88 1071.85 719.891 1112.07 712.436 1150.8C704.507 1192.07 693.131 1232.64 678.524 1271.95C653.143 1340.29 616.086 1409.25 555.759 1452.05C526.63 1472.7 492.416 1486.98 456.909 1490.83C421.403 1494.67 385.551 1487.12 354.354 1468.42C323.156 1449.73 296.095 1422.74 273.085 1394.31C250.678 1366.67 231.847 1335.97 217.11 1303.48C187.55 1238.23 174.278 1163.99 184.189 1092.59C188.8 1059.49 199.572 1024.9 223.703 1000.97C245.766 979.046 278.859 966.818 309.022 977.299L307.126 975.377C313.504 996.121 295.406 1015.07 276.532 1019.7C254.987 1025.03 237.794 1008.17 238.569 986.47C239.345 964.765 255.504 943.89 277.179 939.873C303.205 935.069 329.49 950.354 345.175 970.573C366.29 997.737 370.944 1034.38 373.788 1067.7L376.459 1064.99C309.97 1061.58 234.002 1062.46 185.396 1116.04C175.787 1126.65 167.944 1138.93 162.902 1152.42C156.697 1168.97 155.62 1186.75 156.956 1204.26C159.843 1242.25 168.806 1280.25 178.156 1317.06C197.246 1392.13 223.014 1465.28 240.939 1540.61C256.323 1605.29 264.941 1671.71 258.693 1738.27C252.875 1800.46 233.657 1862.73 194.531 1911.86C189.791 1917.8 184.792 1923.52 179.578 1929.02C177.165 1931.56 181 1935.44 183.37 1932.87L183.069 1932.82Z" fill="#303030"/>
</svg>
