<svg width="368" height="857" viewBox="0 0 368 857" fill="none" xmlns="http://www.w3.org/2000/svg">
<path d="M-1.19359 370.366C-11.9886 353.081 -42.5418 318.153 -62.1527 312.108C-83.8677 305.415 -110.125 315.866 -130.259 326.174C-164.006 343.453 -182.027 384.285 -194.719 406.258C-202.165 419.15 -206.168 441.007 -209.995 462.326C-211.82 472.488 -211.631 483.581 -213.267 520.861C-214.665 552.725 -213.823 610.976 -212.743 645.283C-210.899 703.91 -201.85 723.178 -194.784 747.618C-187.17 773.954 -175.68 791.825 -170.79 798.344C-154.605 819.916 -109.275 826.688 -77.1022 826.721C-45.8215 826.753 -27.4288 807.15 -18.1221 794.635C-2.74105 773.953 0.965409 733.176 5.33248 714.601C10.9153 690.855 16.2093 660.313 21.1488 623.735C24.8423 596.384 22.7844 571.931 24.42 541.626C29.9508 439.15 18.4337 423.82 15.1789 409.623C12.0962 396.178 4.30205 383.501 -3.89235 370.415C-5.84341 367.299 -6.62381 363.896 -7.17991 360.074C-8.35385 352.004 54.8751 347.494 100.688 344.243C122.357 342.705 148.039 337.692 177.464 334.98C251.425 328.163 271.299 342.005 286.624 347.478C299.985 352.249 314.937 361.609 329.15 374.123C348.112 390.818 364.005 446.234 366.835 521.482C368.832 574.586 352.163 604.31 347.207 631.658C339.791 672.586 323.835 724.027 312.336 755.819C300.069 789.738 291.057 804.862 272.035 825.545C260.014 838.615 239.895 844.071 205.024 852.828C184.735 857.922 99.887 857.206 42.5099 850.704C31.8435 849.495 25.0089 843.058 19.0225 839.807C2.8372 831.017 2.07762 787.741 6.41199 763.073C12.4118 728.925 30.4064 704.815 38.0283 687.906C51.0736 658.966 62.0063 607.905 70.2007 592.597C76.7797 580.307 88.1761 569.741 106.119 553.421C136.681 525.621 145.946 513.085 164.461 497.859C177.968 486.752 189.617 481.489 189.093 477.667C186.691 460.119 151.572 500.996 137.342 515.699C110.098 543.85 98.0552 585.882 96.4032 611.515C94.8853 635.068 97.9897 669.658 107.264 693.232C110.651 701.843 123.047 707.952 136.639 715.026C150.089 722.026 165.573 718.898 177.546 716.186C202.607 710.509 225.502 667.894 234.857 641.64C246.34 609.418 238.718 560.005 217.52 508.331C208.231 485.686 186.443 474.987 171.151 468.404C161.964 464.449 151.507 466.198 142.805 471.067C121.26 483.121 122.066 506.42 111.696 554.189C103.412 592.35 114.346 619.732 122.508 627.345C126.212 630.801 129.59 632.802 133.417 633.374C152.516 636.227 166.685 602.481 175.419 583.906C186.139 561.107 185.266 547.948 183.647 538.162C182.882 533.542 178.789 530.533 174.961 528.867C167.34 525.548 159.129 528.278 153.682 531.529C148.245 534.775 148.203 543.504 148.187 549.484C148.145 564.607 179.705 569.611 191.236 579.462C192.492 580.535 193.967 576.276 192.904 573.532C191.841 570.787 188.602 568.631 185.855 569.137C183.107 569.643 180.948 572.878 180.375 572.927C177.158 573.203 181.995 562.096 187.932 555.561C211.854 529.231 268.878 530.664 295.359 507.661C311.332 493.786 293.281 447.933 282.895 422.187C269.473 388.913 270.317 371.509 272.476 364.419C276.832 350.115 306.17 380.103 322.608 389.398C328.764 392.88 332.471 419.115 330.851 458.863C330.283 472.815 325.994 473.811 322.706 473.288C315.738 472.18 310.684 465.153 306.873 458.634C299.053 445.258 306.301 423.82 309.016 408.545C309.786 404.216 309.572 398.792 305.794 396.015C302.016 393.237 294.459 393.237 290.027 394.855C285.594 396.472 284.515 399.707 285.578 402.991C286.641 406.274 289.879 409.509 292.087 409.558C296.667 409.66 256.546 403.04 193.329 403.579C139.598 404.037 93.7371 408.463 79.0003 405.245C72.514 403.829 70.8059 394.348 59.4221 391.081C39.1152 385.253 21.7377 392.127 17.3706 397.55C15.2019 400.244 17.3215 405.131 20.0366 407.892C22.7517 410.653 27.0697 411.731 30.9134 411.747C46.2743 411.813 57.6556 400.883 63.1022 395.998C65.7156 393.655 66.3898 390.035 64.7869 387.291C63.184 384.546 58.866 382.39 55.0223 381.818C51.1786 381.246 47.9401 382.324 44.6525 383.958C41.3649 385.592 38.1265 387.748 36.4581 392.094C34.7898 396.44 34.7898 402.909 36.4091 407.32C38.0283 411.731 41.2668 413.887 44.5544 413.381C47.842 412.874 51.0805 409.64 53.2885 405.817C55.4966 401.994 56.5761 397.681 55.513 394.381C54.4498 391.081 51.2113 388.925 47.9237 388.353C44.6362 387.781 41.3977 388.859 40.2691 391.032C34.0707 402.966 50.0337 419.311 48.9869 456.788C47.9364 494.398 18.4992 510.798 8.11303 523.884C-4.62996 539.939 -33.7749 545.694 -63.2322 545.726C-91.6061 545.758 -105.807 529.422 -118.908 517.986C-130.863 507.551 -137.473 490.279 -141.3 467.963C-145.957 440.808 -139.697 417.253 -133.727 406.389C-126.87 393.91 -115.719 387.814 -108.653 384.007C-101.092 379.934 -92.8204 381.246 -86.2943 384.497C-78.7063 388.277 -75.3521 397.55 -73.7165 406.242C-72.9002 410.579 -73.1604 414.933 -74.7796 418.233C-76.3989 421.533 -79.6374 423.689 -84.5442 424.8C-89.451 425.911 -95.9281 425.911 -99.8044 424.294C-113.101 418.746 -109.144 398.727 -107.525 390.575C-106.713 386.488 -102.667 383.501 -99.9189 383.452C-97.1711 383.403 -95.0121 386.637 -93.8999 390.46C-92.7877 394.283 -92.7877 398.596 -94.4069 401.896C-96.0262 405.196 -99.2647 407.353 -102.013 406.846C-104.76 406.34 -106.919 403.105 -111.81 406.291C-141.341 425.527 -142.903 448.718 -150.557 474.269C-157.637 497.901 -154.941 546.412 -151.686 580.491C-149.248 606.02 -133.22 635.939 -125.516 655.118C-119.013 671.31 -116.798 687.237 -116.766 714.421C-124.388 733.013 -133.089 746.049 -151.048 763.481C-155.988 766.797 -160.306 767.876 -164.754 768.986" stroke="#303030" stroke-width="1.53096" stroke-linecap="round"/>
<path d="M24.7004 352.736C15.5832 336.089 0.504682 307.522 -2.42585 294.546C-7.88853 270.358 -5.35639 256.423 -7.43531 240.053C-9.39625 224.611 -10.3658 179.574 -8.29945 120.127C-6.34706 63.9595 8.82039 53.5378 19.215 40.1345C35.5539 19.0665 58.8148 17.4771 91.7019 13.2776C110.376 10.893 143.425 5.80897 174.095 3.24399C231.898 -1.59012 262.625 2.3387 267.622 6.09816C279.259 14.8538 283.489 40.7632 289.763 60.9687C295.059 78.0208 294.36 96.9917 295.625 142.998C296.02 157.393 297.716 194.813 297.303 246.352C297.081 273.979 293.558 290.623 290.214 304.906C288.643 311.618 286.87 317.505 285.205 322.522C277.246 346.493 209.299 331.763 181.008 335.938C137.306 342.386 107.382 352.736 100.318 353.566C71.4582 356.956 47.268 356.106 43.5109 352.346C34.133 342.962 37.224 307.673 40.1295 289.906C42.0118 278.396 57.2118 275.635 69.7354 272.693C82.0148 269.808 102.197 266.432 120.657 263.892C140.136 261.212 154.896 258.033 167.007 256.763C178.421 255.566 191.616 251.343 224.954 247.974C231.905 247.271 233.395 242.995 234.246 239.625C237.36 227.305 237.602 216.993 239.681 204.834C241.463 194.413 245.918 180.982 248.035 169.201C249.889 158.879 252.631 132.499 250.139 113.463C249.297 107.037 245.968 101.292 240.157 97.5198C222.526 86.0751 207.596 93.7226 193.406 89.5482C180.36 85.7099 165.015 83.6638 154.984 81.5766C145.085 79.517 111.815 78.6344 68.4079 81.5389C52.8675 82.5788 51.4509 90.2523 50.5993 94.9045C47.9334 109.468 47.243 129.632 45.164 156.854C40.2065 221.768 42.2335 236.959 40.1546 252.513C39.65 256.288 39.7288 260.447 41.7952 262.584C51.0376 272.145 66.3791 267.236 79.3411 262.647C91.5569 258.322 106.455 253.003 128.146 252.563C142.69 252.268 152.392 258.837 159.517 267.199C161.349 269.348 161.609 272.215 161.621 272.253C164.208 280.044 149.987 254.713 138.302 242.982C119.905 224.512 108.258 206.18 100.281 191.418C94.3311 180.41 95.6844 165.894 95.2461 152.026C95.0697 146.444 99.8172 141.527 104.814 138.17C113.4 132.402 129.799 153.975 142.385 160.362C154.968 166.747 172.379 137.378 190.777 129.783C195.488 127.839 201.584 128.928 205.805 130.173C210.025 131.418 212.505 133.907 213.782 138.924C221.234 168.19 201.735 195.92 195.047 206.846C187.272 219.55 174.183 231.98 165.416 242.467C159.129 254.638 157.451 263.012 158.691 266.796C159.931 267.261 162.41 264.772 164.965 262.207" stroke="#303030" stroke-width="1.53096" stroke-linecap="round"/>
</svg>
