<svg width="1244" height="1862" viewBox="0 0 1244 1862" fill="none" xmlns="http://www.w3.org/2000/svg">
<path d="M125.205 1624.09C173.558 1617.14 207.03 1577.64 222.792 1533.66C231.243 1510.15 235.211 1484.87 234.623 1459.88C233.888 1429.72 225.915 1399.88 216.032 1371.55C193.656 1307.47 159.375 1247.99 144.091 1181.45C128.806 1114.91 128.733 1038.67 148.867 971.243C157.281 943.135 171.464 913.374 197.367 897.427C218.31 884.531 247.924 881.848 269.161 895.59C274.451 899.007 278.897 903.453 282.424 908.671C283.343 910.03 285.511 910.287 286.393 908.671C297.085 888.646 301.42 863.147 290.691 842.203C282.057 825.338 262.878 815.822 244.139 818.431C234.403 819.79 225.842 824.677 220.257 832.834C219.779 833.532 219.926 834.451 220.257 835.149C234.072 863.587 285.952 845.767 280.11 814.94C279.926 814.022 278.824 813.177 277.905 813.25C241.714 815.859 210.3 836.618 188.879 865.204C166.026 895.664 155.26 933.251 156.914 971.133C158.861 1015.63 175.836 1058.18 198.322 1096.13C219.559 1131.92 245.572 1166.75 278.346 1192.8C311.12 1218.85 348.266 1232.92 388.572 1225.35C429.539 1217.68 465.106 1190.6 493.397 1161.17C547.996 1104.32 578.565 1028.89 594.585 952.688C602.778 913.741 607.628 873.949 609.502 834.23C610.2 819.202 609.281 800.574 598.259 789.037C585.179 775.332 567.065 782.423 552.001 788.045C543.44 791.241 534.475 794.181 525.399 791.352L526.428 795.173C544.542 780.77 571.033 799.729 574.523 819.349C579.226 845.767 553.801 867.703 531.609 875.786L533.85 876.374C520.549 861.677 533.74 840.256 548.032 832.099C569.747 819.68 596.973 833.348 616.777 843.342C638.675 854.402 660.941 864.139 684.309 871.597C707.676 879.056 731.963 884.641 756.286 888.719C805.337 896.95 855.159 899.411 904.797 900.293C929.047 900.734 953.407 901.359 977.657 900.624C999.224 899.963 1021.64 897.354 1040.85 886.772C1058.49 877.035 1070.39 860.354 1073.19 840.293C1075.65 822.84 1070.21 804.469 1054.34 795.21L1053.79 799.398C1092.48 790.47 1134.47 806.122 1159.97 836.104C1185.47 866.086 1189.47 910.251 1172.9 946.332C1163.72 966.32 1148.91 983.442 1129.7 994.354L1133.08 995.714C1123.74 968.487 1128.7 939.645 1129.55 911.573C1130.21 889.858 1127.16 868.327 1115.59 849.515C1106.03 833.973 1090.42 821.627 1071.39 822.326C1052.35 823.024 1036.74 837.316 1028.99 854.255C1007.01 902.277 1045.78 946.515 1069.4 985.095C1083.33 1007.88 1095.34 1034.4 1089.98 1061.7C1086.08 1081.51 1073.81 1097.93 1058.27 1110.39C1023.73 1138.09 979.935 1145.18 938.233 1155.36C898.331 1165.1 854.461 1179.65 832.085 1216.9C819.005 1238.69 815.955 1264.34 811.95 1288.92C808.166 1312.07 803.683 1335.44 787.333 1353.26C774.694 1367.03 754.706 1379.82 735.159 1375.67C710.322 1370.41 705.215 1342.64 704.186 1321.18C701.541 1265.77 707.272 1209.85 720.426 1155.98C726.966 1129.27 735.343 1103.04 745.521 1077.5C750.738 1064.42 756.47 1051.53 762.643 1038.85C768.227 1027.39 773.959 1015.78 781.124 1005.19C788.288 994.611 797.18 985.242 808.791 979.841C819.262 974.991 831.019 973.631 842.446 974.881C866.769 977.526 887.896 991.305 903.107 1010.01C919.237 1029.85 929.084 1054.06 937.388 1078.02C946.977 1105.76 954.987 1134.01 961.454 1162.64C973.615 1216.54 981 1272.31 980.192 1327.68C979.494 1375.63 972.035 1424.79 950.321 1468C940.07 1488.43 926.659 1507.83 909.721 1523.26C895.134 1536.53 877.792 1546.82 859.384 1553.8C823.818 1567.24 782.006 1569.74 746.733 1553.94C729.648 1546.3 714.621 1534.29 703.966 1518.82C688.791 1496.85 682.361 1470.21 679.495 1443.97C673.947 1393.56 677.952 1341.94 689.563 1292.63C701.136 1243.32 720.61 1195.92 747.137 1152.79C760.401 1131.22 775.466 1110.72 792.146 1091.65C805.52 1076.4 818.27 1060.31 823.928 1040.39C828.264 1025.11 826.316 1008.5 810.775 1000.82C809.709 1000.31 808.239 1000.49 807.615 1001.63C787.995 1039.22 767.823 1080.81 768.448 1124.24C768.742 1143.9 774.069 1162.97 784.651 1179.57C794.02 1194.27 806.145 1206.87 816.984 1220.43C829.219 1235.68 840.095 1252.87 838.956 1273.19C838.845 1275.1 841.601 1276.35 842.887 1274.81C871.656 1240.46 865.851 1187.84 838.552 1154.4C824.112 1136.73 803.977 1126 781.271 1123.72C755.441 1121.12 730.346 1130.19 709.293 1144.74C660.316 1178.65 632.061 1234.06 607.444 1286.49C576.948 1351.49 550.751 1418.44 527.126 1486.23C503.501 1554.02 482.007 1623.64 461.248 1692.9C456.03 1710.28 450.813 1727.63 445.706 1745.04C443.538 1752.5 441.481 1760.55 443.832 1768.23C445.449 1773.59 448.939 1778 453.348 1781.38C463.93 1789.5 477.892 1791.56 490.678 1793.76C507.984 1796.78 525.363 1799.35 542.815 1801.48C613.727 1810.22 685.484 1811.8 756.69 1806.36C827.272 1800.96 897.339 1788.73 965.495 1769.62C1026.96 1752.39 1090.64 1731.26 1141.12 1690.81C1187.67 1653.52 1215.38 1600.39 1228.94 1543.03C1242.71 1484.79 1243.71 1424.32 1243.34 1364.79C1242.82 1288.85 1242.02 1212.86 1241.32 1136.92C1240.99 1098.7 1240.66 1060.49 1240.29 1022.28C1239.99 989.688 1239.66 956.987 1235.44 924.617C1231.21 892.247 1223.53 862.595 1208.4 834.928C1196.05 812.332 1179.04 792.527 1158.72 776.801C1118.38 745.57 1067.56 731.204 1017.41 726.574C962.299 721.467 907.333 728.154 853.616 740.463C782.777 756.703 713.114 779.594 640.733 788.339C605.056 792.638 568.718 793.372 533.152 787.641C509.894 783.893 484.506 777.83 461.358 785.399C451.915 788.486 443.575 794.438 439.239 803.587C432.589 817.659 437.145 832.834 442.914 846.355C449.748 862.338 456.729 878.174 462.644 894.561C468.559 910.949 473.667 927.189 478.223 943.796C496.594 1010.81 504.971 1080.15 509.306 1149.37C511.474 1183.98 512.65 1218.63 513.495 1253.28C514.34 1287.93 515.553 1325.04 514.891 1360.86C514.23 1396.69 511.107 1435.34 501.811 1471.42C493.324 1504.34 479.766 1535.68 463.636 1565.55C447.543 1595.35 428.952 1623.75 409.846 1651.72C392.357 1677.29 375.161 1703.41 354.292 1726.45C335.186 1747.54 312.185 1766.61 284.262 1774.25C258.322 1781.34 231.096 1777.45 207.581 1764.74C184.066 1752.02 164.85 1732.03 149.161 1710.58C132.591 1687.87 119.253 1662.77 108.451 1636.87C81.7029 1572.68 61.4948 1505.41 46.7612 1437.51C31.7338 1368.28 22.732 1297.77 19.9028 1226.97C17.1104 1157.16 20.1968 1086.95 29.7129 1017.69C38.0166 957.207 51.7214 897.17 73.4359 840.035C95.077 783.158 125.058 728.963 165.511 683.255C186.05 660.07 209.271 637.143 236.46 621.858C264.237 606.279 295.578 602.899 325.78 613.26C354.99 623.291 380.048 643.353 400.917 665.619C421.787 687.884 439.166 713.788 454.634 740.243C485.24 792.454 507.469 849.221 522.056 907.899C536.789 967.055 543.844 1027.97 545.02 1088.86C546.195 1149.74 541.345 1213.71 531.829 1275.36C522.423 1336.32 508.572 1396.61 490.862 1455.69C474.548 1510.11 454.34 1563.72 426.821 1613.58C400.036 1662.08 365.829 1707.49 321.444 1741.26C299.105 1758.27 274.084 1772.67 247.52 1781.97C217.612 1792.44 182.009 1796.15 155.224 1775.87C142.217 1766.02 132.664 1752.35 123.956 1738.76C115.248 1725.16 106.54 1710.47 98.641 1695.84C82.8051 1666.6 69.0636 1636.25 57.4164 1605.09C34.0485 1542.63 18.9108 1477.15 11.0113 1410.98C2.96476 1343.37 2.52386 1275.07 8.21887 1207.28C14.318 1134.75 27.3982 1062.92 45.2548 992.407C62.8542 922.89 84.826 854.292 110.251 787.236C131.525 731.204 160.808 672.085 219.926 648.643C277.685 625.716 344.078 639.825 399.301 663.304C459.558 688.95 513.385 727.53 574.229 752.074C606.342 765.044 639.74 772.87 674.351 775.148C711.093 777.573 747.909 774.67 784.504 771.364C860.046 764.529 935.661 758.247 1011.09 750.531C1025.31 749.061 1040.08 746.893 1052.61 739.508C1065.14 732.123 1072.71 720.144 1077.71 706.917C1083.55 691.449 1086.6 674.767 1090.12 658.674C1093.95 641.038 1097.4 623.328 1100.45 605.581C1112.83 534.007 1119.11 461.367 1119.3 388.727C1119.48 316.087 1113.53 243.41 1101.55 171.798C1098.54 153.721 1095.12 135.717 1091.3 117.787C1087.74 101.032 1084.69 83.6163 1078.04 67.7803C1066.61 40.6643 1041.62 27.3635 1013.96 21.5949C999.188 18.5085 984.087 17.296 969.059 16.1202C951.203 14.7608 933.309 13.8055 915.416 13.3278C879.041 12.3357 842.593 13.1808 806.292 15.8263C734.645 21.0437 663.476 33.279 594.217 52.4219C540.758 67.1924 480.795 84.8288 442.215 127.303C423.11 148.357 412.822 174.444 412.197 202.883C411.83 220.703 414.549 238.45 417.304 256.012C420.28 274.972 423.293 293.968 426.269 312.927C438.174 388.58 450.115 464.232 462.019 539.922C467.531 574.901 471.646 610.762 483.66 644.271C493.434 671.571 509.233 696.078 529.882 716.397C569.894 755.785 624.786 778.786 680.157 785.105C751.106 793.225 822.458 776.361 888.668 751.89C916.555 741.602 946.72 731.131 969.647 711.51C980.559 702.177 989.12 690.567 993.97 677.009C999.518 661.577 1000.25 644.859 1000.07 628.619C999.628 591.105 997.865 553.517 996.689 516.003C995.513 477.864 994.338 439.688 993.162 401.55C991.986 363.411 990.81 324.611 989.598 286.178C989.047 268.762 988.863 251.273 987.834 233.857C987.026 220.078 985.483 206.079 980.964 192.962C976.775 180.764 969.831 169.52 959.396 161.694C946.904 152.288 931.215 148.761 916.04 146.409C879.739 140.714 842.997 137.077 806.329 134.799C769.66 132.521 730.714 131.823 692.906 132.851C662.998 133.66 632.87 134.909 603.476 140.788C578.418 145.785 553.066 154.125 532.38 169.557C509.674 186.495 496.226 210.709 492.001 238.633C489.502 255.131 489.502 271.848 489.686 288.493C489.87 307.342 490.458 326.227 491.45 345.04C493.397 382.039 496.998 418.929 502.105 455.598C504.714 474.263 507.726 492.892 511.18 511.447C514.046 526.879 516.985 542.457 523.085 556.971C528.522 569.831 536.642 581.221 548.069 589.378C559.496 597.535 573.862 602.201 587.898 604.589C603.035 607.198 618.467 607.602 633.788 607.859C651.718 608.116 669.685 607.896 687.615 607.161C723.696 605.691 759.666 602.201 795.343 596.726C831.093 591.252 866.586 583.793 901.491 574.35C919.09 569.61 936.579 564.356 953.885 558.587C967.736 553.995 982.213 549.402 993.787 540.179C1005.36 530.957 1010.65 517.803 1012.49 503.51C1014.69 486.094 1013.7 468.127 1013.88 450.638C1014.22 412.315 1014.55 373.993 1014.84 335.67C1015.13 300.324 1016.64 264.757 1015.17 229.448C1013.99 200.935 1009.44 170.733 991.876 147.291C974.313 123.849 947.271 112.276 919.531 106.691C887.933 100.334 854.828 99.8933 822.679 100.665C752.024 102.392 681.626 115.435 615.087 139.245C561.737 158.351 505.485 184.769 471.572 232.166C453.348 257.629 444.934 287.795 445.339 318.989C445.743 350.184 453.716 383.399 464.922 413.418C485.755 469.266 520.733 519.787 565.889 558.698C607.775 594.816 674.241 636.482 727.738 598.49C749.232 583.205 760.218 557.816 752.649 531.949C744.639 504.613 721.785 484.11 702.459 464.49C679.238 440.938 659.361 414.483 643.929 385.163C631.547 361.611 619.312 333.282 625.668 306.093C628.35 294.629 635.074 284.929 645.583 279.417C656.091 273.906 669.061 274.714 680.083 279.822C703.929 290.881 721.491 315.021 733.653 337.507C734.425 338.94 736.886 339.087 737.621 337.507C749.856 311.053 765.178 278.719 797.143 273.245C809.893 271.04 824.369 273.649 833.297 283.68C844.687 296.503 842.226 315.021 837.853 330.159C832.82 347.575 825.508 364.476 819.115 381.452C812.244 399.676 805.41 417.863 798.539 436.088C791.669 454.312 784.835 472.5 777.964 490.724C771.497 507.919 764.259 525.299 762.606 543.743C761.099 560.425 765.141 576.885 777.413 588.79C787.554 598.637 802.25 604.148 815.882 598.6C818.601 597.498 817.388 593.052 814.669 594.154C800.487 599.886 785.79 592.501 776.751 581.258C765.251 566.965 765.398 547.969 769.33 530.884C773.702 511.961 781.675 493.81 788.509 475.696C795.343 457.582 802.434 438.696 809.415 420.215C816.396 401.733 823.561 382.664 830.652 363.889C836.567 348.2 843.622 332.363 845.679 315.572C847.37 301.647 844.504 286.692 833.334 277.25C824.075 269.423 811.399 266.925 799.568 268.284C764.333 272.289 747.027 306.386 733.727 335.193H737.695C725.166 312.008 706.978 287.317 682.471 275.853C672.147 271.003 660.426 269.093 649.44 272.841C638.455 276.588 629.6 284.488 624.75 294.849C614.499 316.858 620.524 344.195 629.526 365.542C641.835 394.716 659.214 422.015 679.532 446.229C698.601 468.936 722.961 487.711 738.87 512.99C746.329 524.821 751.363 538.232 750.518 552.415C749.673 566.597 742.912 578.906 732.918 588.386C710.322 609.843 678.099 612.636 649.293 603.854C618.981 594.595 591.792 575.085 568.094 554.509C522.827 515.158 487.812 463.975 467.678 407.465C456.692 376.638 448.939 343.423 450.078 310.538C451.217 277.654 462.35 249.693 482.558 225.516C521.211 179.22 581.321 154.529 637.316 136.562C704.26 115.105 774.584 104.413 844.834 105.074C875.955 105.368 908.325 106.507 938.159 116.207C967.994 125.907 990.076 144.609 1000.91 173.342C1011.75 202.074 1011.24 232.791 1010.98 262.626C1010.65 300.361 1010.36 338.059 1010.03 375.793C1009.7 413.528 1009.84 450.381 1009.07 487.674C1008.74 503.657 1007.01 520.779 995.293 532.794C984.454 543.927 968.802 548.851 954.436 553.627C886.279 576.408 815.551 591.509 744.014 598.637C708.301 602.201 672.367 603.744 636.507 603.303C607.077 602.936 572.944 602.972 548.547 583.94C522.901 563.915 518.749 527.724 513.532 497.852C507.139 461.183 502.325 424.22 499.129 387.147C495.932 350.073 494.279 313.368 494.389 276.441C494.499 244.843 497.843 212.215 519.594 187.561C536.753 168.161 560.966 156.771 585.473 149.826C612.331 142.257 640.145 139.722 667.885 138.399C741.957 134.872 816.323 137.885 889.88 147.328C906.598 149.459 924.087 151.039 940.07 156.661C954.62 161.768 966.083 171.431 972.991 185.246C979.347 197.959 981.698 212.399 982.874 226.435C984.27 242.932 984.344 259.576 984.821 276.147C987.136 351.543 989.451 426.939 991.802 502.335C992.978 540.179 994.154 578.024 995.293 615.906C995.807 632.624 996.322 649.672 992.501 666.096C988.937 681.491 981.111 694.902 969.537 705.631C946.867 726.685 915.195 737.377 886.72 747.848C853.395 760.12 819.188 770.335 784.173 776.471C721.161 787.567 655.172 784.481 596.642 756.85C571.106 744.799 547.445 728.485 528.008 707.909C506.955 685.643 492.332 658.968 483.734 629.611C473.74 595.403 469.735 559.432 464.187 524.27C458.345 487.197 452.503 450.123 446.661 413.05C440.819 375.977 434.867 338.279 428.988 300.912C426.086 282.43 423.036 263.949 420.28 245.431C417.525 226.912 415.504 209.129 417.562 190.978C424.102 132.484 477.414 98.4236 527.604 78.6561C557.696 66.7882 589.22 58.117 620.598 50.2541C655.062 41.6196 689.967 34.6752 725.092 29.421C796.298 18.8024 868.607 15.2752 940.547 18.8759C957.596 19.721 974.681 20.8233 991.655 22.6972C1005.65 24.2771 1019.73 26.7021 1032.95 31.6991C1046.18 36.6961 1059.04 44.9999 1067.2 57.1249C1076.64 71.1239 1080.06 88.2459 1083.69 104.449C1099.6 175.216 1109.38 247.341 1113.05 319.761C1116.73 391.813 1114.34 464.196 1105.92 535.844C1101.7 572.035 1095.89 608.08 1088.54 643.757C1085.13 660.328 1081.71 677.045 1077.19 693.359C1073.15 707.983 1067.23 723.047 1054.78 732.527C1042.32 742.006 1025.68 744.468 1010.36 746.011C991.986 747.848 973.615 749.392 955.244 751.082C917.62 754.535 879.996 757.989 842.409 761.443C805.814 764.823 769.183 768.828 732.477 770.665C695.993 772.466 659.104 771.584 623.427 763.133C558.871 747.848 502.73 710.738 444.714 680.205C391.328 652.061 332.136 629.096 270.704 632.991C242.302 634.791 214.305 642.985 190.569 659.005C166.834 675.025 148.426 698.099 134.317 723.01C119.474 749.208 108.818 777.5 98.5307 805.681C86.2589 839.374 74.7586 873.361 64.2504 907.642C43.3075 975.836 26.2225 1045.28 14.8692 1115.71C4.10376 1184.5 -1.51776 1254.2 0.356079 1323.79C2.1197 1389.12 10.3132 1454.41 25.9653 1517.9C41.4704 1580.77 64.3239 1641.98 95.2607 1698.89C103.05 1713.26 111.39 1727.33 120.209 1741.11C128.328 1753.79 137.147 1766.39 148.647 1776.27C172.272 1796.52 203.65 1798.35 232.786 1791.26C259.828 1784.69 285.621 1771.53 308.658 1756.17C331.696 1740.82 350.875 1723.77 368.805 1704.15C405.988 1663.44 434.022 1615.05 456.251 1564.82C479.325 1512.57 496.41 1457.86 510.556 1402.6C525.657 1343.56 536.936 1283.48 543.55 1222.89C550.164 1162.16 552.037 1100.83 547.555 1039.88C543.072 978.922 532.895 921.898 514.965 865.278C497.035 808.657 471.536 754.572 438.174 705.447C406.723 659.189 361.31 610.321 302.596 603.303C272.357 599.666 243.809 610.211 219.338 627.48C194.795 644.822 173.154 666.868 153.974 689.905C116.093 735.429 87.9123 788.302 67.3735 843.673C46.3571 900.293 33.0932 959.669 25.0467 1019.45C15.8979 1087.35 12.7749 1156.09 15.3836 1224.51C17.9922 1293.73 26.5164 1362.77 40.7355 1430.56C54.9914 1498.43 75.0158 1565.11 100.699 1629.52C120.025 1678.06 147.361 1728.18 190.569 1759.41C210.373 1773.7 233.888 1782.74 258.542 1782.52C285.658 1782.26 310.642 1771.09 331.659 1754.45C354.108 1736.7 372.038 1713.81 388.572 1690.66C407.604 1664.06 426.086 1636.94 443.501 1609.24C460.917 1581.54 477.231 1552.18 489.87 1521.57C502.509 1490.97 511.364 1457.02 515.553 1423.07C519.998 1386.99 520.109 1350.54 519.484 1314.24C518.859 1277.93 518.124 1244.79 516.912 1210.11C514.487 1142.28 509.821 1074.27 497.475 1007.43C491.303 974.072 483.22 941.077 472.528 908.854C467.274 893.055 461.432 877.476 454.928 862.154C448.425 846.833 437.035 828.719 441.407 811.34C447.617 786.502 478.002 785.473 498.688 787.163C512.466 788.302 525.914 791.352 539.582 793.225C556.593 795.54 573.752 796.532 590.91 796.349C661.602 795.65 730.457 776.434 798.393 758.871C856.776 743.77 915.159 729.808 975.783 729.44C1027.18 729.11 1080.39 737.12 1126.28 761.37C1148.25 772.98 1168.13 788.375 1184.15 807.445C1203.66 830.593 1216.41 858.407 1223.86 887.617C1231.87 918.958 1234.26 951.402 1235.18 983.625C1236.21 1019.45 1236.06 1055.27 1236.39 1091.1C1237.06 1166.6 1237.72 1242.11 1238.41 1317.62C1238.97 1380.04 1240.84 1443.05 1231.62 1505C1223.13 1562.06 1204.24 1618.98 1164.89 1662.41C1121.72 1710.03 1060.36 1735.38 1000.36 1754.52C932.758 1776.05 863.022 1790.79 792.514 1798.54C722.63 1806.22 652.012 1807.06 581.982 1801.04C564.052 1799.49 546.122 1797.51 528.302 1795.05C511.621 1792.73 494.683 1790.53 478.223 1786.82C466.061 1784.06 450.225 1778.66 447.837 1764.59C446.257 1755.48 450.409 1745.85 452.981 1737.25C455.553 1728.65 458.088 1720.13 460.623 1711.61C480.978 1643.41 501.664 1575.29 524.665 1507.94C547.812 1440.12 573.237 1372.99 602.888 1307.69C627.726 1253.06 654.29 1195.12 701.871 1156.28C722.226 1139.63 747.137 1127.51 773.922 1127.99C797.841 1128.43 819.446 1138.61 834.767 1156.94C860.927 1188.28 867.027 1239.06 839.764 1271.65L843.695 1273.27C845.606 1238.58 816.139 1213.89 796.849 1188.8C784.578 1172.81 775.943 1155.07 773.812 1134.82C771.681 1114.58 775.429 1092.9 781.638 1072.98C789.134 1048.99 800.156 1026.28 811.73 1004.02L808.57 1004.83C828.043 1014.42 821.724 1037.78 814.045 1053.44C803.72 1074.42 786.488 1090.44 772.306 1108.7C741.148 1148.78 716.715 1193.87 699.85 1241.74C682.876 1289.84 673.543 1340.73 672.772 1391.73C672.037 1439.42 675.38 1495.6 709.293 1532.67C734.976 1560.7 773.959 1571.47 811.032 1569.04C849.831 1566.51 888.447 1550.6 916.445 1523.37C950.321 1490.49 969.28 1444.49 978.024 1398.78C987.614 1348.63 986.144 1296.97 980.376 1246.44C973.652 1187.77 960.572 1129.71 940.952 1073.98C925.41 1029.77 900.315 981.127 849.831 971.39C827.455 967.091 804.822 972.456 788.582 988.88C780.022 997.514 773.628 1008.02 767.897 1018.68C761.357 1030.88 755.368 1043.33 749.746 1056.01C727.076 1107.26 711.792 1161.64 704.333 1217.2C700.659 1244.64 698.895 1272.35 699.116 1300.05C699.299 1322.54 698.013 1350.83 714.29 1368.65C743.978 1401.09 791.963 1364.9 805.373 1334.33C815.478 1311.33 816.543 1285.21 821.43 1260.85C826.316 1236.49 835.649 1213.96 854.608 1197.21C888.337 1167.41 936.359 1160.91 978.539 1150.88C1017.26 1141.66 1061.24 1124.57 1083.66 1089.59C1095.78 1070.67 1098.61 1048 1093.1 1026.36C1086.45 1000.05 1070.21 977.783 1055.55 955.481C1040.89 933.178 1026.45 909.295 1027.04 882.657C1027.48 862.155 1038.13 839.08 1057.61 830.262C1077.08 821.444 1098.57 832.246 1110.07 849.368C1123.41 869.283 1125.87 892.467 1124.88 915.835C1123.71 942.915 1119.7 970.729 1128.74 996.963C1129.22 998.359 1130.76 999.094 1132.12 998.322C1167.91 978.004 1189.25 936.668 1187.78 895.847C1186.24 853.52 1158.35 817.549 1119.81 801.346C1098.65 792.417 1075.1 789.845 1052.65 795.026C1050.7 795.467 1050.44 798.259 1052.1 799.214C1067.56 808.216 1071.57 826.882 1068.08 843.452C1064 862.853 1051.25 877.145 1033.5 885.413C1012.56 895.186 988.606 896.141 965.863 896.252C941.172 896.362 916.445 896.068 891.754 895.443C842.042 894.231 792.146 891.144 743.243 881.738C719.03 877.072 695.111 870.826 671.853 862.559C659.912 858.297 648.118 853.483 636.654 848.082C625.191 842.681 614.278 836.582 602.741 831.585C582.203 822.693 557.291 817.292 538.737 833.128C525.51 844.445 517.537 865.204 530.617 879.644C531.131 880.195 532.123 880.489 532.858 880.232C553.727 872.626 574.156 856.129 578.675 833.348C582.607 813.544 570.776 794.511 551.927 787.714C542.044 784.15 531.499 785.363 523.232 791.976C521.799 793.115 522.754 795.357 524.26 795.797C541.345 801.162 556.63 789.037 572.87 786.061C581.357 784.517 589.955 786.391 595.797 793.078C601.014 799.068 603.219 807.298 604.321 815.014C606.82 832.907 604.101 851.867 602.411 869.723C600.647 888.719 598.222 907.679 594.989 926.491C582.35 1000.45 557.585 1074.6 510.776 1134.23C486.857 1164.73 456.839 1192.8 421.566 1209.59C402.314 1218.74 381.187 1223.96 359.803 1222.67C340.771 1221.5 322.4 1215.21 305.829 1205.92C271.071 1186.44 243.919 1155.32 221.323 1123.14C196.742 1088.16 175.946 1049.47 166.467 1007.47C157.796 969.039 159.816 928.879 177.269 893.165C192.59 861.787 218.787 834.193 252.48 822.95C260.747 820.194 269.271 818.541 277.942 817.916L275.737 816.226C280.661 842.093 235.725 856.423 224.299 832.907V835.222C236.534 817.329 264.347 820.121 278.787 833.679C298.591 852.307 294.072 884.751 282.535 906.429H286.503C272.614 885.964 247.042 879.313 223.527 883.098C196.228 887.47 175.248 906.282 161.58 929.54C145.597 956.767 138.433 988.88 133.73 1019.82C128.292 1055.42 127.3 1091.65 130.79 1127.51C134.244 1162.75 141.997 1197.43 153.827 1230.79C165.658 1264.15 179.547 1293.73 192.884 1325C206.222 1356.27 218.714 1388.38 225.548 1421.89C231.022 1448.79 231.794 1476.01 226.577 1503.02C217.465 1550.16 190.092 1599.83 141.923 1615.63C136.118 1617.54 130.166 1618.87 124.14 1619.71C121.237 1620.12 122.45 1624.56 125.352 1624.16L125.205 1624.09Z" fill="#FFFDF9"/>
<path d="M155.802 1623.76C191.338 1586.74 211.985 1538.61 220.713 1488.45C229.441 1438.3 227.204 1384.26 217.816 1333.23C206.19 1269.94 185.25 1208.93 167.354 1147.29C158.369 1116.36 150.081 1085.22 144.104 1053.56C138.419 1023.65 131.745 990.562 146.011 962.019C157.673 938.722 179.419 921.478 203.11 911.499C232.375 899.172 264.976 897.558 296.332 898.291C304.253 898.475 312.174 898.842 320.132 899.245C321.306 899.319 322.516 898.145 322.406 896.971C319.729 865.786 314.961 831.336 292.701 807.452C275.245 788.741 244.22 775.753 220.309 790.429C202.266 801.508 191.411 828.144 202.596 847.552C213.782 866.96 240.883 864.612 255.918 850.157C263.18 843.186 267.947 833.39 266.627 823.191C266.37 821.173 266.187 818.128 264.463 816.807C262.189 815.12 257.569 814.643 254.855 814.166C248.107 812.955 241.213 812.845 234.428 813.725C205.017 817.614 181.07 838.27 167.794 864.025C153.382 891.981 149.421 924.707 149.238 955.782C149.055 987.076 153.639 1018.41 162.33 1048.46C179.676 1108.4 213.305 1163.77 258.742 1206.58C282.139 1228.63 309.534 1247.6 341.365 1254.61C371.18 1261.14 402.535 1257.5 430.956 1246.94C491.576 1224.41 533.786 1172.68 561.694 1116.14C576.95 1085.25 588.795 1052.6 598.183 1019.47C608.085 984.508 615.346 948.517 618.757 912.343C621.8 879.874 620.774 845.791 607.021 815.633C595.58 790.612 573.869 770.397 547.392 762.216C535.18 758.437 522.051 757.519 509.582 760.491C498.434 763.133 482.151 769.957 482.775 783.788C483.325 795.748 495.023 807.012 504.265 813.322C514.423 820.293 526.488 824.182 538.517 826.493C565.581 831.629 593.269 829.575 620.59 832.253C655.576 835.702 689.131 847.405 721.586 860.393C754.042 873.38 784.627 887.615 817.412 897.631C845.246 906.143 874.548 911.279 903.739 910.545C931.353 909.848 959.335 903.538 982.805 888.496C1010.24 870.885 1025.09 842.415 1046.07 818.532C1067.04 794.648 1099.61 776.377 1128.91 795.785C1140.53 803.49 1148.9 815.376 1155.24 827.63C1162.43 841.535 1167.56 856.834 1170.86 872.133C1174.49 888.936 1175.23 908.381 1164.96 923.092C1157 934.466 1142.15 943.381 1127.99 939.419C1113.84 935.456 1107.05 921.441 1101.22 909.444C1095.39 897.448 1090.07 886.661 1078.81 879.25C1070.05 873.49 1057.43 869.785 1048.27 876.756C1043.13 880.644 1040.71 886.698 1039.72 892.898C1038.36 901.336 1038.33 910.142 1038.11 918.69C1037.56 938.281 1038.11 957.909 1039.83 977.464C1041.44 995.771 1044.08 1013.97 1045.44 1032.28C1047.9 1065.59 1046.07 1101.87 1023.07 1128.25C1005.54 1148.36 976.241 1163.03 950.203 1150.37C927.209 1139.22 918.298 1113.76 911.367 1090.94C904.436 1068.12 898.128 1041.74 881.662 1022.37C846.823 981.28 782.683 978.748 737.722 1003.11C685.391 1031.43 653.302 1087.97 635.956 1143C618.61 1198.03 615.016 1262.24 626.238 1321.3C637.46 1380.37 663.13 1437.72 702.37 1483.58C722.357 1506.95 747.367 1524.41 778.649 1527.12C807.584 1529.62 837.142 1520.48 861.052 1504.38C915.218 1467.91 938.651 1399.52 950.13 1338.22C956.914 1301.97 959.445 1264.95 957.538 1228.15C956.071 1200.12 951.633 1172.28 942.832 1145.57C926.879 1097.14 895.634 1049.78 845.246 1032.83C793.685 1015.47 732.772 1037.85 703.837 1083.79C686.674 1111.05 682.457 1143.88 679.633 1175.32C676.626 1208.6 673.839 1241.32 662.177 1272.95C639.55 1334.37 596.35 1385.1 565.435 1442.19C533.163 1501.7 516.624 1567.99 509.216 1634.95C505.402 1669.33 503.898 1703.92 503.678 1738.48C503.568 1756.06 503.788 1773.67 504.192 1791.24C504.412 1799.86 504.632 1808.48 504.925 1817.07C505.182 1824.44 505.182 1832.04 507.309 1839.16C511.453 1852.91 523.481 1858.56 536.903 1860.07C552.526 1861.83 568.699 1861.02 584.394 1861.09C617.583 1861.24 650.772 1860.76 683.924 1859.33C749.128 1856.47 814.331 1849.87 878.252 1836.33C942.172 1822.79 1002.86 1802.61 1059.89 1772.64C1088.2 1757.74 1115.63 1740.68 1140.61 1720.69C1164.81 1701.32 1186.85 1678.35 1201.59 1650.87C1217.95 1620.46 1223.16 1586.08 1225.06 1552C1227.23 1513.77 1227.3 1475.36 1227.63 1437.05C1228.29 1358.98 1227.52 1280.91 1227.01 1202.84C1226.49 1124.99 1226.05 1047.1 1225.5 969.246C1225.25 934.906 1224.18 899.649 1209.51 867.914C1197.74 842.379 1178.53 820.953 1156.05 804.297C1102.17 764.343 1034.26 755.135 968.869 756.419C931.023 757.153 893.214 760.711 855.478 763.61C816.275 766.618 777.072 769.627 737.869 772.635C698.96 775.607 660.087 778.615 621.177 781.587C611.275 782.357 601.337 783.164 591.436 783.861C582.304 784.522 572.953 784.962 564.004 782.651C547.905 778.468 536.683 765.151 525.315 753.924C481.235 710.265 422.815 684.107 362.562 671.926C331.427 665.616 299.485 662.754 267.727 663.231C234.208 663.745 199.993 668.881 170.581 685.868C143.334 701.607 121.77 725.381 103.654 750.732C83.9974 778.211 67.3848 807.965 53.8159 838.857C26.3115 901.447 11.3858 969.319 10.3956 1037.71C9.3321 1112.15 23.7811 1185.63 39.587 1258.02C47.5816 1294.52 55.9796 1330.95 63.0941 1367.68C69.7318 1401.87 74.8293 1436.36 81.3937 1470.59C93.6056 1534.09 111.685 1600.1 155.619 1649.48C192.842 1691.34 248.657 1723.04 306.233 1715.55C367.403 1707.59 411.593 1657.15 434.587 1603.1C448.303 1570.86 456.114 1536.59 462.862 1502.32C470.233 1464.72 476.834 1426.93 482.701 1389.07C494.327 1313.89 503.055 1238.24 508.812 1162.37C514.643 1085.8 517.43 1009.05 517.21 932.264C517.1 893.742 516.22 855.183 514.607 816.697C514.02 802.719 509.546 778.909 526.305 772.341C534.08 769.296 543.321 770.03 551.499 769.773C561.254 769.48 571.046 769.223 580.801 768.929C659.243 766.691 737.686 764.417 816.165 762.179C855.221 761.041 894.314 759.941 933.37 758.804C964.616 757.923 1002.02 761.152 1027.55 739.506C1048.89 721.418 1056.33 691.921 1061.1 665.543C1067.7 629.001 1072.84 592.167 1077.79 555.369C1088.06 478.764 1095.72 401.829 1100.74 324.711C1105.77 247.593 1108.15 170.291 1107.9 93.0263C1107.9 83.6341 1107.9 74.2053 1107.68 64.8132C1107.49 56.7785 1106.94 48.5237 1104.19 40.9293C1099.53 28.0518 1088.97 19.5035 1076.61 14.3672C1062.24 8.38703 1046.36 6.3325 1031.03 4.27798C1012.14 1.78319 993.147 0.425735 974.077 0.0955428C898.422 -1.2986 823.389 12.7529 750.044 29.9229C674.939 47.5331 600.274 67.1612 525.462 85.9822C506.612 90.7149 487.799 95.4477 468.949 100.18C459.231 102.639 449.513 105.06 439.795 107.518C432.093 109.462 424.099 111.003 416.691 114.012C411.19 116.25 406.019 119.478 402.792 124.578C398.611 131.218 399.161 139.327 399.748 146.811C401.288 166.256 402.829 185.7 404.369 205.145C410.567 283.217 416.764 361.252 422.999 439.324C429.233 517.396 433.304 590.259 453.07 663.195C460.808 691.775 471.15 720.575 489.559 744.202C498.764 756.015 510.022 766.141 523.115 773.405C537.82 781.587 554.14 786.209 570.459 789.878C643.657 806.241 719.239 813.762 794.198 813.725C828.194 813.725 863.179 813.505 896.588 806.461C926.366 800.188 954.09 786.686 973.49 762.692C992.89 738.698 1002.13 710.926 1008.81 682.382C1016.73 648.409 1021.35 613.409 1024.8 578.702C1032.28 503.638 1031.54 427.731 1022.59 352.814C1018.3 316.86 1012.29 281.016 1004.04 245.758C997.327 216.958 988.599 188.378 975.361 161.853C962.122 135.328 945.546 113.278 922.772 96.1814C897.945 77.5806 867.873 68.1151 837.288 64.8132C805.09 61.3278 772.525 64.1528 740.62 68.8856C703.727 74.3521 667.054 81.8731 630.895 91.0084C612.706 95.5944 594.626 100.584 576.693 106.161C562.831 110.453 549.079 115.333 536.097 121.863C523.115 128.394 511.563 136.245 502.138 146.811C492.126 158.001 485.599 171.649 482.298 186.287C478.741 202.026 478.447 218.316 478.924 234.385C479.438 253.059 480.464 271.734 481.271 290.371C482.921 329.114 484.425 367.893 486.295 406.635C487.982 441.672 490.953 477.59 504.192 510.426C514.717 536.474 531.476 559.771 552.343 578.519C573.209 597.266 597.78 611.318 624.367 619.536C650.955 627.754 678.9 630.872 704.974 623.351C716.929 619.903 728.591 613.923 736.842 604.347C745.497 594.331 749.898 581.013 748.834 567.806C746.45 538.199 723.09 513.434 703.947 492.742C692.872 480.782 681.907 468.858 672.225 455.687C662.544 442.516 653.852 428.465 646.298 413.863C631.299 384.879 620.884 353.548 615.456 321.336C612.706 305.01 611.129 288.353 611.349 271.807C611.569 255.261 614.136 236.476 625.358 223.195C634.783 212.042 650.185 204.411 664.781 209.07C673.912 212.005 680.366 218.976 684.584 227.341C692.982 244.144 694.119 263.919 698.409 282.006C702.37 298.663 709.081 316.199 725.51 324.051C726.904 324.711 728.371 324.161 728.884 322.693C744.213 277.714 792.071 247.519 839.232 252.582L836.958 250.308C837.288 289.27 831.164 328.086 818.732 364.994C812.571 383.265 804.613 400.582 796.068 417.862C788.074 434.005 779.969 450.441 775.862 468.088C772.121 484.12 772.341 500.96 779.859 515.892C787.377 530.824 800.212 540.95 813.928 548.985C841.469 565.091 873.704 572.539 905.499 571.585C941.328 570.521 976.754 558.854 1005.4 537.171C1007.71 535.41 1005.43 531.448 1003.09 533.209C952.66 571.328 880.745 578.042 824.27 549.388C809.821 542.051 795.482 532.439 786.607 518.57C777.145 503.749 776.339 486.065 780.226 469.298C784.113 452.532 792.181 435.949 799.992 420.173C807.804 404.397 815.285 388.401 821.226 371.745C835.051 332.856 841.872 291.618 841.506 250.344C841.506 249.024 840.442 248.18 839.232 248.07C790.017 242.823 740.436 274.779 724.484 321.556L727.857 320.198C710.108 311.76 704.9 291.435 701.27 273.751C697.639 256.068 695.916 235.706 685.647 220.077C673.435 201.513 649.782 198.688 631.885 211.235C606.691 228.919 605.591 262.635 607.315 290.481C611.129 351.383 633.132 411.038 669.585 459.943C687.664 484.194 710.951 504.152 728.077 529.1C736.072 540.767 743.297 554.121 744.25 568.503C745.204 582.885 739.886 595.615 729.838 605.007C710.621 622.948 680.733 624.709 655.979 621.7C628.695 618.399 602.364 608.383 579.334 593.487C556.303 578.592 536.317 558.67 521.831 535.3C504.962 508.151 497.187 477.113 493.667 445.598C489.779 410.451 489.412 374.827 487.872 339.533C486.332 304.239 484.132 267.368 483.362 231.303C482.701 200.155 486.332 167.943 509.949 145.27C530.632 125.422 559.164 116.14 586.008 108.142C620.48 97.8691 655.392 89.2474 690.671 82.24C723.053 75.8196 755.839 70.133 788.844 68.4086C819.429 66.7943 850.711 68.6654 879.865 78.7913C909.02 88.9172 931.427 105.94 949.47 129.054C985.739 175.501 998.794 236.66 1009.03 293.379C1021.79 364.261 1027 436.463 1024.72 508.445C1023.58 544.325 1020.61 580.17 1015.74 615.72C1011.48 646.685 1006.72 678.09 996.851 707.844C987.866 734.993 973.564 761.408 950.24 778.798C925.486 797.253 894.314 803.82 864.133 806.571C829.734 809.726 794.858 809.726 760.349 808.626C724.3 807.489 688.324 804.517 652.605 799.674C634.489 797.216 616.446 794.318 598.513 790.906C581.937 787.787 565.178 784.632 549.079 779.459C532.979 774.286 519.264 767.278 507.162 756.492C496.674 747.1 488.166 735.727 481.235 723.51C465.869 696.434 457.617 665.689 450.943 635.458C443.205 600.385 438.548 564.724 435.064 529.027C427.913 456.127 423.072 382.935 417.241 309.889C414.307 272.834 411.337 235.779 408.403 198.724C406.936 180.307 405.249 161.926 404.039 143.509C403.489 135.071 404.406 126.889 411.777 121.68C417.498 117.644 424.539 116.03 431.213 114.342C502.725 96.3282 574.273 78.3511 645.784 60.3739C715.976 42.727 786.13 23.9794 857.752 13.1198C893.581 7.68996 929.813 4.35135 966.046 4.53479C983.612 4.60817 1001.18 5.48868 1018.63 7.35977C1034.81 9.0841 1051.49 10.9919 1067.08 15.798C1080.87 20.0538 1094.47 27.795 1099.64 42.0666C1102.43 49.8078 1102.87 58.136 1103.02 66.3174C1103.16 75.1959 1103.2 84.0744 1103.24 92.9162C1103.35 129.604 1102.91 166.292 1101.84 202.98C1099.72 276.026 1095.24 348.998 1088.39 421.751C1081.49 494.907 1072.25 567.806 1060.62 640.375C1056.19 668.111 1052.67 698.525 1036.57 722.372C1028.24 734.7 1016.43 743.615 1002.2 748.054C986.802 752.86 970.41 753.044 954.421 753.52C880.562 755.648 806.667 757.74 732.808 759.868C695.549 760.931 658.326 761.995 621.067 763.059C602.437 763.61 583.808 764.123 565.215 764.674C556.413 764.93 547.575 765.004 538.81 765.444C532.209 765.774 525.242 766.655 519.704 770.544C509.106 777.991 508.959 792.336 509.472 804.003C510.279 822.2 511.013 840.398 511.526 858.632C512.553 895.063 512.883 931.494 512.553 967.962C511.856 1040.53 508.482 1113.1 502.395 1185.45C496.307 1257.8 487.469 1330.66 475.917 1402.75C470.233 1438.3 463.998 1473.82 456.847 1509.11C450.173 1542.09 442.215 1575.15 428.353 1605.97C404.882 1658.17 360.398 1706.42 300.329 1711.52C244.183 1716.29 191.008 1683.93 155.656 1642.47C114.142 1593.75 97.2362 1529.22 85.501 1467.69C79.34 1435.44 74.4992 1402.93 68.3382 1370.69C61.6638 1335.69 53.7426 1300.94 46.078 1266.16C30.8222 1196.97 16.3366 1127 15.0163 1055.9C13.7695 989.718 25.2847 923.79 49.1218 862.007C60.8937 831.593 75.5994 802.315 92.9822 774.726C109.412 748.714 128.151 723.546 152.172 704.065C178.173 682.969 209.344 672.33 242.423 669.101C273.375 666.093 305.133 667.671 335.901 671.963C394.797 680.144 453.29 700.616 500.304 737.818C512.039 747.1 522.308 757.703 533.016 768.049C543.725 778.395 555.056 786.466 569.872 788.337C578.16 789.401 586.485 788.778 594.773 788.154C604.198 787.42 613.622 786.723 623.047 785.989C641.567 784.559 660.123 783.128 678.643 781.734C752.061 776.084 825.517 770.397 898.935 764.82C966.559 759.684 1037.92 754.951 1102.47 780.083C1155.24 800.628 1201.85 841.315 1215.02 898.145C1222.97 932.448 1220.96 968.696 1221.18 1003.66C1221.4 1040.82 1221.65 1077.95 1221.87 1115.12C1222.35 1189.04 1222.97 1262.93 1223.23 1336.86C1223.38 1373.88 1223.34 1410.93 1222.97 1447.95C1222.61 1484.97 1222.53 1519.6 1220.33 1555.3C1218.24 1588.98 1212.49 1622.7 1195.54 1652.34C1180.62 1678.46 1159.13 1700.22 1135.66 1718.75C1087.51 1756.83 1030.99 1784.86 973.27 1805.11C914.557 1825.69 853.314 1838.35 791.631 1845.94C729.948 1853.54 666.944 1856.22 604.454 1856.44C588.832 1856.47 573.246 1856.4 557.623 1856.18C544.421 1856 526.635 1857.61 516.77 1846.93C511.233 1840.95 510.279 1832.29 509.876 1824.55C509.472 1816.81 509.326 1808.78 509.106 1800.89C508.666 1784.42 508.336 1767.94 508.299 1751.43C508.152 1685.84 512.039 1619.69 527.479 1555.74C535.106 1524.15 545.558 1493.19 559.567 1463.84C573.576 1434.49 589.712 1409.65 606.508 1383.64C623.304 1357.63 639.917 1332.16 653.486 1304.65C667.054 1277.13 675.929 1249.62 679.89 1219.86C684.107 1188.16 684.034 1155.73 691.955 1124.58C699.143 1096.41 713.959 1071.57 737.832 1054.51C759.506 1039.03 786.167 1030.55 812.828 1031.47C838.535 1032.35 863.289 1042.7 882.982 1059.09C922.222 1091.75 941.768 1143.59 949.506 1192.75C954.567 1225.03 954.751 1258.35 952 1290.85C949.103 1325.34 942.465 1359.79 931.61 1392.66C912.944 1449.13 876.711 1504.71 815.542 1519.49C787.23 1526.32 757.269 1522.68 733.065 1505.88C708.861 1489.08 689.571 1461.78 674.316 1436.14C644.721 1386.35 627.961 1329.19 624.771 1271.41C621.58 1213.62 631.849 1154.92 656.676 1102.61C680.22 1053 720.67 1003.81 777.549 993.754C802.669 989.314 829.77 992.616 852.361 1004.72C863.473 1010.67 873.484 1018.81 881.112 1028.86C888.74 1038.92 893.324 1049.67 897.285 1061C905.096 1083.24 909.313 1107.27 921.122 1127.96C932.93 1148.65 952.477 1161.6 975.874 1159.44C999.271 1157.27 1021.9 1140.32 1034.81 1120.14C1051.93 1093.4 1052.26 1059.43 1049.77 1028.83C1048.34 1011.36 1045.85 994.01 1044.38 976.547C1042.91 959.083 1042.25 940.409 1042.65 922.322C1042.84 913.333 1042.91 904.161 1044.08 895.246C1045 888.239 1047.75 880.828 1055.01 878.37C1066.64 874.444 1080.02 883.946 1086.85 892.605C1094.88 902.804 1098.4 916.012 1105.58 926.798C1111.89 936.3 1121.06 943.968 1132.83 944.848C1144.6 945.729 1156.6 939.492 1164.63 930.834C1174.38 920.341 1178.12 906.326 1178.01 892.238C1177.87 876.352 1173.43 860.539 1168.11 845.717C1163.78 833.684 1158.36 821.87 1150.95 811.414C1135.84 790.135 1112 777.514 1085.85 785.476C1056.33 794.428 1038.22 820.549 1020.76 844.103C1011.63 856.43 1001.98 868.464 989.883 878.04C979.065 886.588 966.669 893.118 953.65 897.558C899.192 916.232 839.269 902.144 787.34 882.185C756.389 870.262 726.207 856.394 694.889 845.351C663.57 834.307 634.746 827.887 603.134 826.566C577.647 825.502 551.096 826.566 526.525 818.788C514.973 815.156 504.192 809.139 496.16 799.894C491.43 794.428 485.012 785.879 488.642 778.358C491.76 771.828 499.791 768.416 506.282 766.288C532.026 757.886 560.191 768.342 579.7 785.696C602.951 806.351 612.889 836.912 615.199 867.217C617.766 900.456 612.669 934.246 606.325 966.788C599.577 1001.46 589.895 1035.54 577.463 1068.56C555.863 1125.98 524.325 1183.91 472.983 1219.86C448.193 1237.22 419.075 1249.21 388.856 1252.44C358.638 1255.67 328.127 1249.32 301.576 1233.62C275.025 1217.92 251.994 1195.24 232.411 1171.36C213.342 1148.14 197.316 1122.35 184.774 1095.05C159.616 1040.24 148.321 977.868 156.756 917.883C160.68 890.073 169.848 861.016 190.385 840.911C209.161 822.494 237.325 812.221 262.996 821.026L261.383 819.412C266.81 836.839 251.408 852.762 235.345 856.65C217.009 861.126 202.376 846.965 203.037 828.731C203.697 810.497 217.449 792.96 235.895 789.585C258.045 785.549 280.416 798.39 293.764 815.376C311.734 838.196 315.695 868.978 318.115 896.971L320.389 894.696C263.803 891.834 199.149 892.568 157.783 937.584C149.605 946.499 142.93 956.809 138.64 968.145C133.359 982.05 132.442 996.982 133.579 1011.69C136.036 1043.61 143.664 1075.53 151.622 1106.46C167.868 1169.53 189.798 1230.98 205.054 1294.27C218.146 1348.6 225.48 1404.4 220.163 1460.31C215.212 1512.56 198.856 1564.88 165.557 1606.15C161.523 1611.14 157.269 1615.95 152.832 1620.57C150.778 1622.7 154.042 1625.96 156.059 1623.8L155.802 1623.76Z" fill="#FFFDF9"/>
</svg>
