<svg width="289" height="289" viewBox="0 0 289 289" fill="none" xmlns="http://www.w3.org/2000/svg">
<circle cx="144.342" cy="144.342" r="144.342" fill="#AB5534"/>
<path d="M127.86 40.4591C146.141 40.2396 164.719 41.5566 183.016 41.8388C200.28 44.3316 196.683 55.5572 196.918 69.6049C197.309 91.915 197.309 114.335 197.371 136.661C197.481 167.155 198.904 201.521 197.137 231.592C196.12 248.901 188.708 248.932 173.586 249.45C158.464 249.967 143.029 249.732 128.314 249.45C119.072 249.277 96.5685 251.143 93.5034 239.651C92.2524 234.994 91.8927 220.962 91.6582 215.459C90.3915 184.307 92.1899 153.029 92.5808 121.907C92.7685 106.856 92.1586 91.7739 92.3462 76.7542C92.4244 71.4393 92.3775 52.061 94.4105 48.408C98.9455 40.3023 119.666 40.5689 127.86 40.4591Z" stroke="#FFFDF9" stroke-miterlimit="10"/>
<path d="M124.639 41.1487C140.152 40.8351 157.854 41.133 173.367 41.8385C182.984 42.2775 195.135 41.9326 196.23 53.9421C197.715 70.2318 196.574 90.8486 196.683 107.624C196.98 151.053 197.027 194.67 195.995 238.036C193.9 249.935 180.091 248.712 170.833 248.979C152.412 249.528 128.533 250.076 110.392 248.524C104.966 248.054 95.6457 246.173 93.9568 239.886C92.6589 235.057 92.2992 218.359 92.1115 212.464C91.1576 182.237 92.6745 151.868 93.0342 121.688C93.2531 102.811 92.4087 83.5739 93.0342 64.7757C93.1437 61.2482 93.2375 51.5904 94.6449 48.878C98.6795 41.0703 117.023 41.3055 124.639 41.1487Z" stroke="#FFFDF9" stroke-miterlimit="10"/>
<path d="M143.717 47.6084C146.157 47.53 156.9 47.2792 158.433 48.0631C158.839 48.2826 159.199 48.9567 159.465 49.333L158.433 50.1326C158.636 49.38 159.418 49.4114 158.433 48.7529C156.494 47.4673 137.963 48.1728 134.538 48.5177C133.256 48.6432 129.565 48.8627 132.239 50.3678L155.336 50.0228C151.505 50.1483 133.646 51.9042 131.316 50.3678C130.785 50.0228 130.613 49.2076 131.082 48.7529C131.551 48.2982 142.138 47.6554 143.717 47.6084Z" stroke="#FFFDF9" stroke-miterlimit="10"/>
<path d="M135.898 227.328C139.354 226.998 155.461 227.249 158.198 228.253C162.42 229.789 164.219 238.443 160.043 240.231C153.835 242.88 138.072 239.76 130.863 240.685C124.858 235.151 127.688 228.127 135.914 227.328H135.898Z" stroke="#FFFDF9" stroke-miterlimit="10"/>
<path d="M136.586 227.782C140.105 227.547 155.258 227.704 157.963 228.707C161.404 229.977 163.374 237.534 160.262 239.541C159.246 240.199 152.693 240.654 151.067 240.685C148.753 240.748 132.098 240.576 131.066 240.231C128.251 239.259 127.938 234.163 128.658 231.827C129.549 228.927 134.068 227.97 136.586 227.798V227.782Z" stroke="#FFFDF9" stroke-miterlimit="10"/>
<path d="M116.601 45.9935C121.277 45.4448 122.543 51.4966 118.665 53.1428C112.957 55.5729 111.237 46.6364 116.601 45.9935Z" stroke="#FFFDF9" stroke-miterlimit="10"/>
<path d="M117.054 46.4483C120.588 46.2602 121.949 50.7912 118.9 52.4374C113.457 55.3535 111.722 46.7305 117.054 46.4483Z" stroke="#FFFDF9" stroke-miterlimit="10"/>
<path d="M123.497 46.6833C126.547 46.6833 126.187 52.6567 123.044 51.2927C121.198 50.4932 121.167 46.6833 123.497 46.6833Z" stroke="#FFFDF9" stroke-miterlimit="10"/>
<path d="M123.028 47.3734C125.718 46.5895 125.608 50.7442 124.17 51.0578C122.621 51.4027 120.964 47.9692 123.028 47.3734Z" stroke="#FFFDF9" stroke-miterlimit="10"/>
<path d="M127.626 58.6615C145.453 58.3322 163.343 59.5238 181.171 58.8967C195.213 59.3827 191.804 79.7173 191.851 89.8925C192.039 131.785 191.085 173.818 190.475 215.694C188.974 222.075 183.954 222.264 178.403 222.264C163.39 222.248 148.44 220.272 133.365 220.884C125.108 221.213 101.714 226.497 98.3201 216.855C97.5538 178.098 97.3193 138.918 97.3975 100.036C97.3975 93.3103 96.7876 69.4167 99.0082 64.5565C101.917 58.1598 121.324 58.8026 127.626 58.6772V58.6615Z" stroke="#FFFDF9" stroke-miterlimit="10"/>
<path d="M125.796 59.132C145.39 58.6617 165.438 59.2888 184.861 60.2765C186.472 61.1075 188.551 62.0482 189.568 63.616C191.992 67.3631 191.413 91.8524 191.413 97.9513C191.398 136.175 190.537 174.461 190.272 212.7C189.584 220.9 185.893 221.778 178.434 221.793C163.202 221.84 148.002 219.755 132.692 220.414C123.716 220.79 99.7273 226.983 98.1009 214.315C98.0853 185.138 98.3042 155.945 98.3355 126.768C98.3355 109.475 95.7865 83.8565 98.5701 67.5512C100.196 58.0345 118.368 59.3201 125.796 59.1477V59.132Z" stroke="#FFFDF9" stroke-miterlimit="10"/>
<path d="M184.157 168.801C184.392 168.942 184.361 170.212 183.923 169.945C183.626 169.773 183.798 168.942 184.157 168.801Z" stroke="#FFFDF9" stroke-miterlimit="10"/>
<path d="M135.21 192.067C137.102 191.738 152.365 192.35 153.819 192.992C154.085 193.102 154.961 194.184 155.086 194.498C155.774 196.206 155.555 208.185 154.633 209.47C154.523 209.627 153.96 210.207 153.835 210.27C152.85 210.803 137.212 210.787 135.445 210.505C131.082 209.784 131.613 201.898 131.879 198.401C132.067 196.034 132.333 192.569 135.21 192.067Z" stroke="#FFFDF9" stroke-miterlimit="10"/>
<path d="M135.898 192.522C138.432 192.161 144.452 192.334 147.158 192.522C149.191 192.663 154.351 192.741 154.852 194.936C155.211 196.504 154.945 208.169 154.163 209.219C153.616 209.94 152.553 210.144 151.755 210.254C149.988 210.505 134.96 210.05 134.053 209.564C133.349 209.172 132.692 207.902 132.552 207.15C132.239 205.347 132.427 195.109 133.24 193.792C133.771 192.93 134.96 192.647 135.883 192.522H135.898Z" stroke="#FFFDF9" stroke-miterlimit="10"/>
<path d="M139.808 194.827C140.261 194.732 142.341 194.638 142.685 195.171C133.787 194.67 137.978 203.591 142.341 206.805C138.322 205.723 134.272 196.018 139.808 194.827Z" stroke="#FFFDF9" stroke-miterlimit="10"/>
<path d="M146.469 196.222C147.955 195.893 150.066 198.009 149.8 199.797C149.566 201.349 145.14 204.986 143.936 206.366C144.765 203.481 152.412 200.095 148.08 197.147C147.736 196.912 145.328 196.473 146.469 196.222Z" stroke="#FFFDF9" stroke-miterlimit="10"/>
<path d="M173.367 190.923C176.713 190.751 180.295 190.923 181.984 194.262C183.203 196.646 183.954 208.796 182.672 210.85C180.811 213.86 166.908 214.174 164.516 211.775C162.545 209.8 162.624 197.586 163.374 194.952C164.234 191.911 170.599 191.064 173.367 190.923Z" stroke="#FFFDF9" stroke-miterlimit="10"/>
<path d="M173.82 191.377C179.794 191.08 181.983 192.914 182.671 198.872C182.859 200.471 183.172 207.949 182.906 209.235C182.077 213.296 171.005 213.264 167.847 212.81C165.61 212.496 163.953 211.101 163.593 208.78C163.343 207.134 163.405 196.316 163.828 194.952C164.641 192.365 171.459 191.503 173.82 191.377Z" stroke="#FFFDF9" stroke-miterlimit="10"/>
<path d="M171.975 193.917C174.884 193.463 178.262 194.623 178.981 197.712C176.041 192.114 168.128 193.682 166.799 199.562C166.518 200.784 166.408 206.648 166.799 207.62C166.971 208.059 168.332 208.53 168.645 207.855C167.784 204.375 168.019 198.84 172.21 197.837C171.584 198.652 170.459 198.825 169.802 199.797C168.457 201.741 168.16 209.611 170.38 210.285C171.428 210.599 172.57 209.815 173.133 209.831C175.838 209.878 180.013 211.524 180.608 207.416C180.842 205.786 179.982 204.516 179.685 203.042C179.607 202.635 180.138 201.49 179.92 200.737C179.388 198.95 176.104 198.919 174.634 198.887C175.713 198.213 178.168 198.558 179.122 199.232C180.858 200.455 179.857 201.615 180.154 203.262C180.201 203.56 180.827 204.657 180.842 204.876C181.374 212.167 177.902 210.333 172.914 210.285C172.351 210.285 171.444 210.991 170.38 210.74C169.473 210.536 169.207 209.219 168.535 208.671C168.379 208.545 166.721 208.812 166.346 207.401C165.22 203.042 166.424 194.78 171.975 193.917Z" stroke="#FFFDF9" stroke-miterlimit="10"/>
<path d="M159.809 69.4954C164.875 69.4327 178.574 68.8369 182.327 71.8001C184.783 73.7442 184.579 78.4163 183.938 81.254C183.406 76.9582 185.048 73.023 180.029 71.1102C172.882 68.3979 149.972 70.4517 141.184 70.6556C133.599 70.828 109.61 68.586 105.67 75.6099C103.496 79.4981 104.215 97.3712 104.294 102.796C104.559 123.193 105.513 143.685 105.904 164.082C106.295 166.01 107.828 168.394 109.47 169.491C115.615 173.614 151.489 173.003 160.497 172.721C165.829 172.548 179.513 173.003 182.218 167.766C184.376 163.58 182.703 123.475 182.906 115.229C183.078 108.377 185.846 87.1177 182.671 82.2731C179.497 77.4285 160.012 77.0052 154.288 76.8641C142.669 76.5662 121.808 75.798 116.257 88.4974C111.487 99.4094 115.271 126.58 116.491 139.185C116.96 144.077 120.463 161.542 117.867 164.756C116.132 166.888 112.238 166.575 110.736 164.301C109.016 161.652 109.986 151.43 109.814 147.714C109.173 133.384 109.266 119.195 108.891 104.865C108.719 98.0611 106.029 86.7257 109.345 80.6739C112.222 75.4217 120.057 74.9514 125.311 74.3399L115.662 76.4095C103.934 80.0938 109.094 96.9009 109.345 106.245C109.751 122.362 109.814 138.291 110.486 154.393C110.58 156.776 109.892 159.771 110.252 161.997C111.049 166.826 117.883 167.014 118.524 161.762C118.79 143.653 107.374 100.366 117.383 85.5028C124.951 74.2459 151.176 76.0018 163.233 76.8641C168.081 77.2091 180.451 77.7735 183.109 82.0536C186.206 87.0079 183.485 108.722 183.344 115.699C183.031 130.562 185.252 150.583 183.578 164.552C182.656 172.25 175.228 172.501 168.988 172.956C158.792 173.708 118.399 174.273 110.611 170.651C107.14 169.036 105.576 165.65 105.216 162.012C103.934 149.36 104.997 134.184 104.763 121.233C104.528 108.205 102.511 92.0406 104.075 79.2943C104.856 72.9603 110.064 71.0945 115.678 70.4204C128.063 68.9466 146.751 69.6365 159.809 69.4954Z" stroke="#FFFDF9" stroke-miterlimit="10"/>
<path d="M139.808 99.6759C140.011 99.6759 140.324 99.6132 140.386 99.7857C115.553 108.675 114.13 144.955 142.795 149.893C162.092 153.217 171.866 133.76 167.268 117.063C164.297 106.261 153.382 102.467 143.373 101.165C148.221 100.977 154.445 102.953 158.652 105.43C178.95 117.345 167.847 160.068 137.275 148.749C119.869 142.305 116.179 122.237 127.501 108.315C129.487 105.884 136.79 99.8013 139.792 99.6759H139.808Z" stroke="#FFFDF9" stroke-miterlimit="10"/>
<path d="M142.795 101.981C151.302 102.608 163.312 108.001 165.892 116.843C172.585 139.781 153.022 159.112 131.77 144.139C118.431 134.732 121.918 109.616 136.368 102.89C126.14 108.973 122.074 121.265 124.53 132.725C126 139.577 131.457 144.374 137.744 146.899C167.362 158.751 178.543 112.893 151.537 104.27L142.81 101.965L142.795 101.981Z" stroke="#FFFDF9" stroke-miterlimit="10"/>
<path d="M106.248 168.801C106.733 171.058 106.108 173.332 108.313 174.79C116.257 180.058 163.703 174.821 175.65 176.859C179.513 176.436 183.094 175.95 183.813 171.45C184.626 175.197 180.482 176.671 177.495 177.095C158.135 176.373 137.415 178.333 118.196 177.095C112.879 176.75 104.184 176.452 106.248 168.801Z" stroke="#FFFDF9" stroke-miterlimit="10"/>
<path d="M141.184 109.13C148.831 108.424 156.04 110.854 158.073 118.929C158.855 122.049 159.402 135.015 157.619 137.366C155.68 139.922 143.67 140.518 140.496 140.016C123.45 137.335 125.468 110.572 141.184 109.146V109.13Z" stroke="#FFFDF9" stroke-miterlimit="10"/>
<path d="M140.496 109.584C148.127 108.722 155.493 110.791 157.62 118.913C158.464 122.158 159.199 134.356 157.385 136.88C155.415 139.639 143.498 140.047 140.261 139.53C124.076 136.958 126.265 111.183 140.496 109.584Z" stroke="#FFFDF9" stroke-miterlimit="10"/>
<path d="M135.554 117.643C135.695 117.627 135.898 117.674 136.008 117.643C135.601 118.882 135.32 120.387 135.554 121.672C135.851 123.381 144.656 135.124 145.782 134.92C149.644 130.875 156.963 121.798 154.852 115.918C153.116 111.042 144.984 116.154 144.39 119.712C143.029 118.145 141.309 115.181 138.995 115.103V114.648C141.028 114.648 143.092 117.329 144.171 118.803C149.206 110.729 158.542 111.889 154.633 123.068C153.992 124.871 147.392 134.873 146.016 135.391C145.062 135.751 144.687 134.936 144.061 134.356C140.402 130.954 134.1 122.707 135.554 117.659V117.643Z" stroke="#FFFDF9" stroke-miterlimit="10"/>
<path d="M139.01 115.119C138.103 115.087 138.26 115.228 137.634 115.573C137.134 115.856 135.93 116.749 136.258 117.423C136.258 117.423 136.352 117.549 136.023 117.659C135.914 117.69 135.711 117.643 135.57 117.659C135.929 116.436 137.165 114.664 139.01 114.664V115.119Z" stroke="#FFFDF9" stroke-miterlimit="10"/>
<path d="M136.023 117.643C136.336 117.549 136.242 117.423 136.258 117.408C136.758 117.047 137.79 115.871 138.213 115.793C141.637 115.166 144.421 122.676 144.874 122.472C145.578 119.697 149.347 113.676 152.693 115.103C153.053 115.26 154.335 116.89 154.414 117.298C155.336 122.017 148.158 130.64 145.218 134.121C145.437 134.811 146.735 133.07 146.829 132.976C149.628 129.841 157.432 119.32 153.725 115.464C150.332 111.936 145.688 118.772 144.655 121.562C143.123 118.85 141.34 114.993 137.65 115.573C138.275 115.228 138.119 115.087 139.026 115.119C141.34 115.197 143.06 118.16 144.421 119.728C144.999 116.153 153.131 111.058 154.883 115.934C156.994 121.829 149.66 130.907 145.813 134.936C144.687 135.14 135.882 123.397 135.585 121.688C135.366 120.402 135.648 118.881 136.039 117.659L136.023 117.643Z" stroke="#FFFDF9" stroke-miterlimit="10"/>
<path d="M136.242 117.423C135.914 116.749 137.134 115.855 137.619 115.573C141.325 114.993 143.092 118.85 144.624 121.562C145.656 118.756 150.317 111.936 153.694 115.464C157.416 119.32 149.597 129.84 146.798 132.976C146.72 133.07 145.406 134.81 145.187 134.121C148.127 130.64 155.305 122.017 154.383 117.298C154.304 116.906 153.022 115.26 152.662 115.103C149.316 113.692 145.563 119.712 144.843 122.472C144.39 122.675 141.606 115.166 138.181 115.793C137.759 115.871 136.727 117.047 136.227 117.408L136.242 117.423Z" stroke="#FFFDF9" stroke-miterlimit="10"/>
<path d="M114.068 190.923C123.497 189.841 126.109 197.617 126.359 205.55C126.453 208.733 125.124 208.953 122.34 209.345C119.557 209.737 108.751 210.724 106.718 209.58C100.353 205.974 105.044 191.957 114.068 190.923Z" stroke="#FFFDF9" stroke-miterlimit="10"/>
<path d="M114.302 191.378C123.091 190.406 125.561 197.665 125.905 205.08C125.984 206.68 126.015 207.62 124.639 208.655C116.601 207.887 103.418 215.13 104.528 201.631C104.966 196.301 108.938 191.973 114.302 191.378Z" stroke="#FFFDF9" stroke-miterlimit="10"/>
<path d="M118.9 195.987C121.339 195.611 122.997 197.868 122.465 200.252C122.262 201.145 121.465 202.086 120.62 201.177C124.467 199.546 120.292 194.074 117.18 197.492C117.227 196.787 118.384 196.081 118.9 195.987Z" stroke="#FFFDF9" stroke-miterlimit="10"/>
<path d="M123.263 201.741C123.701 201.694 124.029 201.694 124.295 202.086C120.417 202.274 124.045 206.256 119.807 206.35C118.9 204.782 120.354 206.005 120.729 205.896C122.715 205.268 122.027 202.76 120.385 202.101C122.559 203.387 122.012 201.898 123.263 201.756V201.741Z" stroke="#FFFDF9" stroke-miterlimit="10"/>
<path d="M114.521 196.442C117.054 196.034 120.855 205.958 115.553 203.011C117.18 210.678 113.442 206.178 111.769 206.115C111.143 206.099 110.549 207.009 110.393 207.04C107.547 207.667 104.247 201.882 107.515 200.236C107.437 201.302 106.014 203.121 106.937 204.03C107.234 202.117 108.532 200.549 110.158 199.656C110.674 199.374 112.801 199.06 112.91 198.966C113.114 198.793 113.286 196.63 114.521 196.426V196.442Z" stroke="#FFFDF9" stroke-miterlimit="10"/>
<path d="M112.003 199.436C114.427 199.326 116.773 206.476 114.99 207.04C114.036 207.338 112.598 205.707 112.003 205.66C111.034 205.582 110.424 206.789 109.251 206.585C105.263 205.88 108.469 199.609 112.003 199.436Z" stroke="#FFFDF9" stroke-miterlimit="10"/>
<path d="M114.521 196.912C116.523 196.473 118.29 202.713 117.743 203.136C115.319 203.763 111.612 197.555 114.521 196.912Z" stroke="#FFFDF9" stroke-miterlimit="10"/>
</svg>
