<svg width="289" height="289" viewBox="0 0 289 289" fill="none" xmlns="http://www.w3.org/2000/svg">
<circle cx="144.342" cy="144.342" r="144.342" fill="#AB5534"/>
<path d="M133.148 248.021L133.587 242.317C135.482 242.955 133.208 247.981 133.148 249.237C133.088 250.374 133.128 252.448 133.148 254.862C133.567 254.862 133.986 254.862 134.425 254.862C135.183 245.907 135.941 236.673 134.923 234.997C133.148 232.146 132.29 244.052 132.27 244.77C132.27 245.229 131.711 248.579 133.148 248.021Z" stroke="#FFFDF9" stroke-miterlimit="10"/>
<path d="M139.811 159.489C136.719 161.762 129.736 173.609 126.046 177.817C126.445 175.444 143.362 152.748 145.795 151.352C146.075 151.192 148.09 150.315 148.229 150.733C145.875 151.392 142.564 159.23 141.786 159.489C141.526 159.569 141.506 158.232 139.791 159.489H139.811Z" stroke="#FFFDF9" stroke-miterlimit="10"/>
<path d="M111.842 205.48C111.562 205.62 110.824 204.363 110.964 206.098L113.178 208.133L110.964 207.315C108.849 203.605 110.445 201.571 112.301 198.559C112.72 197.742 112.5 198.041 113.178 197.343C113.817 196.386 113.897 196.425 114.515 195.707H114.495C115.014 194.192 116.49 193.075 116.27 191.439C114.156 194.63 101.508 207.195 111.163 209.15C114.694 209.848 114.754 206.078 112.5 204.662C112.141 204.782 111.882 205.46 111.842 205.48ZM111.842 205.48C111.562 205.739 112.281 206.736 112.5 206.697C113.238 206.597 112.121 205.221 111.842 205.48Z" stroke="#FFFDF9" stroke-miterlimit="10"/>
<path d="M133.826 205.48C138.514 205.52 137.058 209.908 133.387 208.731C132.948 208.591 133.367 207.514 132.948 207.514C132.649 207.514 132.928 208.751 132.07 209.15C131.492 209.409 127.801 209.688 126.963 209.349L131.632 208.332L130.295 207.514L133.626 206.896C131.173 206.597 128.779 205.979 127.642 208.312L126.764 206.278C128.799 206.218 132.011 205.44 133.866 205.46L133.826 205.48Z" stroke="#FFFDF9" stroke-miterlimit="10"/>
<path d="M126.046 177.798C125.866 178.915 126.225 179.952 126.923 180.85L119.163 192.038C117.687 190.562 120.001 190.203 120.28 189.386C120.36 189.146 119.303 189.206 119.402 188.987C120.38 186.713 125.766 181.488 125.607 180.032C125.507 179.094 123.013 181.248 126.046 177.798Z" stroke="#FFFDF9" stroke-miterlimit="10"/>
<path d="M136.04 209.548C136.659 217.526 135.841 225.623 135.163 233.561C134.205 225.563 135.761 217.526 136.04 209.548Z" stroke="#FFFDF9" stroke-miterlimit="10"/>
<path d="M117.846 207.933C119.003 207.594 125.148 207.714 126.504 208.552L122.953 208.951C130.534 210.167 120.081 209.988 117.407 209.968C116.33 209.589 117.388 208.073 117.846 207.933Z" stroke="#FFFDF9" stroke-miterlimit="10"/>
<path d="M132.708 171.695C134.205 169.162 135.621 165.592 137.596 162.94C138.314 161.963 139.651 161.604 140.249 160.906C140.309 160.846 139.292 159.908 139.81 159.49C139.89 159.43 141.127 160.068 141.586 160.108C138.594 163.957 135.721 167.866 132.708 171.715V171.695Z" stroke="#FFFDF9" stroke-miterlimit="10"/>
<path d="M152.02 151.332C154.454 152.927 157.027 155.5 158.902 157.634C160.119 159.03 162.533 161.344 162.673 163.139L152.02 151.332Z" stroke="#FFFDF9" stroke-miterlimit="10"/>
<path d="M132.051 233.981L131.173 249.856C129.976 249.856 132.051 235.516 132.051 233.981Z" stroke="#FFFDF9" stroke-miterlimit="10"/>
<path d="M114.076 198.161C114.216 197.942 115.353 197.264 115.413 196.745L114.535 196.546C114.615 196.326 114.455 195.947 114.535 195.728C115.333 194.811 116.35 193.773 117.188 192.876C116.909 193.355 117.946 194.033 117.627 194.711C116.31 197.503 114.335 200.136 112.52 202.649C112.42 201.053 113.557 199.697 114.076 198.161Z" stroke="#FFFDF9" stroke-miterlimit="10"/>
<path d="M124.051 180.25C124.969 180.25 124.55 181.148 124.27 181.666C123.093 183.92 118.425 187.829 117.388 190.82C116.43 190.322 117.707 188.786 118.046 188.168C118.545 187.27 123.512 180.23 124.031 180.23L124.051 180.25Z" stroke="#FFFDF9" stroke-miterlimit="10"/>
<path d="M189.983 195.707C191.34 196.366 190.881 195.408 190.422 194.491C190.362 194.391 189.524 193.494 189.085 192.855C188.706 192.337 187.649 191.419 186.871 190.422L186.891 190.402C184.178 190.602 186.652 192.157 187.33 193.254M189.983 195.707C189.923 195.668 190.023 194.71 189.325 194.491C188.507 195.189 189.943 195.628 189.983 195.707ZM189.983 195.707C190.422 196.465 190.861 197.203 191.32 197.941C189.345 197.123 188.327 194.91 187.33 193.254M187.33 193.254C187.35 193.314 188.447 194.132 188.666 193.873C188.587 192.816 186.891 191.898 187.33 193.254Z" stroke="#FFFDF9" stroke-miterlimit="10"/>
<path d="M132.709 171.695C131.073 174.467 129.776 177.319 127.602 179.832C125.148 178.735 132.011 172.573 132.709 171.695Z" stroke="#FFFDF9" stroke-miterlimit="10"/>
<path d="M134.703 210.785C135.821 210.785 134.983 219.241 133.826 220.139L134.703 210.785Z" stroke="#FFFDF9" stroke-miterlimit="10"/>
<path d="M132.489 222.572C132.449 224.785 133.427 230.948 133.148 232.543C132.988 233.461 132.549 232.962 132.031 233.561L132.469 222.572H132.489Z" stroke="#FFFDF9" stroke-miterlimit="10"/>
<path d="M133.387 209.548L132.509 221.355C132.09 217.566 132.11 213.198 133.387 209.548Z" stroke="#FFFDF9" stroke-miterlimit="10"/>
<path d="M168.877 209.15C170.094 209.15 169.695 217.207 168.438 216.469L168.877 209.15Z" stroke="#FFFDF9" stroke-miterlimit="10"/>
<path d="M117.408 206.697L126.066 206.896C124.151 207.634 118.505 208.272 117.408 206.697Z" stroke="#FFFDF9" stroke-miterlimit="10"/>
<path d="M133.826 223.389C134.923 225.284 134.923 229.233 133.826 231.128C133.447 228.595 133.447 225.922 133.826 223.389Z" stroke="#FFFDF9" stroke-miterlimit="10"/>
<path d="M114.076 198.16C113.478 199.038 112.301 200.075 111.862 201.211L111.204 204.263C110.605 202.408 111.403 200.254 112.321 198.559C112.42 198.399 112.919 197.761 113.199 197.342C113.318 197.223 114.296 196.584 114.535 196.525C114.356 197.023 114.256 197.642 114.096 198.16H114.076Z" stroke="#FFFDF9" stroke-miterlimit="10"/>
<path d="M180.427 183.502C180.886 183.961 186.193 189.605 184.856 190.024L180.427 183.502Z" stroke="#FFFDF9" stroke-miterlimit="10"/>
<path d="M168.877 205.899C169.176 205.779 175.32 205.799 175.32 206.098C172.567 206.816 169.795 205.061 168.877 208.332C167.919 207.773 167.919 206.297 168.877 205.899Z" stroke="#FFFDF9" stroke-miterlimit="10"/>
<path d="M175.101 176.98C176.477 178.675 178.692 180.53 179.091 182.684C177.834 181.129 175.021 179.114 175.101 176.98Z" stroke="#FFFDF9" stroke-miterlimit="10"/>
<path d="M192.856 199.378C194.292 199.378 193.314 203.386 192.417 203.865L192.856 199.378Z" stroke="#FFFDF9" stroke-miterlimit="10"/>
<path d="M188.866 204.263C189.285 204.263 189.724 204.123 189.983 204.463C190.103 205.021 182.303 206.118 181.106 205.679C183.101 205.54 187.19 204.223 188.866 204.263Z" stroke="#FFFDF9" stroke-miterlimit="10"/>
<path d="M167.56 225.842C168.677 227.278 169.555 228.934 167.56 230.33V225.842Z" stroke="#FFFDF9" stroke-miterlimit="10"/>
<path d="M145.576 155.003C146.673 153.148 148.429 150.256 151.341 150.735C148.868 151.552 147.331 153.407 145.576 155.003Z" stroke="#FFFDF9" stroke-miterlimit="10"/>
<path d="M170.892 172.513C171.869 173.59 173.645 175.125 173.784 176.581C172.308 175.345 171.071 174.068 170.014 172.513C170.233 172.592 170.752 172.433 170.892 172.513Z" stroke="#FFFDF9" stroke-miterlimit="10"/>
<path d="M176.877 205.898C177.276 207.294 179.25 206.317 177.754 207.534C176.019 207.813 175.58 206.995 176.877 205.898Z" stroke="#FFFDF9" stroke-miterlimit="10"/>
<path d="M117.168 192.856C117.647 192.337 116.949 190.682 118.944 192.657C118.644 193.634 117.308 192.617 117.168 192.856Z" stroke="#FFFDF9" stroke-miterlimit="10"/>
<path d="M116.291 209.15H114.515C114.216 208.392 117.468 207.335 116.291 209.15Z" stroke="#FFFDF9" stroke-miterlimit="10"/>
<path d="M178.213 205.48C179.629 205.141 180.088 206.597 179.091 206.696C179.011 206.696 177.415 205.978 178.213 205.48Z" stroke="#FFFDF9" stroke-miterlimit="10"/>
<path d="M133.826 221.355C134.365 221.016 134.404 222.911 133.826 222.572C133.487 222.372 133.447 221.594 133.826 221.355Z" stroke="#FFFDF9" stroke-miterlimit="10"/>
<path d="M116.29 209.15C115.871 209.768 114.774 209.828 114.515 209.15H116.29Z" stroke="#FFFDF9" stroke-miterlimit="10"/>
<path d="M145.576 155.002C145.576 155.002 145.596 155.999 144.918 156.219C144.1 155.521 145.536 155.082 145.576 155.002Z" stroke="#FFFDF9" stroke-miterlimit="10"/>
<path d="M186.871 190.422C188.347 190.322 188.607 192.157 189.085 192.855C189.405 193.294 189.863 193.713 190.422 194.491C193.853 199.297 196.427 199.397 191.978 205.081C191.898 205.201 192.098 203.765 190.861 204.881C190.641 205.081 190.761 208.89 186.871 207.733C195.01 204.961 184.956 205.759 182.203 206.317C181.844 206.397 181.385 207.713 180.427 207.953C175.66 209.129 175.759 206.836 175.101 206.736C167.381 205.42 170.453 211.782 169.994 216.708C169.934 217.386 167.999 218.403 169.994 219.56C169.435 220.757 168.019 219.101 167.78 219.56C167.341 220.378 167.261 225.942 168.897 226.68L169.555 222.811V232.982L167.341 231.766L166.682 251.111C167.979 248.16 167.181 244.67 167.341 241.538C167.381 240.661 167.341 240.162 167.341 239.903C167.46 237.729 168.079 235.595 167.78 233.381C168.957 234.937 167.221 236.532 169.555 237.45C168.996 242.815 168.757 248.279 168.657 253.784C169.176 253.764 169.695 253.744 170.193 253.724C170.373 238.786 170.433 223.848 170.892 208.95C171.41 207.753 195.369 211.642 196.187 202.847C196.526 199.317 185.295 185.855 182.422 182.484C176.697 175.763 169.774 169.84 164.009 163.139C163.391 163.099 162.852 163.578 162.892 164.156C162.952 164.714 169.834 171.336 170.872 172.493C175.879 174.966 183.44 186.034 186.851 190.402L186.871 190.422Z" stroke="#FFFDF9" stroke-miterlimit="10"/>
<path d="M167.999 242.117C169.376 243.773 168.538 247.103 168.438 249.038C167.141 247.223 167.839 244.151 167.999 242.117Z" stroke="#FFFDF9" stroke-miterlimit="10"/>
<path d="M169.994 172.512C169.994 172.512 168.817 172.133 169.336 171.694C170.253 171.495 169.954 172.492 169.994 172.512Z" stroke="#FFFDF9" stroke-miterlimit="10"/>
<path d="M183.54 207.515C184.178 207.415 185.375 207.435 185.974 207.714L182.203 208.333C182.004 208.014 183.46 207.535 183.54 207.515Z" stroke="#FFFDF9" stroke-miterlimit="10"/>
<path d="M189.085 192.855C188.686 192.317 187.649 191.399 186.871 190.422C188.347 190.322 188.607 192.157 189.085 192.855Z" stroke="#FFFDF9" stroke-miterlimit="10"/>
<path d="M190.422 194.491C190.422 194.491 189.524 193.494 189.085 192.855C189.405 193.294 189.863 193.713 190.422 194.491Z" stroke="#FFFDF9" stroke-miterlimit="10"/>
<path d="M114.515 196.524C114.276 196.584 113.298 197.223 113.178 197.342C113.817 196.405 113.877 196.445 114.515 195.707C114.435 195.926 114.595 196.305 114.515 196.524Z" stroke="#FFFDF9" stroke-miterlimit="10"/>
<path d="M111.842 205.48C112.141 205.221 113.238 206.617 112.5 206.697C112.281 206.717 111.562 205.72 111.842 205.48Z" stroke="#FFFDF9" stroke-miterlimit="10"/>
<path d="M112.301 198.559C112.739 197.741 112.5 198.041 113.178 197.343C112.899 197.761 112.4 198.4 112.301 198.559Z" stroke="#FFFDF9" stroke-miterlimit="10"/>
<path d="M114.076 198.16C114.236 197.661 114.355 197.023 114.515 196.525L115.393 196.724C115.333 197.243 114.216 197.941 114.056 198.14L114.076 198.16Z" stroke="#FFFDF9" stroke-miterlimit="10"/>
<path d="M187.31 193.274C186.871 191.918 188.567 192.835 188.646 193.892C188.447 194.151 187.33 193.354 187.31 193.274Z" stroke="#FFFDF9" stroke-miterlimit="10"/>
<path d="M189.963 195.707C189.963 195.707 188.467 195.189 189.305 194.491C190.003 194.73 189.903 195.687 189.963 195.707Z" stroke="#FFFDF9" stroke-miterlimit="10"/>
<path d="M103.922 196.306C103.922 196.167 103.922 196.027 103.882 195.868C99.0343 195.668 94.7253 195.449 91.1943 195.229C72.3422 194.053 55.7644 186.753 46.1489 171.416C24.085 136.215 45.4706 85.478 88.9799 75.9448C91.2342 74.4291 81.4391 77.0218 81.0002 77.1614C22.4292 97.0655 17.4618 191.739 92.9897 196.027C96.5606 196.227 100.231 196.386 103.982 196.526C103.982 196.446 103.942 196.366 103.942 196.286L103.922 196.306Z" stroke="#FFFDF9" stroke-miterlimit="10"/>
<path d="M217.932 97.3238C217.693 75.2857 206.541 42.5777 181.305 34.8395C174.802 32.8451 164.209 31.8279 157.346 31.9875C127.303 32.6456 102.446 48.521 90.9949 73.7102L92.7704 72.4936C105.658 42.478 143.441 26.8619 177.315 34.4406C205.304 40.703 216.994 74.2686 217.034 97.7426C264.553 109.709 263.716 180.091 216.376 192.396C214.78 192.815 212.965 193.194 210.97 193.533C211.129 193.733 211.269 193.932 211.389 194.171C222.8 191.978 233.193 187.49 241.432 177.937C262.658 153.286 254.399 105.501 217.912 97.3238H217.932Z" stroke="#FFFDF9" stroke-miterlimit="10"/>
<path d="M117.408 136.215C118.345 136.913 114.495 138.608 114.295 138.648C113.458 138.868 112.999 139.426 112.301 138.449L117.408 136.215Z" stroke="#FFFDF9" stroke-miterlimit="10"/>
<path d="M121.397 132.544C122.135 133.502 118.245 136.593 117.627 135.197L121.397 132.544Z" stroke="#FFFDF9" stroke-miterlimit="10"/>
<path d="M57.2605 170.199C57.5997 170.538 57.7992 170.657 57.9587 170.657C55.9439 168.543 54.2482 166.21 52.8318 163.677C54.0088 166.13 55.485 168.344 57.2605 170.199Z" stroke="#FFFDF9" stroke-miterlimit="10"/>
<path d="M75.4544 154.742C73.0605 138.567 79.6039 114.036 95.6431 104.862C98.5756 103.187 111.842 100.016 114.276 101.611C114.655 101.851 114.316 108.013 117.388 109.35C124.909 112.64 125.946 98.919 118.046 99.7766C121.876 100.495 124.729 105.441 121.597 108.332C118.285 111.404 114.595 106.159 115.393 103.047C116.35 99.278 117.049 106.478 117.607 107.116C119.482 109.25 122.375 107.056 120.719 104.264C120.041 103.107 117.707 102.808 117.607 102.629C117.408 102.27 117.547 95.5883 117.607 94.4914C119.842 48.062 182.442 43.4549 185.515 90.004C185.714 92.8959 184.258 105.939 184.637 106.697C185.654 108.791 189.784 106.398 190.841 105.062C200.816 92.7962 190.641 69.3421 178.632 60.487C154.912 42.9962 125.008 54.5238 114.934 79.0149L124.689 65.5727C147.95 41.281 183.141 54.5038 187.27 85.5166C188.168 92.3175 186.492 98.919 187.489 105.66C190.262 86.7931 186.831 60.846 163.53 54.7631C183.16 58.2732 196.048 78.0776 193.494 96.0869C193.295 97.4431 187.729 111.165 185.515 106.258C185.215 105.58 186.512 94.0526 186.412 91.5995C185.694 74.2683 177.734 56.578 156.448 54.7631C130.415 52.5294 115.333 73.7896 114.495 95.2692C79.943 91.4599 58.8167 136.354 68.3325 162.041C68.9709 163.757 73.5592 170.976 75.215 171.615C77.6089 172.532 78.5266 171.176 78.766 171.216C79.6438 171.335 82.9952 174.586 85.8679 174.885C100.63 176.441 106.037 164.235 104.74 152.708C104.141 162.361 101.608 175.165 87.8828 173.669C82.0576 175.045 77.7885 168.882 74.3373 165.532L78.1077 170.617C77.5291 174.287 70.9658 165.651 70.5668 164.913C64.1432 153.286 67.5146 134.619 72.7812 122.991C79.5839 107.954 97.1193 92.0583 116.271 96.5257C114.076 90.7021 117.607 80.3312 120.699 74.5475C133.726 50.2757 170.533 48.0021 182.163 73.9292C171.231 52.6291 141.327 50.8541 126.026 69.2424C118.625 78.1175 116.749 89.645 116.709 100.594C115.173 102.17 115.532 99.3777 115.153 99.1782C112.52 97.7622 102.326 99.3577 99.1741 100.395C76.412 107.874 62.9263 149.577 77.2099 166.948C79.4642 169.7 84.0725 173.25 87.8629 173.669C64.2429 164.275 71.0656 128.815 83.4341 113.618C90.6159 104.782 102.605 96.3263 114.954 100.594C101.029 99.6569 90.9749 105.341 83.4341 115.652C74.6564 127.678 67.0957 165.592 86.7656 171.216C98.1367 174.467 101.089 163.218 103.284 153.007C102.685 155.62 101.807 158.711 100.311 162.46C93.5284 179.353 77.4294 168.025 75.4544 154.722V154.742Z" stroke="#FFFDF9" stroke-miterlimit="10"/>
<path d="M191.519 109.75C181.804 116.212 193.375 122.574 198.841 115.254C199.838 113.918 201.294 108.453 202.172 108.134C203.15 107.775 211.369 108.593 212.825 108.952C239.278 115.274 233.512 165.493 207.938 166.769C198.122 167.248 202.132 157.795 201.494 151.512C197.325 109.51 155.172 110.986 123.153 128.098C103.802 138.449 105.658 141.301 103.563 151.632C104.541 147.085 105.418 142.896 106.934 140.503C111.842 132.845 139.631 120.48 149.327 118.724C176.637 113.798 197.983 123.072 200.596 149.877C201.055 154.544 198.462 165.573 203.928 167.188C211.369 169.382 220.585 162.561 224.575 157.216C238.041 139.167 230.979 104.006 201.274 107.755C199.24 113.559 195.948 121.955 188.188 115.693C189.584 113.579 190.302 118.026 194.631 116.311C199.499 114.377 200.935 103.587 201.135 94.8516C201.015 97.3844 200.716 99.9971 200.177 102.67C198.701 110.029 196.487 106.499 191.519 109.79V109.75Z" stroke="#FFFDF9" stroke-miterlimit="10"/>
<path d="M105.578 181.288C94.1865 180.65 82.9551 179.972 72.1226 179.373C66.3374 177.379 62.4872 174.029 58.3577 170.02C58.2579 169.92 58.3178 170.678 57.9387 170.678C63.9833 177.06 72.8408 181.388 84.9899 182.245C91.3138 182.684 98.0766 182.963 105.039 183.143C105.218 182.525 105.378 181.926 105.578 181.328V181.288Z" stroke="#FFFDF9" stroke-miterlimit="10"/>
<path d="M228.146 169.182C245.901 152.23 244.724 125.066 227.707 107.914L218.61 100.794H218.59C248.335 115.992 250.37 161.264 219.488 176.522C214.102 179.174 208.037 180.849 201.653 181.926C201.494 181.707 201.354 181.507 201.195 181.288C204.606 180.61 207.937 179.613 212.167 178.137M228.146 169.182C229.622 168.763 228.625 170.319 227.488 170.399C227.208 170.219 228.086 169.202 228.146 169.182ZM228.146 169.182C222.879 174.208 219.169 175.684 212.167 178.137M212.167 178.137C212.346 178.037 213.443 178.077 213.503 178.336C212.685 179.214 211.389 178.536 212.167 178.137Z" stroke="#FFFDF9" stroke-miterlimit="10"/>
<path d="M63.4845 99.7774C73.5988 88.9678 80.3616 85.677 95.2238 86.9534C104.56 87.7512 105.637 77.4003 109.208 71.6963C136.299 28.2385 199.179 46.5869 201.174 90.4037C201.134 88.1301 201.015 86.1956 200.875 84.9192C203.488 91.5406 203.249 98.6605 201.533 105.481C227.627 104.943 237.701 130.252 230.38 150.255C226.869 159.848 212.166 173.41 200.197 166.949C201.035 144.831 197.803 121.656 168.896 119.123C152.099 117.647 123.372 126.602 111.203 137.451C109.707 138.788 108.311 140.523 111.203 141.121C116.19 142.158 126.504 132.166 130.514 129.514C125.148 130.87 118.764 139.226 113.876 140.303C102.844 142.737 123.133 130.85 124.529 130.132C141.526 121.417 167.101 114.556 184.896 124.847C200.696 133.981 199.02 152.788 199.319 167.786C215.977 174.507 231.457 156.737 233.053 142.956C235.347 123.132 225.692 105.761 202.431 104.684C206.581 89.8254 197.045 66.2118 184.457 56.4392C171.53 46.4074 155.989 44.6324 139.631 47.0855L140.07 47.9032C136.738 48.1426 133.127 49.5586 129.856 51.1541C125.108 53.4676 117.028 59.3311 113.657 63.1603C109.268 68.1463 104.161 82.6655 99.4531 84.9391C99.9119 84.62 101.488 83.922 102.106 83.5231C101.368 85.1784 99.5528 86.2554 97.6776 86.3751C97.9369 85.9164 98.9344 85.318 99.4531 84.9591C96.9195 86.1756 88.2216 84.6599 83.2543 85.7768C55.046 92.099 38.1689 137.451 52.8715 163.718C44.1737 145.688 50.6173 113.579 63.5045 99.8173L63.4845 99.7774Z" stroke="#FFFDF9" stroke-miterlimit="10"/>
<path d="M87.8825 173.67C82.0574 175.046 77.7882 168.883 74.337 165.533L78.1074 170.618C77.5289 174.288 70.9656 165.652 70.5666 164.914C64.1429 153.287 67.5143 134.62 72.781 122.992C79.5837 107.955 97.1191 92.0592 116.27 96.5267C114.076 90.703 117.607 80.3322 120.699 74.5485C133.726 50.2767 170.532 48.0031 182.163 73.9302C171.231 52.6301 141.327 50.8551 126.026 69.2434C118.624 78.1184 116.749 89.646 116.709 100.595C115.173 102.171 115.532 99.3787 115.153 99.1792C112.52 97.7632 102.326 99.3587 99.1738 100.396C76.4117 107.875 62.926 149.578 77.2097 166.949C79.464 169.701 84.0722 173.251 87.8626 173.67H87.8825Z" stroke="#FFFDF9" stroke-miterlimit="10"/>
<path d="M197.304 108.114C200.955 108.114 195.13 115.553 193.753 115.852C192.038 116.231 188.806 114.934 189.085 113.199C189.305 111.883 195.748 108.114 197.304 108.114Z" stroke="#FFFDF9" stroke-miterlimit="10"/>
<path d="M117.847 103.646C118.984 102.789 122.176 106.997 119.622 107.316C118.545 107.456 116.789 104.464 117.847 103.646Z" stroke="#FFFDF9" stroke-miterlimit="10"/>
<path d="M99.4332 84.9192C99.892 84.6001 101.468 83.9021 102.086 83.5032C101.348 85.1585 99.5329 86.2355 97.6577 86.3552C97.9171 85.8964 98.9145 85.2981 99.4332 84.9391V84.9192Z" stroke="#FFFDF9" stroke-miterlimit="10"/>
<path d="M228.146 169.182C229.622 168.763 228.625 170.319 227.488 170.399C227.209 170.219 228.086 169.202 228.146 169.182Z" stroke="#FFFDF9" stroke-miterlimit="10"/>
<path d="M212.167 178.137C212.346 178.037 213.443 178.077 213.503 178.337C212.685 179.214 211.389 178.536 212.167 178.137Z" stroke="#FFFDF9" stroke-miterlimit="10"/>
<path d="M123.193 153.087C123.353 152.629 123.552 152.19 123.692 151.711C124.25 149.777 125.567 148.64 127.123 148.141C131.492 143.734 137.257 141.001 145.277 140.842C145.516 140.842 145.716 140.882 145.935 140.882C146.035 140.882 146.115 140.842 146.214 140.842C159.561 139.745 177.355 139.605 185.754 151.073C188.527 154.862 190.043 159.31 191.619 163.737C192.178 160.626 192.257 156.637 191.719 151.452C190.023 134.958 176.098 124.288 158.204 124.388C137.676 124.488 126.026 134.978 111.383 146.167L118.046 142.916C112.54 147.443 105.797 164.535 110.944 170.119C113.657 166.19 117.168 162.84 119.921 159.05C120.899 156.936 121.976 154.922 123.173 153.087H123.193Z" stroke="#FFFDF9" stroke-miterlimit="10"/>
<path d="M123.213 153.087C123.372 152.629 123.572 152.21 123.712 151.731C124.27 149.796 125.587 148.66 127.143 148.161C131.512 143.753 137.277 141.021 145.297 140.862C145.536 140.862 145.736 140.901 145.955 140.901C146.055 140.901 146.135 140.862 146.234 140.862C159.58 139.765 177.375 139.625 185.774 151.093C188.247 154.463 189.724 158.352 191.12 162.281C194.871 141.001 179.569 124.089 155.571 125.206C139.152 125.983 120.779 136.035 113.617 149.836C111.523 153.865 108.051 164.954 111.483 169.381C114.116 165.772 117.368 162.6 119.941 159.05C120.919 156.916 121.996 154.922 123.193 153.067L123.213 153.087Z" stroke="#FFFDF9" stroke-miterlimit="10"/>
<path d="M123.213 153.067C123.373 152.628 123.572 152.189 123.692 151.731C124.25 149.796 125.567 148.659 127.123 148.161C131.492 143.753 137.257 141.021 145.277 140.861C145.516 140.861 145.716 140.901 145.935 140.901C146.035 140.901 146.115 140.861 146.214 140.861C159.561 139.764 177.355 139.625 185.754 151.092C187.649 153.685 188.966 156.597 190.103 159.589C192.277 140.063 178.193 124.886 155.551 126.442C138.634 127.599 116.729 139.824 112.281 155.54C111.503 158.272 110.146 165.253 112.061 168.583C114.595 165.273 117.547 162.321 119.961 159.01C120.939 156.896 122.016 154.902 123.213 153.067Z" stroke="#FFFDF9" stroke-miterlimit="10"/>
<path d="M119.981 159.011C120.959 156.897 122.036 154.903 123.233 153.068C123.393 152.629 123.572 152.19 123.712 151.732C124.27 149.797 125.587 148.66 127.143 148.162C131.512 143.754 137.277 141.022 145.297 140.862C145.536 140.862 145.736 140.902 145.955 140.902C146.055 140.902 146.135 140.862 146.234 140.862C159.58 139.765 177.375 139.626 185.774 151.094C187.29 153.148 188.387 155.421 189.365 157.735C190.223 138.609 177.275 125.605 155.112 127.241C136.02 128.657 109.009 145.489 111.842 165.314C111.982 166.311 112.301 167.109 112.72 167.767C115.094 164.795 117.767 162.043 119.961 159.011H119.981Z" stroke="#FFFDF9" stroke-miterlimit="10"/>
</svg>
