<svg width="289" height="289" viewBox="0 0 289 289" fill="none" xmlns="http://www.w3.org/2000/svg">
<circle cx="144.342" cy="144.342" r="144.342" fill="#AB5534"/>
<path d="M177.163 110.453C181.66 104.992 190.398 96.8901 193.5 91.5674C193.579 91.4294 195.149 90.9366 194.246 90.0692C193.736 90.3058 193.245 91.3703 193.009 91.5674C187.099 96.3184 180.108 103.869 175.18 109.704C162.122 125.258 153.227 142.389 142.015 158.908C134.494 169.987 125.147 179.824 118.51 191.455L125.697 178.78C150.026 147.238 166.265 114.317 196.229 87.0925C198.134 85.3774 198.134 87.1516 198.213 87.0925C202.592 83.1892 206.146 76.7626 211.82 74.4167C200.51 86.5405 188.022 97.9349 177.163 110.453Z" stroke="#FFFDF9" stroke-width="1.19" stroke-miterlimit="10"/>
<path d="M110.342 219.291C120.925 211.701 125.343 198.335 132.609 187.73C140.738 175.882 152.461 163.423 160.826 151.95C163.241 148.618 164.144 144.104 166.775 140.516C172.705 132.394 180.305 124.173 186.333 115.914C181.424 125.396 173.353 133.123 167.266 141.502C165.047 144.557 164.026 149.091 162.318 151.437C153.757 163.226 141.838 175.704 133.61 187.71C128.976 194.472 121.907 210.104 117.273 215.033C115.388 217.043 112.698 218.009 110.342 219.251V219.291Z" stroke="#FFFDF9" stroke-width="1.19" stroke-miterlimit="10"/>
<path d="M141.524 166.124C142.682 165.809 143.094 164.093 141.524 165.138C141.857 164.645 142.191 164.133 142.505 163.64C143.016 164.764 143.821 164.093 142.996 163.147C157.134 142.014 168.68 121.986 186.058 103.021C157.664 136.593 137.459 176.04 113.287 212.608C112.443 213.357 110.97 215.585 109.831 214.106L141.504 166.144L141.524 166.124Z" stroke="#FFFDF9" stroke-width="1.19" stroke-miterlimit="10"/>
<path d="M167.266 123.384C153.246 142.27 140.345 162.772 127.169 182.268C120.945 191.494 115.486 201.233 109.104 210.34L117.273 195.673C134.749 172.076 149.495 146.666 167.266 123.365V123.384Z" stroke="#FFFDF9" stroke-width="1.19" stroke-miterlimit="10"/>
<path d="M200.176 80.6465L173.196 108.718C168.169 118.792 158.508 125.179 153.639 135.312L156.859 128.097C163.987 122.183 167.855 113.509 173.687 106.727C181.62 97.5015 191.458 89.143 200.176 80.6465Z" stroke="#FFFDF9" stroke-width="1.19" stroke-miterlimit="10"/>
<path d="M74.9381 140.773C76.7249 141.187 74.9381 141.897 74.4472 142.271C71.7178 144.321 59.4649 151.26 59.838 154.947C60.1522 157.943 83.8135 177.302 85.8164 182.526C82.4783 178.031 60.1129 159.343 59.3275 155.933C57.9922 150.078 70.8145 143.967 74.9184 140.773H74.9381Z" stroke="#FFFDF9" stroke-width="1.19" stroke-miterlimit="10"/>
<path d="M69.0078 148.717C82.4977 162.93 95.7717 178.09 105.629 194.925L69.0078 148.717Z" stroke="#FFFDF9" stroke-width="1.19" stroke-miterlimit="10"/>
<path d="M140.031 167.111C130.154 181.975 120.101 196.72 110.577 211.841C112.03 207.819 114.956 203.305 117.254 199.658C123.086 190.452 132.746 174.563 140.031 167.111Z" stroke="#FFFDF9" stroke-width="1.19" stroke-miterlimit="10"/>
<path d="M196.465 96.536H195.974C197.368 94.8998 198.605 93.2636 199.94 91.5682C204.417 87.0736 209.248 82.6183 213.803 78.1434C215.08 78.1434 215.472 77.0789 216.277 76.4086C216.238 76.0538 215.649 76.1523 215.296 76.1523C217.593 73.9642 220.008 70.7311 223.72 70.9283C222.522 71.8745 218.398 73.4516 217.77 74.3978C217.711 74.4964 219.301 74.7921 218.752 75.3835C212.174 82.4804 203.121 89.0843 196.484 96.4966L196.465 96.536Z" stroke="#FFFDF9" stroke-width="1.19" stroke-miterlimit="10"/>
<path d="M110.342 219.292C118.648 225.639 122.437 210.933 125.677 205.63C124.008 212.333 118.687 226.428 109.831 220.041L110.322 219.292H110.342Z" stroke="#FFFDF9" stroke-width="1.19" stroke-miterlimit="10"/>
<path d="M88.0549 174.562C93.6119 181.639 100.877 188.992 104.137 197.43C98.7565 189.879 93.7101 181.895 88.0549 174.562Z" stroke="#FFFDF9" stroke-width="1.19" stroke-miterlimit="10"/>
<path d="M215.767 73.688C209.071 78.8529 201.04 87.3691 194.972 93.5591C201.55 86.482 207.539 78.912 215.767 73.688Z" stroke="#FFFDF9" stroke-width="1.19" stroke-miterlimit="10"/>
<path d="M83.8525 182.013L96.7141 196.916C92.5316 191.83 85.3056 189.189 83.8525 182.013Z" stroke="#FFFDF9" stroke-width="1.19" stroke-miterlimit="10"/>
<path d="M81.6338 165.611C77.1764 160.544 69.7933 156.937 67.5352 150.215C71.7569 155.872 77.0782 160.268 81.6338 165.611Z" stroke="#FFFDF9" stroke-width="1.19" stroke-miterlimit="10"/>
<path d="M167.267 123.386C170.801 118.635 173.177 115.067 177.163 110.474C173.805 114.574 170.487 119.148 167.267 123.386Z" stroke="#FFFDF9" stroke-width="1.19" stroke-miterlimit="10"/>
<path d="M211.074 79.1487C212.134 79.8781 209.012 82.1845 208.6 82.6182C207.304 83.9785 205.949 85.2401 204.634 86.6004C205.478 83.5251 209.228 81.5734 211.074 79.1487Z" stroke="#FFFDF9" stroke-width="1.19" stroke-miterlimit="10"/>
<path d="M199.941 91.5676C199.332 92.1787 198.036 92.4744 197.958 92.5532C199.509 90.8973 200.962 89.1034 202.651 87.5854C203.299 88.65 200.608 90.6805 199.921 91.5676H199.941Z" stroke="#FFFDF9" stroke-width="1.19" stroke-miterlimit="10"/>
<path d="M186.077 103.002C187.727 101.03 189.357 99.4138 191.026 97.541C189.396 99.2561 187.707 101.227 186.077 103.002Z" stroke="#FFFDF9" stroke-width="1.19" stroke-miterlimit="10"/>
<path d="M193.5 97.5408C195.032 95.7074 196.328 94.3078 197.957 92.573C196.465 94.0909 195.051 95.944 193.5 97.5408Z" stroke="#FFFDF9" stroke-width="1.19" stroke-miterlimit="10"/>
<path d="M87.0729 173.083C85.8554 171.506 84.4809 169.18 83.6169 168.115C85.1486 169.969 85.934 171.644 87.0729 173.083Z" stroke="#FFFDF9" stroke-width="1.19" stroke-miterlimit="10"/>
<path d="M194.973 93.5581C193.716 94.9183 192.204 96.1997 191.006 97.5402C192.361 96.1209 193.638 94.9183 194.973 93.5581Z" stroke="#FFFDF9" stroke-width="1.19" stroke-miterlimit="10"/>
<path d="M96.4785 191.969C96.9694 192.501 98.933 193.27 98.2065 194.452C97.1265 194.452 96.7731 192.422 96.4785 191.969Z" stroke="#FFFDF9" stroke-width="1.19" stroke-miterlimit="10"/>
<path d="M83.5972 168.115C82.9296 167.306 82.262 166.38 81.614 165.631C82.3995 166.537 82.8904 167.267 83.5972 168.115Z" stroke="#FFFDF9" stroke-width="1.19" stroke-miterlimit="10"/>
<path d="M215.276 76.1709C214.766 76.6637 214.295 77.6691 213.784 78.162C213.411 78.162 212.842 78.2605 212.802 77.9057C213.607 77.2354 214 76.1709 215.276 76.1709Z" stroke="#FFFDF9" stroke-width="1.19" stroke-miterlimit="10"/>
<path d="M141.524 166.124C141.19 166.4 140.306 166.853 140.031 167.109C140.62 166.222 141.17 165.651 141.524 165.118C141.484 165.434 141.582 166.065 141.524 166.104V166.124Z" stroke="#FFFDF9" stroke-width="1.19" stroke-miterlimit="10"/>
<path d="M96.4786 191.969C96.0858 191.555 94.4364 191.023 95.2415 189.978C96.2233 190.372 96.2429 191.614 96.4786 191.969Z" stroke="#FFFDF9" stroke-width="1.19" stroke-miterlimit="10"/>
<path d="M193.5 91.5671H193.009C193.245 91.3896 193.736 90.3054 194.246 90.0688C195.169 90.9362 193.578 91.4291 193.5 91.5671Z" stroke="#FFFDF9" stroke-width="1.19" stroke-miterlimit="10"/>
<path d="M88.0548 174.562C87.5246 173.892 87.2104 173.261 87.073 173.064C87.6032 173.734 87.8584 174.306 88.0548 174.562Z" stroke="#FFFDF9" stroke-width="1.19" stroke-miterlimit="10"/>
<path d="M142.505 163.64C142.839 163.128 142.976 163.167 142.996 163.147C143.801 164.094 143.016 164.764 142.505 163.64Z" stroke="#FFFDF9" stroke-width="1.19" stroke-miterlimit="10"/>
<path d="M198.704 84.6096L199.43 84.8659L198.704 85.615L198.448 85.3587L198.704 84.6096Z" stroke="#FFFDF9" stroke-width="1.19" stroke-miterlimit="10"/>
<path d="M233.557 75.1854C203.711 98.0135 180.108 126.953 160.453 159.835C149.967 178.247 143.409 195.358 131.627 213.771C127.7 217.713 125.069 222.977 121.141 225.619C113.287 230.882 106.729 225.619 102.801 219.034C92.3157 195.358 73.9757 174.304 53.0045 159.835C46.4461 145.365 64.8057 141.422 74.447 135.784C73.7794 135.331 73.1903 134.641 72.4638 134.286C80.5145 136.139 84.4417 144.044 88.3689 150.609C89.6845 153.231 89.6845 155.872 90.9805 158.494C93.5921 163.758 98.8349 167.7 101.466 174.285C104.078 179.548 110.636 179.548 113.267 184.812C108.025 194.018 100.17 203.224 104.137 214.796M104.137 214.796C99.4436 207.541 104.019 214.204 104.137 214.796ZM104.137 214.796C104.019 214.204 102.978 210.262 101.82 210.479C100.897 210.656 104.038 214.678 104.137 214.796ZM104.137 214.796C100.052 207.66 104.647 201.036 108.496 194.846C110.636 192.717 111.952 188.754 114.583 184.812C128.996 170.342 140.797 153.231 152.893 137.519M152.893 137.519C147.296 143.768 152.696 138.406 152.893 137.519ZM152.893 137.519C152.696 138.406 151.4 142.507 149.947 142.369C148.848 142.25 152.618 137.815 152.893 137.519ZM152.893 137.519C149.574 144.458 145.078 150.688 140.09 156.503C138.166 157.193 138.166 159.835 136.85 161.136C123.753 171.663 115.879 184.812 106.709 197.98C104.097 203.244 101.466 215.092 109.32 217.713C109.32 217.713 108.005 219.034 108.398 219.586C108.221 218.798 108.614 217.911 109.32 217.28C109.458 221.715 103.842 213.692 105.688 218.265C107.337 222.346 112.776 225.224 116.9 224.041C126.365 221.301 131.156 208.251 134.592 200.129C132.255 208.823 127.366 221.065 118.255 224.554C104.942 229.62 98.0102 209.04 104.058 199.814C107.337 194.787 112.128 190.469 107.612 184.398C105.845 182.012 103.332 180.396 101.113 178.464C98.4422 176.158 96.616 173.496 94.5542 170.657C89.9398 164.29 85.0897 158.1 80.652 151.595C79.3167 149.623 76.0768 141.994 73.2099 146.114C71.3445 148.815 75.2913 151.969 77.0782 153.743C88.1922 164.704 101.446 175.625 106.611 190.943M106.611 190.943C104.863 186.803 108.594 187.71 106.611 190.943ZM106.611 190.943C98.3833 177.084 86.1893 166.222 75.9982 153.901C74.1524 151.654 69.8914 148.46 72.3263 145.523C74.7612 142.586 77.1175 144.517 78.708 146.765C83.3028 153.231 87.1907 160.15 92.0605 166.459C97.7745 173.851 103.999 180.83 110.577 187.453M110.577 187.453C102.036 177.222 112.325 184.339 110.577 187.453ZM110.577 187.453C110.734 186.448 111.245 185.521 111.952 184.812C98.8545 172.964 93.6117 155.872 81.8105 141.403C72.6405 130.876 58.2277 145.345 51.6693 154.552C58.2277 162.437 63.4705 170.342 73.9365 175.606C80.4949 179.548 83.1065 187.453 88.3493 192.717C93.5921 197.98 94.9077 204.565 100.15 209.828C101.466 212.45 102.762 216.412 105.393 220.355C109.32 225.619 113.248 226.939 118.49 225.619C132.903 219.034 136.831 201.943 142.073 188.774C164.341 144.044 195.797 105.899 232.576 74.4165C226.724 79.1281 220.853 83.8593 215.001 88.5708C214.216 84.7464 221.03 81.1585 223.563 79.3449C226.429 77.2947 233.852 73.5886 233.656 69.4488C233.341 62.4505 218.359 72.0115 215.748 73.6674C219.773 70.5921 225.035 66.3932 230.259 65.8215C234.245 65.3878 234.205 68.3842 234.304 71.6764C236.11 69.9219 239.684 67.0832 239.703 64.3036C240.351 62.4899 239.036 61.1691 239.036 61.1691C228.55 59.8483 219.38 66.4326 210.21 71.6961C207.599 74.318 204.967 75.6388 201.04 78.2804C183.996 92.75 168.287 105.899 153.875 121.689C140.777 137.48 130.292 154.571 119.806 174.304C117.195 179.568 110.636 175.625 106.709 171.683C96.2233 159.835 92.2961 142.743 77.8833 134.838C67.3977 134.838 55.6161 137.46 49.0577 146.686C46.4461 150.629 46.4461 154.571 49.0577 158.534C63.4705 170.381 79.1989 179.588 88.3689 196.679C93.6117 208.527 100.17 219.034 108.025 228.26C111.952 232.203 117.195 232.203 121.122 230.882C125.049 228.26 127.68 225.619 130.292 221.676C151.263 179.588 170.919 137.48 205.36 105.741M205.36 105.741C204.044 107.456 202.611 109.782 200.765 110.926C201.629 108.876 203.632 107.121 205.36 105.741ZM205.36 105.741C181.345 134.01 159.648 164.467 142.525 197.468C138.362 205.471 135.103 213.968 130.92 221.932C127.955 227.57 122.143 231.513 115.722 231.69C98.776 232.144 93.4546 206.91 85.9537 195.713C76.2928 181.283 63.8632 169.613 49.8627 159.697C35.8623 149.781 64.5505 133.123 73.3866 132.137C90.7645 130.206 98.7367 154 106.591 165.177C108.28 167.582 110.597 172.55 113.66 170.835C116.527 169.218 118.412 163.009 120.081 160.071C124.263 152.679 128.701 144.872 133.865 138.15C136.575 134.621 139.756 131.743 142.329 128.076C144.901 124.41 147.571 120.861 150.36 117.372C155.681 110.748 161.415 104.48 167.541 98.6049C179.499 87.1317 193.088 76.447 207.657 68.5222C210.917 66.748 215.139 66.6692 218.006 64.2641" stroke="#FFFDF9" stroke-width="1.19" stroke-miterlimit="10"/>
<path d="M234.834 59.2773C242.826 58.8042 245.261 63.1017 239.291 68.7201C244.711 58.4296 234.952 60.4601 228.393 62.254C198.35 70.514 140.993 131.231 126.168 158.909C124.676 161.689 120.513 174.502 118.491 175.054C117.587 175.291 114.446 174.246 114.289 173.319C113.876 171.033 135.535 137.796 138.539 133.558C158.332 105.683 184.644 80.4101 216.003 66.2164C220.284 64.2845 230.573 59.5139 234.814 59.2576L234.834 59.2773Z" stroke="#FFFDF9" stroke-width="1.19" stroke-miterlimit="10"/>
<path d="M82.8708 135.805L116.036 176.553C112.6 176.376 109.595 171.96 107.377 169.338C98.5404 158.89 91.3536 146.569 82.8708 135.786V135.805Z" stroke="#FFFDF9" stroke-width="1.19" stroke-miterlimit="10"/>
<path d="M212.056 94.5649C213.627 94.8212 210.348 97.2854 210.073 97.0488C209.975 96.0632 211.545 95.3338 212.056 94.5649Z" stroke="#FFFDF9" stroke-width="1.19" stroke-miterlimit="10"/>
<path d="M141.268 192.461C141.916 192.501 140.935 194.216 140.777 194.452C140.071 194.176 140.817 192.442 141.268 192.461Z" stroke="#FFFDF9" stroke-width="1.19" stroke-miterlimit="10"/>
<path d="M195.974 96.5355C195.405 97.2057 194.05 97.8366 193.5 98.5265C193.598 98.4082 193.402 97.6394 193.5 97.5409C195.051 95.9441 196.465 94.091 197.957 92.5731C198.036 92.4942 199.332 92.1788 199.941 91.5874C198.625 93.2828 197.368 94.919 195.974 96.5552V96.5355Z" stroke="#FFFDF9" stroke-width="1.19" stroke-miterlimit="10"/>
<path d="M193.519 98.5269C193.618 98.4087 193.421 97.6596 193.519 97.5413C183.466 107.891 172.509 121.592 163.81 134.07C155.111 146.549 117.705 213.87 109.36 217.3V217.793C116.487 215.27 127.052 194.433 131.627 187.237C151.4 156.13 171.704 124.194 196.465 96.5359H196.484H195.994C195.424 97.2259 194.089 97.837 193.519 98.5269ZM193.519 98.5269C192.832 99.3746 192.204 100.183 191.536 101.011M193.519 98.5269C192.871 99.3155 192.223 100.183 191.536 101.011M191.536 101.011C182.405 111.991 172.352 122.38 165.047 134.8C175.003 124.509 182.582 112.109 191.536 101.011Z" stroke="#FFFDF9" stroke-width="1.19" stroke-miterlimit="10"/>
<path d="M191.517 101.01C182.563 112.128 174.983 124.508 165.028 134.798C172.313 122.379 182.386 111.99 191.517 101.01Z" stroke="#FFFDF9" stroke-width="1.19" stroke-miterlimit="10"/>
<path d="M191.517 101.011C192.184 100.183 192.813 99.3743 193.5 98.5266C192.852 99.3151 192.204 100.183 191.517 101.011Z" stroke="#FFFDF9" stroke-width="1.19" stroke-miterlimit="10"/>
<path d="M164.046 135.313C164.733 135.412 163.869 136.851 163.555 136.811C162.868 136.713 163.732 135.274 164.046 135.313Z" stroke="#FFFDF9" stroke-width="1.19" stroke-miterlimit="10"/>
<path d="M141.524 166.124C141.524 166.124 141.484 165.454 141.524 165.138C143.094 164.093 142.682 165.828 141.524 166.124Z" stroke="#FFFDF9" stroke-width="1.19" stroke-miterlimit="10"/>
<path d="M64.0594 151.2C65.7678 150.963 65.7678 151.554 66.7888 152.442C71.9138 156.897 99.7184 190.449 101.446 195.673C101.898 197.053 102.232 198.985 101.702 200.385C100.307 194.589 95.4181 187.393 91.5498 182.741C90.4895 181.46 90.1753 182.899 89.8218 182.485C84.0096 175.625 76.4301 166.142 69.5182 160.623C67.5154 159.026 60.1911 157.173 60.8588 153.92C60.9373 153.585 63.6274 151.239 64.0791 151.18L64.0594 151.2Z" stroke="#FFFDF9" stroke-width="1.19" stroke-miterlimit="10"/>
<path d="M85.0897 175.054L61.821 153.941C62.5279 153.133 63.9025 151.97 65.0413 152.206C66.5337 152.502 82.3996 172.55 85.0897 175.074V175.054Z" stroke="#FFFDF9" stroke-width="1.19" stroke-miterlimit="10"/>
<path d="M87.0727 177.537C86.4444 176.807 84.9324 176.433 85.0895 175.053C86.4247 175.329 86.6407 176.926 87.0727 177.537Z" stroke="#FFFDF9" stroke-width="1.19" stroke-miterlimit="10"/>
<path d="M87.073 177.538C87.4264 177.952 89.1348 178.484 88.3101 179.529C87.3479 179.154 87.289 177.853 87.073 177.538Z" stroke="#FFFDF9" stroke-width="1.19" stroke-miterlimit="10"/>
<path d="M213.784 78.1626C214.294 77.6697 214.765 76.6643 215.276 76.1715C215.649 76.1715 216.219 76.0729 216.258 76.4278C215.453 77.098 215.06 78.1626 213.784 78.1626Z" stroke="#FFFDF9" stroke-width="1.19" stroke-miterlimit="10"/>
</svg>
